<?xml version="1.0" standalone="no"?><!DOCTYPE svg PUBLIC "-//W3C//DTD SVG 1.1//EN" "http://www.w3.org/Graphics/SVG/1.1/DTD/svg11.dtd"><svg height="1025" node-id="1" sillyvg="true" template-height="1025" template-width="1024" version="1.1" viewBox="0 0 1024 1025" width="1024" xmlns="http://www.w3.org/2000/svg" xmlns:xlink="http://www.w3.org/1999/xlink"><defs node-id="32"></defs><path d="M 0.00 0.00 L 1024.00 0.00 L 1024.00 1024.00 L 0.00 1024.00 Z" fill="#fff7eb" fill-rule="nonzero" node-id="34" stroke="none" target-height="1024" target-width="1024" target-x="0" target-y="0"></path><path d="M 426.40 758.30 L 412.60 578.50 L 614.30 578.50 L 614.30 758.30 L 615.50 768.20 L 616.50 773.20 L 618.00 777.90 L 619.90 782.70 L 622.40 787.30 L 627.10 793.80 L 630.10 797.00 L 637.30 802.90 L 641.50 805.60 L 652.10 810.90 L 664.00 815.20 L 679.60 819.10 L 690.40 821.10 L 703.10 822.80 L 717.90 824.10 L 717.10 835.80 L 717.70 871.70 L 717.30 881.90 L 716.70 888.70 L 715.70 895.40 L 714.20 902.10 L 710.90 911.90 L 708.80 916.70 L 706.20 921.40 L 703.30 925.90 L 699.80 930.30 L 695.90 934.70 L 691.20 939.00 L 686.40 942.90 L 680.90 946.70 L 674.50 950.40 L 667.30 954.10 L 660.10 957.20 L 651.90 960.20 L 642.70 963.00 L 632.30 965.80 L 622.20 968.00 L 610.90 970.00 L 598.20 971.80 L 584.20 973.40 L 555.60 975.30 L 520.90 976.00 L 502.70 975.70 L 486.10 975.00 L 471.00 973.90 L 457.20 972.50 L 443.00 970.60 L 430.10 968.40 L 418.40 966.00 L 408.00 963.30 L 397.20 960.00 L 387.60 956.60 L 379.00 953.00 L 371.40 949.30 L 363.70 945.10 L 356.90 940.70 L 350.80 936.30 L 345.50 931.80 L 340.40 926.80 L 335.90 921.80 L 332.00 916.80 L 328.60 911.70 L 322.90 901.00 L 318.80 890.20 L 316.80 882.80 L 315.30 875.60 L 314.20 868.40 L 313.30 857.60 L 313.00 847.40 L 313.50 819.50 L 313.30 812.00 L 332.50 812.00 L 341.40 811.40 L 358.40 809.10 L 366.30 807.40 L 373.70 805.40 L 380.60 803.20 L 387.50 800.50 L 393.80 797.70 L 399.40 794.60 L 404.50 791.40 L 409.40 787.70 L 413.60 783.90 L 417.10 780.00 L 420.10 776.10 L 422.70 771.70 L 424.60 767.30 L 425.80 762.90 L 426.40 758.30 Z" fill="#f6b88a" fill-rule="evenodd" node-id="36" stroke="none" target-height="397.5" target-width="404.90002" target-x="313" target-y="578.5"></path><path d="M 483.50 840.60 L 422.80 820.60" fill="none" node-id="38" stroke="#ea9e66" stroke-linecap="round" stroke-width="7.06207" target-height="20" target-width="60.700012" target-x="422.8" target-y="820.6"></path><path d="M 562.30 840.60 L 623.10 820.60" fill="none" node-id="40" stroke="#ea9e66" stroke-linecap="round" stroke-width="7.06207" target-height="20" target-width="60.799988" target-x="562.3" target-y="820.6"></path><path d="M 614.30 634.10 L 606.60 641.30 L 592.90 652.60 L 583.40 659.60 L 569.20 669.10 L 552.20 678.90 L 542.90 683.60 L 532.90 688.20 L 522.60 692.50 L 511.80 696.40 L 500.20 699.90 L 482.50 704.30 L 473.20 705.90 L 463.50 707.30 L 453.80 708.20 L 443.90 708.60 L 433.60 708.60 L 423.00 708.20 L 420.30 670.70 L 412.60 580.20 L 614.30 580.20 L 614.30 634.10 Z" fill="#ea9e66" fill-rule="evenodd" node-id="42" stroke="none" target-height="128.39996" target-width="201.69998" target-x="412.6" target-y="580.2"></path><path d="M 369.50 458.90 L 361.40 452.50 L 357.50 450.10 L 349.60 446.30 L 342.60 444.60 L 339.00 444.30 L 335.40 444.60 L 331.70 445.40 L 329.10 446.30 L 323.80 449.60 L 321.20 452.10 L 318.20 456.40 L 317.00 459.10 L 316.00 462.40 L 315.20 466.90 L 314.80 471.90 L 314.80 477.60 L 315.30 483.30 L 316.30 489.30 L 317.80 495.80 L 319.70 502.10 L 322.10 508.60 L 325.10 515.20 L 331.70 525.30 L 335.60 530.30 L 339.90 535.10 L 344.60 539.60 L 349.70 543.80 L 352.00 545.20 L 356.90 547.10 L 360.70 547.80 L 364.70 548.00 L 382.80 547.00 L 369.50 458.90 Z" fill="#f6b88a" fill-rule="evenodd" node-id="44" stroke="none" target-height="103.70001" target-width="68" target-x="314.8" target-y="444.3"></path><path d="M 661.90 458.90 L 670.00 452.50 L 674.00 450.10 L 681.90 446.30 L 688.90 444.60 L 692.50 444.30 L 696.10 444.60 L 699.80 445.40 L 702.40 446.30 L 707.60 449.60 L 710.30 452.10 L 713.30 456.40 L 714.50 459.10 L 715.40 462.40 L 716.30 466.90 L 716.70 471.90 L 716.60 477.60 L 716.10 483.30 L 715.10 489.30 L 713.70 495.80 L 711.80 502.10 L 709.30 508.60 L 706.40 515.20 L 699.80 525.30 L 695.90 530.30 L 691.60 535.10 L 686.90 539.60 L 681.80 543.80 L 679.40 545.20 L 674.60 547.10 L 670.80 547.80 L 666.70 548.00 L 648.70 547.00 L 661.90 458.90 Z" fill="#f6b88a" fill-rule="evenodd" node-id="46" stroke="none" target-height="103.70001" target-width="68" target-x="648.7" target-y="444.3"></path><path d="M 511.40 208.70 L 501.40 209.00 L 491.90 209.70 L 482.80 210.80 L 474.20 212.40 L 466.00 214.40 L 458.20 216.70 L 450.30 219.60 L 442.80 222.80 L 435.60 226.40 L 428.80 230.30 L 422.30 234.60 L 416.20 239.20 L 409.10 245.30 L 402.50 251.80 L 396.20 258.70 L 390.40 266.10 L 385.00 274.10 L 380.20 282.20 L 375.70 290.80 L 371.60 299.80 L 367.80 309.30 L 364.50 319.20 L 361.70 329.10 L 359.30 339.30 L 357.20 349.90 L 355.50 360.90 L 354.30 372.30 L 353.30 386.40 L 353.00 400.90 L 353.20 415.90 L 357.60 487.00 L 358.90 501.70 L 361.00 517.40 L 364.20 535.60 L 369.00 558.00 L 371.60 565.80 L 374.10 571.40 L 380.20 582.80 L 388.70 596.20 L 399.30 610.40 L 405.10 617.50 L 418.30 631.60 L 425.40 638.40 L 432.90 644.80 L 440.80 650.90 L 447.00 655.20 L 459.70 662.80 L 466.30 666.10 L 472.00 668.40 L 477.70 670.10 L 489.00 672.20 L 500.80 673.10 L 535.70 673.40 L 543.90 673.10 L 551.80 672.20 L 557.00 671.30 L 562.00 669.80 L 566.90 667.90 L 579.40 661.20 L 591.20 653.00 L 598.70 646.90 L 605.80 640.40 L 612.50 633.60 L 625.00 619.30 L 630.50 612.10 L 640.40 597.50 L 644.50 590.70 L 650.10 580.50 L 654.20 571.90 L 656.60 566.20 L 659.20 558.00 L 663.90 536.00 L 667.40 518.00 L 669.90 502.40 L 671.80 487.50 L 673.40 471.80 L 677.40 419.00 L 677.70 407.00 L 677.30 383.70 L 676.50 372.50 L 675.20 361.20 L 673.60 350.20 L 671.50 339.60 L 669.10 329.40 L 666.30 319.50 L 663.00 309.50 L 659.20 300.10 L 655.10 291.10 L 650.60 282.50 L 645.70 274.30 L 640.30 266.40 L 634.50 258.90 L 628.30 251.90 L 621.70 245.40 L 614.60 239.40 L 608.40 234.70 L 601.90 230.40 L 595.10 226.50 L 587.90 222.90 L 580.40 219.60 L 572.50 216.70 L 564.70 214.40 L 556.50 212.40 L 547.90 210.80 L 538.80 209.70 L 529.30 209.00 L 511.40 208.70 Z" fill="#ffcca6" fill-rule="evenodd" node-id="48" stroke="none" target-height="464.7" target-width="324.7" target-x="353" target-y="208.7"></path><path d="M 552.20 409.60 L 550.50 409.30 L 549.10 408.40 L 548.10 407.00 L 547.60 405.30 L 548.00 403.00 L 549.60 401.20 L 550.60 400.60 L 612.20 395.50 L 614.00 395.70 L 627.40 400.30 L 629.40 401.60 L 630.40 403.80 L 630.20 406.20 L 628.90 408.20 L 626.80 409.20 L 624.40 409.00 L 612.00 404.80 L 552.20 409.60 Z" fill="#654840" fill-rule="evenodd" node-id="50" stroke="none" target-height="14.100006" target-width="82.80005" target-x="547.6" target-y="395.5"></path><path d="M 472.30 409.60 L 474.00 409.30 L 475.40 408.40 L 476.40 407.00 L 476.90 405.30 L 476.40 403.00 L 474.90 401.20 L 473.90 400.60 L 412.30 395.50 L 410.40 395.70 L 397.10 400.30 L 395.10 401.60 L 394.10 403.80 L 394.20 406.20 L 395.60 408.20 L 397.70 409.20 L 400.10 409.00 L 412.50 404.80 L 472.30 409.60 Z" fill="#654840" fill-rule="evenodd" node-id="52" stroke="none" target-height="14.100006" target-width="82.79999" target-x="394.1" target-y="395.5"></path><path d="M 650.10 414.10 L 660.90 428.80 L 672.00 479.10 L 674.80 466.10 L 677.30 451.00 L 681.10 421.40 L 682.50 404.40 L 682.30 392.80 L 681.50 381.50 L 680.10 370.70 L 678.30 360.30 L 676.00 350.20 L 673.10 340.20 L 669.70 330.60 L 665.80 321.50 L 661.50 312.70 L 656.60 304.40 L 652.10 297.70 L 647.30 291.40 L 642.10 285.30 L 636.50 279.60 L 630.60 274.20 L 624.40 269.10 L 617.90 264.50 L 611.00 260.20 L 603.70 256.20 L 596.10 252.60 L 588.00 249.30 L 579.40 246.40 L 571.00 244.00 L 562.10 242.10 L 552.80 240.50 L 543.00 239.30 L 532.70 238.60 L 521.80 238.30 L 509.10 238.60 L 497.20 239.30 L 486.00 240.40 L 475.40 241.90 L 465.50 243.80 L 456.20 246.00 L 446.50 248.90 L 437.50 252.10 L 429.00 255.60 L 421.10 259.40 L 413.70 263.60 L 406.80 268.00 L 400.00 273.10 L 393.60 278.40 L 387.70 284.00 L 382.30 290.00 L 377.20 296.20 L 372.60 302.80 L 368.40 309.70 L 364.50 316.80 L 361.00 324.30 L 357.90 332.10 L 355.10 340.20 L 352.70 348.80 L 350.50 358.90 L 348.70 369.50 L 347.40 380.60 L 346.60 392.20 L 346.30 404.30 L 347.00 420.10 L 349.30 438.50 L 351.10 448.30 L 355.10 465.00 L 359.90 480.20 L 366.30 428.80 L 374.90 416.00 L 376.20 413.70 L 376.60 411.30 L 376.90 406.40 L 377.00 376.30 L 377.50 357.50 L 379.00 339.00 L 379.90 333.00 L 382.10 322.60 L 392.20 319.20 L 400.40 316.80 L 420.60 312.10 L 436.80 309.50 L 446.00 308.40 L 455.20 307.70 L 464.80 307.30 L 474.80 307.40 L 484.80 307.90 L 494.90 309.00 L 505.30 310.70 L 512.90 312.40 L 520.50 314.50 L 528.10 317.10 L 535.70 320.10 L 543.20 316.60 L 549.40 314.30 L 559.00 311.70 L 565.10 310.50 L 571.30 309.60 L 578.10 309.10 L 585.70 308.90 L 593.30 309.20 L 601.40 310.20 L 610.20 311.80 L 616.60 313.40 L 623.30 315.50 L 630.30 318.10 L 637.60 321.30 L 640.90 336.40 L 643.70 353.50 L 647.80 387.50 L 650.10 414.10 Z" fill="#805c53" fill-rule="evenodd" node-id="54" stroke="none" target-height="241.90001" target-width="336.2" target-x="346.3" target-y="238.3"></path><path d="M 348.00 424.40 L 343.80 409.00 L 339.80 392.50 L 335.70 372.70 L 332.40 351.60 L 331.30 341.00 L 330.80 331.00 L 331.00 318.40 L 331.60 312.90 L 332.40 309.20 L 333.80 305.10 L 335.70 300.40 L 339.20 293.40 L 343.80 285.80 L 348.80 278.20 L 360.20 262.80 L 366.20 255.50 L 377.80 242.40 L 387.80 232.30 L 399.60 221.60 L 411.30 212.10 L 417.50 207.60 L 431.50 199.00 L 439.70 194.50 L 458.80 185.40 L 465.80 182.60 L 472.40 180.40 L 478.60 178.80 L 484.50 177.80 L 496.20 176.90 L 506.70 177.60 L 513.40 178.80 L 519.60 180.40 L 525.30 182.40 L 530.80 184.90 L 540.10 190.20 L 546.20 194.60 L 555.00 202.40 L 559.80 207.90 L 564.50 205.20 L 568.50 203.50 L 572.90 202.10 L 578.70 200.90 L 587.20 200.40 L 592.30 200.70 L 597.30 201.40 L 602.90 202.70 L 609.00 204.70 L 614.90 207.10 L 621.30 210.50 L 628.30 214.80 L 638.40 222.50 L 644.00 227.40 L 655.30 238.80 L 661.00 245.40 L 673.30 261.40 L 685.20 279.20 L 698.20 301.60 L 699.60 304.60 L 700.80 308.20 L 701.60 312.20 L 702.20 317.00 L 702.40 323.20 L 702.20 330.30 L 701.50 338.40 L 698.90 355.30 L 693.60 379.50 L 689.50 395.60 L 679.80 429.40 L 673.90 424.40 L 669.20 419.70 L 664.30 414.00 L 658.10 406.10 L 654.10 400.40 L 645.00 385.50 L 640.70 377.30 L 636.10 367.80 L 628.40 350.30 L 625.50 344.50 L 622.50 339.60 L 616.30 331.20 L 609.90 325.00 L 603.30 320.60 L 596.50 317.90 L 593.20 317.10 L 588.70 316.60 L 584.30 316.60 L 579.90 317.10 L 575.60 318.00 L 567.50 320.90 L 561.70 323.70 L 551.80 330.00 L 547.90 333.00 L 540.20 340.10 L 525.80 333.90 L 510.50 328.50 L 501.70 326.00 L 485.50 322.30 L 472.30 320.70 L 465.70 320.40 L 459.30 320.60 L 453.00 321.30 L 448.40 322.20 L 444.00 323.40 L 439.90 325.00 L 435.90 326.90 L 421.90 335.60 L 416.80 339.30 L 408.00 347.10 L 402.10 354.10 L 398.20 360.80 L 396.00 365.70 L 389.90 385.00 L 387.60 390.00 L 383.40 396.70 L 377.20 403.90 L 367.90 411.80 L 356.00 419.80 L 348.00 424.40 Z" fill="#3e2a25" fill-rule="evenodd" node-id="56" stroke="none" target-height="252.5" target-width="371.60004" target-x="330.8" target-y="176.9"></path><path d="M 425.30 291.60 L 418.70 297.90 L 413.50 303.60 L 410.50 307.50 L 407.80 311.40 L 403.60 319.50 L 400.40 329.00 L 398.50 336.70 L 396.80 346.20 L 394.00 369.00 L 397.80 361.90 L 401.80 355.70 L 406.00 350.10 L 410.20 345.20 L 414.60 340.90 L 419.40 336.90 L 424.40 333.40 L 429.50 330.50 L 434.80 328.00 L 440.20 326.00 L 445.80 324.40 L 451.60 323.20 L 457.60 322.50 L 463.80 322.10 L 470.20 322.10 L 478.10 322.70 L 486.30 323.70 L 494.80 325.30 L 503.60 327.40 L 515.20 330.80 L 527.20 334.90 L 539.60 339.90 L 533.00 328.40 L 529.50 323.10 L 520.00 310.80 L 514.20 304.40 L 505.60 296.30 L 500.80 292.50 L 495.80 289.10 L 490.50 286.00 L 485.00 283.40 L 476.30 280.40 L 471.70 279.50 L 467.00 278.90 L 462.30 278.70 L 457.40 279.00 L 452.30 279.70 L 447.00 281.00 L 441.90 282.60 L 436.70 284.90 L 431.10 287.90 L 425.30 291.60 Z" fill="#221410" fill-rule="evenodd" node-id="58" stroke="none" target-height="90.29999" target-width="145.59998" target-x="394" target-y="278.7"></path><path d="M 635.00 362.80 L 630.90 351.60 L 625.90 340.50 L 622.70 334.50 L 616.20 324.30 L 610.20 316.90 L 606.80 313.60 L 603.20 310.70 L 596.60 306.80 L 590.40 304.80 L 587.10 304.30 L 583.80 304.30 L 580.40 304.70 L 576.80 305.60 L 572.90 307.00 L 569.40 308.80 L 565.60 311.20 L 561.50 314.30 L 553.20 322.20 L 544.50 332.90 L 539.60 339.90 L 545.70 337.00 L 551.40 334.70 L 556.90 333.10 L 562.20 332.00 L 567.60 331.30 L 577.70 331.10 L 582.50 331.70 L 588.80 332.90 L 594.70 334.60 L 600.10 336.70 L 605.50 339.20 L 614.70 344.60 L 620.80 349.10 L 625.70 353.20 L 629.90 357.20 L 635.00 362.80 Z" fill="#221410" fill-rule="evenodd" node-id="60" stroke="none" target-height="58.5" target-width="95.400024" target-x="539.6" target-y="304.3"></path><path d="M 535.90 429.30 L 534.30 434.30 L 535.90 429.30 L 537.20 429.90 L 538.20 430.70 L 539.50 433.10 L 539.40 435.90 L 538.80 437.20 L 537.90 438.20 L 535.60 439.50 L 534.30 439.60 L 531.00 439.20 L 529.30 439.50 L 527.80 440.30 L 526.30 442.40 L 525.60 444.30 L 525.10 447.50 L 525.00 451.20 L 525.30 456.50 L 526.20 462.30 L 531.00 482.90 L 533.00 494.00 L 533.80 503.60 L 533.50 508.00 L 532.70 511.80 L 531.80 514.30 L 530.40 516.60 L 528.60 518.80 L 526.50 520.50 L 524.00 521.70 L 521.30 522.60 L 515.60 523.10 L 507.20 522.10 L 501.40 520.70 L 499.00 519.30 L 497.70 516.90 L 497.50 515.60 L 497.70 514.10 L 499.10 511.80 L 501.50 510.40 L 502.80 510.30 L 513.40 512.40 L 516.80 512.50 L 519.00 512.30 L 520.50 511.70 L 521.90 510.40 L 523.00 506.70 L 523.10 500.10 L 522.50 495.50 L 520.70 485.70 L 515.90 464.40 L 514.80 457.70 L 514.40 453.40 L 514.50 446.50 L 515.20 442.50 L 516.20 439.20 L 517.40 436.50 L 519.00 434.20 L 520.80 432.30 L 524.40 430.00 L 528.70 428.80 L 530.90 428.60 L 535.90 429.30 Z" fill="#dd936f" fill-rule="evenodd" node-id="62" stroke="none" target-height="94.49997" target-width="42" target-x="497.5" target-y="428.6"></path><path d="M 439.00 478.50 L 441.60 478.30 L 446.20 476.80 L 448.40 475.60 L 450.90 473.40 L 453.10 470.80 L 455.00 467.60 L 456.40 464.00 L 457.20 460.10 L 457.50 455.50 L 457.20 450.90 L 456.40 447.00 L 455.00 443.40 L 453.10 440.20 L 450.90 437.60 L 448.40 435.50 L 446.20 434.20 L 441.60 432.80 L 439.00 432.60 L 436.50 432.80 L 431.80 434.20 L 429.60 435.50 L 427.10 437.60 L 424.90 440.20 L 423.00 443.40 L 421.70 447.00 L 420.80 450.90 L 420.50 455.50 L 420.80 460.10 L 421.70 464.00 L 423.00 467.60 L 424.90 470.80 L 427.10 473.40 L 429.60 475.60 L 431.80 476.80 L 436.50 478.30 L 439.00 478.50 Z" fill="#3e2a25" fill-rule="evenodd" node-id="64" stroke="none" target-height="45.899994" target-width="37" target-x="420.5" target-y="432.6"></path><path d="M 583.80 478.50 L 586.30 478.30 L 591.00 476.80 L 593.10 475.60 L 595.70 473.40 L 597.90 470.80 L 599.80 467.60 L 601.10 464.00 L 602.00 460.10 L 602.30 455.50 L 602.00 450.90 L 601.10 447.00 L 599.80 443.40 L 597.90 440.20 L 595.70 437.60 L 593.10 435.50 L 591.00 434.20 L 586.30 432.80 L 583.80 432.60 L 578.80 433.30 L 574.40 435.50 L 571.90 437.60 L 569.70 440.20 L 567.80 443.40 L 566.40 447.00 L 565.60 450.90 L 565.20 455.50 L 565.60 460.10 L 566.40 464.00 L 567.80 467.60 L 569.70 470.80 L 571.90 473.40 L 574.40 475.60 L 576.60 476.80 L 581.20 478.30 L 583.80 478.50 Z" fill="#3e2a25" fill-rule="evenodd" node-id="66" stroke="none" target-height="45.899994" target-width="37.099976" target-x="565.2" target-y="432.6"></path><g node-id="94"><path d="M 445.80 524.20 L 445.50 528.80 L 444.60 533.20 L 443.20 537.40 L 441.20 541.40 L 438.70 545.20 L 435.70 548.60 L 432.30 551.60 L 428.50 554.10 L 424.50 556.10 L 420.30 557.50 L 415.90 558.40 L 411.30 558.70 L 406.80 558.40 L 402.40 557.50 L 398.20 556.10 L 394.20 554.10 L 390.40 551.60 L 387.00 548.60 L 384.00 545.20 L 381.50 541.40 L 379.50 537.40 L 378.10 533.20 L 377.20 528.80 L 376.90 524.20 L 377.20 519.70 L 378.10 515.30 L 379.50 511.10 L 381.50 507.10 L 384.00 503.30 L 387.00 499.90 L 390.40 496.90 L 394.20 494.40 L 398.20 492.40 L 402.40 491.00 L 406.80 490.10 L 411.30 489.80 L 415.90 490.10 L 420.30 491.00 L 424.50 492.40 L 428.50 494.40 L 432.30 496.90 L 435.70 499.90 L 438.70 503.30 L 441.20 507.10 L 443.20 511.10 L 444.60 515.30 L 445.50 519.70 L 445.80 524.20 Z" fill="#ffd2b9" fill-opacity="0.604969" fill-rule="nonzero" group-id="1" node-id="70" stroke="none" target-height="68.900024" target-width="68.899994" target-x="376.9" target-y="489.8"></path></g><g node-id="95"><path d="M 654.10 524.20 L 653.80 528.80 L 652.90 533.20 L 651.50 537.40 L 649.50 541.40 L 647.00 545.20 L 644.00 548.60 L 640.60 551.60 L 636.90 554.10 L 632.90 556.10 L 628.60 557.50 L 624.20 558.40 L 619.70 558.70 L 615.10 558.40 L 610.70 557.50 L 606.50 556.10 L 602.50 554.10 L 598.80 551.60 L 595.30 548.60 L 592.30 545.20 L 589.90 541.40 L 587.90 537.40 L 586.40 533.20 L 585.60 528.80 L 585.30 524.20 L 585.60 519.70 L 586.40 515.30 L 587.90 511.10 L 589.90 507.10 L 592.30 503.30 L 595.30 499.90 L 598.80 496.90 L 602.50 494.40 L 606.50 492.40 L 610.70 491.00 L 615.10 490.10 L 619.70 489.80 L 624.20 490.10 L 628.60 491.00 L 632.90 492.40 L 636.90 494.40 L 640.60 496.90 L 644.00 499.90 L 647.00 503.30 L 649.50 507.10 L 651.50 511.10 L 652.90 515.30 L 653.80 519.70 L 654.10 524.20 Z" fill="#ffd2b9" fill-opacity="0.604969" fill-rule="nonzero" group-id="2" node-id="75" stroke="none" target-height="68.900024" target-width="68.79999" target-x="585.3" target-y="489.8"></path></g><path d="M 470.80 568.50 L 498.30 567.00 L 514.00 566.70 L 540.30 567.70 L 562.60 569.40 L 558.50 572.90 L 555.10 575.30 L 551.10 577.70 L 542.10 581.80 L 533.00 584.40 L 528.10 585.30 L 516.70 586.20 L 510.70 585.90 L 505.30 585.30 L 500.40 584.30 L 491.30 581.50 L 482.30 577.20 L 478.30 574.70 L 474.80 572.20 L 470.80 568.50 Z" fill="#ffffff" fill-rule="evenodd" node-id="78" stroke="none" target-height="19.5" target-width="91.79999" target-x="470.8" target-y="566.7"></path><path d="M 470.80 568.50 L 466.90 572.00 L 470.30 575.30 L 474.30 578.40 L 479.90 581.90 L 484.20 584.20 L 489.60 586.50 L 495.30 588.40 L 501.90 590.00 L 511.30 591.30 L 516.70 591.40 L 522.00 591.30 L 531.50 590.10 L 538.10 588.60 L 543.70 586.80 L 549.00 584.60 L 553.40 582.40 L 558.90 579.10 L 563.00 576.10 L 566.40 573.00 L 562.60 569.40 L 566.40 573.00 L 567.30 571.80 L 567.80 570.40 L 567.90 569.00 L 567.60 567.50 L 566.80 566.20 L 565.80 565.20 L 564.60 564.50 L 563.10 564.10 L 562.60 569.40 L 563.10 564.10 L 536.30 562.10 L 514.00 561.40 L 498.20 561.70 L 470.40 563.20 L 470.80 568.50 Z M 485.40 572.90 L 493.60 576.70 L 498.40 578.30 L 507.90 580.30 L 516.70 580.90 L 523.30 580.60 L 529.20 579.80 L 534.70 578.50 L 539.50 577.00 L 547.70 573.50 L 524.80 572.20 L 514.00 572.00 L 485.40 572.90 Z M 470.80 568.50 L 470.40 563.20 L 468.90 563.50 L 467.60 564.20 L 466.60 565.20 L 465.90 566.50 L 465.50 568.00 L 466.00 570.80 L 466.90 572.00 L 470.80 568.50 Z" fill="#c14e45" fill-rule="evenodd" node-id="80" stroke="none" target-height="30" target-width="102.400024" target-x="465.5" target-y="561.4"></path><path d="M 367.50 423.80 L 367.80 421.90 L 368.50 420.20 L 369.60 418.80 L 371.00 417.60 L 372.70 416.90 L 374.60 416.70 L 494.60 416.70 L 496.50 416.90 L 498.20 417.60 L 499.60 418.80 L 500.70 420.20 L 501.40 421.90 L 501.70 423.80 L 501.70 450.20 L 501.40 455.80 L 500.80 461.20 L 499.70 466.40 L 498.30 471.40 L 496.40 476.40 L 494.20 481.10 L 491.60 485.50 L 488.70 489.80 L 485.50 493.90 L 478.30 501.10 L 469.90 507.20 L 465.40 509.80 L 460.70 512.00 L 455.80 513.90 L 450.70 515.30 L 445.50 516.40 L 440.20 517.10 L 434.60 517.30 L 429.00 517.10 L 423.60 516.40 L 418.40 515.30 L 413.40 513.90 L 408.40 512.00 L 403.70 509.80 L 399.30 507.20 L 390.90 501.10 L 383.70 493.90 L 380.40 489.80 L 377.60 485.50 L 375.00 481.10 L 372.80 476.40 L 370.90 471.40 L 369.50 466.40 L 368.40 461.20 L 367.70 455.80 L 367.50 450.20 L 367.50 423.80 Z M 374.60 423.80 L 374.80 455.20 L 375.40 460.00 L 377.60 469.20 L 381.30 477.80 L 386.10 485.70 L 390.00 490.40 L 394.40 494.80 L 399.10 498.70 L 403.00 501.20 L 411.20 505.50 L 415.60 507.20 L 424.80 509.40 L 434.60 510.20 L 444.40 509.40 L 453.60 507.20 L 458.00 505.50 L 466.20 501.20 L 470.00 498.70 L 474.80 494.80 L 479.10 490.40 L 483.00 485.70 L 487.90 477.80 L 489.90 473.60 L 492.90 464.70 L 493.80 460.00 L 494.60 450.20 L 494.60 423.70 L 374.60 423.80 Z" fill="#697a8d" fill-rule="evenodd" node-id="82" stroke="none" target-height="100.599976" target-width="134.20001" target-x="367.5" target-y="416.7"></path><path d="M 526.40 423.80 L 526.70 421.90 L 527.40 420.20 L 528.50 418.80 L 529.90 417.60 L 531.60 416.90 L 533.50 416.70 L 653.50 416.70 L 655.40 416.90 L 657.00 417.60 L 658.50 418.80 L 659.60 420.20 L 660.30 421.90 L 660.60 423.80 L 660.60 450.20 L 660.30 455.80 L 659.70 461.20 L 658.60 466.40 L 657.20 471.40 L 655.30 476.40 L 653.10 481.10 L 650.50 485.50 L 647.60 489.80 L 644.40 493.90 L 637.20 501.10 L 628.80 507.20 L 624.30 509.80 L 619.60 512.00 L 614.70 513.90 L 609.60 515.30 L 604.40 516.40 L 599.10 517.10 L 593.50 517.30 L 587.90 517.10 L 582.50 516.40 L 577.30 515.30 L 572.30 513.90 L 562.60 509.80 L 558.10 507.20 L 549.80 501.10 L 542.60 493.90 L 539.30 489.80 L 536.40 485.50 L 533.90 481.10 L 531.70 476.40 L 529.80 471.40 L 528.40 466.40 L 527.30 461.20 L 526.60 455.80 L 526.40 450.20 L 526.40 423.80 Z M 533.50 423.80 L 533.70 455.20 L 534.30 460.00 L 536.50 469.20 L 540.20 477.80 L 545.00 485.70 L 548.90 490.40 L 553.30 494.80 L 558.00 498.70 L 561.90 501.20 L 570.10 505.50 L 574.50 507.20 L 583.70 509.40 L 593.50 510.20 L 603.30 509.40 L 612.50 507.20 L 616.90 505.50 L 625.10 501.20 L 628.90 498.70 L 633.70 494.80 L 638.00 490.40 L 641.90 485.70 L 646.80 477.80 L 648.80 473.60 L 651.80 464.70 L 652.70 460.00 L 653.50 450.20 L 653.50 423.70 L 533.50 423.80 Z" fill="#697a8d" fill-rule="evenodd" node-id="84" stroke="none" target-height="100.599976" target-width="134.19995" target-x="526.4" target-y="416.7"></path><path d="M 499.30 461.50 L 497.00 454.80 L 503.30 453.00 L 509.10 451.70 L 514.90 451.10 L 520.60 451.70 L 525.70 453.00 L 531.20 454.90 L 528.60 461.40 L 523.70 459.80 L 519.20 458.60 L 514.90 458.20 L 510.30 458.60 L 499.30 461.50 Z" fill="#697a8d" fill-rule="evenodd" node-id="86" stroke="none" target-height="10.399994" target-width="34.200012" target-x="497" target-y="451.1"></path><path d="M 612.10 786.20 L 627.90 769.20 L 631.70 772.20 L 636.50 775.30 L 642.60 778.60 L 655.90 784.50 L 676.00 791.60 L 689.40 795.50 L 703.10 799.20 L 731.30 805.70 L 758.50 810.90 L 770.80 812.80 L 799.90 816.30 L 807.80 817.60 L 824.60 821.40 L 833.20 824.00 L 842.00 827.10 L 850.70 830.60 L 859.20 834.70 L 867.70 839.30 L 879.90 847.30 L 891.20 856.60 L 896.50 861.80 L 901.40 867.30 L 906.10 873.20 L 910.40 879.50 L 914.20 886.00 L 917.60 893.00 L 920.50 900.50 L 923.00 908.50 L 941.70 1024.10 L 98.30 1024.10 L 108.00 933.20 L 109.40 922.60 L 111.20 913.00 L 113.40 904.20 L 116.00 896.10 L 119.10 888.10 L 122.60 880.70 L 126.40 874.00 L 130.40 867.80 L 135.00 861.90 L 139.80 856.50 L 144.90 851.40 L 150.20 846.90 L 155.80 842.60 L 167.70 835.10 L 174.00 831.80 L 182.50 827.90 L 191.40 824.50 L 200.50 821.40 L 219.10 816.20 L 242.90 811.20 L 272.80 805.70 L 346.30 797.70 L 358.60 795.40 L 370.10 792.70 L 377.70 790.70 L 390.90 785.90 L 399.70 781.40 L 406.80 776.30 L 427.30 819.20 L 439.10 841.50 L 450.60 860.00 L 460.80 873.70 L 466.30 880.20 L 472.00 886.10 L 477.90 891.40 L 482.50 895.10 L 487.30 898.40 L 492.10 901.30 L 497.10 903.70 L 502.20 905.70 L 507.50 907.10 L 512.90 908.10 L 518.50 908.50 L 522.70 908.30 L 526.80 907.50 L 530.70 906.30 L 534.60 904.60 L 541.80 900.00 L 548.80 893.60 L 553.10 888.80 L 557.30 883.40 L 561.50 877.50 L 567.30 868.10 L 572.90 858.10 L 593.30 817.20 L 602.80 799.50 L 606.00 794.30 L 612.10 786.20 Z" fill="#8fb8ff" fill-rule="nonzero" node-id="88" stroke="none" target-height="254.89996" target-width="843.4" target-x="98.3" target-y="769.2"></path><path d="M 518.20 910.90 L 501.60 911.30 L 487.30 912.30 L 471.10 914.40 L 454.30 917.70 L 448.80 919.40 L 443.70 921.40 L 439.00 923.80 L 432.10 927.90 L 411.50 942.70 L 405.50 945.90 L 401.20 946.90 L 397.40 946.40 L 396.00 945.60 L 394.60 944.30 L 393.20 942.40 L 390.50 936.00 L 389.20 931.40 L 386.70 917.30 L 385.70 907.40 L 385.00 897.30 L 384.30 876.20 L 384.70 856.40 L 385.80 839.80 L 388.40 820.50 L 390.30 810.30 L 394.80 790.80 L 397.50 781.60 L 400.30 773.90 L 402.40 768.90 L 406.30 762.00 L 408.10 759.90 L 409.70 758.50 L 411.20 757.80 L 412.60 757.50 L 413.60 757.70 L 416.00 759.80 L 420.60 767.00 L 424.30 774.40 L 442.30 814.50 L 453.90 838.20 L 460.30 850.20 L 467.20 861.70 L 472.10 869.30 L 482.30 883.00 L 487.90 889.40 L 493.50 895.00 L 499.30 900.10 L 503.90 903.50 L 508.60 906.40 L 513.40 908.90 L 518.20 910.90 Z" fill="#4e7fd3" fill-rule="evenodd" node-id="90" stroke="none" target-height="189.40002" target-width="133.90002" target-x="384.3" target-y="757.5"></path><path d="M 518.50 910.90 L 535.20 911.30 L 549.40 912.30 L 565.60 914.40 L 582.40 917.70 L 587.90 919.40 L 593.00 921.40 L 597.80 923.80 L 604.60 927.90 L 625.20 942.70 L 631.20 945.90 L 635.50 946.90 L 639.30 946.40 L 640.70 945.60 L 642.10 944.30 L 643.50 942.40 L 646.20 936.00 L 647.50 931.40 L 650.00 917.30 L 651.10 907.40 L 651.80 897.30 L 652.40 876.20 L 652.10 856.40 L 650.90 839.80 L 648.30 820.50 L 646.40 810.30 L 641.90 790.80 L 639.20 781.60 L 636.50 773.90 L 634.40 768.90 L 630.40 762.00 L 628.70 759.90 L 627.00 758.50 L 625.50 757.80 L 624.10 757.50 L 623.20 757.70 L 620.80 759.80 L 616.40 767.00 L 613.00 774.40 L 595.80 814.50 L 584.60 838.20 L 578.30 850.20 L 571.40 861.70 L 566.50 869.30 L 561.40 876.30 L 556.10 883.00 L 550.50 889.40 L 544.60 895.00 L 538.60 900.10 L 533.70 903.50 L 528.80 906.40 L 523.70 908.90 L 518.50 910.90 Z" fill="#4e7fd3" fill-rule="evenodd" node-id="92" stroke="none" target-height="189.40002" target-width="133.90002" target-x="518.5" target-y="757.5"></path></svg>