<?xml version="1.0" standalone="no"?><!DOCTYPE svg PUBLIC "-//W3C//DTD SVG 1.1//EN" "http://www.w3.org/Graphics/SVG/1.1/DTD/svg11.dtd"><svg height="1025" node-id="1" sillyvg="true" template-height="1025" template-width="1024" version="1.1" viewBox="0 0 1024 1025" width="1024" xmlns="http://www.w3.org/2000/svg" xmlns:xlink="http://www.w3.org/1999/xlink"><defs node-id="26"></defs><path d="M 0.00 0.00 L 1024.00 0.00 L 1024.00 1024.00 L 0.00 1024.00 Z" fill="#fff7eb" fill-rule="nonzero" node-id="28" stroke="none" target-height="1024" target-width="1024" target-x="0" target-y="0"></path><path d="M 665.60 241.90 L 665.30 249.10 L 664.50 256.00 L 663.10 262.70 L 661.20 269.20 L 658.80 275.60 L 655.90 281.70 L 652.60 287.40 L 648.90 293.00 L 644.80 298.20 L 640.30 303.00 L 635.40 307.50 L 630.20 311.70 L 624.70 315.40 L 618.90 318.70 L 612.80 321.60 L 606.40 324.00 L 599.90 325.90 L 593.20 327.20 L 586.30 328.10 L 579.10 328.40 L 571.90 328.10 L 565.00 327.20 L 558.30 325.90 L 551.70 324.00 L 545.40 321.60 L 539.30 318.70 L 533.50 315.40 L 528.00 311.70 L 522.80 307.50 L 517.90 303.00 L 513.40 298.20 L 509.30 293.00 L 505.50 287.40 L 502.30 281.70 L 499.40 275.60 L 497.00 269.20 L 495.10 262.70 L 493.70 256.00 L 492.90 249.10 L 492.60 241.90 L 492.90 234.70 L 493.70 227.80 L 495.10 221.00 L 497.00 214.50 L 499.40 208.20 L 502.30 202.10 L 505.50 196.30 L 509.30 190.80 L 513.40 185.60 L 517.90 180.70 L 522.80 176.20 L 528.00 172.10 L 533.50 168.30 L 539.30 165.00 L 545.40 162.20 L 551.70 159.80 L 558.30 157.90 L 565.00 156.50 L 571.90 155.70 L 579.10 155.40 L 586.30 155.70 L 593.20 156.50 L 599.90 157.90 L 606.40 159.80 L 612.80 162.20 L 618.90 165.00 L 624.70 168.30 L 630.20 172.10 L 635.40 176.20 L 640.30 180.70 L 644.80 185.60 L 648.90 190.80 L 652.60 196.30 L 655.90 202.10 L 658.80 208.20 L 661.20 214.50 L 663.10 221.00 L 664.50 227.80 L 665.30 234.70 L 665.60 241.90 Z" fill="#916b5b" fill-rule="nonzero" node-id="30" stroke="none" target-height="173" target-width="172.99997" target-x="492.6" target-y="155.4"></path><path d="M 426.10 758.30 L 412.30 578.50 L 613.80 578.50 L 613.80 758.30 L 614.90 768.00 L 617.20 777.00 L 619.00 781.20 L 621.30 785.20 L 625.70 790.70 L 631.90 796.10 L 635.40 798.30 L 644.30 802.80 L 649.80 805.00 L 657.30 807.30 L 666.20 809.60 L 676.90 811.70 L 687.60 813.30 L 700.30 814.80 L 715.00 816.00 L 714.20 827.80 L 715.10 864.90 L 714.90 875.60 L 714.40 882.70 L 713.50 889.80 L 710.80 902.10 L 706.90 912.30 L 704.50 917.40 L 701.60 922.20 L 698.30 926.90 L 694.40 931.50 L 689.90 936.20 L 685.10 940.30 L 679.70 944.40 L 673.40 948.40 L 666.30 952.30 L 659.10 955.70 L 651.00 958.90 L 641.90 962.00 L 631.50 965.00 L 621.50 967.30 L 610.20 969.50 L 597.60 971.50 L 583.60 973.10 L 570.10 974.30 L 555.10 975.20 L 538.60 975.80 L 520.50 976.00 L 502.30 975.70 L 485.70 975.00 L 470.60 973.90 L 456.80 972.50 L 442.60 970.60 L 429.70 968.30 L 418.10 965.80 L 407.60 963.10 L 396.90 959.80 L 387.30 956.40 L 378.70 952.70 L 371.00 949.00 L 363.40 944.60 L 356.60 940.20 L 350.50 935.70 L 345.20 931.20 L 340.10 926.10 L 335.70 921.10 L 331.70 916.00 L 328.40 910.80 L 322.60 900.00 L 318.50 889.10 L 316.50 881.60 L 315.00 874.30 L 313.90 867.00 L 313.00 856.10 L 312.70 845.80 L 313.20 817.70 L 313.00 810.30 L 332.20 810.30 L 341.10 809.80 L 358.10 807.60 L 373.40 804.20 L 380.30 802.10 L 387.20 799.50 L 393.40 796.80 L 399.10 793.90 L 404.10 790.80 L 409.00 787.20 L 413.20 783.50 L 416.80 779.80 L 419.80 775.90 L 422.30 771.60 L 424.20 767.30 L 425.40 762.90 L 426.10 758.30 Z" fill="#fbbfb1" fill-rule="evenodd" node-id="32" stroke="none" target-height="397.5" target-width="402.39996" target-x="312.7" target-y="578.5"></path><path d="M 613.80 632.30 L 606.20 639.50 L 592.40 650.90 L 582.90 657.90 L 568.70 667.30 L 551.70 677.10 L 542.50 681.80 L 532.40 686.50 L 522.20 690.70 L 511.40 694.60 L 499.80 698.20 L 482.10 702.50 L 472.80 704.20 L 463.10 705.50 L 453.40 706.40 L 443.50 706.90 L 433.20 706.90 L 422.70 706.40 L 420.00 668.90 L 412.30 578.50 L 613.80 578.50 L 613.80 632.30 Z" fill="#e99885" fill-rule="evenodd" node-id="34" stroke="none" target-height="128.40002" target-width="201.5" target-x="412.3" target-y="578.5"></path><path d="M 369.20 458.90 L 361.10 452.50 L 357.20 450.10 L 349.30 446.40 L 342.30 444.60 L 338.70 444.30 L 335.10 444.60 L 331.40 445.40 L 328.80 446.30 L 323.60 449.60 L 320.90 452.10 L 319.00 454.60 L 317.40 457.80 L 316.00 461.90 L 315.20 466.10 L 314.60 470.90 L 314.50 476.40 L 315.40 487.70 L 317.80 499.90 L 319.60 506.10 L 321.90 512.30 L 324.60 518.30 L 327.70 524.20 L 331.20 529.80 L 335.10 535.20 L 339.50 540.10 L 344.30 544.60 L 348.20 547.60 L 352.30 550.30 L 356.70 552.70 L 361.50 554.70 L 366.30 556.30 L 371.40 557.40 L 376.90 558.10 L 382.80 558.30 L 369.20 458.90 Z" fill="#fbbfb1" fill-rule="evenodd" node-id="36" stroke="none" target-height="114" target-width="68.29999" target-x="314.5" target-y="444.3"></path><path d="M 661.20 458.90 L 669.30 452.50 L 673.20 450.10 L 681.20 446.40 L 688.10 444.60 L 691.70 444.30 L 695.40 444.60 L 699.00 445.40 L 701.60 446.30 L 706.90 449.60 L 709.50 452.10 L 711.40 454.60 L 713.10 457.80 L 714.40 461.90 L 715.30 466.10 L 715.80 470.90 L 715.90 476.40 L 715.10 487.70 L 712.60 499.90 L 710.80 506.10 L 708.50 512.30 L 705.90 518.30 L 702.80 524.20 L 699.30 529.80 L 695.30 535.20 L 690.90 540.10 L 686.10 544.60 L 682.20 547.60 L 678.10 550.30 L 673.70 552.70 L 669.00 554.70 L 664.20 556.30 L 659.00 557.40 L 653.50 558.10 L 647.70 558.30 L 661.20 458.90 Z" fill="#fbbfb1" fill-rule="evenodd" node-id="38" stroke="none" target-height="114" target-width="68.20001" target-x="647.7" target-y="444.3"></path><path d="M 511.00 208.70 L 500.80 209.00 L 491.00 209.80 L 481.60 211.10 L 472.60 212.80 L 463.90 215.00 L 455.20 217.80 L 446.90 221.00 L 439.00 224.50 L 431.30 228.50 L 424.00 232.90 L 416.90 237.80 L 410.20 243.00 L 403.70 248.50 L 397.60 254.40 L 391.80 260.70 L 386.40 267.20 L 381.20 274.10 L 376.40 281.30 L 372.00 288.80 L 367.80 296.60 L 364.10 304.60 L 360.70 312.80 L 357.60 321.20 L 354.90 330.00 L 352.50 339.00 L 350.10 350.30 L 348.30 362.00 L 347.10 373.90 L 346.50 386.20 L 346.50 398.50 L 347.10 411.00 L 348.40 423.70 L 350.30 436.60 L 354.20 458.70 L 360.80 490.10 L 376.90 556.50 L 378.40 561.80 L 381.20 569.10 L 384.80 576.80 L 393.30 591.70 L 402.10 604.60 L 407.00 610.90 L 418.30 623.80 L 424.60 630.00 L 431.20 636.00 L 438.40 641.80 L 445.80 647.10 L 453.70 652.10 L 462.10 656.60 L 468.50 659.60 L 475.20 662.30 L 482.10 664.60 L 489.30 666.60 L 496.60 668.10 L 504.10 669.10 L 511.90 669.70 L 520.00 669.80 L 528.20 669.40 L 536.20 668.40 L 543.90 666.90 L 551.40 664.80 L 558.70 662.20 L 565.80 659.20 L 572.70 655.80 L 579.30 652.00 L 587.80 646.50 L 595.90 640.50 L 603.50 634.00 L 610.70 627.20 L 617.30 620.30 L 623.40 613.20 L 629.20 605.90 L 634.40 598.80 L 643.10 584.90 L 649.50 572.80 L 653.80 562.00 L 670.60 491.10 L 673.50 476.50 L 676.40 458.90 L 679.60 436.60 L 681.00 423.60 L 681.80 410.80 L 682.10 398.30 L 681.80 386.00 L 681.00 373.70 L 679.60 361.70 L 677.70 350.00 L 675.20 338.70 L 672.20 327.40 L 668.60 316.60 L 664.60 306.30 L 660.00 296.30 L 655.90 288.50 L 651.50 281.00 L 646.80 273.80 L 641.80 267.00 L 636.50 260.40 L 630.80 254.20 L 624.80 248.30 L 618.50 242.80 L 611.90 237.60 L 605.00 232.80 L 597.80 228.40 L 590.30 224.50 L 582.40 220.90 L 574.20 217.80 L 565.70 215.00 L 557.10 212.80 L 548.10 211.10 L 538.80 209.80 L 529.10 209.00 L 511.00 208.70 Z" fill="#ffd0c5" fill-rule="evenodd" node-id="40" stroke="none" target-height="461.09998" target-width="335.59998" target-x="346.5" target-y="208.7"></path><path d="M 612.10 796.20 L 627.90 779.20 L 631.70 782.20 L 636.50 785.30 L 642.60 788.60 L 655.90 794.50 L 676.00 801.60 L 703.10 809.20 L 717.10 812.60 L 745.00 818.50 L 770.80 822.80 L 799.80 826.30 L 807.50 827.60 L 815.50 829.30 L 823.40 831.40 L 831.40 834.00 L 839.40 837.10 L 847.30 840.60 L 855.10 844.70 L 862.70 849.30 L 868.20 853.10 L 878.80 861.80 L 883.80 866.60 L 888.50 871.70 L 893.00 877.20 L 897.20 883.10 L 901.10 889.50 L 904.60 896.00 L 907.80 903.00 L 910.60 910.50 L 913.00 918.50 L 931.70 1024.10 L 108.30 1024.10 L 119.40 932.60 L 121.10 923.00 L 123.10 914.20 L 125.40 906.10 L 128.30 898.10 L 131.40 890.70 L 134.80 884.00 L 138.50 877.80 L 142.60 871.90 L 146.90 866.40 L 151.50 861.40 L 156.30 856.90 L 166.70 848.70 L 177.90 841.80 L 185.80 837.90 L 194.00 834.50 L 202.50 831.40 L 211.20 828.70 L 229.20 824.10 L 243.00 821.20 L 272.80 815.70 L 346.30 807.70 L 358.60 805.40 L 370.10 802.70 L 377.70 800.70 L 390.90 795.90 L 399.70 791.40 L 406.80 786.30 L 410.00 791.90 L 413.90 797.70 L 418.40 803.70 L 423.40 809.30 L 429.00 814.90 L 435.30 820.50 L 440.20 824.30 L 451.20 831.50 L 457.40 834.90 L 463.70 837.80 L 470.30 840.50 L 477.40 842.90 L 485.00 845.00 L 492.60 846.70 L 500.60 847.90 L 509.10 848.80 L 518.20 849.20 L 531.40 848.60 L 543.00 846.70 L 550.40 844.60 L 557.30 842.00 L 563.70 838.90 L 569.80 835.40 L 575.70 831.40 L 581.30 827.10 L 589.30 820.10 L 597.10 812.50 L 612.10 796.20 Z" fill="#ff7fae" fill-rule="nonzero" node-id="42" stroke="none" target-height="244.89996" target-width="823.4" target-x="108.3" target-y="779.2"></path><path d="M 631.70 407.20 L 610.20 403.60 L 593.60 401.90 L 575.90 401.30 L 567.40 401.70 L 561.90 402.30 L 552.30 404.30 L 549.80 405.80 L 548.20 407.30 L 547.30 408.80 L 546.90 410.50 L 546.90 412.00 L 547.50 413.60 L 548.50 415.00 L 549.90 416.30 L 554.10 418.40 L 559.80 419.30 L 563.00 419.30 L 566.40 418.70 L 581.50 414.80 L 594.80 412.30 L 608.20 410.20 L 631.70 407.20 Z" fill="#654840" fill-rule="evenodd" node-id="44" stroke="#654840" stroke-linecap="round" stroke-width="7.06207" target-height="18" target-width="84.79999" target-x="546.9" target-y="401.3"></path><path d="M 393.80 407.20 L 415.30 403.60 L 431.90 401.90 L 449.60 401.30 L 458.10 401.70 L 463.60 402.30 L 473.20 404.30 L 475.70 405.80 L 477.30 407.30 L 478.20 408.80 L 478.60 410.50 L 478.60 412.00 L 478.00 413.60 L 477.00 415.00 L 475.60 416.30 L 471.40 418.40 L 465.70 419.30 L 462.50 419.30 L 459.10 418.70 L 444.00 414.80 L 430.70 412.30 L 417.30 410.20 L 393.80 407.20 Z" fill="#654840" fill-rule="evenodd" node-id="46" stroke="#654840" stroke-linecap="round" stroke-width="7.06207" target-height="18" target-width="84.80002" target-x="393.8" target-y="401.3"></path><path d="M 337.20 438.10 L 335.80 427.60 L 334.40 409.70 L 334.00 398.00 L 334.00 385.60 L 334.50 371.50 L 336.20 352.00 L 337.50 341.50 L 339.30 331.10 L 341.60 320.50 L 344.30 309.60 L 347.60 299.00 L 351.40 288.40 L 355.90 277.80 L 359.60 270.10 L 363.80 262.50 L 368.40 255.10 L 373.40 247.80 L 378.70 240.80 L 384.60 234.10 L 390.90 227.60 L 397.80 221.30 L 405.00 215.50 L 412.90 210.10 L 421.30 205.00 L 430.40 200.20 L 437.80 196.80 L 445.60 193.80 L 453.90 191.00 L 462.80 188.40 L 472.20 186.20 L 481.40 184.50 L 491.20 183.10 L 501.60 182.00 L 512.60 181.40 L 524.30 181.20 L 535.20 181.40 L 545.40 182.00 L 555.00 183.10 L 564.10 184.50 L 572.60 186.20 L 581.30 188.50 L 589.50 191.00 L 597.20 193.80 L 604.50 196.90 L 611.30 200.30 L 619.70 205.10 L 627.60 210.30 L 634.80 215.70 L 641.50 221.60 L 647.90 227.90 L 653.80 234.40 L 659.20 241.20 L 664.20 248.20 L 668.90 255.50 L 673.10 263.00 L 677.00 270.70 L 680.50 278.50 L 684.60 289.10 L 688.20 299.70 L 691.20 310.50 L 693.80 321.40 L 695.90 332.00 L 697.60 342.50 L 698.90 353.10 L 700.40 372.80 L 700.90 386.90 L 700.60 411.20 L 700.00 420.70 L 698.10 439.80 L 694.50 442.30 L 691.50 443.70 L 689.70 450.10 L 685.40 462.80 L 679.00 478.50 L 674.70 487.90 L 672.40 444.80 L 664.90 442.40 L 660.50 440.30 L 651.70 434.80 L 646.60 430.90 L 641.80 426.60 L 627.60 412.00 L 623.80 409.00 L 619.40 406.30 L 609.60 401.80 L 603.90 399.70 L 568.90 388.50 L 560.50 385.40 L 552.40 381.90 L 547.20 379.30 L 537.80 373.30 L 533.50 369.80 L 529.80 365.90 L 526.40 361.70 L 524.20 358.20 L 522.30 354.50 L 520.80 350.50 L 519.50 346.10 L 518.60 341.60 L 518.10 336.80 L 518.00 331.40 L 518.40 325.60 L 519.10 319.90 L 522.00 306.80 L 524.30 299.30 L 518.20 299.70 L 512.50 300.60 L 507.20 301.90 L 502.20 303.60 L 497.30 305.80 L 492.60 308.30 L 488.20 311.20 L 484.00 314.40 L 478.70 319.00 L 473.60 324.20 L 468.80 329.80 L 459.90 342.00 L 449.50 358.50 L 430.80 389.60 L 421.90 402.80 L 417.20 408.90 L 412.10 414.70 L 406.80 420.00 L 401.20 424.80 L 396.80 428.10 L 392.10 431.10 L 387.20 433.60 L 382.00 435.80 L 376.70 437.60 L 371.10 438.90 L 365.00 439.80 L 358.40 440.20 L 355.80 488.80 L 350.70 477.60 L 346.00 466.00 L 341.30 452.30 L 337.60 438.20 L 337.20 438.10 Z" fill="#654840" fill-rule="nonzero" node-id="48" stroke="none" target-height="307.59998" target-width="366.90002" target-x="334" target-y="181.2"></path><path d="M 529.20 420.30 L 531.10 419.40 L 532.30 419.30 L 535.00 420.00 L 536.90 421.90 L 537.60 424.60 L 537.10 426.90 L 534.60 430.40 L 530.80 438.10 L 528.40 445.70 L 527.30 450.50 L 526.20 460.80 L 526.10 466.80 L 528.90 497.40 L 529.00 507.40 L 528.50 512.10 L 527.40 516.70 L 526.30 519.60 L 524.80 522.20 L 522.80 524.60 L 520.90 526.20 L 516.60 528.40 L 514.20 529.10 L 510.80 529.40 L 507.10 529.30 L 503.00 528.70 L 501.60 528.20 L 499.60 526.40 L 498.80 523.80 L 498.90 522.40 L 500.10 519.90 L 502.40 518.40 L 503.70 518.20 L 510.40 518.90 L 513.60 518.30 L 515.30 517.10 L 516.40 515.70 L 517.30 513.50 L 518.00 510.80 L 518.40 506.80 L 518.50 502.70 L 518.30 498.10 L 515.50 467.20 L 515.60 460.30 L 516.10 454.20 L 518.20 443.10 L 521.00 434.30 L 523.40 428.70 L 525.50 424.90 L 527.30 422.10 L 529.20 420.30 Z" fill="#dd936f" fill-rule="evenodd" node-id="50" stroke="none" target-height="110.10004" target-width="38.799988" target-x="498.8" target-y="419.3"></path><path d="M 438.70 487.30 L 441.20 487.00 L 443.60 486.30 L 445.90 485.20 L 448.10 483.50 L 451.70 479.20 L 453.30 476.40 L 455.80 469.70 L 457.10 461.80 L 457.30 457.30 L 456.60 448.60 L 454.70 441.50 L 453.30 438.20 L 451.70 435.40 L 448.10 431.00 L 445.90 429.40 L 443.60 428.20 L 441.20 427.50 L 438.70 427.30 L 436.20 427.50 L 433.80 428.20 L 431.60 429.40 L 429.40 431.00 L 425.70 435.40 L 424.10 438.20 L 421.70 444.90 L 420.40 452.70 L 420.20 457.30 L 420.40 461.80 L 421.70 469.70 L 424.10 476.40 L 425.70 479.20 L 429.40 483.50 L 431.60 485.20 L 433.80 486.30 L 436.20 487.00 L 438.70 487.30 Z" fill="#654840" fill-rule="evenodd" node-id="52" stroke="none" target-height="60" target-width="37.099976" target-x="420.2" target-y="427.3"></path><path d="M 583.50 487.30 L 586.00 487.00 L 588.40 486.30 L 590.70 485.20 L 592.90 483.50 L 596.50 479.20 L 598.10 476.40 L 600.60 469.70 L 601.80 461.80 L 602.00 457.30 L 601.30 448.60 L 599.50 441.50 L 598.10 438.20 L 596.50 435.40 L 592.90 431.00 L 590.70 429.40 L 588.40 428.20 L 586.00 427.50 L 583.50 427.30 L 581.00 427.50 L 578.60 428.20 L 576.40 429.40 L 574.10 431.00 L 570.50 435.40 L 568.90 438.20 L 566.50 444.90 L 565.20 452.70 L 565.00 457.30 L 565.20 461.80 L 566.50 469.70 L 568.90 476.40 L 570.50 479.20 L 574.10 483.50 L 576.40 485.20 L 578.60 486.30 L 581.00 487.00 L 583.50 487.30 Z" fill="#654840" fill-rule="evenodd" node-id="54" stroke="none" target-height="60" target-width="37" target-x="565" target-y="427.3"></path><g node-id="76"><path d="M 444.90 517.30 L 444.60 520.30 L 443.70 523.20 L 442.30 526.10 L 440.40 528.70 L 437.90 531.20 L 434.80 533.50 L 431.50 535.50 L 427.80 537.20 L 423.70 538.50 L 415.10 540.00 L 410.50 540.20 L 405.90 540.00 L 397.30 538.50 L 393.20 537.20 L 389.50 535.50 L 386.10 533.50 L 383.10 531.20 L 380.60 528.70 L 378.70 526.10 L 377.20 523.20 L 376.40 520.30 L 376.10 517.30 L 376.40 514.20 L 377.30 511.20 L 378.80 508.40 L 380.70 505.80 L 383.20 503.30 L 386.10 501.10 L 389.40 499.20 L 393.00 497.50 L 397.10 496.10 L 401.30 495.20 L 405.70 494.60 L 410.50 494.30 L 415.20 494.60 L 419.70 495.20 L 423.90 496.10 L 428.00 497.50 L 431.60 499.20 L 434.80 501.10 L 437.80 503.30 L 440.30 505.80 L 442.20 508.40 L 443.70 511.20 L 444.60 514.20 L 444.90 517.30 Z" fill="#ffc0be" fill-opacity="0.687386" fill-rule="nonzero" group-id="1" node-id="58" stroke="none" target-height="45.900024" target-width="68.79999" target-x="376.1" target-y="494.3"></path></g><g node-id="77"><path d="M 653.20 517.30 L 652.90 520.30 L 652.10 523.20 L 650.60 526.10 L 648.70 528.70 L 646.20 531.20 L 643.20 533.50 L 639.80 535.50 L 636.10 537.20 L 632.00 538.50 L 623.40 540.00 L 618.80 540.20 L 614.20 540.00 L 605.60 538.50 L 601.50 537.20 L 597.80 535.50 L 594.50 533.50 L 591.40 531.20 L 588.90 528.70 L 587.00 526.10 L 585.50 523.20 L 584.70 520.30 L 584.40 517.30 L 584.70 514.20 L 585.60 511.20 L 587.10 508.40 L 589.00 505.80 L 591.50 503.30 L 594.50 501.10 L 597.70 499.20 L 601.30 497.50 L 605.40 496.10 L 609.60 495.20 L 614.10 494.60 L 618.80 494.30 L 623.60 494.60 L 628.00 495.20 L 632.20 496.10 L 636.30 497.50 L 639.90 499.20 L 643.20 501.10 L 646.10 503.30 L 648.60 505.80 L 650.50 508.40 L 652.00 511.20 L 652.90 514.20 L 653.20 517.30 Z" fill="#ffc0be" fill-opacity="0.687386" fill-rule="nonzero" group-id="2" node-id="63" stroke="none" target-height="45.900024" target-width="68.79999" target-x="584.4" target-y="494.3"></path></g><path d="M 704.40 553.50 L 704.10 556.90 L 703.30 560.00 L 701.90 562.80 L 700.10 565.40 L 697.90 567.70 L 695.30 569.50 L 692.40 570.90 L 689.30 571.70 L 685.90 572.00 L 682.50 571.70 L 679.40 570.90 L 676.50 569.50 L 673.90 567.70 L 671.70 565.40 L 669.90 562.80 L 668.50 560.00 L 667.70 556.90 L 667.40 553.50 L 667.70 550.10 L 668.50 547.00 L 669.90 544.10 L 671.70 541.50 L 673.90 539.30 L 676.50 537.50 L 679.40 536.10 L 682.50 535.30 L 685.90 535.00 L 689.30 535.30 L 692.40 536.10 L 695.30 537.50 L 697.90 539.30 L 700.10 541.50 L 701.90 544.10 L 703.30 547.00 L 704.10 550.10 L 704.40 553.50 Z" fill="#ffb956" fill-rule="nonzero" node-id="66" stroke="none" target-height="37" target-width="37" target-x="667.4" target-y="535"></path><path d="M 362.10 553.50 L 361.80 556.90 L 360.90 560.00 L 359.60 562.80 L 357.70 565.40 L 355.50 567.70 L 352.90 569.50 L 350.00 570.90 L 346.90 571.70 L 343.60 572.00 L 340.20 571.70 L 337.10 570.90 L 334.20 569.50 L 331.60 567.70 L 329.40 565.40 L 327.50 562.80 L 326.20 560.00 L 325.30 556.90 L 325.00 553.50 L 325.30 550.10 L 326.20 547.00 L 327.50 544.10 L 329.40 541.50 L 331.60 539.30 L 334.20 537.50 L 337.10 536.10 L 340.20 535.30 L 343.60 535.00 L 346.90 535.30 L 350.00 536.10 L 352.90 537.50 L 355.50 539.30 L 357.70 541.50 L 359.60 544.10 L 360.90 547.00 L 361.80 550.10 L 362.10 553.50 Z" fill="#ffb956" fill-rule="nonzero" node-id="68" stroke="none" target-height="37" target-width="37.100006" target-x="325" target-y="535"></path><path d="M 470.50 568.50 L 498.10 567.00 L 513.80 566.70 L 540.00 567.70 L 562.30 569.40 L 558.30 572.90 L 554.80 575.30 L 550.80 577.70 L 541.80 581.80 L 532.70 584.40 L 527.80 585.30 L 516.40 586.20 L 510.40 585.90 L 505.00 585.30 L 500.10 584.30 L 491.00 581.50 L 482.00 577.20 L 478.00 574.70 L 474.60 572.20 L 470.50 568.50 Z" fill="#ffffff" fill-rule="evenodd" node-id="70" stroke="none" target-height="19.5" target-width="91.79999" target-x="470.5" target-y="566.7"></path><path d="M 470.50 568.50 L 466.60 572.00 L 470.00 575.30 L 474.10 578.40 L 479.60 581.90 L 484.00 584.20 L 489.30 586.50 L 495.00 588.40 L 501.60 590.00 L 511.10 591.30 L 516.40 591.40 L 521.80 591.30 L 531.20 590.10 L 537.80 588.60 L 543.50 586.80 L 548.80 584.60 L 553.10 582.40 L 558.70 579.10 L 562.70 576.10 L 566.20 573.00 L 562.30 569.40 L 566.20 573.00 L 567.00 571.80 L 567.50 570.40 L 567.60 569.00 L 567.30 567.50 L 566.60 566.20 L 564.30 564.50 L 562.80 564.10 L 562.30 569.40 L 562.80 564.10 L 536.10 562.10 L 513.80 561.40 L 497.90 561.70 L 470.10 563.20 L 470.50 568.50 Z M 485.10 572.90 L 493.30 576.70 L 498.10 578.30 L 507.60 580.30 L 516.40 580.90 L 523.10 580.60 L 528.90 579.80 L 534.50 578.50 L 539.30 577.00 L 547.40 573.50 L 524.60 572.20 L 513.80 572.00 L 485.10 572.90 Z M 470.50 568.50 L 470.10 563.20 L 468.60 563.50 L 467.40 564.20 L 466.30 565.20 L 465.60 566.50 L 465.20 568.00 L 465.70 570.80 L 466.60 572.00 L 470.50 568.50 Z" fill="#c14e45" fill-rule="evenodd" node-id="72" stroke="none" target-height="30" target-width="102.39996" target-x="465.2" target-y="561.4"></path><path d="M 358.40 471.40 L 358.70 465.40 L 359.40 459.60 L 360.50 454.00 L 362.10 448.50 L 364.10 443.20 L 366.50 438.10 L 369.20 433.30 L 372.40 428.60 L 375.80 424.30 L 379.60 420.20 L 383.70 416.40 L 388.00 413.00 L 392.70 409.80 L 397.50 407.10 L 402.60 404.70 L 407.90 402.70 L 413.40 401.10 L 419.00 400.00 L 424.80 399.30 L 430.80 399.00 L 436.70 399.30 L 442.40 399.90 L 447.90 401.00 L 453.30 402.60 L 458.50 404.50 L 463.60 406.80 L 468.30 409.50 L 472.90 412.50 L 477.20 415.90 L 481.30 419.50 L 485.00 423.50 L 488.50 427.70 L 491.70 432.20 L 494.40 436.90 L 496.90 441.80 L 499.00 447.00 L 500.60 452.30 L 501.90 457.80 L 502.70 463.40 L 503.10 469.30 L 510.60 467.60 L 516.40 467.00 L 522.00 467.60 L 528.00 469.10 L 528.50 463.40 L 529.50 457.90 L 530.90 452.60 L 532.60 447.40 L 534.80 442.30 L 537.20 437.50 L 540.10 433.00 L 546.70 424.50 L 554.50 417.10 L 563.30 410.90 L 568.00 408.30 L 573.00 406.10 L 578.10 404.20 L 583.40 402.70 L 588.90 401.70 L 594.50 401.00 L 600.30 400.80 L 606.30 401.00 L 612.10 401.70 L 617.70 402.90 L 623.20 404.50 L 628.50 406.50 L 633.60 408.90 L 638.40 411.60 L 643.00 414.70 L 647.40 418.20 L 651.50 422.00 L 655.20 426.00 L 658.70 430.40 L 661.80 435.00 L 664.60 439.90 L 667.00 444.90 L 669.00 450.30 L 670.60 455.70 L 671.70 461.30 L 672.40 467.10 L 672.70 473.20 L 672.40 479.20 L 671.70 485.00 L 670.60 490.60 L 669.00 496.00 L 667.00 501.40 L 664.60 506.40 L 661.80 511.30 L 658.70 515.90 L 655.20 520.30 L 651.50 524.30 L 647.40 528.10 L 643.00 531.60 L 638.40 534.70 L 633.60 537.50 L 628.50 539.80 L 623.20 541.90 L 617.70 543.40 L 612.10 544.60 L 606.30 545.30 L 600.30 545.50 L 594.40 545.30 L 588.80 544.60 L 583.30 543.60 L 578.00 542.10 L 572.80 540.10 L 567.80 537.90 L 563.10 535.30 L 558.60 532.30 L 554.20 529.00 L 546.50 521.60 L 543.00 517.40 L 539.80 513.00 L 537.00 508.40 L 534.60 503.60 L 532.40 498.50 L 530.70 493.20 L 529.40 487.90 L 528.50 482.30 L 528.00 476.50 L 520.70 474.50 L 516.40 474.00 L 511.80 474.50 L 503.00 476.70 L 502.30 482.30 L 501.30 487.70 L 499.90 493.00 L 498.10 498.10 L 493.40 507.70 L 490.60 512.20 L 483.90 520.60 L 476.20 527.80 L 467.40 533.80 L 457.80 538.60 L 452.70 540.40 L 447.50 541.90 L 442.10 542.90 L 436.50 543.50 L 430.80 543.80 L 424.80 543.50 L 419.00 542.80 L 413.40 541.70 L 407.90 540.10 L 402.60 538.10 L 397.50 535.70 L 392.70 532.90 L 388.00 529.80 L 383.70 526.30 L 379.60 522.60 L 375.80 518.50 L 372.40 514.10 L 369.20 509.50 L 366.50 504.70 L 364.10 499.60 L 362.10 494.30 L 360.50 488.80 L 359.40 483.20 L 358.70 477.40 L 358.40 471.40 Z M 430.80 406.10 L 425.40 406.30 L 420.10 406.90 L 415.10 408.00 L 410.10 409.40 L 405.30 411.20 L 396.40 415.90 L 392.20 418.70 L 384.60 425.20 L 378.10 432.80 L 375.20 437.00 L 370.60 445.90 L 368.80 450.70 L 367.40 455.70 L 366.30 460.70 L 365.70 466.00 L 365.50 471.40 L 365.70 476.80 L 366.30 482.10 L 367.40 487.10 L 368.80 492.00 L 372.80 501.40 L 375.20 505.80 L 381.20 513.90 L 388.30 521.00 L 392.20 524.10 L 400.70 529.40 L 410.10 533.40 L 415.10 534.80 L 420.10 535.90 L 425.40 536.50 L 430.80 536.70 L 436.20 536.50 L 441.40 535.90 L 446.50 534.80 L 451.40 533.40 L 460.80 529.40 L 465.20 526.90 L 473.30 521.00 L 480.40 513.90 L 483.50 510.00 L 488.80 501.40 L 491.00 496.90 L 492.80 492.00 L 494.20 487.10 L 495.20 482.10 L 495.90 476.80 L 496.10 471.40 L 495.90 466.00 L 495.20 460.70 L 494.20 455.70 L 492.80 450.70 L 491.00 445.90 L 486.30 437.00 L 483.50 432.80 L 477.00 425.20 L 469.40 418.70 L 465.20 415.90 L 456.20 411.20 L 451.40 409.40 L 446.50 408.00 L 441.40 406.90 L 436.20 406.30 L 430.80 406.10 Z M 600.30 407.80 L 594.90 408.10 L 589.60 408.70 L 584.50 409.70 L 579.60 411.20 L 574.80 413.00 L 565.90 417.60 L 561.70 420.40 L 554.10 427.00 L 547.60 434.60 L 544.70 438.70 L 540.10 447.70 L 538.30 452.50 L 536.90 457.40 L 535.80 462.50 L 535.20 467.70 L 535.00 473.20 L 535.20 478.60 L 535.80 483.80 L 536.90 488.90 L 538.30 493.80 L 542.30 503.20 L 544.70 507.60 L 550.70 515.70 L 557.80 522.70 L 561.70 525.90 L 570.20 531.20 L 579.60 535.20 L 584.50 536.60 L 589.60 537.60 L 594.90 538.30 L 600.30 538.50 L 605.70 538.30 L 610.90 537.60 L 616.00 536.60 L 620.90 535.20 L 630.30 531.20 L 634.70 528.70 L 642.80 522.70 L 649.90 515.70 L 653.00 511.70 L 658.30 503.20 L 660.40 498.60 L 662.30 493.80 L 663.70 488.90 L 664.70 483.80 L 665.40 478.60 L 665.60 473.20 L 665.40 467.70 L 664.70 462.50 L 663.70 457.40 L 662.30 452.50 L 660.40 447.70 L 655.80 438.70 L 653.00 434.60 L 646.50 427.00 L 638.90 420.40 L 634.70 417.60 L 625.70 413.00 L 620.90 411.20 L 616.00 409.70 L 610.90 408.70 L 605.70 408.10 L 600.30 407.80 Z" fill="#ffb956" fill-rule="evenodd" node-id="74" stroke="none" target-height="146.5" target-width="314.30002" target-x="358.4" target-y="399"></path></svg>