<?xml version="1.0" standalone="no"?><!DOCTYPE svg PUBLIC "-//W3C//DTD SVG 1.1//EN" "http://www.w3.org/Graphics/SVG/1.1/DTD/svg11.dtd"><svg height="1025" node-id="1" sillyvg="true" template-height="1025" template-width="1024" version="1.1" viewBox="0 0 1024 1025" width="1024" xmlns="http://www.w3.org/2000/svg" xmlns:xlink="http://www.w3.org/1999/xlink"><defs node-id="26"></defs><path d="M 0.00 0.00 L 1024.00 0.00 L 1024.00 1024.00 L 0.00 1024.00 Z" fill="#e0f4ff" fill-rule="nonzero" node-id="28" stroke="none" target-height="1024" target-width="1024" target-x="0" target-y="0"></path><path d="M 369.20 458.90 L 361.10 452.50 L 357.20 450.10 L 349.30 446.40 L 342.30 444.60 L 338.70 444.30 L 335.10 444.60 L 331.40 445.40 L 328.80 446.30 L 323.60 449.60 L 320.90 452.10 L 319.00 454.60 L 317.40 457.80 L 316.00 461.90 L 315.20 466.10 L 314.60 470.90 L 314.50 476.40 L 315.40 487.70 L 317.80 499.90 L 319.60 506.10 L 321.90 512.30 L 324.60 518.30 L 327.70 524.20 L 331.20 529.80 L 335.10 535.20 L 339.50 540.10 L 344.30 544.60 L 348.20 547.60 L 352.30 550.30 L 356.70 552.70 L 361.50 554.70 L 366.30 556.30 L 371.40 557.40 L 376.90 558.10 L 382.80 558.30 L 369.20 458.90 Z" fill="#f6b88a" fill-rule="evenodd" node-id="30" stroke="none" target-height="114" target-width="68.29999" target-x="314.5" target-y="444.3"></path><path d="M 661.20 458.90 L 669.30 452.50 L 673.20 450.10 L 681.20 446.40 L 688.10 444.60 L 691.70 444.30 L 695.40 444.60 L 699.00 445.40 L 701.60 446.30 L 704.20 447.70 L 706.90 449.60 L 709.50 452.10 L 711.40 454.60 L 713.10 457.80 L 714.40 461.90 L 715.30 466.10 L 715.80 470.90 L 716.00 476.40 L 715.10 487.70 L 712.60 499.90 L 710.80 506.10 L 708.50 512.30 L 705.90 518.30 L 702.80 524.20 L 699.30 529.80 L 695.30 535.20 L 691.00 540.10 L 686.10 544.60 L 682.20 547.60 L 678.10 550.30 L 673.70 552.70 L 669.00 554.70 L 664.20 556.30 L 659.00 557.40 L 653.50 558.10 L 647.70 558.30 L 661.20 458.90 Z" fill="#f6b88a" fill-rule="evenodd" node-id="32" stroke="none" target-height="114" target-width="68.29999" target-x="647.7" target-y="444.3"></path><path d="M 433.20 767.20 L 433.40 578.50 L 593.20 581.90 L 602.60 767.20 L 603.10 769.90 L 604.00 772.40 L 605.30 774.90 L 607.00 777.30 L 609.90 780.10 L 613.30 782.80 L 617.60 785.50 L 627.10 790.10 L 641.20 795.20 L 687.50 808.50 L 696.00 811.30 L 708.10 816.20 L 715.30 820.40 L 714.50 856.50 L 713.80 867.70 L 712.70 878.20 L 711.40 888.00 L 709.90 895.30 L 708.20 902.20 L 706.10 908.70 L 703.70 914.80 L 700.80 920.80 L 697.50 926.50 L 693.70 931.80 L 689.30 936.90 L 685.60 940.70 L 676.80 947.70 L 671.70 951.00 L 666.10 954.20 L 659.00 957.60 L 651.00 960.80 L 641.90 963.80 L 631.70 966.60 L 621.80 968.70 L 610.60 970.70 L 598.10 972.40 L 584.10 973.80 L 570.60 974.80 L 539.20 975.90 L 521.00 976.00 L 496.00 975.30 L 473.80 974.10 L 454.30 972.60 L 439.50 970.90 L 426.10 969.00 L 414.20 966.80 L 403.40 964.40 L 394.50 962.00 L 386.40 959.40 L 379.10 956.60 L 372.40 953.70 L 366.30 950.60 L 360.20 947.00 L 354.60 943.10 L 349.60 939.00 L 345.00 934.70 L 340.80 930.20 L 337.00 925.30 L 333.60 920.10 L 330.40 914.50 L 327.60 908.60 L 325.10 902.30 L 322.50 894.40 L 320.30 885.70 L 318.50 876.30 L 317.00 866.00 L 315.70 852.40 L 314.80 837.30 L 314.50 820.40 L 320.90 817.10 L 332.90 813.00 L 381.00 800.10 L 391.00 797.10 L 400.30 793.90 L 411.90 789.10 L 416.80 786.60 L 421.50 783.70 L 425.30 780.80 L 428.40 777.80 L 430.40 775.20 L 431.80 772.60 L 432.80 770.00 L 433.20 767.20 Z" fill="#f6b88a" fill-rule="evenodd" node-id="34" stroke="none" target-height="397.5" target-width="400.8" target-x="314.5" target-y="578.5"></path><path d="M 596.10 637.60 L 590.90 644.30 L 581.20 654.80 L 574.20 661.30 L 563.40 670.00 L 550.00 679.00 L 542.50 683.30 L 534.20 687.60 L 525.60 691.50 L 516.30 695.10 L 506.10 698.40 L 490.40 702.30 L 481.70 703.80 L 472.60 705.00 L 463.60 705.80 L 454.10 706.20 L 444.00 706.20 L 433.40 705.70 L 432.80 577.60 L 592.60 582.90 L 596.10 637.60 Z" fill="#ea9e66" fill-rule="evenodd" node-id="36" stroke="none" target-height="128.60004" target-width="163.29999" target-x="432.8" target-y="577.6"></path><path d="M 513.90 208.70 L 502.30 209.00 L 491.30 209.80 L 480.70 211.20 L 470.70 213.00 L 461.10 215.30 L 451.90 218.20 L 444.00 221.10 L 436.40 224.40 L 429.10 228.10 L 422.20 232.20 L 415.60 236.70 L 409.20 241.50 L 403.10 246.80 L 397.40 252.30 L 392.00 258.30 L 386.90 264.60 L 382.00 271.50 L 377.40 278.80 L 373.10 286.60 L 369.00 294.90 L 365.00 304.40 L 361.40 314.60 L 358.20 325.50 L 355.40 337.10 L 353.00 349.60 L 351.00 362.90 L 349.80 375.60 L 348.90 389.00 L 348.50 403.20 L 348.70 418.30 L 349.40 434.30 L 351.90 469.70 L 354.90 490.40 L 357.40 502.50 L 360.90 516.50 L 366.90 535.90 L 370.70 546.40 L 374.90 556.80 L 379.80 567.40 L 385.30 578.50 L 391.40 589.20 L 398.20 600.10 L 405.80 611.10 L 410.20 616.60 L 415.30 622.20 L 421.20 627.70 L 427.40 632.90 L 434.20 637.90 L 441.50 642.80 L 449.00 647.20 L 456.80 651.30 L 464.90 655.10 L 473.20 658.40 L 481.50 661.20 L 489.90 663.50 L 498.50 665.30 L 506.80 666.50 L 515.00 667.00 L 523.30 667.00 L 531.50 666.30 L 539.60 665.20 L 547.50 663.40 L 555.40 661.20 L 563.10 658.40 L 570.60 655.10 L 578.00 651.20 L 585.30 646.80 L 592.40 641.90 L 599.20 636.60 L 605.70 630.80 L 612.10 624.40 L 618.30 617.50 L 624.30 609.90 L 635.40 594.10 L 645.60 576.70 L 650.30 567.80 L 654.70 558.50 L 658.80 548.90 L 662.50 538.90 L 665.90 528.80 L 668.90 518.50 L 671.50 507.90 L 673.70 496.90 L 675.40 485.90 L 676.70 474.70 L 677.40 463.10 L 677.70 451.30 L 677.50 431.10 L 676.90 412.20 L 675.80 394.60 L 674.40 378.20 L 672.60 363.00 L 670.50 349.60 L 668.20 337.10 L 665.50 325.40 L 662.50 314.50 L 659.20 304.30 L 655.70 294.90 L 652.10 286.50 L 648.30 278.70 L 644.10 271.40 L 639.80 264.60 L 635.10 258.20 L 630.20 252.30 L 625.10 246.80 L 619.50 241.50 L 613.60 236.70 L 607.40 232.30 L 600.80 228.20 L 593.80 224.50 L 586.40 221.10 L 578.50 218.20 L 569.50 215.40 L 559.90 213.10 L 549.60 211.20 L 538.50 209.80 L 526.60 209.00 L 513.90 208.70 Z" fill="#ffcca6" fill-rule="evenodd" node-id="38" stroke="none" target-height="458.3" target-width="329.2" target-x="348.5" target-y="208.7"></path><path d="M 631.70 407.20 L 610.20 403.60 L 593.60 401.90 L 575.90 401.30 L 567.40 401.70 L 561.90 402.30 L 552.30 404.30 L 549.80 405.80 L 548.20 407.30 L 547.30 408.80 L 546.90 410.50 L 546.90 412.00 L 547.50 413.60 L 548.50 415.00 L 550.00 416.30 L 554.10 418.40 L 559.80 419.30 L 563.00 419.30 L 566.40 418.70 L 581.50 414.80 L 594.80 412.30 L 608.20 410.20 L 631.70 407.20 Z" fill="#654840" fill-rule="evenodd" node-id="40" stroke="#654840" stroke-linecap="round" stroke-width="7.06207" target-height="18" target-width="84.79999" target-x="546.9" target-y="401.3"></path><path d="M 393.80 407.20 L 415.30 403.60 L 431.90 401.90 L 449.60 401.30 L 458.10 401.70 L 463.60 402.30 L 473.20 404.30 L 475.70 405.80 L 477.30 407.30 L 478.20 408.80 L 478.60 410.50 L 478.60 412.00 L 478.00 413.60 L 477.00 415.00 L 475.60 416.30 L 471.40 418.40 L 465.70 419.30 L 462.50 419.30 L 459.10 418.70 L 444.00 414.80 L 430.70 412.30 L 417.30 410.20 L 393.80 407.20 Z" fill="#654840" fill-rule="evenodd" node-id="42" stroke="#654840" stroke-linecap="round" stroke-width="7.06207" target-height="18" target-width="84.80002" target-x="393.8" target-y="401.3"></path><path d="M 341.90 319.10 L 332.80 319.60 L 326.10 319.30 L 319.70 318.50 L 313.50 317.20 L 307.40 315.50 L 301.50 313.20 L 295.90 310.60 L 290.50 307.50 L 285.40 304.10 L 280.50 300.20 L 276.00 296.00 L 271.80 291.50 L 268.00 286.70 L 264.50 281.50 L 261.40 276.20 L 258.80 270.50 L 256.60 264.60 L 254.80 258.60 L 253.50 252.30 L 252.80 245.90 L 252.50 239.20 L 252.80 232.60 L 253.50 226.10 L 254.80 219.90 L 256.60 213.80 L 258.80 207.90 L 261.40 202.30 L 264.50 196.90 L 268.00 191.80 L 271.80 186.90 L 276.00 182.40 L 280.50 178.20 L 285.40 174.40 L 290.50 170.90 L 295.90 167.90 L 301.50 165.20 L 307.40 163.00 L 313.50 161.20 L 319.70 160.00 L 326.10 159.20 L 332.80 158.90 L 339.40 159.20 L 345.80 159.90 L 352.00 161.20 L 358.00 162.90 L 363.80 165.10 L 369.40 167.70 L 374.80 170.70 L 379.90 174.10 L 384.70 177.90 L 389.20 182.00 L 393.30 186.40 L 397.20 191.20 L 400.70 196.20 L 403.80 201.50 L 406.40 207.10 L 408.70 212.90 L 415.70 208.30 L 423.10 203.90 L 431.10 199.90 L 439.70 196.10 L 448.30 192.80 L 457.50 189.90 L 467.40 187.30 L 478.00 185.10 L 488.40 183.40 L 499.60 182.20 L 511.50 181.40 L 524.30 181.20 L 534.90 181.40 L 544.80 182.00 L 554.20 183.00 L 563.00 184.30 L 571.90 186.10 L 580.30 188.20 L 588.20 190.60 L 595.70 193.20 L 610.10 199.70 L 622.90 207.10 L 625.40 201.80 L 628.20 196.80 L 631.40 192.10 L 635.00 187.60 L 638.80 183.30 L 642.90 179.40 L 647.30 175.70 L 652.00 172.30 L 656.90 169.30 L 662.00 166.70 L 667.30 164.40 L 672.80 162.40 L 678.50 160.90 L 684.30 159.80 L 690.30 159.10 L 696.50 158.90 L 703.20 159.20 L 709.60 160.00 L 715.80 161.20 L 721.90 163.00 L 727.80 165.20 L 733.40 167.90 L 738.80 170.90 L 743.90 174.40 L 748.80 178.20 L 753.30 182.40 L 757.50 186.90 L 761.30 191.80 L 764.80 196.90 L 767.80 202.30 L 770.50 207.90 L 772.70 213.80 L 774.50 219.90 L 775.80 226.10 L 776.50 232.60 L 776.80 239.20 L 776.50 245.90 L 775.80 252.30 L 774.50 258.60 L 772.70 264.60 L 770.50 270.50 L 767.80 276.20 L 764.80 281.50 L 761.30 286.70 L 757.50 291.50 L 753.30 296.00 L 748.80 300.20 L 743.90 304.10 L 738.80 307.50 L 733.40 310.60 L 727.80 313.20 L 721.90 315.50 L 715.80 317.20 L 709.60 318.50 L 703.20 319.30 L 693.40 319.50 L 695.50 329.80 L 698.50 349.80 L 699.90 364.50 L 700.70 378.00 L 700.90 402.70 L 699.90 422.30 L 698.70 435.20 L 698.10 439.80 L 694.50 442.30 L 691.50 443.70 L 689.70 450.10 L 685.40 462.80 L 679.00 478.50 L 674.70 487.90 L 672.40 444.80 L 664.90 442.40 L 660.50 440.30 L 651.70 434.80 L 646.60 430.90 L 641.80 426.60 L 627.60 412.00 L 623.80 409.00 L 619.40 406.30 L 609.60 401.80 L 603.90 399.70 L 568.90 388.50 L 560.50 385.40 L 552.40 381.90 L 547.20 379.30 L 537.80 373.30 L 533.50 369.80 L 529.80 365.90 L 526.40 361.70 L 524.20 358.20 L 522.30 354.50 L 520.80 350.50 L 519.50 346.10 L 518.60 341.60 L 518.10 336.80 L 518.00 331.40 L 518.40 325.60 L 519.10 319.90 L 522.00 306.80 L 524.30 299.30 L 518.20 299.70 L 512.50 300.60 L 507.20 301.90 L 502.20 303.60 L 497.30 305.80 L 492.60 308.30 L 488.20 311.20 L 484.00 314.40 L 478.70 319.00 L 473.60 324.20 L 468.80 329.80 L 459.90 342.00 L 449.50 358.50 L 430.80 389.60 L 421.90 402.80 L 417.20 408.90 L 412.10 414.70 L 406.80 420.00 L 401.20 424.80 L 396.80 428.10 L 392.10 431.10 L 387.20 433.60 L 382.00 435.80 L 376.70 437.60 L 371.10 438.90 L 365.00 439.80 L 358.40 440.20 L 355.80 488.80 L 350.70 477.60 L 346.00 466.00 L 341.30 452.30 L 337.60 438.20 L 337.20 438.10 L 335.20 420.80 L 334.10 401.50 L 334.00 390.10 L 334.70 368.20 L 336.50 349.00 L 337.90 339.30 L 341.90 319.10 Z" fill="#654840" fill-rule="nonzero" node-id="44" stroke="none" target-height="329.9" target-width="524.3" target-x="252.5" target-y="158.9"></path><path d="M 535.60 429.30 L 534.10 434.30 L 535.60 429.30 L 536.90 429.90 L 538.00 430.70 L 539.20 433.10 L 539.10 435.90 L 538.50 437.20 L 537.70 438.20 L 535.30 439.50 L 534.00 439.60 L 530.70 439.20 L 529.00 439.50 L 527.50 440.30 L 526.00 442.40 L 525.40 444.30 L 524.80 447.50 L 524.70 451.20 L 525.10 456.50 L 526.00 462.30 L 530.70 482.90 L 532.70 494.00 L 533.30 499.00 L 533.50 503.60 L 533.30 508.00 L 532.50 511.80 L 531.50 514.30 L 530.20 516.60 L 528.40 518.80 L 526.20 520.50 L 523.70 521.70 L 521.00 522.60 L 515.40 523.10 L 512.00 522.90 L 506.90 522.10 L 501.10 520.70 L 498.70 519.30 L 497.40 516.90 L 497.20 515.60 L 497.40 514.10 L 498.00 512.80 L 500.00 511.00 L 502.50 510.30 L 509.30 511.80 L 513.10 512.40 L 516.50 512.50 L 518.70 512.30 L 520.30 511.70 L 521.60 510.40 L 522.30 508.80 L 522.90 503.60 L 522.30 495.50 L 520.50 485.70 L 515.60 464.40 L 514.50 457.70 L 514.10 449.60 L 514.90 442.50 L 515.90 439.20 L 517.20 436.50 L 518.70 434.20 L 522.40 431.00 L 525.80 429.40 L 528.40 428.80 L 532.60 428.70 L 535.60 429.30 Z" fill="#dd936f" fill-rule="evenodd" node-id="46" stroke="none" target-height="94.39996" target-width="42" target-x="497.2" target-y="428.7"></path><path d="M 438.70 487.30 L 441.20 487.00 L 443.60 486.30 L 445.90 485.20 L 448.10 483.50 L 451.70 479.20 L 453.30 476.40 L 455.80 469.70 L 457.10 461.80 L 457.30 457.30 L 456.60 448.60 L 454.70 441.50 L 453.30 438.20 L 451.70 435.40 L 448.10 431.00 L 445.90 429.40 L 443.60 428.20 L 441.20 427.50 L 438.70 427.30 L 436.20 427.50 L 433.80 428.20 L 431.60 429.40 L 429.40 431.00 L 425.70 435.40 L 424.10 438.20 L 421.70 444.90 L 420.40 452.70 L 420.20 457.30 L 420.40 461.80 L 421.70 469.70 L 424.10 476.40 L 425.70 479.20 L 429.40 483.50 L 431.60 485.20 L 433.80 486.30 L 436.20 487.00 L 438.70 487.30 Z" fill="#654840" fill-rule="evenodd" node-id="48" stroke="none" target-height="60" target-width="37.099976" target-x="420.2" target-y="427.3"></path><path d="M 583.50 487.30 L 586.00 487.00 L 588.40 486.30 L 590.70 485.20 L 592.90 483.50 L 596.50 479.20 L 598.10 476.40 L 600.60 469.70 L 601.80 461.80 L 602.00 457.30 L 601.30 448.60 L 599.50 441.50 L 598.10 438.20 L 596.50 435.40 L 592.90 431.00 L 590.70 429.40 L 588.40 428.20 L 586.00 427.50 L 583.50 427.30 L 581.00 427.50 L 578.60 428.20 L 576.40 429.40 L 574.10 431.00 L 570.50 435.40 L 568.90 438.20 L 566.50 444.90 L 565.20 452.70 L 565.00 457.30 L 565.20 461.80 L 566.50 469.70 L 568.90 476.40 L 570.50 479.20 L 574.10 483.50 L 576.40 485.20 L 578.60 486.30 L 581.00 487.00 L 583.50 487.30 Z" fill="#654840" fill-rule="evenodd" node-id="50" stroke="none" target-height="60" target-width="37" target-x="565" target-y="427.3"></path><g node-id="76"><path d="M 445.50 524.20 L 445.20 528.80 L 444.30 533.20 L 442.90 537.40 L 440.90 541.40 L 438.40 545.20 L 435.40 548.60 L 432.00 551.60 L 428.30 554.10 L 424.20 556.10 L 420.00 557.50 L 415.60 558.40 L 411.10 558.70 L 406.50 558.40 L 402.10 557.50 L 397.90 556.10 L 393.90 554.10 L 390.20 551.60 L 386.70 548.60 L 383.70 545.20 L 381.20 541.40 L 379.30 537.40 L 377.80 533.20 L 376.90 528.80 L 376.60 524.20 L 376.90 519.70 L 377.80 515.30 L 379.30 511.10 L 381.20 507.10 L 383.70 503.30 L 386.70 499.90 L 390.20 496.90 L 393.90 494.40 L 397.90 492.40 L 402.10 491.00 L 406.50 490.10 L 411.10 489.80 L 415.60 490.10 L 420.00 491.00 L 424.20 492.40 L 428.30 494.40 L 432.00 496.90 L 435.40 499.90 L 438.40 503.30 L 440.90 507.10 L 442.90 511.10 L 444.30 515.30 L 445.20 519.70 L 445.50 524.20 Z" fill="#ffd2b9" fill-opacity="0.604969" fill-rule="nonzero" group-id="1" node-id="54" stroke="none" target-height="68.900024" target-width="68.899994" target-x="376.6" target-y="489.8"></path></g><g node-id="77"><path d="M 653.80 524.20 L 653.50 528.80 L 652.70 533.20 L 651.20 537.40 L 649.20 541.40 L 646.80 545.20 L 643.70 548.60 L 640.30 551.60 L 636.60 554.10 L 632.60 556.10 L 628.30 557.50 L 624.00 558.40 L 619.40 558.70 L 614.80 558.40 L 610.50 557.50 L 606.20 556.10 L 602.20 554.10 L 598.50 551.60 L 595.10 548.60 L 592.10 545.20 L 589.60 541.40 L 587.60 537.40 L 586.20 533.20 L 585.30 528.80 L 585.00 524.20 L 585.30 519.70 L 586.20 515.30 L 587.60 511.10 L 589.60 507.10 L 592.10 503.30 L 595.10 499.90 L 598.50 496.90 L 602.20 494.40 L 606.20 492.40 L 610.50 491.00 L 614.80 490.10 L 619.40 489.80 L 624.00 490.10 L 628.30 491.00 L 632.60 492.40 L 636.60 494.40 L 640.30 496.90 L 643.70 499.90 L 646.80 503.30 L 649.20 507.10 L 651.20 511.10 L 652.70 515.30 L 653.50 519.70 L 653.80 524.20 Z" fill="#ffd2b9" fill-opacity="0.604969" fill-rule="nonzero" group-id="2" node-id="59" stroke="none" target-height="68.900024" target-width="68.79999" target-x="585" target-y="489.8"></path></g><path d="M 462.60 552.60 L 488.90 554.30 L 517.30 555.30 L 544.80 554.30 L 569.40 552.60 L 565.50 558.70 L 558.70 567.80 L 554.20 572.90 L 549.10 577.90 L 543.50 582.70 L 539.40 585.60 L 535.20 588.10 L 530.80 590.20 L 523.80 592.40 L 516.40 593.20 L 511.50 592.80 L 506.70 591.80 L 502.00 590.20 L 497.50 588.10 L 493.20 585.60 L 489.10 582.70 L 483.40 577.90 L 478.20 572.90 L 473.60 567.80 L 466.60 558.70 L 462.60 552.60 Z" fill="#ffffff" fill-rule="evenodd" node-id="62" stroke="none" target-height="40.600037" target-width="106.80002" target-x="462.6" target-y="552.6"></path><path d="M 574.00 555.20 L 569.40 552.60 L 568.90 547.30 L 571.70 547.90 L 573.80 549.70 L 574.70 552.50 L 574.00 555.20 Z M 462.60 552.60 L 463.00 547.30 L 494.00 549.30 L 517.30 550.00 L 539.90 549.30 L 568.90 547.30 L 569.40 552.60 L 574.00 555.20 L 569.70 562.00 L 561.60 572.50 L 554.20 580.40 L 549.90 584.30 L 545.20 588.00 L 540.10 591.40 L 532.70 595.10 L 528.90 596.50 L 524.90 597.60 L 520.70 598.30 L 516.40 598.50 L 512.10 598.30 L 508.00 597.60 L 504.00 596.50 L 496.30 593.40 L 487.50 588.10 L 482.70 584.40 L 474.40 576.60 L 467.60 568.80 L 462.40 562.00 L 458.00 555.30 L 462.60 552.60 Z M 462.60 552.60 L 463.00 547.30 L 460.20 547.90 L 458.10 549.80 L 457.50 551.10 L 457.40 553.90 L 458.00 555.30 L 462.60 552.60 Z M 473.10 558.70 L 477.20 563.80 L 482.10 569.30 L 487.00 574.10 L 492.40 578.50 L 496.10 581.20 L 504.00 585.30 L 508.10 586.70 L 512.20 587.60 L 516.40 587.90 L 520.60 587.60 L 524.70 586.70 L 528.80 585.30 L 536.50 581.20 L 540.20 578.50 L 545.40 574.10 L 550.30 569.30 L 555.10 563.80 L 559.00 558.70 L 540.50 559.90 L 517.30 560.60 L 493.40 559.90 L 473.10 558.70 Z" fill="#c14e45" fill-rule="evenodd" node-id="64" stroke="none" target-height="51.200012" target-width="117.30002" target-x="457.4" target-y="547.3"></path><path d="M 612.10 796.20 L 627.90 779.20 L 631.70 782.20 L 636.50 785.30 L 642.60 788.60 L 655.90 794.50 L 676.00 801.60 L 703.10 809.20 L 717.10 812.60 L 745.00 818.50 L 770.80 822.80 L 799.80 826.30 L 815.30 829.30 L 823.00 831.40 L 830.80 834.00 L 838.70 837.10 L 846.30 840.60 L 853.80 844.70 L 861.20 849.30 L 866.50 853.10 L 876.70 861.80 L 881.60 866.60 L 886.10 871.70 L 890.40 877.20 L 894.50 883.10 L 898.30 889.50 L 901.70 896.00 L 904.80 903.00 L 907.60 910.50 L 910.00 918.50 L 928.70 1024.10 L 123.30 1024.10 L 130.00 943.20 L 133.40 928.20 L 136.90 915.10 L 140.50 903.70 L 143.60 895.10 L 146.70 887.40 L 153.20 874.40 L 156.90 868.30 L 160.70 862.80 L 164.50 857.90 L 168.50 853.60 L 177.10 845.70 L 186.30 839.40 L 192.80 835.80 L 199.70 832.70 L 206.90 830.00 L 214.30 827.70 L 230.40 823.70 L 243.10 821.10 L 272.80 815.70 L 346.30 807.70 L 358.60 805.40 L 370.10 802.70 L 377.70 800.70 L 390.90 795.90 L 399.70 791.40 L 406.80 786.30 L 410.00 791.90 L 413.90 797.70 L 418.40 803.70 L 423.40 809.30 L 429.00 814.90 L 435.30 820.50 L 440.20 824.30 L 451.20 831.50 L 457.40 834.90 L 463.70 837.80 L 470.30 840.50 L 477.40 842.90 L 485.00 845.00 L 492.60 846.70 L 500.60 847.90 L 509.10 848.80 L 518.20 849.20 L 531.40 848.60 L 543.00 846.70 L 550.40 844.60 L 557.30 842.00 L 563.70 838.90 L 569.80 835.40 L 575.70 831.40 L 581.30 827.10 L 589.30 820.10 L 597.10 812.50 L 612.10 796.20 Z" fill="#ff8f8f" fill-rule="nonzero" node-id="66" stroke="none" target-height="244.89996" target-width="805.4" target-x="123.3" target-y="779.2"></path><path d="M 526.10 851.00 L 525.20 852.30 L 523.80 853.50 L 521.70 854.70 L 515.20 856.60 L 504.80 857.80 L 496.00 857.90 L 485.50 857.40 L 474.70 856.40 L 463.00 854.90 L 438.90 850.50 L 426.80 847.70 L 415.10 844.60 L 403.70 841.10 L 393.40 837.40 L 380.80 831.80 L 370.70 826.00 L 366.70 823.00 L 363.70 820.10 L 360.00 815.70 L 357.30 811.90 L 355.50 808.70 L 354.20 805.30 L 353.40 802.30 L 353.20 799.60 L 354.10 794.60 L 355.00 792.40 L 357.00 789.30 L 365.60 779.90 L 367.50 777.50 L 368.80 775.20 L 369.40 771.90 L 368.10 766.20 L 367.70 762.50 L 367.90 758.80 L 368.70 755.20 L 370.00 751.70 L 371.80 748.20 L 374.00 745.10 L 376.70 742.20 L 379.90 739.50 L 383.50 737.30 L 387.40 735.50 L 391.90 734.10 L 398.90 733.10 L 402.80 733.20 L 407.00 733.60 L 413.00 735.00 L 415.30 736.00 L 419.20 738.70 L 422.70 743.00 L 425.50 749.00 L 431.80 768.60 L 436.20 778.10 L 439.40 783.30 L 442.80 788.30 L 450.70 797.50 L 459.40 805.80 L 466.40 811.40 L 473.60 816.50 L 487.90 825.40 L 513.90 839.40 L 521.00 843.60 L 524.30 846.20 L 525.60 847.60 L 526.20 848.80 L 526.40 849.90 L 526.10 851.00 Z" fill="#e06f6f" fill-rule="evenodd" node-id="68" stroke="none" target-height="124.80005" target-width="173.20001" target-x="353.2" target-y="733.1"></path><path d="M 508.40 849.20 L 509.30 850.50 L 510.80 851.80 L 512.80 852.90 L 519.30 854.90 L 529.70 856.00 L 538.50 856.10 L 549.00 855.70 L 559.80 854.70 L 571.60 853.10 L 595.70 848.80 L 607.80 846.00 L 619.50 842.80 L 630.80 839.30 L 641.10 835.60 L 653.70 830.10 L 663.80 824.20 L 667.80 821.20 L 670.80 818.30 L 674.30 814.20 L 678.70 807.50 L 680.10 804.20 L 681.00 801.30 L 681.30 798.80 L 680.80 793.90 L 680.00 791.70 L 678.40 788.70 L 675.60 785.10 L 667.30 776.20 L 665.80 773.60 L 665.20 771.80 L 665.10 770.00 L 666.50 764.40 L 666.80 760.80 L 666.60 757.10 L 665.80 753.40 L 664.60 749.90 L 662.80 746.50 L 660.50 743.30 L 657.80 740.40 L 654.60 737.70 L 651.10 735.50 L 647.10 733.70 L 642.70 732.30 L 635.70 731.40 L 631.80 731.40 L 627.60 731.80 L 621.20 733.40 L 618.80 734.50 L 614.70 737.50 L 613.20 739.20 L 611.20 742.30 L 608.90 747.70 L 602.70 766.80 L 598.30 776.30 L 595.00 781.80 L 591.40 787.00 L 583.10 796.50 L 573.90 805.00 L 566.50 810.80 L 559.10 816.00 L 544.20 825.00 L 520.60 837.70 L 513.60 841.90 L 510.30 844.40 L 508.90 845.80 L 508.30 847.10 L 508.10 848.20 L 508.40 849.20 Z" fill="#e06f6f" fill-rule="evenodd" node-id="70" stroke="none" target-height="124.69995" target-width="173.19998" target-x="508.1" target-y="731.4"></path><path d="M 492.60 844.80 L 492.40 843.60 L 491.30 841.70 L 489.30 840.60 L 488.10 840.40 L 485.90 841.00 L 484.30 842.60 L 483.90 843.70 L 484.40 945.80 L 481.80 947.10 L 479.50 948.80 L 477.60 950.90 L 476.20 953.40 L 475.20 956.20 L 474.90 959.20 L 475.30 962.20 L 476.20 965.00 L 477.60 967.50 L 479.60 969.70 L 481.90 971.40 L 484.60 972.60 L 484.80 984.60 L 485.20 985.60 L 486.80 987.20 L 489.10 987.80 L 491.30 987.10 L 492.90 985.50 L 493.30 984.50 L 493.40 972.60 L 496.10 971.40 L 498.50 969.70 L 500.40 967.60 L 501.90 965.10 L 503.00 961.30 L 503.20 959.20 L 502.60 955.10 L 501.90 953.30 L 500.40 950.70 L 498.40 948.60 L 496.00 946.90 L 493.20 945.70 L 492.60 844.80 Z" fill="#e06f6f" fill-rule="nonzero" node-id="72" stroke="none" target-height="147.39996" target-width="28.300018" target-x="474.9" target-y="840.4"></path><path d="M 540.90 945.80 L 538.30 947.10 L 536.00 948.80 L 534.10 950.90 L 532.70 953.40 L 531.70 956.20 L 531.40 959.20 L 531.70 962.20 L 532.70 965.00 L 534.10 967.50 L 536.10 969.70 L 538.40 971.40 L 541.10 972.60 L 541.30 984.60 L 541.70 985.60 L 543.30 987.20 L 545.60 987.80 L 546.80 987.60 L 547.80 987.10 L 549.40 985.50 L 550.00 983.30 L 549.90 972.60 L 552.60 971.40 L 554.90 969.70 L 556.90 967.60 L 558.40 965.10 L 559.10 963.20 L 559.70 959.20 L 559.10 955.10 L 558.40 953.30 L 556.90 950.70 L 554.90 948.60 L 552.50 946.90 L 549.70 945.70 L 549.10 844.80 L 548.50 842.60 L 546.90 841.00 L 544.60 840.40 L 542.40 841.00 L 540.80 842.60 L 540.20 844.90 L 540.90 945.80 Z" fill="#e06f6f" fill-rule="nonzero" node-id="74" stroke="none" target-height="147.39996" target-width="28.299988" target-x="531.4" target-y="840.4"></path></svg>