<?xml version="1.0" standalone="no"?><!DOCTYPE svg PUBLIC "-//W3C//DTD SVG 1.1//EN" "http://www.w3.org/Graphics/SVG/1.1/DTD/svg11.dtd"><svg height="512" node-id="1" sillyvg="true" template-height="512" template-width="512" version="1.1" viewBox="0 0 512 512" width="512" xmlns="http://www.w3.org/2000/svg" xmlns:xlink="http://www.w3.org/1999/xlink"><defs node-id="45"><mask height="75.7392" id="mask-2" maskUnits="userSpaceOnUse" node-id="13" width="57.618225" x="225.97888" y="378.52002"><path d="M 122.00 512.20 L 390.10 512.20 L 390.10 176.40 L 122.00 176.40 Z" fill="#ffffff" fill-rule="evenodd" node-id="50" stroke="none" target-height="335.80002" target-width="268.1" target-x="122" target-y="176.4"></path></mask><mask height="43.41797" id="mask1" maskUnits="userSpaceOnUse" node-id="54" width="57.618225" x="225.97888" y="380.00385"><path d="M 122.00 512.20 L 390.10 512.20 L 390.10 176.40 L 122.00 176.40 Z" fill="#ffffff" fill-rule="evenodd" node-id="58" stroke="none" target-height="335.80002" target-width="268.1" target-x="122" target-y="176.4"></path></mask><mask height="70.52402" id="mask2" maskUnits="userSpaceOnUse" node-id="62" width="60.311516" x="116.97428" y="304.34088"><path d="M 122.00 512.20 L 390.10 512.20 L 390.10 176.40 L 122.00 176.40 Z" fill="#ffffff" fill-rule="evenodd" node-id="66" stroke="none" target-height="335.80002" target-width="268.1" target-x="122" target-y="176.4"></path></mask><mask height="70.52402" id="mask3" maskUnits="userSpaceOnUse" node-id="70" width="60.31198" x="334.77814" y="304.34088"><path d="M 122.00 512.20 L 390.10 512.20 L 390.10 176.40 L 122.00 176.40 Z" fill="#ffffff" fill-rule="evenodd" node-id="74" stroke="none" target-height="335.80002" target-width="268.1" target-x="122" target-y="176.4"></path></mask><mask height="261" id="mask4" maskUnits="userSpaceOnUse" node-id="78" width="232.66702" x="139.52353" y="172.64912"><path d="M 122.00 512.20 L 390.10 512.20 L 390.10 176.40 L 122.00 176.40 Z" fill="#ffffff" fill-rule="evenodd" node-id="82" stroke="none" target-height="335.80002" target-width="268.1" target-x="122" target-y="176.4"></path></mask><mask height="261" id="mask5" maskUnits="userSpaceOnUse" node-id="86" width="232.66702" x="139.52353" y="165.64912"><path d="M 122.00 512.20 L 390.10 512.20 L 390.10 176.40 L 122.00 176.40 Z" fill="#ffffff" fill-rule="evenodd" node-id="90" stroke="none" target-height="335.80002" target-width="268.1" target-x="122" target-y="176.4"></path></mask><mask height="16.169281" id="mask6" maskUnits="userSpaceOnUse" node-id="94" width="27.537598" x="210.97324" y="303.46173"><path d="M 122.00 512.20 L 390.10 512.20 L 390.10 176.40 L 122.00 176.40 Z" fill="#ffffff" fill-rule="evenodd" node-id="98" stroke="none" target-height="335.80002" target-width="268.1" target-x="122" target-y="176.4"></path></mask><mask height="16.169281" id="mask7" maskUnits="userSpaceOnUse" node-id="102" width="27.537598" x="273.20294" y="303.46173"><path d="M 122.00 512.20 L 390.10 512.20 L 390.10 176.40 L 122.00 176.40 Z" fill="#ffffff" fill-rule="evenodd" node-id="106" stroke="none" target-height="335.80002" target-width="268.1" target-x="122" target-y="176.4"></path></mask><mask height="12.774719" id="mask8" maskUnits="userSpaceOnUse" node-id="110" width="18.349915" x="246.46252" y="326.64563"><path d="M 122.00 512.20 L 390.10 512.20 L 390.10 176.40 L 122.00 176.40 Z" fill="#ffffff" fill-rule="evenodd" node-id="114" stroke="none" target-height="335.80002" target-width="268.1" target-x="122" target-y="176.4"></path></mask><mask height="88.32428" id="mask9" maskUnits="userSpaceOnUse" node-id="118" width="186.80975" x="160.38321" y="430.5993"><path d="M 122.00 512.20 L 390.10 512.20 L 390.10 176.40 L 122.00 176.40 Z" fill="#ffffff" fill-rule="evenodd" node-id="122" stroke="none" target-height="335.80002" target-width="268.1" target-x="122" target-y="176.4"></path></mask><mask height="82.68338" id="mask10" maskUnits="userSpaceOnUse" node-id="126" width="187.67998" x="160.07576" y="436.3627"><path d="M 122.00 512.20 L 390.10 512.20 L 390.10 176.40 L 122.00 176.40 Z" fill="#ffffff" fill-rule="evenodd" node-id="130" stroke="none" target-height="335.80002" target-width="268.1" target-x="122" target-y="176.4"></path></mask></defs><path d="M 0.00 0.00 L 512.00 0.00 L 512.00 512.00 L 0.00 512.00 Z" fill="#ecc6df" fill-rule="evenodd" id="矩形" node-id="7" stroke="none" target-height="512" target-width="512" target-x="0" target-y="0"></path><g node-id="132"><g node-id="135"><g node-id="137"><path d="M 362.10 343.60 L 147.10 343.60 L 147.10 274.90 L 147.50 266.70 L 148.40 258.80 L 150.00 251.20 L 152.20 243.80 L 154.90 236.50 L 158.10 229.60 L 161.90 223.00 L 166.10 216.70 L 170.90 210.80 L 176.00 205.20 L 181.50 200.10 L 187.50 195.40 L 193.70 191.20 L 200.30 187.40 L 207.20 184.20 L 214.50 181.40 L 221.90 179.30 L 229.60 177.70 L 237.40 176.70 L 245.60 176.40 L 263.60 176.40 L 271.80 176.70 L 279.70 177.70 L 287.30 179.30 L 294.80 181.40 L 302.00 184.20 L 308.90 187.40 L 315.50 191.20 L 321.80 195.40 L 327.70 200.10 L 333.30 205.20 L 338.40 210.80 L 343.10 216.70 L 347.40 223.00 L 351.10 229.60 L 354.40 236.50 L 357.10 243.80 L 359.30 251.20 L 360.80 258.80 L 361.80 266.70 L 362.10 274.90 L 362.10 343.60 Z" fill="#ee6e25" fill-rule="evenodd" group-id="1,4,6" id="Fill-1" node-id="12" stroke="none" target-height="167.20001" target-width="215" target-x="147.1" target-y="176.4"></path><g node-id="140"><path d="M 230.80 447.90 L 278.80 447.90 L 278.80 384.80 L 230.80 384.80 Z" fill="#ffbbba" fill-rule="evenodd" group-id="1,4,6,9" id="Fill-3" node-id="16" stroke="none" target-height="63.100006" target-width="47.999985" target-x="230.8" target-y="384.8"></path></g><g node-id="141"><path d="M 230.80 416.60 L 243.80 419.10 L 254.80 419.80 L 265.80 419.10 L 278.80 416.60 L 278.80 383.60 L 230.80 383.60 L 230.80 416.60 Z" fill="#fb918d" fill-rule="evenodd" group-id="1,4,6,10" id="Fill-3" node-id="17" stroke="none" target-height="36.19998" target-width="47.999985" target-x="230.8" target-y="383.6"></path></g><g node-id="142"><path d="M 172.30 339.60 L 172.00 343.70 L 171.40 347.50 L 170.30 351.00 L 168.80 354.50 L 167.00 357.60 L 164.90 360.40 L 162.50 362.90 L 159.80 365.00 L 156.90 366.70 L 153.80 367.90 L 150.60 368.70 L 147.10 369.00 L 143.70 368.70 L 140.40 367.90 L 137.30 366.70 L 134.50 365.00 L 131.80 362.90 L 129.40 360.40 L 127.30 357.60 L 125.50 354.50 L 124.00 351.00 L 122.90 347.50 L 122.20 343.70 L 122.00 339.60 L 122.20 335.60 L 122.90 331.80 L 124.00 328.20 L 125.50 324.70 L 127.30 321.60 L 129.40 318.80 L 131.80 316.30 L 134.50 314.20 L 137.30 312.50 L 140.40 311.30 L 143.70 310.50 L 147.10 310.20 L 150.60 310.50 L 153.80 311.30 L 156.90 312.50 L 159.80 314.20 L 162.50 316.30 L 164.90 318.80 L 167.00 321.60 L 168.80 324.70 L 170.30 328.20 L 171.40 331.80 L 172.00 335.60 L 172.30 339.60" fill="#ffbbba" fill-rule="evenodd" group-id="1,4,6,11" id="Fill-5" node-id="18" stroke="none" target-height="58.799988" target-width="50.300003" target-x="122" target-y="310.2"></path></g><g node-id="143"><path d="M 390.10 339.60 L 389.80 343.70 L 389.20 347.50 L 388.10 351.00 L 386.60 354.50 L 384.80 357.60 L 382.70 360.40 L 380.30 362.90 L 377.60 365.00 L 374.70 366.70 L 371.60 367.90 L 368.40 368.70 L 364.90 369.00 L 361.50 368.70 L 358.20 367.90 L 355.20 366.70 L 352.30 365.00 L 349.60 362.90 L 347.20 360.40 L 345.10 357.60 L 343.30 354.50 L 341.80 351.00 L 340.70 347.50 L 340.00 343.70 L 339.80 339.60 L 340.00 335.60 L 340.70 331.80 L 341.80 328.20 L 343.30 324.70 L 345.10 321.60 L 347.20 318.80 L 349.60 316.30 L 352.30 314.20 L 355.20 312.50 L 358.20 311.30 L 361.50 310.50 L 364.90 310.20 L 368.40 310.50 L 371.60 311.30 L 374.70 312.50 L 377.60 314.20 L 380.30 316.30 L 382.70 318.80 L 384.80 321.60 L 386.60 324.70 L 388.10 328.20 L 389.20 331.80 L 389.80 335.60 L 390.10 339.60" fill="#ffbbba" fill-rule="evenodd" group-id="1,4,6,12" id="Fill-7" node-id="19" stroke="none" target-height="58.799988" target-width="50.30002" target-x="339.8" target-y="310.2"></path></g><g node-id="144"><path d="M 255.90 411.90 L 247.70 411.30 L 237.30 409.30 L 225.50 405.80 L 219.50 403.70 L 207.00 398.10 L 200.90 394.90 L 194.90 391.20 L 189.00 387.20 L 183.50 382.80 L 178.40 378.10 L 173.70 372.90 L 170.50 368.80 L 167.60 364.50 L 165.10 360.00 L 162.90 355.30 L 161.20 350.40 L 160.00 345.20 L 159.20 339.80 L 158.90 334.10 L 159.20 312.70 L 159.70 301.40 L 160.70 289.70 L 163.00 274.10 L 166.60 258.70 L 169.00 251.30 L 171.80 244.20 L 177.00 233.90 L 183.50 224.50 L 187.20 220.10 L 191.30 216.10 L 195.80 212.30 L 200.70 208.70 L 205.80 205.60 L 211.50 202.80 L 217.70 200.30 L 224.50 198.20 L 231.20 196.60 L 238.70 195.40 L 246.90 194.70 L 255.90 194.40 L 264.80 194.70 L 273.00 195.40 L 280.50 196.60 L 287.30 198.20 L 294.10 200.30 L 300.20 202.80 L 305.90 205.60 L 311.00 208.70 L 315.90 212.30 L 320.40 216.10 L 324.50 220.10 L 328.20 224.50 L 331.60 229.10 L 337.40 238.90 L 339.90 244.20 L 342.70 251.30 L 345.10 258.70 L 347.10 266.40 L 350.00 281.90 L 352.00 301.40 L 352.50 312.70 L 352.80 334.10 L 352.50 339.80 L 351.70 345.20 L 350.50 350.40 L 348.80 355.30 L 346.60 360.00 L 344.10 364.50 L 341.30 368.80 L 338.00 372.90 L 333.30 378.10 L 328.20 382.80 L 322.70 387.20 L 316.80 391.20 L 310.90 394.90 L 298.40 401.10 L 286.20 405.80 L 274.40 409.30 L 264.00 411.30 L 255.90 411.90 Z" fill="#ffbbba" fill-rule="evenodd" group-id="1,4,6,13" id="Fill-9" node-id="20" stroke="none" target-height="217.5" target-width="193.9" target-x="158.9" target-y="194.4"></path></g><g node-id="145"><path d="M 255.90 404.90 L 247.70 404.30 L 237.30 402.30 L 225.50 398.80 L 219.50 396.70 L 207.00 391.10 L 200.90 387.90 L 194.90 384.20 L 189.00 380.20 L 183.50 375.80 L 178.40 371.10 L 173.70 365.90 L 170.50 361.80 L 167.60 357.50 L 165.10 353.00 L 162.90 348.30 L 161.20 343.40 L 160.00 338.20 L 159.20 332.80 L 158.90 327.10 L 159.20 305.70 L 159.70 294.40 L 160.70 282.70 L 163.00 267.10 L 166.60 251.70 L 169.00 244.30 L 171.80 237.20 L 177.00 226.90 L 183.50 217.50 L 187.20 213.10 L 191.30 209.10 L 195.80 205.30 L 200.70 201.70 L 205.80 198.60 L 211.50 195.80 L 217.70 193.30 L 224.50 191.20 L 231.20 189.60 L 238.70 188.40 L 246.90 187.70 L 255.90 187.40 L 264.80 187.70 L 273.00 188.40 L 280.50 189.60 L 287.30 191.20 L 294.10 193.30 L 300.20 195.80 L 305.90 198.60 L 311.00 201.70 L 315.90 205.30 L 320.40 209.10 L 324.50 213.10 L 328.20 217.50 L 331.60 222.10 L 337.40 231.90 L 339.90 237.20 L 342.70 244.30 L 345.10 251.70 L 347.10 259.40 L 350.00 274.90 L 352.00 294.40 L 352.50 305.70 L 352.80 327.10 L 352.50 332.80 L 351.70 338.20 L 350.50 343.40 L 348.80 348.30 L 346.60 353.00 L 344.10 357.50 L 341.30 361.80 L 338.00 365.90 L 333.30 371.10 L 328.20 375.80 L 322.70 380.20 L 316.80 384.20 L 310.90 387.90 L 298.40 394.10 L 286.20 398.80 L 274.40 402.30 L 264.00 404.30 L 255.90 404.90 Z" fill="#ffd5d6" fill-rule="evenodd" group-id="1,4,6,14" id="Fill-9" node-id="21" stroke="none" target-height="217.5" target-width="193.9" target-x="158.9" target-y="187.4"></path></g><g node-id="146"><path d="M 224.70 304.80 L 226.80 305.00 L 230.50 306.40 L 232.10 307.50 L 234.60 310.50 L 236.00 314.20 L 236.20 316.30 L 235.60 317.70 L 234.20 318.30 L 233.40 318.10 L 232.40 317.10 L 231.90 314.30 L 231.20 312.50 L 230.00 311.00 L 228.50 309.80 L 226.70 309.10 L 224.70 308.80 L 222.70 309.10 L 221.00 309.80 L 219.50 311.00 L 218.30 312.50 L 217.50 314.30 L 217.10 317.10 L 216.70 317.70 L 215.30 318.30 L 213.90 317.70 L 213.30 316.30 L 213.50 314.20 L 214.00 312.30 L 216.00 308.90 L 219.00 306.40 L 220.70 305.50 L 224.70 304.80 Z" fill="#000000" fill-rule="nonzero" group-id="1,4,6,15" id="Stroke-12" node-id="22" stroke="none" target-height="13.5" target-width="22.899994" target-x="213.3" target-y="304.8"></path></g><g node-id="147"><path d="M 287.00 304.80 L 289.10 305.00 L 292.80 306.40 L 294.40 307.50 L 296.90 310.50 L 298.30 314.20 L 298.40 316.30 L 297.90 317.70 L 296.40 318.30 L 295.70 318.10 L 294.60 317.10 L 294.20 314.30 L 293.40 312.50 L 292.30 311.00 L 290.70 309.80 L 289.00 309.10 L 287.00 308.80 L 285.00 309.10 L 283.20 309.80 L 281.70 311.00 L 280.50 312.50 L 279.80 314.30 L 279.30 317.10 L 278.90 317.70 L 277.50 318.30 L 276.10 317.70 L 275.50 316.30 L 275.70 314.20 L 276.20 312.30 L 278.20 308.90 L 281.20 306.40 L 283.00 305.50 L 287.00 304.80 Z" fill="#000000" fill-rule="nonzero" group-id="1,4,6,16" id="Stroke-13" node-id="23" stroke="none" target-height="13.5" target-width="22.899994" target-x="275.5" target-y="304.8"></path></g><g node-id="148"><path d="M 263.30 335.40 L 262.60 336.70 L 261.70 337.30 L 260.10 337.90 L 255.60 338.40 L 251.20 337.90 L 249.60 337.30 L 248.70 336.70 L 248.00 335.40 L 248.30 333.20 L 249.00 331.40 L 250.20 329.90 L 251.80 328.70 L 253.60 328.00 L 255.60 327.70 L 257.70 328.00 L 259.50 328.70 L 261.00 329.90 L 262.20 331.40 L 263.00 333.20 L 263.30 335.40" fill="#e8b39f" fill-rule="evenodd" group-id="1,4,6,17" id="Fill-14" node-id="24" stroke="none" target-height="10.699982" target-width="15.299988" target-x="248" target-y="327.7"></path></g><g node-id="149"><path d="M 331.60 511.60 L 176.00 511.60 L 176.20 505.50 L 176.90 499.60 L 178.10 493.80 L 179.70 488.30 L 181.80 482.90 L 184.20 477.70 L 187.00 472.80 L 190.20 468.10 L 193.70 463.60 L 197.50 459.50 L 201.60 455.70 L 206.10 452.20 L 210.80 449.00 L 215.70 446.20 L 220.90 443.80 L 226.30 441.70 L 231.80 440.10 L 237.50 438.90 L 243.40 438.20 L 249.60 438.00 L 264.10 438.20 L 270.00 438.90 L 275.70 440.10 L 281.30 441.70 L 286.70 443.80 L 291.90 446.20 L 296.80 449.00 L 301.50 452.20 L 305.90 455.70 L 310.10 459.50 L 313.90 463.60 L 317.40 468.10 L 320.60 472.80 L 323.40 477.70 L 325.80 482.90 L 327.90 488.30 L 329.50 493.80 L 330.70 499.60 L 331.40 505.50 L 331.60 511.60" fill="#ffbbba" fill-rule="evenodd" group-id="1,4,6,18" id="Fill-15" node-id="25" stroke="none" target-height="73.600006" target-width="155.6" target-x="176" target-y="438"></path></g><path d="M 290.10 445.00 L 288.00 449.30 L 285.30 453.20 L 282.20 456.70 L 278.60 459.90 L 274.70 462.50 L 270.40 464.70 L 267.00 465.90 L 259.90 467.40 L 256.00 467.60 L 252.00 467.30 L 248.20 466.70 L 244.60 465.80 L 241.10 464.40 L 234.70 460.70 L 231.80 458.40 L 226.70 453.00 L 222.90 446.70 L 221.40 443.30 L 211.70 448.10 L 207.20 451.10 L 198.90 457.90 L 191.70 465.80 L 185.60 474.70 L 180.90 484.50 L 179.10 489.70 L 177.60 495.00 L 176.60 500.50 L 175.90 506.10 L 175.70 512.20 L 332.10 512.20 L 331.90 506.40 L 331.30 501.00 L 329.10 490.70 L 325.40 480.90 L 320.40 471.90 L 316.50 466.30 L 312.10 461.10 L 307.20 456.30 L 301.90 452.00 L 296.20 448.20 L 290.10 445.00" fill="#8898ed" fill-rule="evenodd" group-id="1,4,6,19" id="Fill-16" node-id="26" stroke="none" target-height="68.900024" target-width="156.40001" target-x="175.7" target-y="443.3"></path></g><g node-id="138"><path d="M 209.20 277.60 L 209.90 276.10 L 211.00 275.10 L 212.40 274.50 L 214.00 274.60 L 231.50 278.60 L 233.00 279.30 L 234.00 280.40 L 234.60 281.80 L 234.50 283.40 L 233.90 284.90 L 232.70 285.90 L 231.30 286.50 L 229.70 286.40 L 212.90 282.50 L 210.80 281.70 L 209.70 280.60 L 209.20 279.20 L 209.20 277.60 Z" fill="#614536" fill-rule="nonzero" group-id="1,4,7" id="Stroke-20" node-id="28" stroke="none" target-height="12" target-width="25.40001" target-x="209.2" target-y="274.5"></path><path d="M 302.70 277.50 L 302.80 279.10 L 302.30 280.60 L 301.20 281.70 L 299.80 282.40 L 282.30 286.40 L 280.70 286.50 L 279.30 285.90 L 278.10 284.90 L 277.50 283.40 L 277.40 281.80 L 277.90 280.40 L 279.00 279.30 L 280.40 278.60 L 297.90 274.60 L 299.50 274.50 L 300.90 275.10 L 302.00 276.10 L 302.70 277.50 Z" fill="#614536" fill-rule="nonzero" group-id="1,4,7" id="Stroke-22" node-id="29" stroke="none" target-height="12" target-width="25.399994" target-x="277.4" target-y="274.5"></path></g></g></g><g node-id="133"><path d="M 232.10 353.70 L 279.70 353.70 L 278.80 358.30 L 277.60 362.20 L 276.10 365.50 L 274.20 368.20 L 272.10 370.50 L 269.70 372.40 L 267.00 373.90 L 263.90 375.00 L 260.30 375.70 L 256.20 375.90 L 252.10 375.70 L 248.50 375.00 L 245.40 373.90 L 242.60 372.40 L 240.10 370.50 L 238.00 368.20 L 236.10 365.50 L 234.40 362.20 L 233.10 358.30 L 232.10 353.70 Z" fill="#ffbbba" fill-rule="evenodd" group-id="2" id="路径-8备份" node-id="31" stroke="none" target-height="22.199982" target-width="47.600006" target-x="232.1" target-y="353.7"></path><path d="M 234.60 350.00 L 277.00 350.00 L 278.10 350.20 L 279.00 350.80 L 279.50 351.60 L 279.70 352.70 L 278.20 357.30 L 276.30 360.50 L 274.10 363.20 L 271.50 365.40 L 268.50 367.10 L 265.00 368.40 L 260.90 369.20 L 256.20 369.50 L 251.50 369.20 L 247.40 368.40 L 243.90 367.10 L 240.80 365.40 L 238.10 363.20 L 235.70 360.60 L 233.70 357.40 L 232.10 353.60 L 231.90 352.50 L 232.20 351.50 L 232.80 350.70 L 234.60 350.00 Z" fill="#ffffff" fill-rule="evenodd" group-id="2" id="路径-8备份" node-id="32" stroke="none" target-height="19.5" target-width="47.80002" target-x="231.9" target-y="350"></path></g><g node-id="134"><path d="M 221.50 270.60 L 230.80 268.50 L 247.10 263.80 L 255.00 261.10 L 267.50 255.80 L 273.20 252.70 L 277.50 250.00 L 280.70 247.40 L 282.80 245.20 L 284.00 243.20 L 284.50 241.50 L 284.50 239.90 L 283.90 238.40 L 282.70 237.00 L 280.80 235.70 L 277.90 234.50 L 274.00 233.50 L 269.00 232.70 L 262.50 232.20 L 248.90 232.50 L 240.60 233.20 L 223.80 235.60 L 214.50 237.40 L 205.20 239.50 L 188.90 244.20 L 181.00 246.90 L 168.50 252.20 L 162.80 255.30 L 158.50 258.00 L 155.30 260.60 L 153.20 262.80 L 152.00 264.80 L 151.50 266.50 L 151.50 268.10 L 152.10 269.60 L 153.30 271.00 L 155.20 272.30 L 158.10 273.50 L 162.00 274.50 L 167.00 275.30 L 173.50 275.80 L 187.10 275.50 L 195.40 274.80 L 212.20 272.40 L 221.50 270.60 Z" fill="#ee6e25" fill-rule="evenodd" group-id="3" id="椭圆形" node-id="34" stroke="none" target-height="43.59999" target-width="133" target-x="151.5" target-y="232.2"></path><path d="M 310.90 264.50 L 316.30 267.40 L 326.60 271.90 L 331.80 273.70 L 340.70 275.80 L 345.10 276.20 L 348.70 276.10 L 351.80 275.70 L 354.00 275.00 L 357.20 272.90 L 358.20 271.50 L 358.90 269.90 L 359.10 266.10 L 358.60 263.80 L 357.50 260.90 L 355.70 257.80 L 353.20 254.20 L 346.90 247.50 L 338.50 240.50 L 333.80 237.30 L 328.50 234.00 L 317.80 228.60 L 312.80 226.60 L 303.00 223.60 L 294.30 222.30 L 290.70 222.40 L 287.60 222.80 L 285.40 223.50 L 282.20 225.60 L 281.20 227.00 L 280.50 228.60 L 280.30 232.40 L 280.80 234.70 L 281.90 237.60 L 283.70 240.70 L 286.20 244.30 L 292.50 251.00 L 296.60 254.60 L 305.60 261.20 L 310.90 264.50 Z" fill="#ee6e25" fill-rule="evenodd" group-id="3" id="椭圆形备份-2" node-id="35" stroke="none" target-height="53.90001" target-width="78.80002" target-x="280.3" target-y="222.3"></path><path d="M 362.00 266.30 L 361.70 259.10 L 361.10 252.20 L 359.90 245.50 L 358.40 239.00 L 356.50 232.70 L 354.10 226.50 L 351.30 220.50 L 348.20 214.80 L 344.80 209.30 L 341.00 204.00 L 335.80 197.70 L 330.10 191.90 L 324.00 186.60 L 317.40 181.60 L 310.50 177.20 L 303.20 173.40 L 295.60 170.00 L 287.60 167.20 L 281.00 165.30 L 274.40 163.90 L 267.50 162.90 L 260.40 162.20 L 253.20 162.00 L 245.90 162.20 L 238.90 162.90 L 232.10 163.90 L 225.50 165.30 L 219.10 167.00 L 211.20 169.80 L 203.70 173.10 L 196.60 176.90 L 189.90 181.30 L 183.50 186.10 L 177.70 191.40 L 172.20 197.10 L 167.20 203.30 L 163.60 208.50 L 160.30 213.90 L 157.30 219.60 L 154.70 225.50 L 152.50 231.70 L 150.60 238.00 L 149.20 244.50 L 148.10 251.20 L 147.50 258.10 L 147.20 265.20 L 167.10 260.50 L 177.20 258.50 L 190.00 256.30 L 203.60 254.40 L 230.40 252.00 L 254.50 251.30 L 278.60 252.10 L 289.50 252.90 L 305.40 254.70 L 319.10 256.80 L 331.90 259.20 L 342.00 261.30 L 362.00 266.30 Z" fill="#fffcfa" fill-rule="evenodd" group-id="3" id="Fill-37" node-id="36" stroke="none" target-height="104.29999" target-width="214.8" target-x="147.2" target-y="162"></path><g node-id="136"><path d="M 225.00 232.00 L 227.80 225.30 L 229.40 222.30 L 234.20 215.80 L 237.30 212.70 L 242.40 209.30 L 245.30 207.90 L 248.40 206.90 L 251.90 206.30 L 255.70 206.00 L 259.60 206.30 L 263.10 206.90 L 266.30 207.90 L 272.10 210.90 L 277.90 215.80 L 280.70 219.00 L 284.90 225.30 L 288.00 232.00 L 273.60 230.50 L 256.00 229.50 L 238.90 230.50 L 225.00 232.00 Z" fill="#ee6e25" fill-rule="evenodd" group-id="3,5" id="Stroke-43" node-id="38" stroke="none" target-height="26" target-width="63" target-x="225" target-y="206"></path><path d="M 235.00 241.00 L 234.80 242.20 L 234.10 243.10 L 233.20 243.80 L 232.00 244.00 L 230.80 243.80 L 229.90 243.10 L 229.20 242.20 L 229.00 241.00 L 229.20 239.80 L 229.90 238.90 L 230.80 238.20 L 232.00 238.00 L 233.20 238.20 L 234.10 238.90 L 234.80 239.80 L 235.00 241.00 Z" fill="#ee6e25" fill-rule="evenodd" group-id="3,5" id="椭圆形" node-id="39" stroke="none" target-height="6" target-width="6" target-x="229" target-y="238"></path><path d="M 247.00 241.00 L 246.80 242.20 L 246.10 243.10 L 245.20 243.80 L 244.00 244.00 L 242.80 243.80 L 241.90 243.10 L 241.20 242.20 L 241.00 241.00 L 241.20 239.80 L 241.90 238.90 L 242.80 238.20 L 244.00 238.00 L 245.20 238.20 L 246.10 238.90 L 246.80 239.80 L 247.00 241.00 Z" fill="#ee6e25" fill-rule="evenodd" group-id="3,5" id="椭圆形备份-3" node-id="40" stroke="none" target-height="6" target-width="6" target-x="241" target-y="238"></path><path d="M 259.00 241.00 L 258.80 242.20 L 258.10 243.10 L 257.20 243.80 L 256.00 244.00 L 254.80 243.80 L 253.90 243.10 L 253.20 242.20 L 253.00 241.00 L 253.20 239.80 L 253.90 238.90 L 254.80 238.20 L 256.00 238.00 L 257.20 238.20 L 258.10 238.90 L 258.80 239.80 L 259.00 241.00 Z" fill="#ee6e25" fill-rule="evenodd" group-id="3,5" id="椭圆形备份-4" node-id="41" stroke="none" target-height="6" target-width="6" target-x="253" target-y="238"></path><path d="M 271.00 241.00 L 270.80 242.20 L 270.10 243.10 L 269.20 243.80 L 268.00 244.00 L 266.80 243.80 L 265.90 243.10 L 265.20 242.20 L 265.00 241.00 L 265.20 239.80 L 265.90 238.90 L 266.80 238.20 L 268.00 238.00 L 269.20 238.20 L 270.10 238.90 L 270.80 239.80 L 271.00 241.00 Z" fill="#ee6e25" fill-rule="evenodd" group-id="3,5" id="椭圆形备份-5" node-id="42" stroke="none" target-height="6" target-width="6" target-x="265" target-y="238"></path><path d="M 283.00 241.00 L 282.80 242.20 L 282.10 243.10 L 281.20 243.80 L 280.00 244.00 L 278.80 243.80 L 277.90 243.10 L 277.20 242.20 L 277.00 241.00 L 277.20 239.80 L 277.90 238.90 L 278.80 238.20 L 280.00 238.00 L 281.20 238.20 L 282.10 238.90 L 282.80 239.80 L 283.00 241.00 Z" fill="#ee6e25" fill-rule="evenodd" group-id="3,5" id="椭圆形备份-6" node-id="43" stroke="none" target-height="6" target-width="6" target-x="277" target-y="238"></path></g></g></svg>