<?xml version="1.0" standalone="no"?><!DOCTYPE svg PUBLIC "-//W3C//DTD SVG 1.1//EN" "http://www.w3.org/Graphics/SVG/1.1/DTD/svg11.dtd"><svg height="512" node-id="1" sillyvg="true" template-height="512" template-width="512" version="1.1" viewBox="0 0 512 512" width="512" xmlns="http://www.w3.org/2000/svg" xmlns:xlink="http://www.w3.org/1999/xlink"><defs node-id="40"><mask height="91.67807" id="mask-2" maskUnits="userSpaceOnUse" node-id="14" width="91.678085" x="103.36008" y="340.08588"><path d="M 111.00 347.70 L 187.40 347.70 L 187.40 424.10 L 111.00 424.10 Z" fill="#ffffff" fill-rule="evenodd" node-id="45" stroke="none" target-height="76.399994" target-width="76.399994" target-x="111" target-y="347.7"></path></mask><mask height="293.30212" id="mask-4" maskUnits="userSpaceOnUse" node-id="20" width="293.3021" x="108.8574" y="136.95802"><path d="M 133.30 161.40 L 377.70 161.40 L 377.70 405.80 L 133.30 405.80 Z" fill="#ffffff" fill-rule="evenodd" node-id="52" stroke="none" target-height="244.4" target-width="244.40001" target-x="133.3" target-y="161.4"></path></mask></defs><path d="M 0.00 0.00 L 512.00 0.00 L 512.00 512.00 L 0.00 512.00 Z" fill="#ffc6ce" fill-rule="evenodd" id="矩形" node-id="8" stroke="none" target-height="512" target-width="512" target-x="0" target-y="0"></path><g node-id="54"><path d="M 230.60 447.70 L 278.60 447.70 L 278.60 384.60 L 230.60 384.60 Z" fill="#ffbbba" fill-rule="evenodd" group-id="1" id="Fill-1" node-id="10" stroke="none" target-height="63.100006" target-width="48" target-x="230.6" target-y="384.6"></path><path d="M 230.60 415.70 L 237.90 417.50 L 244.70 418.60 L 250.80 419.30 L 256.40 419.50 L 262.10 419.30 L 267.70 418.60 L 273.20 417.40 L 278.60 415.70 L 278.60 352.60 L 230.60 352.60 L 230.60 415.70 Z" fill="#fb918d" fill-rule="evenodd" group-id="1" id="Fill-1" node-id="11" stroke="none" target-height="66.899994" target-width="48" target-x="230.6" target-y="352.6"></path><g node-id="55"><g node-id="56"><g node-id="61"><path d="M 187.40 385.90 L 186.60 393.70 L 184.40 400.80 L 182.20 405.20 L 179.40 409.30 L 176.20 412.90 L 172.50 416.20 L 168.50 418.90 L 164.10 421.10 L 157.00 423.30 L 149.20 424.10 L 141.40 423.30 L 134.30 421.10 L 129.90 418.90 L 125.90 416.20 L 122.20 412.90 L 119.00 409.30 L 116.20 405.20 L 114.00 400.80 L 111.80 393.70 L 111.20 389.90 L 111.00 385.90 L 111.20 382.00 L 112.70 374.50 L 114.00 371.10 L 116.20 366.60 L 119.00 362.60 L 122.20 358.90 L 125.90 355.70 L 129.90 353.00 L 134.30 350.70 L 141.40 348.50 L 149.20 347.70 L 157.00 348.50 L 164.10 350.70 L 168.50 353.00 L 172.50 355.70 L 176.20 358.90 L 179.40 362.60 L 182.20 366.60 L 184.40 371.10 L 186.60 378.20 L 187.40 385.90" fill="#9d6aea" fill-rule="evenodd" group-id="1,2,3,8" id="Fill-2" node-id="17" stroke="none" target-height="76.399994" target-width="76.399994" target-x="111" target-y="347.7"></path></g></g><path d="M 400.00 385.90 L 399.20 393.70 L 397.00 400.80 L 394.80 405.20 L 392.10 409.30 L 388.80 412.90 L 385.20 416.20 L 381.10 418.90 L 376.70 421.10 L 369.60 423.30 L 361.80 424.10 L 354.10 423.30 L 346.90 421.10 L 342.50 418.90 L 338.50 416.20 L 334.80 412.90 L 331.60 409.30 L 328.90 405.20 L 326.60 400.80 L 324.40 393.70 L 323.60 385.90 L 324.40 378.20 L 326.60 371.10 L 328.90 366.60 L 331.60 362.60 L 334.80 358.90 L 338.50 355.70 L 342.50 353.00 L 346.90 350.70 L 354.10 348.50 L 361.80 347.70 L 369.60 348.50 L 376.70 350.70 L 381.10 353.00 L 385.20 355.70 L 388.80 358.90 L 392.10 362.60 L 394.80 366.60 L 397.00 371.10 L 399.20 378.20 L 400.00 385.90" fill="#9d6aea" fill-rule="evenodd" group-id="1,2" id="Fill-4" node-id="18" stroke="none" target-height="76.399994" target-width="76.399994" target-x="323.6" target-y="347.7"></path><g node-id="57"><g node-id="63"><path d="M 377.70 283.60 L 377.40 292.10 L 376.60 300.30 L 375.20 308.30 L 373.40 316.10 L 371.00 323.80 L 368.10 331.20 L 364.80 338.40 L 361.00 345.30 L 356.80 352.00 L 352.20 358.30 L 347.30 364.30 L 341.90 370.00 L 336.20 375.40 L 330.20 380.30 L 323.90 384.90 L 317.20 389.10 L 310.30 392.90 L 303.10 396.20 L 295.70 399.10 L 288.00 401.50 L 280.20 403.30 L 272.20 404.70 L 264.00 405.50 L 255.50 405.80 L 247.10 405.50 L 238.80 404.70 L 230.80 403.30 L 223.00 401.50 L 215.30 399.10 L 207.90 396.20 L 200.70 392.90 L 193.80 389.10 L 187.20 384.90 L 180.80 380.30 L 174.80 375.40 L 169.10 370.00 L 163.70 364.30 L 158.80 358.30 L 154.20 352.00 L 150.00 345.30 L 146.20 338.40 L 142.90 331.20 L 140.10 323.80 L 137.70 316.10 L 135.80 308.30 L 134.40 300.30 L 133.60 292.10 L 133.30 283.60 L 133.60 275.20 L 134.40 266.90 L 135.80 258.90 L 137.70 251.10 L 140.10 243.40 L 142.90 236.00 L 146.20 228.80 L 150.00 221.90 L 154.20 215.30 L 158.80 208.90 L 163.70 202.90 L 169.10 197.20 L 174.80 191.80 L 180.80 186.90 L 187.20 182.30 L 193.80 178.10 L 200.70 174.30 L 207.90 171.00 L 215.30 168.20 L 223.00 165.80 L 230.80 163.90 L 238.80 162.50 L 247.10 161.70 L 255.50 161.40 L 264.00 161.70 L 272.20 162.50 L 280.20 163.90 L 288.00 165.80 L 295.70 168.20 L 303.10 171.00 L 310.30 174.30 L 317.20 178.10 L 323.90 182.30 L 330.20 186.90 L 336.20 191.80 L 341.90 197.20 L 347.30 202.90 L 352.20 208.90 L 356.80 215.30 L 361.00 221.90 L 364.80 228.80 L 368.10 236.00 L 371.00 243.40 L 373.40 251.10 L 375.20 258.90 L 376.60 266.90 L 377.40 275.20 L 377.70 283.60" fill="#9d6aea" fill-rule="evenodd" group-id="1,2,4,10" id="Fill-6" node-id="23" stroke="none" target-height="244.4" target-width="244.40001" target-x="133.3" target-y="161.4"></path></g></g><path d="M 172.10 339.40 L 171.80 343.40 L 171.20 347.20 L 170.10 350.80 L 168.60 354.30 L 166.80 357.40 L 164.70 360.20 L 162.30 362.70 L 159.60 364.80 L 156.70 366.50 L 153.60 367.70 L 150.40 368.50 L 146.90 368.80 L 143.50 368.50 L 140.20 367.70 L 137.10 366.50 L 134.30 364.80 L 131.60 362.70 L 129.20 360.20 L 127.00 357.40 L 125.20 354.30 L 123.80 350.80 L 122.70 347.20 L 122.00 343.40 L 121.80 339.40 L 122.00 335.30 L 122.70 331.50 L 123.80 328.00 L 125.20 324.50 L 127.00 321.40 L 129.20 318.60 L 131.60 316.10 L 134.30 314.00 L 137.10 312.30 L 140.20 311.10 L 143.50 310.30 L 146.90 310.00 L 150.40 310.30 L 153.60 311.10 L 156.70 312.30 L 159.60 314.00 L 162.30 316.10 L 164.70 318.60 L 166.80 321.40 L 168.60 324.50 L 170.10 328.00 L 171.20 331.50 L 171.80 335.30 L 172.10 339.40" fill="#ffbbba" fill-rule="evenodd" group-id="1,2" id="Fill-8" node-id="24" stroke="none" target-height="58.799988" target-width="50.300003" target-x="121.8" target-y="310"></path><path d="M 389.90 339.40 L 389.60 343.40 L 389.00 347.20 L 387.90 350.80 L 386.40 354.30 L 384.60 357.40 L 382.50 360.20 L 380.10 362.70 L 377.40 364.80 L 374.50 366.50 L 371.40 367.70 L 368.20 368.50 L 364.70 368.80 L 361.30 368.50 L 358.00 367.70 L 354.90 366.50 L 352.10 364.80 L 349.40 362.70 L 347.00 360.20 L 344.80 357.40 L 343.10 354.30 L 341.60 350.80 L 340.50 347.20 L 339.80 343.40 L 339.60 339.40 L 339.80 335.30 L 340.50 331.50 L 341.60 328.00 L 343.10 324.50 L 344.80 321.40 L 347.00 318.60 L 349.40 316.10 L 352.10 314.00 L 354.90 312.30 L 358.00 311.10 L 361.30 310.30 L 364.70 310.00 L 368.20 310.30 L 371.40 311.10 L 374.50 312.30 L 377.40 314.00 L 380.10 316.10 L 382.50 318.60 L 384.60 321.40 L 386.40 324.50 L 387.90 328.00 L 389.00 331.50 L 389.60 335.30 L 389.90 339.40" fill="#ffbbba" fill-rule="evenodd" group-id="1,2" id="Fill-12" node-id="25" stroke="none" target-height="58.799988" target-width="50.299988" target-x="339.6" target-y="310"></path><path d="M 255.70 411.70 L 247.50 411.10 L 237.10 409.10 L 225.30 405.60 L 219.30 403.50 L 206.80 397.90 L 200.70 394.70 L 194.70 391.00 L 188.80 387.00 L 183.30 382.60 L 178.20 377.80 L 173.50 372.70 L 170.20 368.60 L 167.40 364.30 L 164.90 359.80 L 162.70 355.10 L 161.00 350.20 L 159.80 345.00 L 159.00 339.60 L 158.70 333.90 L 158.90 327.20 L 159.60 320.40 L 160.70 313.60 L 162.20 306.70 L 166.30 293.20 L 171.90 280.00 L 178.90 267.40 L 187.10 255.80 L 191.70 250.30 L 196.50 245.20 L 201.50 240.40 L 206.70 236.00 L 212.30 231.90 L 218.00 228.40 L 223.80 225.30 L 229.90 222.70 L 236.10 220.60 L 242.50 219.10 L 249.00 218.10 L 255.70 217.80 L 262.30 218.10 L 268.80 219.10 L 275.20 220.60 L 281.40 222.70 L 287.50 225.30 L 293.30 228.40 L 299.00 231.90 L 304.60 236.00 L 309.80 240.40 L 314.80 245.20 L 319.60 250.30 L 324.20 255.80 L 332.40 267.40 L 339.40 280.00 L 345.00 293.20 L 349.10 306.70 L 350.60 313.60 L 351.70 320.40 L 352.40 327.20 L 352.60 333.90 L 352.30 339.60 L 351.50 345.00 L 350.30 350.20 L 348.60 355.10 L 346.40 359.80 L 343.90 364.30 L 341.10 368.60 L 337.80 372.70 L 333.10 377.80 L 328.00 382.60 L 322.50 387.00 L 316.60 391.00 L 310.60 394.70 L 304.50 397.90 L 292.00 403.50 L 286.00 405.60 L 274.20 409.10 L 263.80 411.10 L 255.70 411.70 Z" fill="#ffc0ba" fill-rule="evenodd" group-id="1,2" id="Fill-16" node-id="26" stroke="none" target-height="193.90001" target-width="193.90001" target-x="158.7" target-y="217.8"></path><path d="M 255.70 404.70 L 247.50 404.10 L 237.10 402.10 L 225.30 398.60 L 219.30 396.50 L 206.80 390.90 L 200.70 387.70 L 194.70 384.00 L 188.80 380.00 L 183.30 375.60 L 178.20 370.80 L 173.50 365.70 L 170.20 361.60 L 167.40 357.30 L 164.90 352.80 L 162.70 348.10 L 161.00 343.20 L 159.80 338.00 L 159.00 332.60 L 158.70 326.90 L 158.90 320.20 L 159.60 313.40 L 160.70 306.60 L 162.20 299.70 L 166.30 286.20 L 171.90 273.00 L 178.90 260.40 L 187.10 248.80 L 191.70 243.30 L 196.50 238.20 L 201.50 233.40 L 206.70 229.00 L 212.30 224.90 L 218.00 221.40 L 223.80 218.30 L 229.90 215.70 L 236.10 213.60 L 242.50 212.10 L 249.00 211.10 L 255.70 210.80 L 262.30 211.10 L 268.80 212.10 L 275.20 213.60 L 281.40 215.70 L 287.50 218.30 L 293.30 221.40 L 299.00 224.90 L 304.60 229.00 L 309.80 233.40 L 314.80 238.20 L 319.60 243.30 L 324.20 248.80 L 332.40 260.40 L 339.40 273.00 L 345.00 286.20 L 349.10 299.70 L 350.60 306.60 L 351.70 313.40 L 352.40 320.20 L 352.60 326.90 L 352.30 332.60 L 351.50 338.00 L 350.30 343.20 L 348.60 348.10 L 346.40 352.80 L 343.90 357.30 L 341.10 361.60 L 337.80 365.70 L 333.10 370.80 L 328.00 375.60 L 322.50 380.00 L 316.60 384.00 L 310.60 387.70 L 304.50 390.90 L 292.00 396.50 L 286.00 398.60 L 274.20 402.10 L 263.80 404.10 L 255.70 404.70 Z" fill="#ffd5d6" fill-rule="evenodd" group-id="1,2" id="Fill-16" node-id="27" stroke="none" target-height="193.90001" target-width="193.90001" target-x="158.7" target-y="210.8"></path><path d="M 263.10 335.10 L 262.40 336.50 L 261.50 337.10 L 259.80 337.60 L 255.40 338.10 L 251.00 337.60 L 249.40 337.10 L 248.50 336.50 L 247.80 335.10 L 248.10 333.00 L 248.80 331.20 L 250.00 329.70 L 251.60 328.50 L 253.40 327.80 L 255.40 327.50 L 257.50 327.80 L 259.30 328.50 L 260.80 329.70 L 262.00 331.20 L 262.80 333.00 L 263.10 335.10" fill="#e8b39f" fill-rule="evenodd" group-id="1,2" id="Fill-26" node-id="28" stroke="none" target-height="10.600006" target-width="15.300003" target-x="247.8" target-y="327.5"></path><path d="M 162.60 320.70 L 161.10 311.70 L 160.10 303.00 L 159.60 294.70 L 159.70 286.60 L 160.30 278.90 L 161.50 271.00 L 163.10 263.50 L 165.20 256.40 L 167.70 249.50 L 170.70 243.00 L 174.20 236.70 L 178.10 230.80 L 182.50 225.20 L 187.30 220.00 L 192.50 215.10 L 198.00 210.60 L 203.90 206.60 L 210.30 203.00 L 217.10 199.70 L 224.30 196.90 L 231.60 194.70 L 239.30 192.90 L 247.30 191.60 L 255.90 190.70 L 264.90 190.40 L 271.10 190.70 L 277.60 191.60 L 284.60 193.10 L 291.40 195.10 L 298.30 197.70 L 305.20 200.90 L 311.90 204.70 L 318.40 209.10 L 324.70 214.10 L 329.20 218.20 L 333.40 222.60 L 337.30 227.40 L 341.00 232.60 L 344.30 238.00 L 347.20 243.70 L 349.80 249.80 L 352.00 256.40 L 353.60 263.00 L 354.70 270.00 L 355.40 277.50 L 355.40 285.50 L 354.90 293.30 L 353.80 301.60 L 352.00 310.50 L 349.40 320.00 L 346.40 319.90 L 342.80 319.10 L 338.40 317.50 L 329.40 312.80 L 324.10 309.30 L 313.60 300.90 L 302.30 290.10 L 291.00 277.00 L 285.60 270.00 L 280.30 262.30 L 275.00 254.10 L 270.10 245.60 L 265.50 236.70 L 261.20 227.20 L 257.20 236.00 L 252.90 244.20 L 248.50 251.80 L 243.90 258.90 L 233.70 272.20 L 223.20 283.50 L 215.80 290.30 L 208.50 296.30 L 201.40 301.50 L 194.00 306.40 L 187.00 310.40 L 180.50 313.70 L 173.80 316.80 L 162.60 320.70 Z" fill="#ffc0ba" fill-rule="evenodd" group-id="1,2" id="Fill-34" node-id="29" stroke="none" target-height="130.30002" target-width="195.79999" target-x="159.6" target-y="190.4"></path><g node-id="58"><path d="M 266.80 359.00 L 268.30 358.70 L 269.60 359.60 L 269.80 361.10 L 269.00 362.30 L 265.60 364.20 L 262.30 365.50 L 258.90 366.30 L 255.50 366.60 L 252.10 366.40 L 248.70 365.70 L 245.40 364.60 L 242.00 363.00 L 241.40 362.40 L 241.00 361.00 L 241.80 359.60 L 243.30 359.20 L 249.70 361.80 L 255.40 362.60 L 258.30 362.30 L 261.10 361.70 L 263.90 360.60 L 266.80 359.00 Z" fill="#d06946" fill-rule="nonzero" group-id="1,2,5" id="Stroke-28" node-id="30" stroke="none" target-height="7.899994" target-width="28.799988" target-x="241" target-y="358.7"></path></g><g node-id="59"><g node-id="64"><path d="M 306.00 310.90 L 307.50 310.60 L 308.70 311.50 L 309.00 313.00 L 308.20 314.20 L 304.80 316.10 L 301.40 317.40 L 298.10 318.20 L 294.70 318.50 L 291.20 318.30 L 287.90 317.60 L 284.50 316.50 L 281.20 314.90 L 280.60 314.30 L 280.20 312.90 L 281.00 311.50 L 282.40 311.10 L 288.80 313.70 L 294.60 314.50 L 297.40 314.20 L 300.30 313.60 L 303.10 312.50 L 306.00 310.90 Z" fill="#000000" fill-rule="nonzero" group-id="1,2,6,11" id="Stroke-28备份" node-id="32" stroke="none" target-height="7.899994" target-width="28.799988" target-x="280.2" target-y="310.6"></path></g><path d="M 223.00 310.90 L 224.50 310.60 L 225.70 311.50 L 226.00 313.00 L 225.20 314.20 L 221.80 316.10 L 218.40 317.40 L 215.10 318.20 L 211.70 318.50 L 208.20 318.30 L 204.90 317.60 L 201.50 316.50 L 198.20 314.90 L 197.60 314.30 L 197.20 312.90 L 198.00 311.50 L 199.40 311.10 L 205.80 313.70 L 211.60 314.50 L 214.40 314.20 L 217.30 313.60 L 220.10 312.50 L 223.00 310.90 Z" fill="#000000" fill-rule="nonzero" group-id="1,2,6,12" id="Stroke-28备份-2" node-id="33" stroke="none" target-height="7.899994" target-width="28.800003" target-x="197.2" target-y="310.6"></path></g><path d="M 230.30 276.30 L 231.10 276.40 L 232.20 277.40 L 232.30 278.90 L 231.30 280.00 L 221.80 281.60 L 212.90 284.30 L 211.50 283.70 L 210.90 282.30 L 211.50 280.90 L 212.20 280.50 L 220.90 277.70 L 230.30 276.30 Z" fill="#775b45" fill-rule="nonzero" group-id="1,2" id="Stroke-30" node-id="34" stroke="none" target-height="8" target-width="21.40001" target-x="210.9" target-y="276.3"></path><path d="M 281.30 276.30 L 290.70 277.70 L 299.40 280.50 L 300.10 280.90 L 300.60 282.30 L 300.00 283.70 L 298.70 284.30 L 289.80 281.60 L 280.20 280.00 L 279.20 278.90 L 279.30 277.40 L 280.40 276.40 L 281.30 276.30 Z" fill="#775b45" fill-rule="nonzero" group-id="1,2" id="Stroke-32" node-id="35" stroke="none" target-height="8" target-width="21.399994" target-x="279.2" target-y="276.3"></path><path d="M 261.20 217.20 L 257.20 226.00 L 252.90 234.30 L 248.40 242.00 L 243.60 249.30 L 233.20 263.10 L 222.40 274.90 L 214.80 282.10 L 207.30 288.60 L 200.00 294.20 L 192.30 299.40 L 185.20 303.80 L 178.50 307.40 L 171.60 310.60 L 160.50 314.70 L 158.80 305.40 L 157.90 296.40 L 157.50 287.80 L 157.80 279.40 L 158.60 270.90 L 160.00 262.80 L 161.90 255.10 L 164.30 247.70 L 167.30 240.40 L 170.80 233.60 L 174.70 227.10 L 179.20 221.00 L 184.10 215.20 L 189.40 209.80 L 195.20 204.90 L 201.50 200.40 L 208.00 196.30 L 215.00 192.80 L 222.40 189.70 L 230.30 187.10 L 238.30 185.10 L 246.70 183.70 L 255.60 182.80 L 264.90 182.40 L 271.10 182.70 L 277.70 183.60 L 284.70 185.20 L 291.50 187.30 L 298.50 190.10 L 305.60 193.50 L 312.40 197.40 L 319.00 202.00 L 325.40 207.20 L 329.90 211.50 L 334.20 216.00 L 338.20 221.00 L 342.00 226.30 L 345.40 231.80 L 348.40 237.70 L 351.10 244.00 L 353.30 250.60 L 355.00 257.40 L 356.20 264.50 L 356.90 272.10 L 357.00 280.10 L 356.70 286.40 L 354.80 299.90 L 351.00 314.70 L 346.40 314.30 L 343.40 313.40 L 335.70 309.70 L 330.80 306.70 L 325.30 302.80 L 314.60 293.70 L 303.00 282.10 L 291.40 268.30 L 280.50 252.90 L 275.10 244.40 L 270.20 235.70 L 265.50 226.70 L 261.20 217.20" fill="#9d6aea" fill-rule="evenodd" group-id="1,2" id="Fill-34" node-id="36" stroke="none" target-height="132.30002" target-width="199.5" target-x="157.5" target-y="182.4"></path><path d="M 330.40 511.40 L 174.70 511.40 L 175.00 505.20 L 175.70 499.30 L 176.90 493.60 L 178.50 488.10 L 180.50 482.70 L 183.00 477.50 L 185.80 472.60 L 188.90 467.90 L 192.50 463.40 L 196.30 459.30 L 200.40 455.50 L 204.90 452.00 L 209.60 448.80 L 214.50 446.00 L 219.70 443.60 L 225.10 441.50 L 230.60 439.90 L 236.30 438.70 L 242.20 438.00 L 248.30 437.80 L 262.90 438.00 L 268.80 438.70 L 274.50 439.90 L 280.10 441.50 L 285.50 443.60 L 290.70 446.00 L 295.60 448.80 L 300.30 452.00 L 304.70 455.50 L 308.90 459.30 L 312.70 463.40 L 316.20 467.90 L 319.40 472.60 L 322.20 477.50 L 324.60 482.70 L 326.70 488.10 L 328.30 493.60 L 329.40 499.30 L 330.20 505.20 L 330.40 511.40" fill="#ffbbba" fill-rule="evenodd" group-id="1,2" id="Fill-36" node-id="37" stroke="none" target-height="73.600006" target-width="155.7" target-x="174.7" target-y="437.8"></path><path d="M 288.90 444.70 L 286.70 449.00 L 284.10 453.00 L 281.00 456.50 L 277.40 459.60 L 273.50 462.30 L 269.20 464.40 L 265.80 465.70 L 258.70 467.10 L 254.80 467.40 L 250.80 467.10 L 243.40 465.50 L 239.90 464.20 L 233.40 460.50 L 230.60 458.20 L 225.50 452.80 L 221.70 446.50 L 220.20 443.00 L 210.50 447.90 L 206.00 450.90 L 197.70 457.70 L 190.40 465.60 L 184.40 474.50 L 179.70 484.30 L 177.90 489.50 L 176.40 494.80 L 175.40 500.20 L 174.70 505.90 L 174.50 511.90 L 330.90 511.90 L 330.70 506.20 L 330.10 500.80 L 327.80 490.50 L 324.20 480.70 L 319.20 471.70 L 315.30 466.10 L 310.90 460.90 L 306.00 456.10 L 300.70 451.80 L 295.00 448.00 L 288.90 444.70" fill="#fe8788" fill-rule="evenodd" group-id="1,2" id="Fill-38" node-id="38" stroke="none" target-height="68.899994" target-width="156.4" target-x="174.5" target-y="443"></path></g></g></svg>