<?xml version="1.0" standalone="no"?><!DOCTYPE svg PUBLIC "-//W3C//DTD SVG 1.1//EN" "http://www.w3.org/Graphics/SVG/1.1/DTD/svg11.dtd"><svg height="1025" node-id="1" sillyvg="true" template-height="1025" template-width="1024" version="1.1" viewBox="0 0 1024 1025" width="1024" xmlns="http://www.w3.org/2000/svg" xmlns:xlink="http://www.w3.org/1999/xlink"><defs node-id="22"></defs><path d="M 0.00 0.00 L 1024.00 0.00 L 1024.00 1024.00 L 0.00 1024.00 Z" fill="#e0e6ff" fill-rule="nonzero" node-id="24" stroke="none" target-height="1024" target-width="1024" target-x="0" target-y="0"></path><path d="M 425.20 768.30 L 411.40 588.40 L 613.10 588.40 L 613.10 768.30 L 613.50 773.30 L 615.30 781.70 L 616.70 785.50 L 618.70 788.90 L 621.10 792.10 L 623.20 794.20 L 628.80 798.20 L 632.40 800.10 L 637.30 802.20 L 643.40 804.20 L 650.80 806.10 L 667.50 809.20 L 695.30 812.40 L 716.70 814.10 L 715.90 825.90 L 716.40 864.80 L 716.10 876.20 L 715.50 883.90 L 714.40 891.50 L 711.50 904.80 L 707.50 915.90 L 704.90 921.40 L 702.00 926.60 L 698.60 931.80 L 694.60 936.90 L 690.00 942.00 L 685.20 946.50 L 679.60 951.00 L 673.20 955.40 L 666.10 959.70 L 658.80 963.40 L 650.60 967.00 L 641.40 970.40 L 631.10 973.70 L 620.90 976.30 L 609.60 978.80 L 597.00 980.90 L 582.90 982.80 L 569.40 984.10 L 554.30 985.10 L 537.80 985.70 L 519.70 986.00 L 501.50 985.70 L 484.90 985.00 L 469.70 983.90 L 455.90 982.50 L 441.70 980.50 L 428.80 978.30 L 417.20 975.80 L 406.70 973.10 L 396.00 969.80 L 386.40 966.30 L 377.80 962.70 L 370.10 959.00 L 362.50 954.60 L 355.60 950.20 L 349.60 945.70 L 344.30 941.20 L 339.20 936.10 L 334.70 931.10 L 330.80 926.00 L 327.40 920.80 L 321.70 909.90 L 317.60 899.00 L 315.60 891.60 L 314.00 884.30 L 313.00 877.00 L 312.10 866.10 L 311.80 855.80 L 312.20 827.70 L 312.00 820.30 L 331.30 820.30 L 340.20 819.70 L 357.20 817.60 L 372.50 814.20 L 379.40 812.10 L 386.30 809.50 L 392.50 806.80 L 398.20 803.80 L 403.20 800.80 L 408.10 797.20 L 412.30 793.50 L 415.90 789.80 L 418.90 785.90 L 421.40 781.60 L 423.30 777.30 L 424.60 772.90 L 425.20 768.30 Z" fill="#f6b88a" fill-rule="evenodd" node-id="26" stroke="none" target-height="397.59998" target-width="404.90002" target-x="311.8" target-y="588.4"></path><path d="M 613.10 642.30 L 605.40 649.50 L 591.60 660.90 L 582.10 667.90 L 567.90 677.30 L 551.00 687.10 L 541.70 691.80 L 531.60 696.50 L 521.40 700.70 L 510.50 704.60 L 499.00 708.20 L 481.30 712.50 L 471.90 714.20 L 462.20 715.50 L 452.60 716.40 L 442.60 716.90 L 432.40 716.90 L 421.80 716.40 L 419.10 678.90 L 411.40 588.40 L 613.10 588.40 L 613.10 642.30 Z" fill="#ea9e66" fill-rule="evenodd" node-id="28" stroke="none" target-height="128.5" target-width="201.69998" target-x="411.4" target-y="588.4"></path><path d="M 368.30 468.90 L 360.20 462.50 L 356.30 460.10 L 348.30 456.30 L 341.40 454.60 L 337.80 454.30 L 334.10 454.50 L 330.50 455.40 L 327.80 456.30 L 322.60 459.60 L 319.90 462.10 L 318.00 464.60 L 316.40 467.80 L 315.10 471.90 L 314.20 476.10 L 313.70 480.90 L 313.50 486.40 L 314.40 497.70 L 316.90 509.90 L 318.70 516.00 L 321.00 522.30 L 323.60 528.30 L 326.70 534.10 L 330.20 539.80 L 334.20 545.10 L 338.50 550.10 L 343.40 554.60 L 347.20 557.60 L 351.40 560.30 L 355.80 562.70 L 360.50 564.70 L 365.30 566.30 L 370.50 567.40 L 376.00 568.10 L 381.90 568.30 L 368.30 468.90 Z" fill="#f6b88a" fill-rule="evenodd" node-id="30" stroke="none" target-height="114" target-width="68.399994" target-x="313.5" target-y="454.3"></path><path d="M 660.50 468.90 L 668.60 462.50 L 672.50 460.10 L 680.50 456.30 L 687.40 454.60 L 691.00 454.30 L 694.70 454.50 L 698.30 455.40 L 701.00 456.30 L 706.20 459.60 L 708.90 462.10 L 710.80 464.60 L 712.40 467.80 L 713.70 471.90 L 714.60 476.10 L 715.10 480.90 L 715.30 486.40 L 714.40 497.70 L 711.90 509.90 L 710.10 516.00 L 707.80 522.30 L 705.20 528.30 L 702.10 534.10 L 698.60 539.80 L 694.60 545.10 L 690.30 550.10 L 685.40 554.60 L 681.60 557.60 L 677.40 560.30 L 673.00 562.70 L 668.30 564.70 L 663.50 566.30 L 658.30 567.40 L 652.80 568.10 L 646.90 568.30 L 660.50 468.90 Z" fill="#f6b88a" fill-rule="evenodd" node-id="32" stroke="none" target-height="114" target-width="68.39996" target-x="646.9" target-y="454.3"></path><path d="M 510.10 218.70 L 499.90 219.00 L 490.20 219.80 L 480.80 221.10 L 471.80 222.80 L 463.10 225.00 L 454.40 227.80 L 446.10 231.00 L 438.10 234.50 L 430.50 238.50 L 423.10 242.90 L 416.00 247.80 L 409.30 253.00 L 402.80 258.50 L 396.70 264.40 L 390.90 270.70 L 385.40 277.20 L 380.30 284.10 L 375.50 291.30 L 371.00 298.80 L 366.90 306.60 L 363.10 314.60 L 359.70 322.80 L 356.70 331.20 L 353.90 340.00 L 351.60 349.00 L 349.20 360.30 L 347.40 372.00 L 346.20 383.90 L 345.60 396.20 L 345.60 408.50 L 346.20 421.00 L 347.40 433.70 L 349.30 446.60 L 353.30 468.70 L 359.90 500.10 L 376.00 566.50 L 377.50 571.80 L 380.30 579.10 L 383.90 586.80 L 392.40 601.70 L 401.20 614.50 L 406.10 620.90 L 417.50 633.80 L 423.70 640.00 L 430.40 646.00 L 437.50 651.80 L 445.00 657.10 L 452.90 662.10 L 461.20 666.60 L 467.70 669.60 L 474.30 672.30 L 481.30 674.60 L 488.50 676.50 L 495.70 678.10 L 503.20 679.10 L 511.10 679.70 L 519.20 679.80 L 527.40 679.40 L 535.40 678.40 L 543.10 676.90 L 550.60 674.80 L 558.00 672.20 L 565.10 669.20 L 571.90 665.80 L 578.60 662.00 L 587.10 656.50 L 595.10 650.50 L 602.70 644.00 L 609.90 637.20 L 616.60 630.30 L 622.70 623.20 L 628.50 615.90 L 633.60 608.80 L 642.40 594.90 L 648.80 582.80 L 653.00 571.90 L 669.90 501.10 L 672.80 486.50 L 675.70 468.90 L 678.90 446.60 L 680.30 433.60 L 681.10 420.80 L 681.40 408.30 L 681.10 396.00 L 680.30 383.70 L 678.90 371.70 L 677.00 360.00 L 674.50 348.70 L 671.50 337.40 L 667.90 326.60 L 663.90 316.30 L 659.30 306.30 L 655.20 298.50 L 650.80 291.00 L 646.10 283.80 L 641.10 277.00 L 635.80 270.40 L 630.10 264.20 L 624.10 258.30 L 617.80 252.80 L 611.20 247.60 L 604.20 242.80 L 597.00 238.40 L 589.50 234.50 L 581.70 230.90 L 573.50 227.80 L 564.90 225.00 L 556.30 222.80 L 547.40 221.10 L 538.00 219.80 L 528.30 219.00 L 510.10 218.70 Z" fill="#ffcca6" fill-rule="evenodd" node-id="34" stroke="none" target-height="461.09998" target-width="335.80002" target-x="345.6" target-y="218.7"></path><path d="M 397.00 424.00 L 395.50 423.80 L 394.00 423.20 L 392.80 422.20 L 391.80 420.90 L 391.00 417.90 L 391.80 414.90 L 392.80 413.70 L 394.10 412.70 L 399.60 410.10 L 405.30 407.90 L 411.30 406.10 L 423.40 403.90 L 429.50 403.40 L 438.60 403.10 L 447.00 403.30 L 462.00 404.80 L 477.30 407.70 L 478.90 408.30 L 480.10 409.20 L 481.60 411.80 L 481.80 413.30 L 481.70 415.00 L 481.00 416.50 L 478.90 418.60 L 477.50 419.20 L 476.00 419.50 L 461.10 416.80 L 454.90 416.00 L 439.80 415.10 L 431.50 415.30 L 420.50 416.50 L 415.10 417.50 L 409.80 419.00 L 404.70 420.90 L 398.50 423.80 L 397.00 424.00" fill="#3e2a25" fill-rule="evenodd" node-id="36" stroke="none" target-height="20.899994" target-width="90.79999" target-x="391" target-y="403.1"></path><path d="M 621.90 424.00 L 620.40 423.80 L 614.20 420.90 L 609.20 419.00 L 604.00 417.50 L 598.70 416.50 L 588.10 415.30 L 580.20 415.10 L 565.80 416.00 L 559.80 416.80 L 547.20 419.30 L 544.10 419.30 L 541.50 417.70 L 540.50 416.60 L 539.90 415.00 L 539.70 413.40 L 539.90 411.90 L 541.40 409.30 L 544.10 407.70 L 558.70 404.80 L 573.10 403.30 L 581.20 403.10 L 590.00 403.40 L 601.80 404.90 L 607.80 406.10 L 613.60 407.80 L 619.30 410.00 L 624.80 412.70 L 627.00 414.90 L 627.90 417.90 L 627.10 420.90 L 626.10 422.20 L 624.90 423.20 L 623.40 423.80 L 621.90 424.00" fill="#3e2a25" fill-rule="evenodd" node-id="38" stroke="none" target-height="20.899994" target-width="88.20001" target-x="539.7" target-y="403.1"></path><path d="M 651.70 405.60 L 662.70 420.30 L 676.80 470.90 L 679.60 457.80 L 682.00 442.50 L 685.40 412.30 L 686.70 394.90 L 686.50 381.20 L 685.70 367.60 L 684.50 354.30 L 683.20 344.30 L 679.50 324.90 L 677.10 315.60 L 674.30 306.30 L 671.00 297.40 L 667.30 288.70 L 663.20 280.40 L 658.60 272.30 L 653.50 264.60 L 647.80 257.20 L 641.60 250.20 L 636.40 244.90 L 630.70 239.90 L 624.60 235.20 L 618.10 230.70 L 611.10 226.40 L 604.10 222.70 L 596.50 219.20 L 588.40 216.00 L 579.70 213.20 L 570.40 210.60 L 561.30 208.60 L 551.60 206.90 L 541.20 205.70 L 530.10 204.70 L 518.20 204.30 L 506.30 204.30 L 495.10 204.80 L 484.60 205.70 L 474.80 206.90 L 465.50 208.60 L 455.90 210.80 L 447.00 213.40 L 438.60 216.20 L 430.70 219.40 L 423.30 222.90 L 416.00 227.00 L 409.10 231.20 L 402.60 235.80 L 396.50 240.60 L 390.90 245.80 L 385.40 251.20 L 380.40 257.00 L 375.60 262.90 L 371.20 269.10 L 367.20 275.60 L 362.50 283.90 L 358.40 292.60 L 354.60 301.60 L 351.30 310.90 L 348.50 320.40 L 346.10 330.10 L 344.10 340.10 L 341.30 360.60 L 339.90 381.60 L 339.80 392.30 L 340.40 408.00 L 342.50 426.10 L 346.20 444.60 L 348.00 451.80 L 352.40 466.40 L 362.00 420.30 L 368.20 411.40 L 372.10 405.20 L 373.90 395.70 L 377.50 370.30 L 379.30 359.80 L 381.60 349.00 L 384.30 338.00 L 399.10 332.60 L 415.60 327.40 L 436.40 322.10 L 447.90 319.70 L 468.60 316.60 L 485.90 315.30 L 494.60 315.10 L 503.30 315.30 L 511.90 316.00 L 520.50 317.00 L 528.90 318.70 L 537.10 320.80 L 545.40 319.50 L 552.10 318.90 L 559.70 318.50 L 575.80 318.90 L 591.20 320.50 L 607.70 323.70 L 616.90 326.10 L 625.90 328.90 L 635.30 332.50 L 645.20 336.70 L 647.40 346.30 L 649.10 356.00 L 651.10 374.60 L 651.80 390.40 L 651.70 405.60 Z" fill="#916b5b" fill-rule="evenodd" node-id="40" stroke="none" target-height="266.59998" target-width="346.90002" target-x="339.8" target-y="204.3"></path><path d="M 519.00 428.40 L 521.60 429.10 L 523.60 431.10 L 524.10 432.30 L 525.20 476.80 L 525.60 484.50 L 527.70 499.20 L 532.10 519.90 L 532.20 521.70 L 531.70 523.40 L 530.70 524.80 L 529.30 525.90 L 504.20 538.60 L 502.90 538.80 L 500.30 538.00 L 498.40 536.00 L 497.80 533.30 L 498.60 530.70 L 499.40 529.70 L 500.60 528.80 L 520.80 518.20 L 517.00 499.40 L 515.00 484.80 L 513.90 454.70 L 513.70 433.70 L 513.90 432.30 L 514.40 431.10 L 516.30 429.10 L 519.00 428.40 Z" fill="#bb6957" fill-rule="evenodd" node-id="42" stroke="none" target-height="110.399994" target-width="34.400024" target-x="497.8" target-y="428.4"></path><path d="M 437.80 488.50 L 440.30 488.30 L 445.00 486.80 L 447.10 485.60 L 449.70 483.40 L 451.90 480.80 L 453.80 477.60 L 455.10 474.00 L 456.00 470.10 L 456.30 465.50 L 456.00 460.90 L 455.10 457.00 L 453.80 453.40 L 451.90 450.20 L 449.70 447.60 L 447.10 445.50 L 445.00 444.20 L 440.30 442.80 L 437.80 442.60 L 435.20 442.80 L 430.60 444.20 L 428.40 445.50 L 425.90 447.60 L 423.60 450.20 L 421.80 453.40 L 420.40 457.00 L 419.60 460.90 L 419.20 465.50 L 419.60 470.10 L 420.40 474.00 L 421.80 477.60 L 423.60 480.80 L 425.90 483.40 L 428.40 485.60 L 430.60 486.80 L 435.20 488.30 L 437.80 488.50 Z" fill="#3e2a25" fill-rule="evenodd" node-id="44" stroke="none" target-height="45.899994" target-width="37.099976" target-x="419.2" target-y="442.6"></path><path d="M 582.50 488.50 L 585.10 488.30 L 589.70 486.80 L 591.90 485.60 L 594.40 483.40 L 596.70 480.80 L 598.50 477.60 L 599.90 474.00 L 600.70 470.10 L 601.10 465.50 L 600.70 460.90 L 599.90 457.00 L 598.50 453.40 L 596.70 450.20 L 594.40 447.60 L 591.90 445.50 L 589.70 444.20 L 585.10 442.80 L 582.50 442.60 L 577.60 443.30 L 573.20 445.50 L 570.60 447.60 L 568.40 450.20 L 566.50 453.40 L 565.20 457.00 L 564.30 460.90 L 564.00 465.50 L 564.30 470.10 L 565.20 474.00 L 566.50 477.60 L 568.40 480.80 L 570.60 483.40 L 573.20 485.60 L 575.30 486.80 L 580.00 488.30 L 582.50 488.50 Z" fill="#3e2a25" fill-rule="evenodd" node-id="46" stroke="none" target-height="45.899994" target-width="37.099976" target-x="564" target-y="442.6"></path><path d="M 467.90 561.30 L 470.10 559.50 L 472.70 559.10 L 474.00 559.40 L 484.50 566.10 L 487.00 567.20 L 504.20 567.40 L 542.50 567.00 L 547.70 564.00 L 553.90 559.50 L 556.60 559.10 L 559.10 560.00 L 560.20 561.00 L 561.30 563.50 L 561.00 566.20 L 559.40 568.50 L 556.10 564.40 L 559.40 568.50 L 551.40 574.30 L 548.90 575.80 L 544.70 577.40 L 514.20 577.90 L 486.20 577.70 L 484.20 577.50 L 479.30 575.30 L 469.10 568.70 L 472.20 564.40 L 469.10 568.70 L 468.00 567.60 L 467.00 565.20 L 467.20 562.50 L 467.90 561.30 Z" fill="#c14e45" fill-rule="evenodd" node-id="48" stroke="none" target-height="18.800049" target-width="94.29999" target-x="467" target-y="559.1"></path><g node-id="65"><path d="M 498.10 601.40 L 515.40 600.60 L 534.00 601.40 L 535.00 601.00 L 536.70 599.50 L 537.50 597.40 L 537.40 596.20 L 537.10 595.10 L 535.60 593.40 L 533.40 592.60 L 533.10 597.00 L 533.40 592.60 L 531.50 592.50 L 515.40 591.70 L 497.50 592.60 L 497.80 597.00 L 497.50 592.60 L 496.30 592.90 L 495.30 593.40 L 493.80 595.10 L 493.40 597.40 L 493.60 598.50 L 494.90 600.40 L 496.90 601.40 L 498.10 601.40 Z" fill="#c14e45" fill-opacity="0.2" fill-rule="evenodd" group-id="1" node-id="52" stroke="none" target-height="9.700012" target-width="44.100006" target-x="493.4" target-y="591.7"></path></g><path d="M 612.10 796.20 L 627.90 779.20 L 631.70 782.20 L 636.50 785.30 L 648.80 791.50 L 663.80 797.50 L 676.00 801.60 L 703.10 809.20 L 731.30 815.70 L 745.00 818.50 L 770.80 822.80 L 799.90 826.30 L 807.80 827.60 L 824.60 831.40 L 833.20 834.00 L 842.00 837.10 L 850.70 840.60 L 859.20 844.70 L 867.70 849.30 L 873.90 853.10 L 885.60 861.80 L 891.20 866.60 L 896.50 871.80 L 901.40 877.30 L 906.10 883.20 L 910.40 889.50 L 914.20 896.00 L 917.60 903.00 L 920.50 910.50 L 923.00 918.50 L 941.70 1024.10 L 98.30 1024.10 L 109.40 932.60 L 111.20 923.00 L 113.40 914.20 L 116.00 906.10 L 119.10 898.10 L 122.60 890.70 L 126.40 884.00 L 130.40 877.80 L 135.00 871.90 L 139.80 866.50 L 144.90 861.40 L 150.20 856.90 L 161.60 848.70 L 174.00 841.80 L 182.50 837.90 L 191.40 834.50 L 209.80 828.70 L 228.60 824.10 L 242.90 821.20 L 272.80 815.70 L 346.30 807.70 L 358.60 805.40 L 370.10 802.70 L 377.70 800.70 L 390.90 795.90 L 399.70 791.40 L 406.80 786.30 L 410.00 791.90 L 413.90 797.70 L 418.40 803.70 L 423.40 809.30 L 429.00 814.90 L 435.30 820.50 L 440.20 824.30 L 451.20 831.50 L 457.40 834.90 L 463.70 837.80 L 470.30 840.50 L 477.40 842.90 L 485.00 845.00 L 492.60 846.70 L 500.60 847.90 L 509.10 848.80 L 518.20 849.20 L 531.40 848.60 L 543.00 846.70 L 550.40 844.60 L 557.30 842.00 L 563.70 838.90 L 569.80 835.40 L 575.70 831.40 L 581.30 827.10 L 589.30 820.10 L 597.10 812.50 L 612.10 796.20 Z" fill="#5d887e" fill-rule="nonzero" node-id="55" stroke="none" target-height="244.89996" target-width="843.4" target-x="98.3" target-y="779.2"></path><path d="M 526.10 851.00 L 525.20 852.30 L 523.80 853.50 L 521.70 854.70 L 515.20 856.60 L 504.80 857.80 L 496.00 857.90 L 485.50 857.40 L 474.70 856.40 L 463.00 854.90 L 438.90 850.50 L 426.80 847.70 L 415.10 844.60 L 403.70 841.10 L 393.40 837.40 L 380.80 831.80 L 370.70 826.00 L 366.70 823.00 L 363.70 820.10 L 360.00 815.70 L 357.30 811.90 L 355.50 808.70 L 354.20 805.30 L 353.40 802.30 L 353.20 799.60 L 354.10 794.60 L 355.00 792.40 L 357.00 789.30 L 365.60 779.90 L 367.50 777.50 L 368.80 775.20 L 369.40 771.90 L 368.10 766.20 L 367.70 762.50 L 367.90 758.80 L 368.70 755.20 L 370.00 751.70 L 371.80 748.20 L 374.00 745.10 L 376.70 742.20 L 379.90 739.50 L 383.50 737.30 L 387.40 735.50 L 391.90 734.10 L 398.90 733.10 L 402.80 733.20 L 407.00 733.60 L 413.00 735.00 L 415.30 736.00 L 419.20 738.70 L 422.70 743.00 L 425.50 749.00 L 431.80 768.60 L 436.20 778.10 L 439.40 783.30 L 442.80 788.30 L 450.70 797.50 L 459.40 805.80 L 466.40 811.40 L 473.60 816.50 L 487.90 825.40 L 513.90 839.40 L 521.00 843.60 L 524.30 846.20 L 525.60 847.60 L 526.20 848.80 L 526.40 849.90 L 526.10 851.00 Z" fill="#324e47" fill-rule="evenodd" node-id="57" stroke="none" target-height="124.80005" target-width="173.20001" target-x="353.2" target-y="733.1"></path><path d="M 508.40 849.20 L 509.30 850.50 L 510.80 851.80 L 512.80 852.90 L 519.30 854.90 L 529.70 856.00 L 538.50 856.10 L 549.00 855.70 L 559.80 854.70 L 571.60 853.10 L 595.70 848.80 L 607.80 846.00 L 619.50 842.80 L 630.80 839.30 L 641.10 835.60 L 653.70 830.10 L 663.80 824.20 L 667.80 821.20 L 670.80 818.30 L 674.30 814.20 L 678.70 807.50 L 680.10 804.20 L 681.00 801.30 L 681.30 798.80 L 680.80 793.90 L 680.00 791.70 L 678.40 788.70 L 675.60 785.10 L 667.30 776.20 L 665.80 773.60 L 665.20 771.80 L 665.10 770.00 L 666.50 764.40 L 666.80 760.80 L 666.60 757.10 L 665.80 753.40 L 664.60 749.90 L 662.80 746.50 L 660.50 743.30 L 657.80 740.40 L 654.60 737.70 L 651.10 735.50 L 647.10 733.70 L 642.70 732.30 L 635.70 731.40 L 631.80 731.40 L 627.60 731.80 L 621.20 733.40 L 618.80 734.50 L 614.70 737.50 L 613.20 739.20 L 611.20 742.30 L 608.90 747.70 L 602.70 766.80 L 598.30 776.30 L 595.00 781.80 L 591.40 787.00 L 583.10 796.50 L 573.90 805.00 L 566.50 810.80 L 559.10 816.00 L 544.20 825.00 L 520.60 837.70 L 513.60 841.90 L 510.30 844.40 L 508.90 845.80 L 508.30 847.10 L 508.10 848.20 L 508.40 849.20 Z" fill="#324e47" fill-rule="evenodd" node-id="59" stroke="none" target-height="124.69995" target-width="173.19998" target-x="508.1" target-y="731.4"></path><path d="M 492.60 844.80 L 492.40 843.60 L 491.30 841.70 L 489.30 840.60 L 488.10 840.40 L 485.90 841.00 L 484.30 842.60 L 483.90 843.70 L 484.40 945.80 L 481.80 947.10 L 479.50 948.80 L 477.60 950.90 L 476.20 953.40 L 475.20 956.20 L 474.90 959.20 L 475.30 962.20 L 476.20 965.00 L 477.60 967.50 L 479.60 969.70 L 481.90 971.40 L 484.60 972.60 L 484.80 984.60 L 485.20 985.60 L 486.80 987.20 L 489.10 987.80 L 491.30 987.10 L 492.90 985.50 L 493.30 984.50 L 493.40 972.60 L 496.10 971.40 L 498.50 969.70 L 500.40 967.60 L 501.90 965.10 L 503.00 961.30 L 503.20 959.20 L 502.60 955.10 L 501.90 953.30 L 500.40 950.70 L 498.40 948.60 L 496.00 946.90 L 493.20 945.70 L 492.60 844.80 Z" fill="#324e47" fill-rule="nonzero" node-id="61" stroke="none" target-height="147.39996" target-width="28.300018" target-x="474.9" target-y="840.4"></path><path d="M 540.90 945.80 L 538.30 947.10 L 536.00 948.80 L 534.10 950.90 L 532.70 953.40 L 531.70 956.20 L 531.40 959.20 L 531.70 962.20 L 532.70 965.00 L 534.10 967.50 L 536.10 969.70 L 538.40 971.40 L 541.10 972.60 L 541.30 984.60 L 541.70 985.60 L 543.30 987.20 L 545.60 987.80 L 546.80 987.60 L 547.80 987.10 L 549.40 985.50 L 550.00 983.30 L 549.90 972.60 L 552.60 971.40 L 554.90 969.70 L 556.90 967.60 L 558.40 965.10 L 559.10 963.20 L 559.70 959.20 L 559.10 955.10 L 558.40 953.30 L 556.90 950.70 L 554.90 948.60 L 552.50 946.90 L 549.70 945.70 L 549.10 844.80 L 548.50 842.60 L 546.90 841.00 L 544.60 840.40 L 542.40 841.00 L 540.80 842.60 L 540.20 844.90 L 540.90 945.80 Z" fill="#324e47" fill-rule="nonzero" node-id="63" stroke="none" target-height="147.39996" target-width="28.299988" target-x="531.4" target-y="840.4"></path></svg>