<?xml version="1.0" standalone="no"?><!DOCTYPE svg PUBLIC "-//W3C//DTD SVG 1.1//EN" "http://www.w3.org/Graphics/SVG/1.1/DTD/svg11.dtd"><svg height="1024" node-id="1" sillyvg="true" template-height="1024" template-width="1024" version="1.1" viewBox="0 0 1024 1024" width="1024" xmlns="http://www.w3.org/2000/svg" xmlns:xlink="http://www.w3.org/1999/xlink"><defs node-id="28"></defs><path d="M 0.00 0.00 L 1024.00 0.00 L 1024.00 1024.00 L 0.00 1024.00 Z" fill="#f7ffd2" fill-rule="nonzero" node-id="30" stroke="none" target-height="1024" target-width="1024" target-x="0" target-y="0"></path><path d="M 492.10 785.70 L 505.70 786.20 L 518.60 786.30 L 530.90 785.90 L 554.60 784.00 L 576.70 780.80 L 586.80 778.80 L 600.40 775.70 L 612.80 772.30 L 624.10 768.70 L 645.30 760.80 L 662.80 752.60 L 676.30 745.20 L 677.80 743.90 L 679.50 742.00 L 681.20 739.10 L 683.50 734.30 L 687.80 721.80 L 691.60 707.40 L 695.80 687.20 L 696.30 686.00 L 697.30 685.30 L 698.40 685.00 L 699.60 685.20 L 700.60 685.90 L 701.20 687.20 L 701.80 691.50 L 701.90 696.40 L 701.30 706.80 L 698.40 725.70 L 697.70 732.90 L 698.30 733.40 L 702.00 731.50 L 713.40 724.40 L 720.40 719.30 L 727.50 713.50 L 735.30 706.50 L 740.20 701.50 L 750.20 690.10 L 754.90 683.90 L 759.40 677.30 L 763.60 670.20 L 767.40 662.90 L 770.70 655.20 L 773.60 647.10 L 775.40 640.90 L 776.80 634.50 L 777.80 627.80 L 778.50 620.80 L 778.70 614.00 L 778.50 606.80 L 777.80 599.40 L 776.50 591.60 L 774.80 584.10 L 772.50 576.30 L 769.50 568.10 L 757.20 540.50 L 744.50 510.20 L 737.10 490.10 L 732.30 475.50 L 728.50 462.60 L 725.30 448.80 L 723.00 426.70 L 720.30 406.80 L 717.30 388.40 L 713.90 371.40 L 709.90 354.00 L 705.60 338.10 L 701.10 323.40 L 696.40 309.90 L 691.00 296.30 L 685.50 283.90 L 680.00 272.50 L 674.30 262.20 L 668.00 251.80 L 661.70 242.50 L 655.40 234.00 L 649.10 226.40 L 642.30 218.90 L 635.60 212.20 L 628.90 206.20 L 622.40 200.90 L 615.40 195.80 L 602.10 187.40 L 595.60 184.00 L 586.70 179.90 L 578.30 176.60 L 570.30 174.00 L 554.80 170.20 L 548.00 169.20 L 538.10 168.10 L 530.20 167.80 L 523.00 167.90 L 514.10 168.80 L 505.60 167.30 L 498.70 166.60 L 491.10 166.10 L 474.90 166.20 L 459.80 167.60 L 451.90 168.90 L 443.60 170.70 L 434.90 173.00 L 426.20 175.80 L 417.30 179.30 L 408.10 183.50 L 401.40 187.00 L 387.80 195.50 L 380.80 200.50 L 374.20 205.80 L 367.70 211.80 L 361.00 218.30 L 354.40 225.60 L 348.30 233.00 L 342.20 241.20 L 336.20 250.20 L 330.20 260.10 L 324.80 270.00 L 319.60 280.80 L 314.50 292.70 L 309.60 305.50 L 305.30 318.20 L 301.20 332.10 L 297.40 347.00 L 293.80 363.30 L 290.90 379.20 L 288.30 396.30 L 286.10 414.80 L 284.30 434.80 L 282.80 446.30 L 281.00 457.00 L 278.90 466.80 L 276.50 476.60 L 271.10 494.50 L 266.70 507.30 L 253.40 543.10 L 249.50 555.10 L 246.00 567.40 L 244.10 575.70 L 242.50 584.40 L 241.30 593.70 L 240.50 602.90 L 240.20 612.90 L 240.50 623.70 L 241.20 634.40 L 242.70 646.10 L 244.80 659.00 L 246.30 665.50 L 250.20 677.90 L 255.60 689.60 L 258.80 695.20 L 266.20 705.70 L 274.70 715.20 L 284.50 723.60 L 289.70 727.30 L 295.20 730.70 L 301.00 733.80 L 307.00 736.50 L 309.30 737.20 L 311.50 737.40 L 313.60 737.10 L 315.70 736.50 L 317.50 735.50 L 319.20 734.10 L 320.50 732.40 L 321.50 730.50 L 322.20 728.20 L 322.60 722.00 L 322.80 708.20 L 322.90 705.30 L 323.30 704.70 L 323.60 704.80 L 325.50 707.90 L 340.10 741.80 L 349.10 747.60 L 365.30 756.10 L 376.40 761.10 L 392.90 767.40 L 416.30 774.60 L 429.90 778.10 L 445.70 781.20 L 454.70 782.50 L 477.50 784.70 L 492.10 785.70 Z" fill="#b07436" fill-rule="evenodd" node-id="32" stroke="none" target-height="620.19995" target-width="538.5" target-x="240.2" target-y="166.1"></path><path d="M 419.20 767.20 L 413.50 578.00 L 587.40 579.70 L 588.60 767.20 L 589.10 769.90 L 590.00 772.40 L 591.30 774.90 L 593.00 777.30 L 595.90 780.10 L 599.30 782.80 L 603.60 785.50 L 613.10 790.10 L 627.20 795.20 L 673.50 808.50 L 682.00 811.30 L 694.10 816.20 L 701.30 820.40 L 700.50 856.50 L 699.80 867.70 L 698.70 878.20 L 697.40 888.00 L 695.90 895.30 L 694.20 902.20 L 692.10 908.70 L 689.70 914.80 L 686.80 920.80 L 683.50 926.50 L 679.70 931.80 L 675.30 936.90 L 671.60 940.70 L 662.80 947.70 L 657.70 951.00 L 652.10 954.20 L 645.00 957.60 L 637.00 960.80 L 627.90 963.80 L 617.70 966.60 L 607.80 968.70 L 596.60 970.70 L 584.10 972.40 L 570.10 973.80 L 556.60 974.80 L 525.20 975.90 L 507.00 976.00 L 482.00 975.30 L 459.80 974.10 L 440.30 972.60 L 425.50 970.90 L 412.10 969.00 L 400.20 966.80 L 389.40 964.40 L 380.50 962.00 L 372.40 959.40 L 365.10 956.60 L 358.40 953.70 L 352.30 950.60 L 346.20 947.00 L 340.60 943.10 L 335.60 939.00 L 331.00 934.70 L 326.80 930.20 L 323.00 925.30 L 319.60 920.10 L 316.40 914.50 L 313.60 908.60 L 311.10 902.30 L 308.50 894.40 L 306.30 885.70 L 304.50 876.30 L 303.00 866.00 L 301.70 852.40 L 300.80 837.30 L 300.50 820.40 L 306.90 817.10 L 318.90 813.00 L 367.00 800.10 L 377.00 797.10 L 386.30 793.90 L 397.90 789.10 L 402.80 786.60 L 407.50 783.70 L 411.30 780.80 L 414.40 777.80 L 416.40 775.20 L 417.80 772.60 L 418.80 770.00 L 419.20 767.20 Z" fill="#ffd1aa" fill-rule="evenodd" node-id="34" stroke="none" target-height="398" target-width="400.8" target-x="300.5" target-y="578"></path><path d="M 587.40 637.10 L 581.60 643.90 L 570.90 654.50 L 563.30 661.00 L 551.70 669.80 L 537.50 679.00 L 529.50 683.40 L 520.80 687.70 L 511.90 691.60 L 502.20 695.30 L 491.70 698.60 L 475.40 702.60 L 466.60 704.10 L 457.40 705.40 L 448.20 706.20 L 438.60 706.60 L 428.50 706.50 L 417.90 706.00 L 412.60 577.10 L 590.00 581.50 L 587.40 637.10 Z" fill="#ffc18d" fill-rule="evenodd" node-id="36" stroke="none" target-height="129.5" target-width="177.4" target-x="412.6" target-y="577.1"></path><path d="M 473.00 841.70 L 472.30 842.90 L 471.30 843.80 L 470.00 844.10 L 468.60 844.00 L 407.90 823.90 L 406.70 823.20 L 405.80 822.20 L 405.50 820.90 L 405.60 819.50 L 406.30 818.30 L 407.40 817.40 L 408.70 817.10 L 410.10 817.20 L 470.80 837.20 L 472.00 837.90 L 472.80 839.00 L 473.20 840.30 L 473.00 841.70 Z" fill="#ffc18d" fill-rule="evenodd" node-id="38" stroke="none" target-height="27" target-width="67.70001" target-x="405.5" target-y="817.1"></path><path d="M 545.10 841.70 L 545.80 842.90 L 546.90 843.80 L 548.20 844.10 L 549.60 844.00 L 610.30 823.90 L 611.50 823.20 L 612.30 822.20 L 612.70 820.90 L 612.50 819.50 L 611.80 818.30 L 610.80 817.40 L 609.50 817.10 L 608.10 817.20 L 547.40 837.20 L 546.10 837.90 L 545.30 839.00 L 544.90 840.30 L 545.10 841.70 Z" fill="#ffc18d" fill-rule="evenodd" node-id="40" stroke="none" target-height="27" target-width="67.79999" target-x="544.9" target-y="817.1"></path><path d="M 357.90 459.60 L 349.10 455.80 L 344.90 454.50 L 336.40 452.80 L 329.00 452.60 L 325.20 453.00 L 321.40 453.90 L 317.60 455.20 L 314.00 457.00 L 310.40 459.50 L 306.90 462.70 L 304.70 465.50 L 302.80 468.90 L 301.20 473.10 L 300.20 477.50 L 299.60 482.30 L 299.40 487.60 L 299.70 492.90 L 300.50 498.40 L 301.80 504.10 L 303.50 509.60 L 305.90 515.00 L 308.80 520.40 L 314.20 527.80 L 317.40 531.30 L 320.90 534.50 L 324.70 537.50 L 328.90 540.10 L 333.50 542.40 L 338.60 544.40 L 343.70 545.90 L 349.40 547.00 L 355.50 547.70 L 362.30 547.90 L 357.90 459.60 Z" fill="#ffd1aa" fill-rule="evenodd" node-id="42" stroke="none" target-height="95.30002" target-width="62.899994" target-x="299.4" target-y="452.6"></path><path d="M 644.50 459.60 L 653.30 455.80 L 657.50 454.50 L 666.00 452.80 L 673.40 452.60 L 677.20 453.00 L 681.00 453.90 L 684.80 455.20 L 688.40 457.00 L 692.00 459.50 L 695.50 462.70 L 697.70 465.50 L 699.60 468.90 L 701.20 473.10 L 702.20 477.50 L 702.80 482.30 L 703.00 487.60 L 702.70 492.90 L 701.90 498.40 L 700.60 504.10 L 698.90 509.60 L 696.50 515.00 L 693.60 520.40 L 688.20 527.80 L 685.00 531.30 L 681.50 534.50 L 677.70 537.50 L 673.50 540.10 L 668.90 542.40 L 663.80 544.40 L 658.70 545.90 L 653.00 547.00 L 646.90 547.70 L 640.10 547.90 L 644.50 459.60 Z" fill="#ffd1aa" fill-rule="evenodd" node-id="44" stroke="none" target-height="95.30002" target-width="62.900024" target-x="640.1" target-y="452.6"></path><path d="M 499.90 208.70 L 488.00 209.00 L 476.80 209.90 L 466.20 211.30 L 456.20 213.30 L 446.70 215.70 L 437.70 218.70 L 429.20 222.10 L 421.10 226.10 L 413.50 230.40 L 406.20 235.30 L 399.90 240.20 L 393.90 245.50 L 388.10 251.20 L 382.70 257.40 L 377.50 264.10 L 372.60 271.30 L 368.00 279.00 L 363.60 287.30 L 359.60 296.20 L 355.80 305.70 L 352.30 315.80 L 349.10 327.10 L 346.20 339.20 L 343.70 352.10 L 341.60 366.00 L 339.90 380.90 L 338.80 396.80 L 338.10 413.80 L 337.90 431.90 L 338.60 462.00 L 340.10 479.70 L 341.60 491.10 L 343.60 503.00 L 346.40 516.20 L 351.30 534.30 L 354.50 543.70 L 358.00 552.90 L 362.10 562.10 L 366.70 571.20 L 374.70 584.20 L 384.00 596.50 L 390.00 603.20 L 397.30 610.50 L 405.20 617.70 L 414.20 625.00 L 427.10 634.20 L 434.00 638.50 L 441.00 642.60 L 455.50 649.90 L 462.90 653.00 L 470.40 655.50 L 477.80 657.60 L 485.30 659.20 L 492.70 660.20 L 500.00 660.50 L 508.20 660.20 L 516.30 659.40 L 524.60 658.00 L 532.90 656.10 L 541.00 653.70 L 549.00 650.80 L 557.00 647.40 L 564.80 643.60 L 572.40 639.30 L 579.80 634.60 L 587.00 629.40 L 594.00 623.90 L 600.60 618.00 L 606.90 611.70 L 612.90 605.10 L 618.50 598.10 L 629.20 582.50 L 634.00 574.60 L 638.20 566.70 L 642.20 558.60 L 645.70 550.30 L 648.90 541.70 L 651.70 533.00 L 654.20 524.10 L 656.30 514.90 L 658.00 505.20 L 659.50 495.00 L 661.30 474.40 L 661.90 451.30 L 661.70 431.10 L 661.10 412.20 L 660.10 394.60 L 658.70 378.20 L 657.00 363.00 L 655.00 349.60 L 652.70 337.00 L 650.10 325.40 L 647.20 314.50 L 644.00 304.30 L 640.60 294.90 L 637.10 286.50 L 633.30 278.70 L 629.20 271.40 L 624.90 264.60 L 620.30 258.20 L 615.50 252.30 L 610.50 246.80 L 605.00 241.50 L 599.20 236.70 L 593.00 232.30 L 586.40 228.20 L 579.50 224.50 L 572.10 221.10 L 564.30 218.20 L 555.40 215.40 L 545.90 213.10 L 535.60 211.20 L 524.50 209.90 L 512.70 209.00 L 499.90 208.70 Z" fill="#ffe1c7" fill-rule="evenodd" node-id="46" stroke="none" target-height="451.8" target-width="324.00003" target-x="337.9" target-y="208.7"></path><path d="M 384.00 414.00 L 381.00 413.20 L 379.70 412.20 L 378.70 410.90 L 378.00 407.90 L 378.80 404.90 L 379.70 403.70 L 381.10 402.70 L 386.60 400.10 L 392.30 397.90 L 398.20 396.10 L 410.40 393.90 L 416.50 393.40 L 425.50 393.10 L 434.00 393.30 L 448.90 394.80 L 464.30 397.70 L 467.00 399.20 L 468.60 401.80 L 468.80 403.30 L 468.60 405.00 L 468.00 406.50 L 467.10 407.70 L 465.90 408.60 L 464.50 409.20 L 463.00 409.50 L 448.00 406.80 L 441.80 406.00 L 426.70 405.10 L 418.50 405.30 L 407.50 406.50 L 402.10 407.50 L 396.70 409.00 L 391.70 410.90 L 385.40 413.80 L 384.00 414.00" fill="#654840" fill-rule="evenodd" node-id="48" stroke="none" target-height="20.899994" target-width="90.79999" target-x="378" target-y="393.1"></path><path d="M 608.80 414.00 L 607.40 413.80 L 601.10 410.90 L 596.20 409.00 L 591.00 407.50 L 585.70 406.50 L 575.00 405.30 L 567.10 405.10 L 552.70 406.00 L 546.80 406.80 L 534.20 409.30 L 531.10 409.30 L 528.40 407.70 L 527.50 406.60 L 526.90 405.00 L 526.60 403.40 L 526.80 401.90 L 528.40 399.30 L 529.60 398.30 L 531.10 397.70 L 545.70 394.80 L 560.10 393.30 L 568.20 393.10 L 577.00 393.40 L 588.80 394.90 L 594.70 396.10 L 600.60 397.80 L 606.20 400.00 L 611.80 402.70 L 613.10 403.70 L 614.00 404.90 L 614.80 407.90 L 614.70 409.40 L 614.10 410.90 L 613.10 412.20 L 611.80 413.20 L 610.40 413.80 L 608.80 414.00" fill="#654840" fill-rule="evenodd" node-id="50" stroke="none" target-height="20.899994" target-width="88.20001" target-x="526.6" target-y="393.1"></path><path d="M 381.70 337.40 L 363.80 358.70 L 371.60 359.80 L 367.30 364.10 L 364.10 368.20 L 359.90 375.10 L 355.30 384.90 L 351.20 397.90 L 349.60 405.00 L 348.20 413.30 L 347.10 422.80 L 346.60 432.30 L 346.50 443.20 L 347.00 460.00 L 346.50 464.30 L 345.30 468.40 L 343.90 471.80 L 341.30 475.60 L 338.30 477.90 L 336.80 478.30 L 335.20 478.20 L 333.70 477.70 L 332.10 476.50 L 330.30 474.50 L 325.10 460.10 L 320.70 446.30 L 316.90 433.00 L 313.90 420.20 L 311.50 407.80 L 309.60 395.00 L 308.20 382.60 L 307.50 370.80 L 307.30 359.40 L 307.70 348.50 L 308.60 337.30 L 310.10 326.50 L 312.00 316.20 L 314.40 306.40 L 317.20 296.90 L 320.60 287.40 L 324.40 278.40 L 328.70 269.70 L 333.30 261.50 L 338.30 253.60 L 343.80 245.90 L 349.60 238.70 L 355.80 231.80 L 362.30 225.20 L 369.20 219.10 L 376.40 213.30 L 383.90 207.80 L 391.70 202.80 L 399.80 198.10 L 408.20 193.80 L 416.80 189.90 L 425.60 186.40 L 434.60 183.30 L 443.90 180.60 L 453.50 178.30 L 463.10 176.40 L 472.90 174.90 L 482.90 173.90 L 493.00 173.20 L 503.40 173.00 L 513.70 173.30 L 523.50 174.00 L 532.80 175.10 L 541.60 176.50 L 550.10 178.40 L 558.10 180.60 L 566.30 183.40 L 574.10 186.50 L 581.50 189.90 L 588.60 193.60 L 595.30 197.70 L 601.80 202.10 L 609.30 207.80 L 616.40 214.00 L 623.10 220.60 L 629.50 227.60 L 635.50 235.00 L 641.00 242.80 L 646.20 250.90 L 651.20 259.30 L 655.80 268.20 L 660.00 277.40 L 664.80 289.10 L 669.20 301.30 L 673.10 313.90 L 676.50 327.00 L 679.40 340.20 L 682.00 353.60 L 684.10 367.40 L 685.80 381.60 L 687.10 395.70 L 688.70 424.40 L 689.00 439.00 L 688.80 458.40 L 688.10 477.70 L 686.90 497.00 L 678.40 499.20 L 670.60 500.70 L 663.50 501.50 L 657.10 501.70 L 650.50 501.40 L 644.40 500.50 L 638.90 499.10 L 633.80 497.30 L 628.90 495.00 L 624.30 492.20 L 620.10 489.10 L 616.20 485.50 L 612.60 481.60 L 609.30 477.40 L 606.20 472.90 L 603.40 467.90 L 600.10 461.10 L 597.20 453.90 L 594.60 446.20 L 592.40 438.40 L 588.80 421.90 L 586.80 409.40 L 585.20 396.80 L 580.30 340.80 L 579.20 332.80 L 577.90 326.70 L 576.40 321.30 L 574.50 316.60 L 572.50 312.60 L 570.00 308.60 L 567.40 305.20 L 564.50 302.30 L 561.50 299.80 L 554.80 295.80 L 547.60 293.10 L 542.60 292.10 L 537.40 291.40 L 532.20 291.20 L 521.60 291.90 L 508.90 294.30 L 501.90 296.20 L 489.90 300.40 L 478.60 305.40 L 437.20 297.20 L 438.30 309.60 L 424.80 307.40 L 414.70 306.80 L 409.50 306.90 L 404.30 307.40 L 399.60 308.40 L 393.40 312.50 L 388.30 316.20 L 380.20 323.40 L 375.00 329.30 L 370.50 336.00 L 369.40 338.60 L 372.50 337.70 L 381.70 337.40 Z" fill="#b07436" fill-rule="evenodd" node-id="52" stroke="none" target-height="328.7" target-width="381.7" target-x="307.3" target-y="173"></path><path d="M 505.90 423.70 L 506.20 444.60 L 506.80 467.00 L 507.40 475.30 L 509.60 491.10 L 513.90 511.10 L 490.10 523.50" fill="none" node-id="54" stroke="#dd936f" stroke-linecap="round" stroke-width="10.5931" target-height="99.79999" target-width="23.800018" target-x="490.1" target-y="423.7"></path><path d="M 441.40 449.10 L 437.30 445.60 L 434.80 444.20 L 431.90 443.00 L 428.70 442.40 L 425.00 442.30 L 421.10 442.70 L 418.00 443.60 L 415.10 444.80 L 410.70 447.90 L 407.10 452.20 L 404.40 457.50 L 402.40 459.30 L 399.80 459.90 L 398.40 459.70 L 396.10 458.20 L 394.80 455.80 L 395.00 453.00 L 400.00 454.60 L 395.00 453.00 L 396.40 449.60 L 398.30 446.40 L 401.10 442.60 L 403.60 440.10 L 406.60 437.60 L 410.10 435.40 L 414.40 433.60 L 417.40 432.70 L 424.50 431.70 L 431.80 432.10 L 438.00 434.00 L 443.10 436.70 L 446.50 439.30 L 450.90 443.90 L 454.40 449.20 L 455.70 451.60 L 456.20 452.70 L 451.20 454.60 L 456.20 452.70 L 456.40 455.50 L 455.30 457.90 L 453.10 459.60 L 451.70 459.90 L 449.10 459.50 L 447.00 457.80 L 443.60 451.90 L 441.40 449.10 Z M 446.30 456.50 L 446.30 456.50 L 446.30 456.50 L 446.30 456.50 Z" fill="#654840" fill-rule="evenodd" node-id="56" stroke="none" target-height="28.199982" target-width="61.600006" target-x="394.8" target-y="431.7"></path><path d="M 595.00 449.10 L 590.90 445.60 L 588.40 444.20 L 585.50 443.00 L 582.30 442.40 L 578.60 442.30 L 574.70 442.70 L 571.60 443.60 L 568.70 444.80 L 564.30 447.90 L 560.80 452.20 L 558.00 457.50 L 556.00 459.30 L 553.40 459.90 L 552.00 459.70 L 549.70 458.20 L 548.40 455.80 L 548.60 453.00 L 553.60 454.60 L 548.60 453.00 L 550.00 449.60 L 551.90 446.40 L 554.70 442.60 L 557.20 440.10 L 560.20 437.60 L 563.70 435.40 L 568.00 433.60 L 571.00 432.70 L 578.10 431.70 L 585.40 432.10 L 591.60 434.00 L 596.70 436.70 L 600.10 439.30 L 604.50 443.90 L 608.00 449.20 L 609.30 451.60 L 609.80 452.70 L 604.80 454.60 L 609.80 452.70 L 610.00 455.50 L 608.90 457.90 L 606.70 459.60 L 605.30 459.90 L 602.70 459.50 L 600.60 457.80 L 597.20 451.90 L 595.00 449.10 Z M 599.90 456.50 L 599.90 456.50 L 599.90 456.50 L 599.90 456.50 Z M 599.90 456.50 L 599.90 456.50 L 599.90 456.50 L 599.90 456.50 Z" fill="#654840" fill-rule="evenodd" node-id="58" stroke="none" target-height="28.199982" target-width="61.599976" target-x="548.4" target-y="431.7"></path><path d="M 431.50 524.20 L 431.20 528.80 L 430.30 533.20 L 428.90 537.40 L 426.90 541.40 L 424.40 545.20 L 421.40 548.60 L 418.00 551.60 L 414.30 554.10 L 410.20 556.10 L 406.00 557.50 L 401.60 558.40 L 397.10 558.70 L 392.50 558.40 L 388.10 557.50 L 383.90 556.10 L 379.90 554.10 L 376.20 551.60 L 372.70 548.60 L 369.70 545.20 L 367.20 541.40 L 365.30 537.40 L 363.80 533.20 L 362.90 528.80 L 362.60 524.20 L 362.90 519.70 L 363.80 515.30 L 365.30 511.10 L 367.20 507.10 L 369.70 503.30 L 372.70 499.90 L 376.20 496.90 L 379.90 494.40 L 383.90 492.40 L 388.10 491.00 L 392.50 490.10 L 397.10 489.80 L 401.60 490.10 L 406.00 491.00 L 410.20 492.40 L 414.30 494.40 L 418.00 496.90 L 421.40 499.90 L 424.40 503.30 L 426.90 507.10 L 428.90 511.10 L 430.30 515.30 L 431.20 519.70 L 431.50 524.20 Z" fill="#ffd2b9" fill-rule="nonzero" node-id="60" stroke="none" target-height="68.900024" target-width="68.899994" target-x="362.6" target-y="489.8"></path><path d="M 639.80 524.20 L 639.50 528.80 L 638.70 533.20 L 637.20 537.40 L 635.20 541.40 L 632.80 545.20 L 629.70 548.60 L 626.30 551.60 L 622.60 554.10 L 618.60 556.10 L 614.30 557.50 L 610.00 558.40 L 605.40 558.70 L 600.80 558.40 L 596.50 557.50 L 592.20 556.10 L 588.20 554.10 L 584.50 551.60 L 581.10 548.60 L 578.10 545.20 L 575.60 541.40 L 573.60 537.40 L 572.20 533.20 L 571.30 528.80 L 571.00 524.20 L 571.30 519.70 L 572.20 515.30 L 573.60 511.10 L 575.60 507.10 L 578.10 503.30 L 581.10 499.90 L 584.50 496.90 L 588.20 494.40 L 592.20 492.40 L 596.50 491.00 L 600.80 490.10 L 605.40 489.80 L 610.00 490.10 L 614.30 491.00 L 618.60 492.40 L 622.60 494.40 L 626.30 496.90 L 629.70 499.90 L 632.80 503.30 L 635.20 507.10 L 637.20 511.10 L 638.70 515.30 L 639.50 519.70 L 639.80 524.20 Z" fill="#ffd2b9" fill-rule="nonzero" node-id="62" stroke="none" target-height="68.900024" target-width="68.79999" target-x="571" target-y="489.8"></path><path d="M 461.90 564.50 L 460.30 563.80 L 459.00 562.80 L 458.10 561.60 L 457.50 560.10 L 457.40 558.60 L 457.70 557.00 L 458.50 555.70 L 459.60 554.90 L 461.00 554.50 L 464.40 554.60 L 474.40 556.80 L 481.00 557.90 L 488.30 558.70 L 503.90 559.30 L 518.60 558.70 L 526.30 557.90 L 545.90 554.50 L 548.00 554.70 L 549.20 555.10 L 550.10 556.00 L 550.80 557.40 L 551.00 559.00 L 550.70 560.50 L 550.00 561.90 L 549.00 563.10 L 547.70 564.00 L 546.00 564.60 L 538.00 566.30 L 523.30 568.40 L 512.60 569.20 L 503.10 569.50 L 487.90 568.90 L 473.30 567.00 L 461.90 564.50 Z" fill="#bb6855" fill-rule="evenodd" node-id="64" stroke="none" target-height="15" target-width="93.600006" target-x="457.4" target-y="554.5"></path><g node-id="83"><path d="M 503.40 595.00 L 497.90 594.70 L 493.50 594.10 L 486.90 592.30 L 483.20 590.50 L 482.50 589.70 L 481.70 587.50 L 482.20 585.20 L 483.70 583.50 L 485.90 582.70 L 487.00 582.80 L 493.70 585.00 L 500.80 586.00 L 508.10 585.80 L 512.00 585.20 L 522.20 582.40 L 523.40 582.40 L 525.40 583.30 L 526.80 585.20 L 527.10 587.50 L 526.10 589.60 L 524.20 591.00 L 518.50 592.90 L 513.20 594.10 L 508.00 594.80 L 503.40 595.00" fill="#bb6855" fill-opacity="0.2" fill-rule="evenodd" group-id="1" node-id="68" stroke="none" target-height="12.599976" target-width="45.399963" target-x="481.7" target-y="582.4"></path></g><path d="M 586.30 414.90 L 578.90 415.20 L 571.90 416.10 L 565.30 417.60 L 558.90 419.60 L 552.90 422.00 L 547.30 424.90 L 542.10 428.30 L 537.50 432.00 L 533.30 436.10 L 528.10 442.80 L 524.20 450.00 L 522.80 453.80 L 521.80 457.70 L 521.20 461.70 L 521.00 465.80 L 521.20 469.90 L 521.80 473.90 L 522.80 477.80 L 524.20 481.60 L 528.10 488.90 L 530.50 492.30 L 533.30 495.60 L 537.50 499.60 L 542.10 503.30 L 547.30 506.70 L 552.90 509.60 L 558.90 512.10 L 565.30 514.10 L 571.90 515.50 L 578.90 516.40 L 586.30 516.80 L 593.60 516.40 L 600.60 515.50 L 607.20 514.10 L 613.70 512.10 L 619.70 509.60 L 625.20 506.70 L 630.40 503.30 L 635.10 499.60 L 639.20 495.60 L 644.50 488.90 L 648.30 481.60 L 649.80 477.80 L 650.80 473.90 L 651.40 469.90 L 651.60 465.80 L 651.40 461.70 L 650.80 457.70 L 649.80 453.80 L 648.30 450.00 L 644.50 442.80 L 642.00 439.40 L 639.20 436.10 L 635.10 432.00 L 630.40 428.30 L 625.20 424.90 L 619.70 422.00 L 613.70 419.60 L 607.20 417.60 L 600.60 416.10 L 593.60 415.20 L 586.30 414.90 Z M 513.90 465.80 L 514.20 460.90 L 514.90 456.20 L 516.00 451.60 L 517.70 447.20 L 519.70 443.00 L 522.10 438.90 L 524.90 435.00 L 531.60 427.80 L 539.40 421.60 L 543.90 418.80 L 550.10 415.60 L 556.70 412.90 L 563.70 410.70 L 569.10 409.50 L 580.40 408.00 L 592.20 408.00 L 597.90 408.60 L 608.80 410.70 L 615.90 412.90 L 622.50 415.60 L 628.70 418.80 L 633.10 421.60 L 637.20 424.60 L 644.50 431.30 L 647.70 435.00 L 650.50 438.90 L 652.90 443.00 L 654.90 447.20 L 656.50 451.60 L 657.70 456.20 L 658.40 460.90 L 658.70 465.80 L 658.40 470.70 L 657.70 475.50 L 656.50 480.00 L 654.90 484.40 L 652.90 488.70 L 650.50 492.80 L 647.70 496.70 L 641.00 503.80 L 633.10 510.10 L 628.70 512.80 L 622.50 516.00 L 615.90 518.70 L 608.80 520.90 L 603.40 522.20 L 592.20 523.60 L 580.40 523.60 L 574.70 523.10 L 563.70 520.90 L 556.70 518.70 L 550.10 516.00 L 543.90 512.80 L 535.30 507.10 L 528.10 500.40 L 524.90 496.70 L 522.10 492.80 L 519.70 488.70 L 517.70 484.40 L 516.00 480.00 L 514.90 475.50 L 514.20 470.70 L 513.90 465.80 Z" fill="#835c54" fill-rule="evenodd" node-id="71" stroke="none" target-height="115.599976" target-width="144.79999" target-x="513.9" target-y="408"></path><path d="M 416.80 414.90 L 409.40 415.20 L 402.40 416.10 L 395.80 417.60 L 389.40 419.60 L 383.40 422.00 L 377.90 424.90 L 372.60 428.30 L 368.00 432.00 L 363.80 436.10 L 358.60 442.80 L 354.70 450.00 L 353.30 453.80 L 352.30 457.70 L 351.70 461.70 L 351.50 465.80 L 351.70 469.90 L 352.30 473.90 L 353.30 477.80 L 354.70 481.60 L 358.60 488.90 L 361.00 492.30 L 363.80 495.60 L 368.00 499.60 L 372.60 503.30 L 377.90 506.70 L 383.40 509.60 L 389.40 512.10 L 395.80 514.10 L 402.40 515.50 L 409.40 516.40 L 416.80 516.80 L 424.20 516.40 L 431.10 515.50 L 437.70 514.10 L 444.20 512.10 L 450.20 509.60 L 455.70 506.70 L 461.00 503.30 L 465.60 499.60 L 469.70 495.60 L 475.00 488.90 L 478.90 481.60 L 480.30 477.80 L 481.30 473.90 L 481.90 469.90 L 482.10 465.80 L 481.90 461.70 L 481.30 457.70 L 480.30 453.80 L 478.90 450.00 L 475.00 442.80 L 472.60 439.40 L 469.70 436.10 L 465.60 432.00 L 461.00 428.30 L 455.70 424.90 L 450.20 422.00 L 444.20 419.60 L 437.70 417.60 L 431.10 416.10 L 424.20 415.20 L 416.80 414.90 Z M 344.40 465.80 L 344.70 460.90 L 345.40 456.20 L 346.50 451.60 L 348.20 447.20 L 350.20 443.00 L 352.60 438.90 L 355.40 435.00 L 362.10 427.80 L 369.90 421.60 L 374.40 418.80 L 380.60 415.60 L 387.20 412.90 L 394.20 410.70 L 399.60 409.50 L 410.90 408.00 L 422.70 408.00 L 428.40 408.60 L 439.40 410.70 L 446.40 412.90 L 453.00 415.60 L 459.20 418.80 L 463.60 421.60 L 467.70 424.60 L 475.00 431.30 L 478.20 435.00 L 481.00 438.90 L 483.40 443.00 L 485.40 447.20 L 487.00 451.60 L 488.20 456.20 L 488.90 460.90 L 489.20 465.80 L 488.90 470.70 L 488.20 475.50 L 487.00 480.00 L 485.40 484.40 L 483.40 488.70 L 481.00 492.80 L 478.20 496.70 L 471.50 503.80 L 463.60 510.10 L 459.20 512.80 L 453.00 516.00 L 446.40 518.70 L 439.40 520.90 L 434.00 522.20 L 422.70 523.60 L 410.90 523.60 L 405.20 523.10 L 394.20 520.90 L 387.20 518.70 L 380.60 516.00 L 374.40 512.80 L 365.80 507.10 L 358.60 500.40 L 355.40 496.70 L 352.60 492.80 L 350.20 488.70 L 348.20 484.40 L 346.50 480.00 L 345.40 475.50 L 344.70 470.70 L 344.40 465.80 Z" fill="#835c54" fill-rule="evenodd" node-id="73" stroke="none" target-height="115.599976" target-width="144.80002" target-x="344.4" target-y="408"></path><path d="M 486.80 456.20 L 484.50 449.50 L 490.80 447.70 L 496.60 446.40 L 502.40 445.80 L 508.00 446.40 L 513.20 447.70 L 518.70 449.60 L 516.10 456.10 L 511.20 454.50 L 506.70 453.30 L 502.40 452.90 L 497.80 453.40 L 486.80 456.20 Z" fill="#835c54" fill-rule="evenodd" node-id="75" stroke="none" target-height="10.400024" target-width="34.200012" target-x="484.5" target-y="445.8"></path><path d="M 513.00 932.30 L 472.00 931.50 L 454.70 930.70 L 429.50 929.00 L 409.00 927.20 L 390.20 925.00 L 363.80 921.00 L 349.70 918.20 L 370.90 990.20 L 378.30 1024.00 L 685.40 1024.00 L 697.50 990.20 L 693.10 920.90 L 675.50 923.30 L 644.20 926.70 L 600.10 930.00 L 554.60 931.90 L 513.00 932.30 Z" fill="#ffffff" fill-rule="nonzero" node-id="77" stroke="none" target-height="105.79999" target-width="347.8" target-x="349.7" target-y="918.2"></path><path d="M 105.40 1024.00 L 403.20 1024.00 L 396.60 977.00 L 390.70 930.70 L 381.20 849.60 L 375.30 792.80 L 330.70 799.00 L 291.90 805.10 L 258.80 808.70 L 216.00 816.90 L 199.10 821.20 L 191.30 823.60 L 183.60 826.50 L 176.30 829.80 L 169.40 833.50 L 159.60 840.00 L 155.00 843.80 L 150.60 848.00 L 146.50 852.50 L 142.60 857.40 L 138.80 862.90 L 135.20 868.90 L 132.00 875.10 L 129.00 881.90 L 126.20 889.50 L 123.60 897.80 L 119.40 915.20 L 117.60 925.30 L 105.40 1024.00 Z" fill="#353e4d" fill-rule="nonzero" node-id="79" stroke="none" target-height="231.20001" target-width="297.80002" target-x="105.4" target-y="792.8"></path><path d="M 619.60 1024.00 L 626.20 929.90 L 631.00 849.70 L 633.90 794.10 L 640.00 796.80 L 646.90 799.30 L 654.70 801.70 L 666.60 804.70 L 679.60 807.50 L 693.00 809.70 L 720.40 813.50 L 779.50 819.50 L 791.00 821.00 L 801.50 822.80 L 811.10 824.90 L 825.10 828.90 L 837.60 834.00 L 843.50 837.00 L 849.10 840.30 L 854.50 844.00 L 859.70 848.00 L 864.50 852.40 L 869.20 857.20 L 873.80 862.50 L 878.20 868.30 L 886.20 880.80 L 890.10 888.10 L 894.00 896.00 L 899.00 907.60 L 903.60 919.80 L 907.80 932.20 L 914.90 956.90 L 917.90 968.60 L 922.60 990.30 L 925.90 1007.90 L 928.50 1024.00 L 619.60 1024.00 Z" fill="#353e4d" fill-rule="nonzero" node-id="81" stroke="none" target-height="229.90002" target-width="308.90002" target-x="619.6" target-y="794.1"></path></svg>