<?xml version="1.0" standalone="no"?><!DOCTYPE svg PUBLIC "-//W3C//DTD SVG 1.1//EN" "http://www.w3.org/Graphics/SVG/1.1/DTD/svg11.dtd"><svg height="1024" node-id="1" sillyvg="true" template-height="1024" template-width="1024" version="1.1" viewBox="0 0 1024 1024" width="1024" xmlns="http://www.w3.org/2000/svg" xmlns:xlink="http://www.w3.org/1999/xlink"><defs node-id="32"></defs><path d="M 0.00 0.00 L 1024.00 0.00 L 1024.00 1024.00 L 0.00 1024.00 Z" fill="#e0f4ff" fill-rule="nonzero" node-id="34" stroke="none" target-height="1024" target-width="1024" target-x="0" target-y="0"></path><path d="M 426.70 788.30 L 431.50 610.50 L 604.80 605.20 L 614.80 788.30 L 615.40 792.70 L 616.40 796.80 L 618.00 800.60 L 620.00 804.00 L 622.50 807.30 L 625.30 810.10 L 628.60 812.80 L 632.50 815.50 L 637.10 817.90 L 642.40 820.30 L 648.80 822.60 L 656.20 824.80 L 664.70 826.80 L 674.40 828.70 L 687.20 830.70 L 701.80 832.40 L 718.60 834.00 L 717.80 845.80 L 718.30 884.10 L 718.00 895.40 L 717.40 902.80 L 716.30 910.30 L 714.80 917.80 L 711.60 928.70 L 709.40 934.10 L 706.80 939.50 L 703.90 944.60 L 700.50 949.60 L 696.50 954.60 L 691.90 959.50 L 687.00 963.90 L 681.50 968.30 L 675.10 972.60 L 667.90 976.80 L 660.70 980.40 L 652.50 983.80 L 643.20 987.20 L 632.80 990.30 L 622.70 992.90 L 611.30 995.20 L 598.70 997.30 L 584.60 999.10 L 571.00 1000.40 L 556.00 1001.40 L 539.50 1002.00 L 521.30 1002.20 L 503.10 1001.90 L 486.50 1001.30 L 471.30 1000.20 L 457.50 998.90 L 443.20 997.00 L 430.30 994.90 L 418.70 992.50 L 408.20 989.90 L 397.40 986.80 L 387.80 983.40 L 379.20 980.00 L 371.50 976.40 L 363.80 972.20 L 357.00 968.00 L 351.00 963.70 L 345.70 959.30 L 340.50 954.50 L 336.00 949.60 L 332.10 944.70 L 328.70 939.80 L 323.00 929.30 L 318.90 918.80 L 316.90 911.60 L 315.30 904.50 L 314.30 897.50 L 313.40 887.00 L 313.10 876.90 L 313.50 849.40 L 313.40 842.00 L 346.90 834.60 L 373.20 828.00 L 387.50 823.40 L 398.90 818.50 L 403.90 815.70 L 408.20 812.90 L 412.30 809.60 L 415.80 806.10 L 419.00 802.30 L 421.80 798.20 L 424.40 793.50 L 426.70 788.30 Z" fill="#ffd1aa" fill-rule="evenodd" node-id="36" stroke="none" target-height="397" target-width="405.49997" target-x="313.1" target-y="605.2"></path><path d="M 614.80 660.70 L 607.60 667.80 L 594.40 679.00 L 585.30 686.00 L 571.70 695.30 L 555.30 705.00 L 546.30 709.70 L 536.50 714.30 L 526.50 718.50 L 515.90 722.30 L 504.60 725.90 L 487.10 730.10 L 477.90 731.80 L 468.30 733.10 L 458.70 734.00 L 448.80 734.50 L 438.60 734.50 L 428.00 734.00 L 429.60 696.50 L 434.20 606.10 L 614.80 606.90 L 614.80 660.70 Z" fill="#ffc18d" fill-rule="evenodd" node-id="38" stroke="none" target-height="128.40002" target-width="186.79999" target-x="428" target-y="606.1"></path><path d="M 369.70 485.70 L 361.60 479.30 L 357.60 476.80 L 349.70 473.10 L 342.70 471.40 L 339.10 471.10 L 335.50 471.30 L 331.80 472.10 L 329.20 473.10 L 323.90 476.40 L 321.30 478.80 L 318.30 483.10 L 317.10 485.90 L 316.10 489.20 L 315.30 493.60 L 314.90 498.60 L 314.90 504.30 L 315.40 510.00 L 316.40 516.10 L 317.90 522.50 L 319.80 528.90 L 322.20 535.30 L 325.20 541.90 L 331.80 552.00 L 335.70 557.00 L 340.00 561.80 L 344.70 566.30 L 349.80 570.40 L 352.20 571.90 L 357.00 573.80 L 360.80 574.40 L 364.90 574.60 L 383.00 573.70 L 369.70 485.70 Z" fill="#ffd1aa" fill-rule="evenodd" node-id="40" stroke="none" target-height="103.49997" target-width="68.100006" target-x="314.9" target-y="471.1"></path><path d="M 662.50 485.70 L 670.60 479.30 L 674.60 476.80 L 682.50 473.10 L 689.50 471.40 L 693.10 471.10 L 696.70 471.30 L 700.40 472.10 L 703.00 473.10 L 708.30 476.40 L 710.90 478.80 L 713.90 483.10 L 715.10 485.90 L 716.10 489.20 L 716.90 493.60 L 717.30 498.60 L 717.30 504.30 L 716.80 510.00 L 715.80 516.10 L 714.30 522.50 L 712.40 528.90 L 710.00 535.30 L 707.00 541.90 L 700.40 552.00 L 696.50 557.00 L 692.20 561.80 L 687.50 566.30 L 682.40 570.40 L 680.00 571.90 L 675.20 573.80 L 671.40 574.40 L 667.30 574.60 L 649.30 573.70 L 662.50 485.70 Z" fill="#ffd1aa" fill-rule="evenodd" node-id="42" stroke="none" target-height="103.49997" target-width="68" target-x="649.3" target-y="471.1"></path><path d="M 511.70 235.70 L 501.70 236.00 L 492.20 236.70 L 483.10 237.80 L 474.50 239.40 L 466.30 241.30 L 458.50 243.70 L 450.60 246.60 L 443.00 249.80 L 435.90 253.30 L 429.00 257.30 L 422.60 261.50 L 416.40 266.20 L 409.30 272.20 L 402.70 278.70 L 396.40 285.70 L 390.60 293.10 L 385.20 301.00 L 380.30 309.20 L 375.80 317.70 L 371.70 326.70 L 368.00 336.20 L 364.70 346.10 L 361.80 355.90 L 359.40 366.20 L 357.30 376.80 L 355.70 387.70 L 354.40 399.10 L 353.60 410.40 L 353.10 433.60 L 354.20 458.10 L 360.10 500.90 L 363.10 525.40 L 366.00 554.10 L 368.80 588.90 L 371.40 596.60 L 376.60 607.10 L 384.30 619.30 L 393.70 632.20 L 405.20 645.80 L 411.50 652.50 L 418.40 659.30 L 425.60 665.70 L 433.10 671.90 L 441.10 677.80 L 449.30 683.30 L 457.80 688.20 L 466.60 692.60 L 475.10 695.70 L 479.30 696.70 L 485.60 697.70 L 498.50 698.20 L 519.10 697.80 L 544.00 698.60 L 550.10 698.40 L 556.10 697.80 L 559.90 697.00 L 567.40 694.40 L 575.80 690.20 L 584.00 685.30 L 592.00 679.90 L 599.70 674.00 L 607.10 667.80 L 614.20 661.30 L 621.00 654.50 L 633.20 640.80 L 638.80 633.70 L 648.30 620.50 L 652.50 613.80 L 658.80 602.50 L 663.00 592.50 L 664.00 588.90 L 664.60 584.70 L 667.70 537.20 L 669.70 511.40 L 672.80 484.50 L 674.80 471.00 L 677.20 458.10 L 678.40 433.80 L 677.90 410.60 L 677.10 399.40 L 675.80 388.00 L 674.20 377.00 L 672.10 366.50 L 669.70 356.20 L 666.90 346.30 L 663.60 336.40 L 659.80 327.00 L 655.70 318.00 L 651.20 309.40 L 646.30 301.30 L 640.90 293.30 L 635.10 285.90 L 628.80 278.90 L 622.20 272.40 L 615.10 266.30 L 608.90 261.70 L 602.40 257.40 L 595.60 253.40 L 588.40 249.90 L 580.90 246.60 L 573.00 243.70 L 565.10 241.40 L 556.90 239.40 L 548.30 237.80 L 539.20 236.70 L 529.70 236.00 L 511.70 235.70 Z" fill="#ffe1c7" fill-rule="evenodd" node-id="44" stroke="none" target-height="462.89996" target-width="325.30002" target-x="353.1" target-y="235.7"></path><path d="M 398.30 441.00 L 396.80 440.80 L 395.30 440.20 L 394.10 439.20 L 393.10 437.90 L 392.50 436.40 L 392.30 434.90 L 393.20 431.90 L 394.10 430.70 L 395.40 429.70 L 400.90 427.10 L 406.60 424.90 L 412.60 423.10 L 424.70 420.90 L 430.80 420.40 L 439.90 420.10 L 448.30 420.30 L 463.30 421.80 L 478.60 424.70 L 480.20 425.30 L 481.40 426.20 L 482.90 428.80 L 483.20 430.30 L 483.00 432.00 L 482.40 433.50 L 481.50 434.70 L 480.20 435.60 L 478.80 436.20 L 477.30 436.50 L 462.40 433.80 L 456.20 433.00 L 441.10 432.10 L 432.80 432.30 L 421.90 433.50 L 416.40 434.50 L 411.10 436.00 L 406.00 437.90 L 399.80 440.80 L 398.30 441.00 Z" fill="#654840" fill-rule="evenodd" node-id="46" stroke="none" target-height="20.899994" target-width="90.900024" target-x="392.3" target-y="420.1"></path><path d="M 623.20 441.00 L 621.70 440.80 L 615.50 437.90 L 610.50 436.00 L 605.30 434.50 L 600.00 433.50 L 589.40 432.30 L 581.50 432.10 L 567.10 433.00 L 561.20 433.80 L 548.50 436.30 L 545.40 436.30 L 542.80 434.70 L 541.20 432.00 L 541.00 430.40 L 541.20 428.90 L 542.70 426.30 L 545.40 424.70 L 560.10 421.80 L 574.40 420.30 L 582.50 420.10 L 591.30 420.40 L 603.10 421.90 L 609.10 423.10 L 614.90 424.80 L 620.60 427.00 L 626.10 429.70 L 628.30 431.90 L 629.20 434.90 L 629.00 436.40 L 628.40 437.90 L 627.40 439.20 L 626.20 440.20 L 624.70 440.80 L 623.20 441.00 Z" fill="#654840" fill-rule="evenodd" node-id="48" stroke="none" target-height="20.899994" target-width="88.20001" target-x="541" target-y="420.1"></path><path d="M 650.20 441.10 L 661.00 455.80 L 672.00 506.10 L 674.80 493.10 L 677.30 478.00 L 681.10 448.40 L 682.60 431.40 L 682.30 419.80 L 681.50 408.50 L 680.20 397.70 L 678.40 387.30 L 676.10 377.20 L 673.20 367.20 L 669.80 357.60 L 665.90 348.50 L 661.50 339.70 L 656.70 331.40 L 652.20 324.70 L 647.30 318.40 L 642.20 312.30 L 636.60 306.60 L 630.70 301.20 L 624.40 296.10 L 617.90 291.50 L 611.10 287.20 L 603.80 283.20 L 596.10 279.60 L 588.00 276.30 L 579.50 273.40 L 571.00 271.00 L 562.20 269.10 L 552.90 267.50 L 543.10 266.30 L 532.70 265.60 L 521.90 265.30 L 509.20 265.60 L 497.30 266.30 L 486.00 267.40 L 475.50 268.90 L 465.60 270.80 L 456.30 273.00 L 446.60 275.90 L 437.50 279.10 L 429.10 282.60 L 421.20 286.40 L 413.70 290.60 L 406.80 295.00 L 400.00 300.10 L 393.70 305.40 L 387.80 311.00 L 382.30 317.00 L 377.30 323.20 L 372.60 329.80 L 368.40 336.70 L 364.60 343.80 L 361.10 351.30 L 357.90 359.10 L 355.20 367.20 L 352.80 375.80 L 350.50 385.90 L 348.70 396.50 L 347.40 407.60 L 346.60 419.20 L 346.40 431.30 L 347.00 447.10 L 349.30 465.50 L 351.20 475.30 L 355.20 492.00 L 359.90 507.20 L 366.40 455.80 L 375.00 443.00 L 376.30 440.70 L 376.70 438.30 L 377.00 433.40 L 377.10 403.30 L 377.60 384.50 L 379.10 366.00 L 379.90 360.00 L 382.10 349.60 L 392.30 346.20 L 400.40 343.80 L 420.70 339.10 L 436.90 336.50 L 446.10 335.40 L 455.30 334.70 L 464.90 334.30 L 474.90 334.40 L 484.90 334.90 L 495.00 336.00 L 505.30 337.70 L 513.00 339.40 L 520.60 341.50 L 528.20 344.10 L 535.70 347.10 L 543.20 343.60 L 549.40 341.30 L 559.10 338.70 L 565.20 337.50 L 571.40 336.60 L 578.20 336.10 L 585.80 335.90 L 593.30 336.20 L 601.50 337.20 L 610.20 338.80 L 616.60 340.40 L 623.30 342.50 L 630.40 345.10 L 637.70 348.30 L 641.00 363.40 L 643.70 380.50 L 647.80 414.50 L 650.20 441.10 Z" fill="#86665d" fill-rule="evenodd" node-id="50" stroke="none" target-height="241.90002" target-width="336.19998" target-x="346.4" target-y="265.3"></path><path d="M 348.10 451.40 L 343.80 436.00 L 339.90 419.50 L 335.80 399.70 L 332.50 378.60 L 331.40 368.00 L 330.80 358.00 L 331.10 345.40 L 331.70 339.90 L 332.50 336.20 L 333.80 332.10 L 335.80 327.40 L 339.30 320.40 L 343.80 312.80 L 348.90 305.20 L 360.30 289.80 L 366.30 282.50 L 377.80 269.40 L 387.80 259.30 L 399.60 248.60 L 411.40 239.10 L 417.60 234.60 L 431.50 226.00 L 439.80 221.50 L 458.90 212.40 L 465.90 209.60 L 472.50 207.40 L 478.70 205.80 L 484.50 204.80 L 496.30 203.90 L 506.70 204.60 L 513.50 205.80 L 519.70 207.40 L 525.40 209.40 L 530.90 211.90 L 540.20 217.20 L 546.30 221.60 L 555.10 229.40 L 559.90 234.90 L 564.60 232.20 L 568.50 230.50 L 573.00 229.10 L 578.70 228.00 L 587.30 227.40 L 592.40 227.70 L 597.40 228.40 L 602.90 229.70 L 609.00 231.70 L 614.90 234.10 L 621.30 237.50 L 628.30 241.80 L 638.50 249.50 L 644.00 254.40 L 655.30 265.80 L 661.00 272.40 L 673.40 288.40 L 685.30 306.20 L 698.30 328.60 L 699.70 331.60 L 700.80 335.20 L 701.70 339.20 L 702.30 344.00 L 702.50 350.20 L 702.30 357.30 L 701.60 365.40 L 699.00 382.30 L 693.70 406.50 L 689.50 422.60 L 679.80 456.40 L 673.90 451.40 L 669.30 446.70 L 664.30 441.00 L 654.20 427.40 L 645.10 412.50 L 640.70 404.30 L 636.20 394.80 L 628.50 377.30 L 625.50 371.50 L 622.60 366.60 L 616.40 358.20 L 609.90 352.00 L 603.30 347.60 L 596.60 344.90 L 593.30 344.10 L 588.80 343.60 L 584.40 343.60 L 580.00 344.10 L 575.70 345.00 L 567.60 347.90 L 561.80 350.70 L 551.90 357.00 L 548.00 360.00 L 540.30 367.10 L 525.90 360.90 L 510.60 355.50 L 501.70 353.00 L 485.60 349.30 L 472.40 347.70 L 465.70 347.40 L 459.30 347.60 L 453.10 348.30 L 448.50 349.20 L 444.10 350.40 L 439.90 352.00 L 436.00 353.90 L 422.00 362.60 L 416.90 366.30 L 408.10 374.10 L 402.20 381.10 L 398.20 387.80 L 396.10 392.70 L 390.00 412.00 L 387.70 417.00 L 383.50 423.70 L 377.30 430.90 L 368.00 438.80 L 356.10 446.80 L 348.10 451.40" fill="#654840" fill-rule="evenodd" node-id="52" stroke="none" target-height="252.5" target-width="371.7" target-x="330.8" target-y="203.9"></path><path d="M 425.30 318.60 L 418.80 324.90 L 413.60 330.60 L 410.60 334.50 L 407.90 338.40 L 403.70 346.50 L 400.40 356.00 L 398.60 363.70 L 396.90 373.20 L 394.10 396.00 L 397.90 388.90 L 401.90 382.70 L 406.00 377.10 L 410.30 372.20 L 414.60 367.90 L 419.50 363.90 L 424.40 360.40 L 429.60 357.50 L 434.80 355.00 L 440.30 353.00 L 445.90 351.40 L 451.70 350.20 L 457.70 349.50 L 463.80 349.10 L 470.30 349.10 L 478.10 349.70 L 486.30 350.70 L 494.80 352.30 L 503.70 354.40 L 515.20 357.80 L 527.20 361.90 L 539.70 366.90 L 533.10 355.40 L 529.60 350.10 L 520.10 337.80 L 514.30 331.40 L 505.60 323.30 L 500.90 319.50 L 495.80 316.10 L 490.60 313.00 L 485.00 310.40 L 476.30 307.40 L 471.80 306.50 L 467.00 305.90 L 462.30 305.70 L 457.40 306.00 L 452.40 306.70 L 447.10 308.00 L 442.00 309.60 L 436.70 311.90 L 431.20 314.90 L 425.30 318.60 Z" fill="#452e28" fill-rule="evenodd" node-id="54" stroke="none" target-height="90.29999" target-width="145.6" target-x="394.1" target-y="305.7"></path><path d="M 635.00 389.80 L 631.00 378.60 L 626.00 367.50 L 622.80 361.50 L 616.30 351.30 L 610.20 343.90 L 606.80 340.60 L 603.30 337.70 L 596.60 333.80 L 590.40 331.80 L 587.20 331.30 L 583.90 331.30 L 580.50 331.70 L 576.90 332.60 L 573.00 334.00 L 569.50 335.80 L 565.70 338.20 L 561.60 341.30 L 553.30 349.20 L 544.50 359.90 L 539.70 366.90 L 545.70 364.00 L 551.50 361.70 L 557.00 360.10 L 562.20 359.00 L 567.70 358.30 L 577.80 358.10 L 582.50 358.70 L 588.80 359.90 L 594.70 361.60 L 600.20 363.70 L 605.50 366.20 L 614.80 371.60 L 620.90 376.10 L 625.70 380.20 L 629.90 384.20 L 635.00 389.80 Z" fill="#452e28" fill-rule="evenodd" node-id="56" stroke="none" target-height="58.5" target-width="95.29999" target-x="539.7" target-y="331.3"></path><path d="M 536.00 456.30 L 534.40 461.30 L 536.00 456.30 L 537.30 456.90 L 538.30 457.70 L 539.60 460.10 L 539.50 462.90 L 538.90 464.20 L 538.00 465.20 L 535.70 466.50 L 534.30 466.60 L 531.10 466.20 L 529.40 466.50 L 527.90 467.30 L 526.40 469.40 L 525.70 471.30 L 525.20 474.50 L 525.00 478.20 L 525.40 483.50 L 526.30 489.30 L 531.00 509.90 L 533.10 521.00 L 533.70 526.00 L 533.90 530.60 L 533.60 535.00 L 532.80 538.80 L 531.90 541.30 L 530.50 543.60 L 528.70 545.80 L 526.50 547.50 L 524.10 548.70 L 521.40 549.60 L 515.70 550.10 L 512.40 549.90 L 507.30 549.10 L 501.40 547.70 L 499.10 546.30 L 497.80 543.90 L 497.60 542.60 L 497.80 541.10 L 498.40 539.80 L 500.30 538.00 L 502.90 537.30 L 509.70 538.80 L 513.50 539.40 L 516.90 539.50 L 519.00 539.30 L 520.60 538.70 L 522.00 537.40 L 522.70 535.80 L 523.30 530.60 L 522.60 522.50 L 520.80 512.70 L 515.90 491.40 L 514.90 484.70 L 514.40 476.60 L 515.30 469.50 L 516.20 466.20 L 517.50 463.50 L 519.10 461.20 L 522.70 458.00 L 526.20 456.40 L 528.80 455.80 L 533.00 455.70 L 536.00 456.30 Z" fill="#dd936f" fill-rule="evenodd" node-id="58" stroke="none" target-height="94.39996" target-width="41.99997" target-x="497.6" target-y="455.7"></path><path d="M 439.10 505.50 L 441.60 505.30 L 446.30 503.80 L 448.40 502.60 L 451.00 500.40 L 453.20 497.80 L 455.10 494.60 L 456.40 491.00 L 457.30 487.10 L 457.60 482.50 L 457.30 477.90 L 456.40 474.00 L 455.10 470.40 L 453.20 467.20 L 451.00 464.60 L 448.40 462.50 L 446.30 461.20 L 441.60 459.80 L 439.10 459.60 L 434.10 460.30 L 429.70 462.50 L 427.20 464.60 L 425.00 467.20 L 423.10 470.40 L 421.70 474.00 L 420.90 477.90 L 420.50 482.50 L 420.90 487.10 L 421.70 491.00 L 423.10 494.60 L 425.00 497.80 L 427.20 500.40 L 429.70 502.60 L 431.90 503.80 L 436.50 505.30 L 439.10 505.50 Z" fill="#3b4453" fill-rule="evenodd" node-id="60" stroke="none" target-height="45.899994" target-width="37.100006" target-x="420.5" target-y="459.6"></path><path d="M 583.80 505.50 L 586.40 505.30 L 591.00 503.80 L 593.20 502.60 L 595.80 500.40 L 598.00 497.80 L 599.90 494.60 L 601.20 491.00 L 602.10 487.10 L 602.40 482.50 L 602.10 477.90 L 601.20 474.00 L 599.90 470.40 L 598.00 467.20 L 595.80 464.60 L 593.20 462.50 L 591.00 461.20 L 586.40 459.80 L 583.80 459.60 L 578.90 460.30 L 574.50 462.50 L 571.90 464.60 L 569.70 467.20 L 567.80 470.40 L 566.50 474.00 L 565.60 477.90 L 565.30 482.50 L 565.60 487.10 L 566.50 491.00 L 567.80 494.60 L 569.70 497.80 L 571.90 500.40 L 574.50 502.60 L 576.60 503.80 L 581.30 505.30 L 583.80 505.50 Z" fill="#3b4453" fill-rule="evenodd" node-id="62" stroke="none" target-height="45.899994" target-width="37.100037" target-x="565.3" target-y="459.6"></path><g node-id="94"><path d="M 445.80 551.20 L 445.50 555.80 L 444.70 560.20 L 443.20 564.40 L 441.20 568.40 L 438.80 572.20 L 435.80 575.60 L 432.30 578.60 L 428.60 581.10 L 424.60 583.10 L 420.30 584.50 L 416.00 585.40 L 411.40 585.70 L 406.90 585.40 L 402.50 584.50 L 398.20 583.10 L 394.20 581.10 L 390.50 578.60 L 387.10 575.60 L 384.10 572.20 L 381.60 568.40 L 379.60 564.40 L 378.20 560.20 L 377.30 555.80 L 377.00 551.20 L 377.30 546.70 L 378.20 542.30 L 379.60 538.10 L 381.60 534.10 L 384.10 530.30 L 387.10 526.90 L 390.50 523.90 L 394.20 521.40 L 398.20 519.40 L 402.50 518.00 L 406.90 517.10 L 411.40 516.80 L 416.00 517.10 L 420.30 518.00 L 424.60 519.40 L 428.60 521.40 L 432.30 523.90 L 435.80 526.90 L 438.80 530.30 L 441.20 534.10 L 443.20 538.10 L 444.70 542.30 L 445.50 546.70 L 445.80 551.20 Z" fill="#ffd2b9" fill-opacity="0.604969" fill-rule="nonzero" group-id="1" node-id="66" stroke="none" target-height="68.900024" target-width="68.79999" target-x="377" target-y="516.8"></path></g><g node-id="95"><path d="M 654.20 551.20 L 653.90 555.80 L 653.00 560.20 L 651.60 564.40 L 649.60 568.40 L 647.10 572.20 L 644.10 575.60 L 640.70 578.60 L 636.90 581.10 L 632.90 583.10 L 628.70 584.50 L 624.30 585.40 L 619.70 585.70 L 615.20 585.40 L 610.80 584.50 L 606.60 583.10 L 602.60 581.10 L 598.80 578.60 L 595.40 575.60 L 592.40 572.20 L 589.90 568.40 L 587.90 564.40 L 586.50 560.20 L 585.60 555.80 L 585.30 551.20 L 585.60 546.70 L 586.50 542.30 L 587.90 538.10 L 589.90 534.10 L 592.40 530.30 L 595.40 526.90 L 598.80 523.90 L 602.60 521.40 L 606.60 519.40 L 610.80 518.00 L 615.20 517.10 L 619.70 516.80 L 624.30 517.10 L 628.70 518.00 L 632.90 519.40 L 636.90 521.40 L 640.70 523.90 L 644.10 526.90 L 647.10 530.30 L 649.60 534.10 L 651.60 538.10 L 653.00 542.30 L 653.90 546.70 L 654.20 551.20 Z" fill="#ffd2b9" fill-opacity="0.604969" fill-rule="nonzero" group-id="2" node-id="71" stroke="none" target-height="68.900024" target-width="68.900024" target-x="585.3" target-y="516.8"></path></g><path d="M 470.90 595.50 L 498.40 594.00 L 514.10 593.70 L 540.40 594.70 L 562.70 596.40 L 558.60 599.90 L 555.10 602.30 L 551.10 604.70 L 542.10 608.80 L 533.10 611.40 L 528.20 612.30 L 516.80 613.20 L 510.80 612.90 L 505.30 612.30 L 500.50 611.30 L 491.40 608.50 L 482.40 604.20 L 478.40 601.70 L 474.90 599.20 L 470.90 595.50 Z" fill="#ffffff" fill-rule="evenodd" node-id="74" stroke="none" target-height="19.5" target-width="91.80002" target-x="470.9" target-y="593.7"></path><path d="M 470.90 595.50 L 466.90 599.00 L 470.40 602.30 L 474.40 605.40 L 479.90 608.90 L 484.30 611.20 L 489.60 613.50 L 495.30 615.40 L 501.90 617.00 L 511.40 618.30 L 516.80 618.40 L 522.10 618.30 L 531.50 617.10 L 538.10 615.60 L 543.80 613.80 L 549.10 611.60 L 553.50 609.40 L 559.00 606.10 L 563.00 603.10 L 566.50 600.00 L 562.70 596.40 L 566.50 600.00 L 567.40 598.80 L 567.90 596.00 L 567.60 594.50 L 566.90 593.20 L 565.90 592.20 L 564.60 591.50 L 563.20 591.10 L 562.70 596.40 L 563.20 591.10 L 536.40 589.10 L 514.10 588.40 L 498.20 588.70 L 470.40 590.20 L 470.90 595.50 Z M 485.40 599.90 L 493.60 603.70 L 498.50 605.30 L 508.00 607.30 L 516.80 607.90 L 523.40 607.60 L 529.20 606.80 L 534.80 605.50 L 539.60 604.00 L 547.80 600.50 L 524.90 599.20 L 514.10 599.00 L 485.40 599.90 Z M 470.90 595.50 L 470.40 590.20 L 469.00 590.50 L 467.70 591.20 L 465.90 593.50 L 465.60 595.00 L 466.10 597.80 L 466.90 599.00 L 470.90 595.50 Z" fill="#c14e45" fill-rule="evenodd" node-id="76" stroke="none" target-height="30" target-width="102.30002" target-x="465.6" target-y="588.4"></path><path d="M 399.50 791.80 L 384.80 796.90 L 370.40 802.40 L 373.40 817.70 L 383.60 967.50 L 378.40 984.10 L 373.10 1002.00 L 367.20 1024.00 L 709.30 1024.00 L 710.20 1002.40 L 710.50 967.50 L 684.00 801.50 L 664.90 795.70 L 651.60 790.70 L 637.40 782.60 L 633.00 779.80 L 629.70 777.40 L 623.90 772.40 L 581.30 799.10 L 555.90 813.80 L 541.40 821.10 L 536.00 823.30 L 532.40 824.40 L 530.00 824.70 L 524.20 824.10 L 515.00 821.40 L 507.80 818.60 L 491.70 811.70 L 456.30 794.70 L 419.00 775.10 L 416.70 776.20 L 403.50 788.50 L 399.50 791.80 Z" fill="#20293a" fill-rule="nonzero" node-id="78" stroke="none" target-height="251.59998" target-width="343.3" target-x="367.2" target-y="772.4"></path><path d="M 638.60 1024.00 L 966.70 1024.00 L 960.00 944.90 L 958.10 934.10 L 955.90 924.20 L 953.50 915.20 L 951.00 907.10 L 948.00 898.80 L 944.80 891.40 L 941.40 884.60 L 937.90 878.50 L 934.00 872.50 L 929.90 867.00 L 925.60 862.10 L 921.20 857.70 L 911.50 849.60 L 901.10 843.00 L 893.80 839.30 L 886.10 835.90 L 878.00 833.00 L 869.80 830.40 L 852.30 826.00 L 824.30 820.60 L 802.70 816.90 L 716.40 803.80 L 680.70 797.00 L 652.20 790.10 L 650.20 835.80 L 646.70 902.80 L 641.70 983.10 L 638.60 1024.00 Z" fill="#353e4d" fill-rule="nonzero" node-id="80" stroke="none" target-height="233.90002" target-width="328.10004" target-x="638.6" target-y="790.1"></path><path d="M 423.30 1024.00 L 103.50 1024.00 L 111.30 944.90 L 112.70 933.50 L 114.40 923.20 L 116.30 913.90 L 118.50 905.50 L 121.10 897.00 L 124.00 889.30 L 127.00 882.40 L 130.20 876.30 L 133.90 870.30 L 137.80 864.80 L 141.90 859.90 L 146.10 855.60 L 150.70 851.50 L 155.50 847.80 L 160.40 844.40 L 165.60 841.40 L 172.80 837.90 L 180.40 834.80 L 188.40 832.10 L 205.00 827.70 L 227.50 823.20 L 261.40 817.30 L 319.40 808.80 L 338.60 805.60 L 357.80 801.90 L 370.50 799.00 L 383.20 795.60 L 396.00 791.80 L 401.80 849.40 L 411.00 931.00 L 416.90 977.30 L 423.30 1024.00 Z" fill="#353e4d" fill-rule="nonzero" node-id="82" stroke="none" target-height="232.20001" target-width="319.8" target-x="103.5" target-y="791.8"></path><path d="M 675.60 798.30 L 676.90 797.60 L 679.60 797.40 L 682.00 798.50 L 683.00 799.50 L 738.60 877.10 L 739.30 878.40 L 739.50 881.10 L 738.40 883.60 L 737.30 884.50 L 684.70 920.90 L 718.10 937.20 L 719.10 937.80 L 720.50 939.60 L 720.90 940.80 L 720.90 943.10 L 720.00 945.20 L 661.70 1021.10 L 660.60 1022.10 L 659.50 1022.80 L 656.80 1023.10 L 654.20 1022.10 L 653.20 1021.00 L 652.20 1018.60 L 652.50 1015.90 L 653.30 1014.70 L 707.60 943.90 L 671.90 926.40 L 670.80 925.70 L 669.20 923.40 L 669.00 922.10 L 669.50 919.40 L 671.20 917.30 L 726.90 878.90 L 674.30 805.70 L 673.70 804.40 L 673.40 801.70 L 674.50 799.30 L 675.60 798.30 Z" fill="#20293a" fill-rule="evenodd" node-id="84" stroke="none" target-height="225.69995" target-width="87.29999" target-x="652.2" target-y="797.4"></path><path d="M 375.20 801.30 L 373.90 800.60 L 371.30 800.40 L 368.80 801.50 L 367.80 802.50 L 312.20 877.10 L 311.20 879.70 L 311.30 881.10 L 311.70 882.40 L 313.50 884.50 L 366.10 920.90 L 332.70 937.20 L 331.70 937.80 L 330.30 939.60 L 329.90 940.80 L 329.90 943.10 L 330.80 945.20 L 389.10 1021.10 L 390.20 1022.10 L 391.30 1022.80 L 394.00 1023.10 L 396.60 1022.10 L 397.60 1021.00 L 398.60 1018.60 L 398.30 1015.90 L 397.50 1014.70 L 343.20 943.90 L 378.90 926.40 L 380.10 925.70 L 381.60 923.40 L 381.80 922.10 L 381.30 919.40 L 379.60 917.30 L 323.90 878.90 L 376.50 808.70 L 377.10 807.40 L 377.40 804.70 L 376.30 802.30 L 375.20 801.30 Z" fill="#20293a" fill-rule="evenodd" node-id="86" stroke="none" target-height="222.69995" target-width="87.399994" target-x="311.2" target-y="800.4"></path><path d="M 642.70 799.50 L 643.70 800.50 L 644.20 801.80 L 644.10 803.10 L 643.60 804.40 L 598.50 869.80 L 597.60 870.70 L 596.60 871.20 L 595.30 871.30 L 594.10 870.90 L 533.90 842.60 L 473.60 873.50 L 472.50 873.90 L 470.40 873.50 L 408.50 811.10 L 407.70 809.90 L 407.50 808.60 L 407.70 807.30 L 408.50 806.10 L 409.70 805.30 L 411.00 805.10 L 412.40 805.30 L 413.50 806.10 L 472.70 866.10 L 533.20 835.10 L 535.30 835.40 L 594.40 863.30 L 637.80 800.40 L 638.80 799.40 L 640.00 799.00 L 641.40 799.00 L 642.70 799.50 Z" fill="#353e4d" fill-rule="evenodd" node-id="88" stroke="none" target-height="74.900024" target-width="236.70001" target-x="407.5" target-y="799"></path><path d="M 547.90 886.30 L 547.20 890.60 L 546.20 892.50 L 543.50 895.70 L 539.90 897.90 L 535.60 898.60 L 531.20 897.90 L 527.60 895.70 L 524.90 892.50 L 523.40 888.50 L 523.20 886.30 L 523.40 884.00 L 524.00 882.00 L 526.10 878.30 L 529.30 875.60 L 531.20 874.70 L 535.60 873.90 L 539.90 874.70 L 543.50 876.80 L 546.20 880.10 L 547.20 882.00 L 547.90 886.30 Z" fill="#353e4d" fill-rule="nonzero" node-id="90" stroke="none" target-height="24.699951" target-width="24.700012" target-x="523.2" target-y="873.9"></path><path d="M 547.90 986.90 L 547.20 991.20 L 546.20 993.20 L 543.50 996.40 L 539.90 998.50 L 535.60 999.30 L 531.20 998.50 L 527.60 996.40 L 524.90 993.20 L 524.00 991.20 L 523.20 986.90 L 524.00 982.60 L 526.10 979.00 L 529.30 976.30 L 531.20 975.30 L 535.60 974.60 L 539.90 975.30 L 543.50 977.50 L 546.20 980.70 L 547.20 982.60 L 547.90 986.90 Z" fill="#353e4d" fill-rule="nonzero" node-id="92" stroke="none" target-height="24.700012" target-width="24.700012" target-x="523.2" target-y="974.6"></path></svg>