<?xml version="1.0" standalone="no"?><!DOCTYPE svg PUBLIC "-//W3C//DTD SVG 1.1//EN" "http://www.w3.org/Graphics/SVG/1.1/DTD/svg11.dtd"><svg height="1024" node-id="1" sillyvg="true" template-height="1024" template-width="1024" version="1.1" viewBox="0 0 1024 1024" width="1024" xmlns="http://www.w3.org/2000/svg" xmlns:xlink="http://www.w3.org/1999/xlink"><defs node-id="28"></defs><path d="M 0.00 0.00 L 1024.00 0.00 L 1024.00 1024.00 L 0.00 1024.00 Z" fill="#e0e6ff" fill-rule="nonzero" node-id="30" stroke="none" target-height="1024" target-width="1024" target-x="0" target-y="0"></path><path d="M 409.50 811.40 L 403.10 603.70 L 594.00 605.60 L 595.40 811.40 L 595.90 814.40 L 596.90 817.20 L 598.30 819.90 L 600.30 822.50 L 603.30 825.60 L 607.20 828.60 L 611.90 831.50 L 622.20 836.60 L 637.80 842.20 L 688.60 856.80 L 697.90 859.80 L 706.00 862.90 L 711.20 865.20 L 719.00 869.90 L 718.20 908.50 L 717.40 920.30 L 716.30 931.00 L 714.80 940.70 L 713.20 948.00 L 711.30 954.70 L 709.00 961.00 L 706.30 966.80 L 703.20 972.40 L 699.60 977.70 L 695.30 982.60 L 690.60 987.30 L 686.50 990.50 L 682.00 993.70 L 676.90 996.70 L 671.30 999.60 L 665.00 1002.40 L 657.30 1005.20 L 648.60 1007.80 L 638.60 1010.30 L 627.30 1012.50 L 616.40 1014.20 L 590.40 1017.10 L 575.00 1018.10 L 554.90 1019.00 L 532.00 1019.50 L 505.80 1019.60 L 470.60 1018.70 L 440.80 1017.50 L 421.40 1016.20 L 404.30 1014.70 L 389.20 1012.90 L 377.70 1011.20 L 367.30 1009.30 L 349.60 1004.80 L 341.10 1002.00 L 333.40 998.90 L 326.60 995.60 L 320.50 992.00 L 315.80 988.70 L 311.40 985.20 L 307.40 981.40 L 303.70 977.50 L 300.40 973.20 L 296.70 967.60 L 293.40 961.50 L 290.40 954.80 L 287.80 947.40 L 285.80 940.00 L 284.00 932.00 L 282.40 923.10 L 281.20 913.30 L 280.10 900.50 L 279.40 886.10 L 279.10 869.90 L 286.20 866.30 L 299.30 861.70 L 341.00 850.60 L 363.10 844.30 L 373.30 840.80 L 386.00 835.50 L 391.40 832.70 L 396.60 829.50 L 400.80 826.30 L 404.20 823.00 L 406.30 820.30 L 407.90 817.40 L 409.00 814.50 L 409.50 811.40 Z" fill="#ffd1aa" fill-rule="evenodd" node-id="32" stroke="none" target-height="415.89996" target-width="439.9" target-x="279.1" target-y="603.7"></path><path d="M 594.00 668.70 L 587.70 676.10 L 576.00 687.70 L 567.60 694.90 L 554.90 704.60 L 539.30 714.60 L 530.50 719.40 L 520.90 724.20 L 511.10 728.50 L 500.50 732.50 L 489.00 736.20 L 480.30 738.50 L 471.10 740.50 L 461.50 742.20 L 451.30 743.60 L 441.30 744.40 L 430.70 744.90 L 419.60 744.80 L 408.00 744.30 L 402.20 602.70 L 596.90 607.60 L 594.00 668.70 Z" fill="#ffc18d" fill-rule="evenodd" node-id="34" stroke="none" target-height="142.20001" target-width="194.70001" target-x="402.2" target-y="602.7"></path><path d="M 342.10 473.80 L 336.60 471.20 L 332.50 469.60 L 327.80 468.10 L 318.50 466.30 L 310.40 466.10 L 306.30 466.60 L 302.10 467.50 L 297.90 469.00 L 294.90 470.40 L 289.00 474.40 L 286.10 477.20 L 282.60 482.00 L 279.90 488.60 L 278.80 493.40 L 278.10 498.70 L 277.90 504.50 L 278.20 510.30 L 279.10 516.30 L 280.50 522.60 L 282.50 528.60 L 285.00 534.60 L 288.20 540.50 L 291.00 544.70 L 294.10 548.70 L 297.60 552.40 L 301.60 556.00 L 305.70 559.20 L 310.30 562.10 L 315.40 564.60 L 321.00 566.90 L 326.60 568.50 L 332.80 569.80 L 339.50 570.50 L 346.90 570.70 L 342.10 473.80 Z" fill="#ffd1aa" fill-rule="evenodd" node-id="36" stroke="none" target-height="104.600006" target-width="69" target-x="277.9" target-y="466.1"></path><path d="M 656.80 473.80 L 662.20 471.20 L 666.40 469.60 L 671.00 468.10 L 680.30 466.30 L 688.50 466.10 L 692.60 466.60 L 696.80 467.50 L 701.00 469.00 L 704.00 470.40 L 709.80 474.40 L 712.70 477.20 L 716.20 482.00 L 718.90 488.60 L 720.10 493.40 L 720.80 498.70 L 721.00 504.50 L 720.70 510.30 L 719.80 516.30 L 718.40 522.60 L 716.40 528.60 L 713.80 534.60 L 710.60 540.50 L 707.90 544.70 L 704.80 548.70 L 701.20 552.40 L 697.30 556.00 L 693.10 559.20 L 688.50 562.10 L 683.50 564.60 L 677.90 566.90 L 672.30 568.50 L 666.10 569.80 L 659.40 570.50 L 651.90 570.70 L 656.80 473.80 Z" fill="#ffd1aa" fill-rule="evenodd" node-id="38" stroke="none" target-height="104.600006" target-width="69.099976" target-x="651.9" target-y="466.1"></path><path d="M 498.00 198.40 L 486.20 198.60 L 474.90 199.40 L 464.20 200.70 L 454.00 202.50 L 444.30 204.80 L 435.10 207.50 L 426.30 210.60 L 418.00 214.20 L 410.00 218.20 L 402.40 222.70 L 395.10 227.60 L 388.20 232.90 L 381.60 238.70 L 375.30 245.00 L 369.40 251.90 L 363.70 259.20 L 358.30 267.10 L 353.20 275.60 L 348.40 284.60 L 344.00 294.40 L 339.80 304.80 L 336.00 315.90 L 332.80 327.00 L 329.90 338.80 L 327.30 351.40 L 325.10 364.80 L 323.30 379.10 L 321.80 394.20 L 320.80 410.30 L 320.30 427.30 L 320.20 445.40 L 320.70 469.00 L 321.30 481.00 L 323.00 499.10 L 326.50 521.70 L 329.00 534.00 L 332.30 547.10 L 337.90 564.70 L 345.00 582.50 L 349.20 591.20 L 353.90 599.90 L 359.00 608.20 L 364.60 616.30 L 375.00 628.90 L 385.30 639.50 L 391.00 644.70 L 404.00 655.30 L 410.90 660.40 L 425.60 670.20 L 433.30 674.70 L 449.20 682.60 L 457.40 686.00 L 465.60 688.90 L 473.70 691.20 L 480.00 692.50 L 486.10 693.50 L 498.10 694.30 L 507.10 694.00 L 516.10 693.10 L 525.10 691.60 L 534.20 689.50 L 543.10 686.90 L 551.90 683.70 L 560.60 680.00 L 569.30 675.70 L 577.60 671.00 L 585.80 665.80 L 593.60 660.20 L 601.30 654.10 L 608.60 647.60 L 615.50 640.70 L 622.00 633.40 L 628.20 625.80 L 634.30 617.20 L 640.00 608.70 L 645.20 600.00 L 649.90 591.40 L 654.20 582.50 L 658.10 573.30 L 661.60 563.90 L 664.70 554.30 L 667.30 544.60 L 669.60 534.40 L 671.60 523.80 L 673.20 512.70 L 675.20 490.00 L 675.90 464.70 L 675.70 441.80 L 674.90 420.50 L 673.80 400.70 L 672.10 382.30 L 670.40 367.10 L 668.20 352.80 L 665.80 339.50 L 663.00 327.00 L 660.00 315.40 L 656.90 305.40 L 653.60 296.00 L 650.00 287.20 L 646.20 278.90 L 642.20 271.10 L 637.90 263.80 L 633.10 256.60 L 628.00 249.90 L 622.60 243.60 L 616.90 237.70 L 610.90 232.30 L 604.60 227.30 L 598.00 222.70 L 590.90 218.60 L 583.50 214.70 L 575.60 211.30 L 567.30 208.20 L 558.40 205.50 L 549.80 203.40 L 540.60 201.70 L 530.90 200.20 L 520.60 199.20 L 509.60 198.60 L 498.00 198.40 Z" fill="#ffe1c7" fill-rule="evenodd" node-id="40" stroke="none" target-height="495.9" target-width="355.7" target-x="320.2" target-y="198.4"></path><path d="M 627.40 416.20 L 615.20 414.00 L 602.30 412.10 L 586.80 410.50 L 570.30 409.70 L 562.00 409.90 L 554.20 410.40 L 549.10 411.10 L 540.10 413.10 L 537.50 414.80 L 535.70 416.40 L 534.70 418.00 L 534.20 419.80 L 534.30 421.60 L 534.90 423.30 L 536.00 424.80 L 537.60 426.30 L 539.80 427.60 L 542.20 428.60 L 545.00 429.20 L 548.40 429.60 L 551.90 429.50 L 555.70 428.90 L 572.30 424.60 L 586.80 421.80 L 601.60 419.50 L 627.40 416.20 Z" fill="#654840" fill-rule="evenodd" node-id="42" stroke="#654840" stroke-linecap="round" stroke-width="7.75235" target-height="19.899994" target-width="93.20001" target-x="534.2" target-y="409.7"></path><path d="M 366.10 416.20 L 378.30 414.00 L 391.20 412.10 L 406.70 410.50 L 423.20 409.70 L 431.50 409.90 L 439.30 410.40 L 444.40 411.10 L 453.40 413.10 L 456.00 414.80 L 457.80 416.40 L 458.80 418.00 L 459.30 419.80 L 459.20 421.60 L 458.60 423.30 L 457.50 424.80 L 455.90 426.30 L 453.70 427.60 L 451.30 428.60 L 448.50 429.20 L 445.10 429.60 L 441.60 429.50 L 437.80 428.90 L 421.20 424.60 L 406.70 421.80 L 391.90 419.50 L 366.10 416.20 Z" fill="#654840" fill-rule="evenodd" node-id="44" stroke="#654840" stroke-linecap="round" stroke-width="7.75235" target-height="19.899994" target-width="93.19998" target-x="366.1" target-y="409.7"></path><path d="M 681.40 506.50 L 700.80 458.70 L 705.90 445.20 L 711.80 427.60 L 716.20 410.90 L 717.80 402.40 L 718.90 393.80 L 720.10 380.50 L 720.60 367.70 L 720.70 355.40 L 720.20 343.60 L 719.20 332.20 L 717.70 320.50 L 715.80 309.40 L 713.50 298.70 L 710.80 288.50 L 707.70 278.70 L 704.10 268.90 L 700.20 259.50 L 696.00 250.60 L 691.50 242.20 L 686.80 234.20 L 681.50 226.20 L 676.10 218.80 L 670.50 211.80 L 664.70 205.20 L 658.70 199.10 L 652.30 193.20 L 645.80 187.80 L 639.20 182.90 L 632.50 178.40 L 625.70 174.40 L 618.60 170.60 L 611.60 167.40 L 604.50 164.60 L 597.40 162.30 L 590.30 160.50 L 583.00 159.10 L 575.80 158.10 L 568.70 157.70 L 561.70 157.70 L 554.70 158.20 L 548.20 154.70 L 541.50 151.50 L 534.60 148.80 L 527.50 146.50 L 520.00 144.60 L 512.60 143.20 L 505.00 142.10 L 497.20 141.50 L 489.30 141.20 L 481.10 141.40 L 471.10 142.20 L 460.90 143.60 L 450.60 145.60 L 440.20 148.20 L 430.00 151.40 L 419.80 155.20 L 409.70 159.60 L 399.60 164.70 L 389.80 170.20 L 380.30 176.30 L 370.90 183.10 L 361.70 190.40 L 354.60 196.60 L 347.80 203.20 L 341.20 210.10 L 334.90 217.40 L 328.70 225.10 L 323.00 233.00 L 317.50 241.20 L 312.40 249.80 L 307.60 258.90 L 303.10 268.30 L 299.00 277.80 L 295.40 287.70 L 292.20 297.90 L 289.40 308.60 L 287.00 319.70 L 284.40 335.40 L 282.50 349.60 L 281.30 362.30 L 280.70 375.10 L 280.70 386.70 L 281.20 397.30 L 282.30 407.80 L 283.90 417.70 L 285.90 426.90 L 288.30 435.90 L 291.00 444.70 L 294.10 453.20 L 299.30 465.80 L 317.80 505.10 L 318.70 506.10 L 319.70 506.60 L 320.90 506.40 L 322.00 505.90 L 322.80 504.90 L 323.10 503.60 L 323.30 493.80 L 323.90 484.60 L 324.80 476.10 L 326.10 468.00 L 327.70 460.50 L 329.60 453.50 L 332.00 446.30 L 334.80 439.50 L 338.00 433.10 L 341.50 427.10 L 345.30 421.50 L 349.50 416.20 L 354.00 411.30 L 358.90 406.50 L 364.20 402.10 L 370.00 397.80 L 376.20 393.90 L 382.80 390.20 L 390.70 386.30 L 399.40 382.70 L 408.70 379.40 L 418.80 376.30 L 429.60 373.50 L 444.20 370.80 L 459.30 367.20 L 477.10 361.80 L 486.20 358.50 L 495.30 354.60 L 501.30 351.80 L 512.10 345.50 L 513.50 345.00 L 514.70 345.10 L 515.80 345.70 L 516.50 346.70 L 516.80 347.90 L 516.50 349.30 L 508.10 365.20 L 507.40 366.90 L 507.30 368.50 L 507.60 370.10 L 509.20 372.70 L 510.50 373.70 L 512.00 374.30 L 513.60 374.50 L 515.50 374.20 L 548.70 364.10 L 579.20 353.80 L 598.60 346.00 L 612.40 339.10 L 622.30 332.80 L 625.10 332.20 L 627.80 332.80 L 629.00 333.60 L 630.90 335.70 L 639.90 363.30 L 645.30 377.90 L 651.10 391.10 L 654.10 396.90 L 659.20 404.80 L 661.40 408.90 L 665.40 419.10 L 667.50 426.40 L 669.40 434.60 L 672.50 453.00 L 674.60 473.20 L 675.50 488.90 L 676.00 505.10 L 676.40 506.40 L 677.20 507.40 L 678.30 507.90 L 680.30 507.80 L 681.40 506.50 Z" fill="#654840" fill-rule="evenodd" node-id="46" stroke="none" target-height="366.7" target-width="440" target-x="280.7" target-y="141.2"></path><path d="M 521.90 440.50 L 520.20 446.00 L 521.90 440.50 L 523.30 441.10 L 524.40 442.10 L 525.80 444.70 L 525.70 447.70 L 525.00 449.20 L 524.10 450.30 L 521.50 451.70 L 515.20 451.50 L 512.90 452.60 L 511.30 454.90 L 510.60 457.00 L 510.00 460.50 L 509.80 464.60 L 510.30 470.40 L 511.20 476.80 L 516.50 499.40 L 518.70 511.60 L 519.30 517.00 L 519.40 525.30 L 518.40 531.10 L 517.30 533.90 L 515.90 536.40 L 513.90 538.70 L 511.50 540.60 L 508.80 542.00 L 505.80 542.90 L 499.60 543.50 L 495.90 543.30 L 490.40 542.40 L 484.00 540.80 L 481.40 539.30 L 479.90 536.70 L 479.70 535.20 L 479.90 533.60 L 480.60 532.20 L 482.70 530.10 L 485.50 529.40 L 493.00 531.10 L 497.20 531.70 L 500.90 531.90 L 503.30 531.60 L 505.00 530.90 L 506.50 529.50 L 507.20 527.80 L 507.70 525.40 L 507.90 522.00 L 507.20 513.20 L 505.20 502.40 L 499.80 479.10 L 498.70 471.70 L 498.20 462.80 L 498.40 459.30 L 499.10 455.00 L 500.20 451.40 L 501.60 448.40 L 503.30 445.90 L 505.30 443.80 L 507.30 442.30 L 511.10 440.60 L 514.00 439.90 L 518.50 439.80 L 521.90 440.50 Z" fill="#dd936f" fill-rule="evenodd" node-id="48" stroke="none" target-height="103.70001" target-width="46.099976" target-x="479.7" target-y="439.8"></path><path d="M 415.50 494.50 L 418.30 494.20 L 420.90 493.60 L 423.40 492.70 L 425.80 491.30 L 429.80 487.60 L 433.10 482.50 L 434.20 479.70 L 435.60 473.10 L 435.80 469.30 L 435.10 462.00 L 434.20 458.90 L 431.50 453.30 L 429.80 451.00 L 425.80 447.30 L 423.40 445.90 L 418.30 444.30 L 415.50 444.10 L 412.70 444.30 L 410.10 444.90 L 407.60 445.90 L 403.10 448.90 L 399.40 453.30 L 397.90 456.00 L 395.90 462.00 L 395.40 465.50 L 395.10 469.30 L 395.90 476.50 L 396.80 479.70 L 399.40 485.20 L 403.10 489.60 L 407.60 492.70 L 410.10 493.60 L 412.70 494.20 L 415.50 494.50 Z" fill="#3b4453" fill-rule="evenodd" node-id="50" stroke="none" target-height="50.399994" target-width="40.69998" target-x="395.1" target-y="444.1"></path><path d="M 574.40 494.50 L 577.20 494.20 L 579.80 493.60 L 582.30 492.70 L 584.70 491.30 L 588.70 487.60 L 592.00 482.50 L 593.10 479.70 L 594.60 473.10 L 594.80 469.30 L 594.00 462.00 L 593.10 458.90 L 590.50 453.30 L 588.70 451.00 L 584.70 447.30 L 582.30 445.90 L 579.80 444.90 L 577.20 444.30 L 574.40 444.10 L 571.60 444.30 L 569.00 444.90 L 566.50 445.90 L 564.10 447.30 L 560.10 451.00 L 556.80 456.00 L 555.70 458.90 L 554.30 465.50 L 554.10 469.30 L 554.30 473.10 L 555.70 479.70 L 556.80 482.50 L 560.10 487.60 L 564.10 491.30 L 566.50 492.70 L 569.00 493.60 L 571.60 494.20 L 574.40 494.50 Z" fill="#3b4453" fill-rule="evenodd" node-id="52" stroke="none" target-height="50.399994" target-width="40.700012" target-x="554.1" target-y="444.1"></path><g node-id="82"><path d="M 422.30 537.10 L 422.00 540.40 L 421.00 543.60 L 419.40 546.70 L 417.30 549.60 L 414.60 552.30 L 411.20 554.90 L 407.50 557.10 L 403.40 558.90 L 398.90 560.40 L 394.30 561.40 L 389.50 562.10 L 384.50 562.30 L 379.50 562.10 L 374.60 561.40 L 370.00 560.40 L 365.50 558.90 L 361.50 557.10 L 357.80 554.90 L 354.40 552.30 L 351.70 549.60 L 349.60 546.70 L 348.00 543.60 L 347.00 540.40 L 346.70 537.10 L 347.50 532.00 L 349.70 527.30 L 351.80 524.40 L 354.50 521.80 L 357.80 519.30 L 361.30 517.20 L 365.30 515.40 L 369.80 513.90 L 374.40 512.80 L 379.30 512.10 L 384.50 511.90 L 389.70 512.10 L 394.60 512.80 L 399.20 513.90 L 403.70 515.40 L 407.70 517.20 L 411.20 519.30 L 414.50 521.80 L 417.20 524.40 L 419.30 527.30 L 421.50 532.00 L 422.30 537.10 Z" fill="#ffc0be" fill-opacity="0.687386" fill-rule="nonzero" group-id="1" node-id="56" stroke="none" target-height="50.399994" target-width="75.599976" target-x="346.7" target-y="511.9"></path></g><g node-id="83"><path d="M 651.00 537.10 L 650.60 540.40 L 649.70 543.60 L 648.10 546.70 L 646.00 549.60 L 643.30 552.30 L 639.90 554.90 L 636.20 557.10 L 632.10 558.90 L 627.60 560.40 L 623.00 561.40 L 618.20 562.10 L 613.20 562.30 L 608.10 562.10 L 603.30 561.40 L 598.70 560.40 L 594.20 558.90 L 590.10 557.10 L 586.50 554.90 L 583.10 552.30 L 580.40 549.60 L 578.30 546.70 L 576.70 543.60 L 575.70 540.40 L 575.40 537.10 L 575.70 533.80 L 576.70 530.60 L 578.30 527.50 L 580.40 524.60 L 583.10 521.90 L 586.50 519.30 L 590.10 517.10 L 594.20 515.30 L 598.70 513.80 L 603.30 512.80 L 608.10 512.10 L 613.20 511.90 L 618.20 512.10 L 623.00 512.80 L 627.60 513.80 L 632.10 515.30 L 636.20 517.10 L 639.90 519.30 L 643.30 521.90 L 646.00 524.60 L 648.10 527.50 L 649.70 530.60 L 650.60 533.80 L 651.00 537.10 Z" fill="#ffc0be" fill-opacity="0.687386" fill-rule="nonzero" group-id="2" node-id="61" stroke="none" target-height="50.399994" target-width="75.599976" target-x="575.4" target-y="511.9"></path></g><path d="M 707.20 576.80 L 707.00 579.50 L 705.60 584.60 L 703.00 589.20 L 701.20 591.20 L 699.20 593.00 L 694.60 595.60 L 689.50 597.00 L 686.80 597.20 L 684.10 597.00 L 679.00 595.60 L 674.50 593.00 L 672.40 591.20 L 669.20 587.00 L 667.20 582.10 L 666.70 579.50 L 666.50 576.80 L 667.20 571.60 L 669.20 566.70 L 672.40 562.40 L 674.50 560.70 L 679.00 558.00 L 684.10 556.70 L 686.80 556.50 L 689.50 556.70 L 694.60 558.00 L 699.20 560.70 L 701.20 562.40 L 703.00 564.50 L 705.60 569.00 L 707.00 574.10 L 707.20 576.80 Z" fill="#ffb956" fill-rule="nonzero" node-id="64" stroke="none" target-height="40.700012" target-width="40.700012" target-x="666.5" target-y="556.5"></path><path d="M 331.40 576.80 L 331.20 579.50 L 329.80 584.60 L 327.20 589.20 L 325.40 591.20 L 323.40 593.00 L 318.80 595.60 L 313.70 597.00 L 311.00 597.20 L 308.30 597.00 L 303.20 595.60 L 298.70 593.00 L 296.60 591.20 L 293.40 587.00 L 291.40 582.10 L 290.80 579.50 L 290.70 576.80 L 291.40 571.60 L 293.40 566.70 L 296.60 562.40 L 298.70 560.70 L 303.20 558.00 L 308.30 556.70 L 311.00 556.50 L 313.70 556.70 L 318.80 558.00 L 323.40 560.70 L 325.40 562.40 L 327.20 564.50 L 329.80 569.00 L 331.20 574.10 L 331.40 576.80 Z" fill="#ffb956" fill-rule="nonzero" node-id="66" stroke="none" target-height="40.700012" target-width="40.69998" target-x="290.7" target-y="556.5"></path><path d="M 441.70 575.90 L 470.50 577.70 L 501.70 578.80 L 516.60 578.50 L 531.90 577.70 L 558.90 575.90 L 553.10 584.70 L 546.40 593.40 L 537.50 602.90 L 532.30 607.40 L 526.70 611.60 L 522.70 614.10 L 514.40 618.00 L 510.00 619.30 L 505.40 620.10 L 500.80 620.40 L 496.10 620.10 L 491.60 619.30 L 487.10 618.00 L 478.70 614.10 L 474.60 611.60 L 468.90 607.40 L 463.70 602.90 L 454.50 593.40 L 447.60 584.70 L 441.70 575.90 Z" fill="#ffffff" fill-rule="evenodd" node-id="68" stroke="none" target-height="44.5" target-width="117.20001" target-x="441.7" target-y="575.9"></path><path d="M 564.00 578.70 L 558.90 575.90 L 558.40 570.10 L 560.00 570.20 L 561.50 570.60 L 562.80 571.50 L 563.80 572.70 L 564.50 574.20 L 564.70 575.70 L 564.60 577.20 L 564.00 578.70 Z M 441.70 575.90 L 442.10 570.10 L 476.10 572.20 L 501.70 573.00 L 526.60 572.20 L 558.40 570.10 L 558.90 575.90 L 564.00 578.70 L 559.30 586.10 L 550.40 597.70 L 542.30 606.40 L 537.50 610.70 L 532.30 614.80 L 526.70 618.50 L 518.70 622.50 L 514.40 624.10 L 510.00 625.30 L 505.50 626.00 L 500.80 626.30 L 496.10 626.00 L 491.50 625.30 L 487.10 624.10 L 478.70 620.70 L 474.70 618.50 L 469.00 614.80 L 463.80 610.70 L 454.70 602.20 L 447.20 593.60 L 441.50 586.20 L 436.60 578.80 L 441.70 575.90 Z M 441.70 575.90 L 442.10 570.10 L 440.50 570.20 L 439.00 570.70 L 437.80 571.60 L 436.70 572.80 L 436.10 574.20 L 435.80 575.80 L 436.00 577.30 L 436.60 578.80 L 441.70 575.90 Z M 453.20 582.50 L 457.70 588.10 L 463.10 594.10 L 468.50 599.40 L 474.40 604.30 L 478.50 607.20 L 482.80 609.70 L 487.10 611.70 L 491.60 613.30 L 496.20 614.30 L 500.80 614.60 L 505.40 614.30 L 509.90 613.30 L 514.30 611.70 L 518.60 609.70 L 522.80 607.20 L 526.90 604.30 L 532.60 599.50 L 538.00 594.20 L 543.20 588.20 L 547.50 582.60 L 527.20 583.80 L 501.70 584.60 L 475.50 583.80 L 453.20 582.50 Z" fill="#c14e45" fill-rule="evenodd" node-id="70" stroke="none" target-height="56.200012" target-width="128.90002" target-x="435.8" target-y="570.1"></path><path d="M 406.80 415.00 L 400.80 415.30 L 395.10 416.00 L 389.50 417.10 L 384.10 418.70 L 378.80 420.70 L 373.80 423.00 L 369.00 425.70 L 364.40 428.80 L 360.10 432.30 L 356.10 436.00 L 352.30 440.00 L 348.90 444.40 L 345.80 448.90 L 343.10 453.70 L 340.70 458.80 L 338.70 464.00 L 337.10 469.40 L 336.00 475.00 L 335.30 480.80 L 335.10 486.70 L 335.30 492.70 L 336.00 498.40 L 337.10 504.00 L 338.70 509.40 L 340.70 514.70 L 343.10 519.70 L 345.80 524.50 L 348.90 529.10 L 352.30 533.40 L 356.10 537.40 L 360.10 541.10 L 364.40 544.60 L 369.00 547.70 L 373.80 550.40 L 378.80 552.80 L 384.10 554.80 L 389.50 556.30 L 395.10 557.50 L 400.80 558.20 L 406.80 558.40 L 412.70 558.20 L 418.50 557.50 L 424.00 556.30 L 429.40 554.80 L 434.70 552.80 L 439.80 550.40 L 444.50 547.70 L 449.10 544.60 L 453.50 541.10 L 457.50 537.40 L 461.20 533.40 L 464.60 529.10 L 467.70 524.50 L 470.50 519.70 L 472.80 514.70 L 474.80 509.40 L 476.40 504.00 L 477.50 498.40 L 478.20 492.70 L 478.50 486.70 L 478.20 480.80 L 477.50 475.00 L 476.40 469.40 L 474.80 464.00 L 472.80 458.80 L 470.50 453.70 L 467.70 448.90 L 464.60 444.40 L 461.20 440.00 L 457.50 436.00 L 453.50 432.30 L 449.10 428.80 L 444.50 425.70 L 439.80 423.00 L 434.70 420.70 L 429.40 418.70 L 424.00 417.10 L 418.50 416.00 L 412.70 415.30 L 406.80 415.00 Z M 327.30 486.70 L 327.60 480.10 L 328.40 473.70 L 329.60 467.60 L 331.40 461.60 L 333.60 455.70 L 336.20 450.20 L 339.20 444.90 L 342.60 439.80 L 346.50 435.00 L 350.60 430.50 L 355.00 426.40 L 359.80 422.60 L 364.90 419.20 L 370.20 416.10 L 375.80 413.50 L 381.70 411.30 L 387.60 409.60 L 393.80 408.30 L 400.20 407.50 L 406.80 407.20 L 413.40 407.50 L 419.70 408.30 L 425.90 409.60 L 431.90 411.30 L 437.70 413.50 L 443.30 416.10 L 448.60 419.20 L 453.70 422.60 L 458.50 426.40 L 463.00 430.50 L 467.10 435.00 L 470.90 439.80 L 474.30 444.90 L 477.40 450.20 L 480.00 455.70 L 482.20 461.60 L 483.90 467.60 L 485.20 473.70 L 486.00 480.10 L 486.20 486.70 L 486.00 493.30 L 485.20 499.70 L 483.90 505.80 L 482.20 511.80 L 480.00 517.70 L 477.40 523.30 L 474.30 528.60 L 470.90 533.60 L 467.10 538.40 L 463.00 542.90 L 458.50 547.00 L 453.70 550.80 L 448.60 554.30 L 443.30 557.30 L 437.70 559.90 L 431.90 562.10 L 425.90 563.90 L 419.70 565.10 L 413.40 565.90 L 406.80 566.20 L 400.20 565.90 L 393.80 565.10 L 387.60 563.90 L 381.70 562.10 L 375.80 559.90 L 370.20 557.30 L 364.90 554.30 L 359.80 550.80 L 355.00 547.00 L 350.60 542.90 L 346.50 538.40 L 342.60 533.60 L 339.20 528.60 L 336.20 523.30 L 333.60 517.70 L 331.40 511.80 L 329.60 505.80 L 328.40 499.70 L 327.60 493.30 L 327.30 486.70 Z" fill="#ffb956" fill-rule="evenodd" node-id="72" stroke="none" target-height="159" target-width="158.90002" target-x="327.3" target-y="407.2"></path><path d="M 592.80 416.90 L 586.90 417.20 L 581.10 417.90 L 575.60 419.00 L 570.20 420.60 L 564.90 422.60 L 559.90 425.00 L 555.10 427.70 L 550.50 430.80 L 546.10 434.20 L 542.10 437.90 L 538.40 442.00 L 535.00 446.30 L 531.90 450.90 L 529.10 455.70 L 526.80 460.70 L 524.80 466.00 L 523.20 471.40 L 522.10 476.90 L 521.40 482.70 L 521.10 488.60 L 521.40 494.60 L 522.10 500.40 L 523.20 505.90 L 524.80 511.30 L 526.80 516.60 L 529.10 521.60 L 531.90 526.40 L 535.00 531.00 L 538.40 535.30 L 542.10 539.40 L 546.10 543.10 L 550.50 546.50 L 555.10 549.60 L 559.90 552.30 L 564.90 554.70 L 570.20 556.70 L 575.60 558.30 L 581.10 559.40 L 586.90 560.10 L 592.80 560.40 L 598.80 560.10 L 604.50 559.40 L 610.10 558.30 L 615.50 556.70 L 620.80 554.70 L 625.80 552.30 L 630.60 549.60 L 635.20 546.50 L 639.50 543.10 L 643.50 539.40 L 647.30 535.30 L 650.70 531.00 L 653.80 526.40 L 656.50 521.60 L 658.90 516.60 L 660.90 511.30 L 662.50 505.90 L 663.60 500.40 L 664.30 494.60 L 664.50 488.60 L 664.30 482.70 L 663.60 476.90 L 662.50 471.40 L 660.90 466.00 L 658.90 460.70 L 656.50 455.70 L 653.80 450.90 L 650.70 446.30 L 647.30 442.00 L 643.50 437.90 L 639.50 434.20 L 635.20 430.80 L 630.60 427.70 L 625.80 425.00 L 620.80 422.60 L 615.50 420.60 L 610.10 419.00 L 604.50 417.90 L 598.80 417.20 L 592.80 416.90 Z M 513.40 488.60 L 513.60 482.00 L 514.40 475.70 L 515.70 469.50 L 517.40 463.50 L 519.60 457.70 L 522.30 452.10 L 525.30 446.80 L 528.70 441.70 L 532.50 436.90 L 536.60 432.50 L 541.10 428.30 L 545.90 424.50 L 551.00 421.10 L 556.30 418.10 L 561.90 415.50 L 567.70 413.20 L 573.70 411.50 L 579.90 410.20 L 586.20 409.50 L 592.80 409.20 L 599.40 409.50 L 605.80 410.20 L 612.00 411.50 L 617.90 413.20 L 623.80 415.50 L 629.40 418.10 L 634.70 421.10 L 639.80 424.50 L 644.60 428.30 L 649.00 432.50 L 653.10 436.90 L 657.00 441.70 L 660.40 446.80 L 663.40 452.10 L 666.00 457.70 L 668.20 463.50 L 670.00 469.50 L 671.20 475.70 L 672.00 482.00 L 672.30 488.60 L 672.00 495.20 L 671.20 501.60 L 670.00 507.80 L 668.20 513.80 L 666.00 519.60 L 663.40 525.20 L 660.40 530.50 L 657.00 535.60 L 653.10 540.40 L 649.00 544.80 L 644.60 549.00 L 639.80 552.80 L 634.70 556.20 L 629.40 559.20 L 623.80 561.80 L 617.90 564.10 L 612.00 565.80 L 605.80 567.10 L 599.40 567.80 L 592.80 568.10 L 586.20 567.80 L 579.90 567.10 L 573.70 565.80 L 567.70 564.10 L 561.90 561.80 L 556.30 559.20 L 551.00 556.20 L 545.90 552.80 L 541.10 549.00 L 536.60 544.80 L 532.50 540.40 L 528.70 535.60 L 525.30 530.50 L 522.30 525.20 L 519.60 519.60 L 517.40 513.80 L 515.70 507.80 L 514.40 501.60 L 513.60 495.20 L 513.40 488.60 Z" fill="#ffb956" fill-rule="evenodd" node-id="74" stroke="none" target-height="158.89996" target-width="158.89996" target-x="513.4" target-y="409.2"></path><path d="M 483.60 493.30 L 481.10 485.90 L 488.00 483.90 L 494.40 482.50 L 500.80 481.90 L 506.90 482.50 L 512.60 484.00 L 518.70 486.00 L 515.80 493.20 L 510.40 491.40 L 505.50 490.20 L 500.80 489.60 L 495.70 490.20 L 490.00 491.40 L 483.60 493.30 Z" fill="#ffb956" fill-rule="evenodd" node-id="76" stroke="none" target-height="11.399994" target-width="37.600006" target-x="481.1" target-y="481.9"></path><path d="M 607.80 764.50 L 608.20 776.90 L 609.40 789.10 L 611.90 802.50 L 614.70 811.20 L 618.40 818.80 L 620.70 821.90 L 623.20 824.60 L 627.30 827.90 L 632.10 831.10 L 637.50 834.20 L 649.40 839.50 L 656.00 842.00 L 666.20 845.30 L 677.00 848.20 L 688.00 850.80 L 699.00 853.00 L 720.30 856.60 L 739.40 859.10 L 754.70 860.80 L 756.00 861.40 L 785.70 864.60 L 814.90 870.20 L 826.10 872.90 L 836.60 875.90 L 844.40 878.50 L 851.80 881.50 L 858.90 884.80 L 865.70 888.40 L 872.30 892.40 L 878.60 896.90 L 884.70 901.90 L 890.50 907.30 L 895.90 913.20 L 901.20 919.70 L 906.30 926.90 L 911.30 934.90 L 915.70 943.00 L 920.00 952.00 L 924.20 962.00 L 928.30 973.10 L 931.90 984.00 L 935.30 996.00 L 938.70 1009.40 L 941.90 1024.00 L 75.90 1024.00 L 76.20 1011.90 L 77.00 1000.60 L 78.20 990.30 L 79.90 980.70 L 82.10 971.10 L 84.80 962.10 L 87.80 953.90 L 91.10 946.30 L 95.00 938.80 L 99.10 931.90 L 103.60 925.50 L 108.40 919.60 L 113.60 913.90 L 119.00 908.70 L 124.70 903.90 L 130.60 899.50 L 136.80 895.40 L 149.90 888.10 L 156.70 884.90 L 166.10 881.10 L 175.70 877.70 L 185.60 874.70 L 205.70 869.80 L 233.30 864.60 L 314.10 855.90 L 327.50 853.30 L 340.20 850.40 L 348.50 848.20 L 356.00 845.70 L 363.00 843.00 L 368.10 840.60 L 372.70 838.00 L 376.80 835.30 L 380.40 832.40 L 382.60 830.10 L 384.60 827.30 L 386.40 824.00 L 388.70 818.60 L 390.60 812.40 L 392.20 806.00 L 394.40 792.60 L 395.90 774.90 L 396.10 763.90 L 607.80 764.50 Z" fill="#353e4d" fill-rule="nonzero" node-id="78" stroke="none" target-height="260.09998" target-width="866" target-x="75.9" target-y="763.9"></path><path d="M 579.30 844.50 L 579.20 845.80 L 578.10 848.00 L 576.10 849.40 L 574.80 849.70 L 538.70 853.50 L 499.90 858.90 L 453.50 866.60 L 420.30 872.70 L 418.40 863.20 L 451.90 857.10 L 498.40 849.40 L 524.40 845.60 L 562.60 841.00 L 575.40 840.10 L 576.60 840.50 L 578.40 842.10 L 579.30 844.50 Z M 414.60 868.90 L 414.50 867.60 L 415.30 865.30 L 417.20 863.70 L 418.40 863.20 L 420.30 872.70 L 418.90 872.80 L 416.60 872.00 L 415.00 870.20 L 414.60 868.90 Z" fill="#1e2634" fill-rule="evenodd" node-id="80" stroke="none" target-height="32.700012" target-width="164.79999" target-x="414.5" target-y="840.1"></path></svg>