<?xml version="1.0" standalone="no"?><!DOCTYPE svg PUBLIC "-//W3C//DTD SVG 1.1//EN" "http://www.w3.org/Graphics/SVG/1.1/DTD/svg11.dtd"><svg height="512" node-id="1" sillyvg="true" template-height="512" template-width="512" version="1.1" viewBox="0 0 512 512" width="512" xmlns="http://www.w3.org/2000/svg" xmlns:xlink="http://www.w3.org/1999/xlink"><defs node-id="27"></defs><path d="M 0.00 0.00 L 512.00 0.00 L 512.00 512.00 L 0.00 512.00 Z" fill="#dfd6fe" fill-rule="evenodd" id="矩形" node-id="5" stroke="none" target-height="512" target-width="512" target-x="0" target-y="0"></path><g node-id="29"><g node-id="31"><path d="M 132.90 161.40 L 378.50 161.40 L 378.50 495.90 L 132.90 495.90 Z" fill="none" group-id="1,3" id="Clip-2" node-id="8" stroke="none" target-height="334.5" target-width="245.6" target-x="132.9" target-y="161.4"></path><path d="M 377.90 283.60 L 378.40 393.10 L 377.70 419.40 L 377.00 429.80 L 375.80 440.30 L 374.30 449.10 L 372.50 456.60 L 370.60 462.10 L 368.50 467.00 L 366.20 471.20 L 363.50 474.90 L 360.50 478.40 L 357.10 481.40 L 353.20 484.10 L 348.80 486.50 L 344.30 488.40 L 339.20 490.10 L 333.40 491.60 L 326.90 492.80 L 318.20 493.90 L 308.10 494.80 L 296.30 495.40 L 278.00 495.80 L 233.40 495.80 L 215.10 495.40 L 203.40 494.70 L 193.20 493.80 L 184.60 492.60 L 178.00 491.30 L 172.20 489.80 L 167.10 488.10 L 162.60 486.10 L 158.30 483.70 L 154.40 481.00 L 150.90 477.90 L 147.90 474.40 L 145.30 470.70 L 142.90 466.40 L 140.80 461.50 L 139.00 455.90 L 137.20 448.40 L 135.60 439.60 L 134.50 429.10 L 133.30 406.50 L 133.00 370.80 L 133.50 283.60 L 133.80 275.20 L 134.60 266.90 L 136.00 258.90 L 137.90 251.10 L 140.30 243.40 L 143.10 236.00 L 146.40 228.80 L 150.20 221.90 L 154.40 215.30 L 159.00 208.90 L 163.90 202.90 L 169.30 197.20 L 175.00 191.80 L 181.00 186.90 L 187.40 182.30 L 194.00 178.10 L 200.90 174.30 L 208.10 171.00 L 215.50 168.20 L 223.20 165.80 L 231.00 163.90 L 239.00 162.50 L 247.30 161.70 L 255.70 161.40 L 264.20 161.70 L 272.40 162.50 L 280.40 163.90 L 288.20 165.80 L 295.90 168.20 L 303.30 171.00 L 310.50 174.30 L 317.40 178.10 L 324.10 182.30 L 330.40 186.90 L 336.40 191.80 L 342.10 197.20 L 347.50 202.90 L 352.50 208.90 L 357.00 215.30 L 361.20 221.90 L 365.00 228.80 L 368.30 236.00 L 371.20 243.40 L 373.60 251.10 L 375.40 258.90 L 376.80 266.90 L 377.60 275.20 L 377.90 283.60" fill="#2d3a7d" fill-rule="evenodd" group-id="1,3" id="Fill-1" node-id="9" stroke="none" target-height="334.4" target-width="245.4" target-x="133" target-y="161.4"></path></g><path d="M 230.80 447.70 L 278.80 447.70 L 278.80 384.60 L 230.80 384.60 Z" fill="#ffbbba" fill-rule="evenodd" group-id="1" id="Fill-3" node-id="10" stroke="none" target-height="63.100006" target-width="47.999985" target-x="230.8" target-y="384.6"></path><path d="M 230.80 416.60 L 243.80 419.10 L 254.80 419.80 L 265.80 419.10 L 278.80 416.60 L 278.80 383.60 L 230.80 383.60 L 230.80 416.60 Z" fill="#fb918d" fill-rule="evenodd" group-id="1" id="Fill-3" node-id="11" stroke="none" target-height="36.19998" target-width="47.999985" target-x="230.8" target-y="383.6"></path><path d="M 172.30 339.40 L 172.00 343.40 L 171.40 347.20 L 170.30 350.80 L 168.80 354.30 L 167.00 357.40 L 164.90 360.20 L 162.50 362.70 L 159.80 364.80 L 156.90 366.50 L 153.80 367.70 L 150.60 368.50 L 147.10 368.80 L 143.70 368.50 L 140.40 367.70 L 137.30 366.50 L 134.50 364.80 L 131.80 362.70 L 129.40 360.20 L 127.20 357.40 L 125.50 354.30 L 124.00 350.80 L 122.90 347.20 L 122.20 343.40 L 122.00 339.40 L 122.20 335.30 L 122.90 331.50 L 124.00 328.00 L 125.50 324.50 L 127.20 321.40 L 129.40 318.60 L 131.80 316.10 L 134.50 314.00 L 137.30 312.30 L 140.40 311.10 L 143.70 310.30 L 147.10 310.00 L 150.60 310.30 L 153.80 311.10 L 156.90 312.30 L 159.80 314.00 L 162.50 316.10 L 164.90 318.60 L 167.00 321.40 L 168.80 324.50 L 170.30 328.00 L 171.40 331.50 L 172.00 335.30 L 172.30 339.40" fill="#ffbbba" fill-rule="evenodd" group-id="1" id="Fill-5" node-id="12" stroke="none" target-height="58.799988" target-width="50.300003" target-x="122" target-y="310"></path><path d="M 390.10 339.40 L 389.80 343.40 L 389.20 347.20 L 388.10 350.80 L 386.60 354.30 L 384.80 357.40 L 382.70 360.20 L 380.30 362.70 L 377.60 364.80 L 374.70 366.50 L 371.60 367.70 L 368.40 368.50 L 364.90 368.80 L 361.50 368.50 L 358.20 367.70 L 355.20 366.50 L 352.30 364.80 L 349.60 362.70 L 347.20 360.20 L 345.10 357.40 L 343.30 354.30 L 341.80 350.80 L 340.70 347.20 L 340.00 343.40 L 339.80 339.40 L 340.00 335.30 L 340.70 331.50 L 341.80 328.00 L 343.30 324.50 L 345.10 321.40 L 347.20 318.60 L 349.60 316.10 L 352.30 314.00 L 355.20 312.30 L 358.20 311.10 L 361.50 310.30 L 364.90 310.00 L 368.40 310.30 L 371.60 311.10 L 374.70 312.30 L 377.60 314.00 L 380.30 316.10 L 382.70 318.60 L 384.80 321.40 L 386.60 324.50 L 388.10 328.00 L 389.20 331.50 L 389.80 335.30 L 390.10 339.40" fill="#ffbbba" fill-rule="evenodd" group-id="1" id="Fill-7" node-id="13" stroke="none" target-height="58.799988" target-width="50.30002" target-x="339.8" target-y="310"></path><path d="M 253.90 411.70 L 245.20 411.10 L 234.60 409.10 L 222.90 405.60 L 216.90 403.40 L 204.80 397.90 L 198.90 394.70 L 193.10 391.00 L 187.50 387.00 L 182.20 382.60 L 177.40 377.90 L 172.90 372.70 L 169.80 368.60 L 167.10 364.30 L 162.70 355.10 L 161.10 350.20 L 159.90 345.00 L 159.20 339.60 L 158.90 333.90 L 159.10 327.20 L 159.80 320.40 L 160.90 313.60 L 162.40 306.70 L 166.50 293.20 L 172.10 280.00 L 179.10 267.40 L 187.30 255.80 L 191.90 250.30 L 196.70 245.20 L 201.70 240.40 L 206.90 236.00 L 212.50 231.90 L 218.20 228.40 L 224.00 225.30 L 230.10 222.70 L 236.30 220.60 L 242.70 219.10 L 249.20 218.10 L 255.90 217.80 L 262.50 218.10 L 269.00 219.10 L 275.40 220.60 L 281.60 222.70 L 287.70 225.30 L 293.50 228.40 L 299.20 231.90 L 304.80 236.00 L 310.00 240.40 L 315.10 245.20 L 319.80 250.30 L 324.40 255.80 L 332.60 267.40 L 339.60 280.00 L 345.20 293.20 L 349.30 306.70 L 350.90 313.60 L 351.90 320.40 L 352.60 327.20 L 352.80 333.90 L 352.50 339.60 L 351.70 345.00 L 350.50 350.20 L 348.80 355.10 L 346.60 359.80 L 344.10 364.30 L 341.30 368.60 L 338.00 372.70 L 333.30 377.80 L 328.20 382.60 L 322.60 387.00 L 316.70 391.00 L 310.70 394.70 L 304.50 397.90 L 291.80 403.40 L 285.60 405.60 L 273.50 409.10 L 262.60 411.10 L 253.90 411.70 Z" fill="#ffbbba" fill-rule="evenodd" group-id="1" id="Fill-9" node-id="14" stroke="none" target-height="193.90001" target-width="193.9" target-x="158.9" target-y="217.8"></path><path d="M 253.90 404.70 L 245.20 404.10 L 234.60 402.10 L 222.90 398.60 L 216.90 396.40 L 204.80 390.90 L 198.90 387.70 L 193.10 384.00 L 187.50 380.00 L 182.20 375.60 L 177.40 370.90 L 172.90 365.70 L 169.80 361.60 L 167.10 357.30 L 164.80 352.80 L 162.70 348.10 L 161.10 343.20 L 159.90 338.00 L 159.20 332.60 L 158.90 326.90 L 159.10 320.20 L 159.80 313.40 L 160.90 306.60 L 162.40 299.70 L 166.50 286.20 L 172.10 273.00 L 179.10 260.40 L 187.30 248.80 L 191.90 243.30 L 196.70 238.20 L 201.70 233.40 L 206.90 229.00 L 212.50 224.90 L 218.20 221.40 L 224.00 218.30 L 230.10 215.70 L 236.30 213.60 L 242.70 212.10 L 249.20 211.10 L 255.90 210.80 L 262.50 211.10 L 269.00 212.10 L 275.40 213.60 L 281.60 215.70 L 287.70 218.30 L 293.50 221.40 L 299.20 224.90 L 304.80 229.00 L 310.00 233.40 L 315.10 238.20 L 319.80 243.30 L 324.40 248.80 L 332.60 260.40 L 339.60 273.00 L 345.20 286.20 L 349.30 299.70 L 350.90 306.60 L 351.90 313.40 L 352.60 320.20 L 352.80 326.90 L 352.50 332.60 L 351.70 338.00 L 350.50 343.20 L 348.80 348.10 L 346.60 352.80 L 344.10 357.30 L 341.30 361.60 L 338.00 365.70 L 333.30 370.80 L 328.20 375.60 L 322.60 380.00 L 316.70 384.00 L 310.70 387.70 L 304.50 390.90 L 291.80 396.40 L 285.60 398.60 L 273.50 402.10 L 262.60 404.10 L 253.90 404.70 Z" fill="#ffd5d6" fill-rule="evenodd" group-id="1" id="Fill-9" node-id="15" stroke="none" target-height="193.90001" target-width="193.9" target-x="158.9" target-y="210.8"></path><path d="M 331.60 511.40 L 176.00 511.40 L 176.20 505.20 L 176.90 499.30 L 178.10 493.60 L 179.70 488.10 L 181.80 482.70 L 184.20 477.50 L 187.00 472.60 L 190.20 467.90 L 193.70 463.40 L 197.50 459.30 L 201.60 455.50 L 206.10 452.00 L 210.80 448.80 L 215.70 446.00 L 220.90 443.60 L 226.30 441.50 L 231.80 439.90 L 237.50 438.70 L 243.40 438.00 L 249.60 437.80 L 264.10 438.00 L 270.00 438.70 L 275.70 439.90 L 281.30 441.50 L 286.70 443.60 L 291.90 446.00 L 296.80 448.80 L 301.50 452.00 L 305.90 455.50 L 310.10 459.30 L 313.90 463.40 L 317.40 467.90 L 320.60 472.60 L 323.40 477.50 L 325.80 482.70 L 327.90 488.10 L 329.50 493.60 L 330.70 499.30 L 331.40 505.20 L 331.60 511.40" fill="#ffbbba" fill-rule="evenodd" group-id="1" id="Fill-17" node-id="16" stroke="none" target-height="73.600006" target-width="155.6" target-x="176" target-y="437.8"></path><path d="M 290.10 444.70 L 288.00 449.00 L 285.30 453.00 L 282.20 456.50 L 278.60 459.60 L 274.70 462.30 L 270.40 464.40 L 267.00 465.70 L 259.90 467.10 L 256.00 467.40 L 252.00 467.10 L 248.20 466.50 L 244.60 465.50 L 241.10 464.20 L 234.70 460.50 L 231.80 458.20 L 226.70 452.80 L 222.90 446.50 L 221.40 443.00 L 211.70 447.90 L 207.20 450.90 L 198.90 457.70 L 191.70 465.60 L 185.60 474.50 L 180.90 484.30 L 179.10 489.50 L 177.60 494.80 L 176.60 500.20 L 175.90 505.90 L 175.70 511.90 L 332.10 511.90 L 331.90 506.20 L 331.30 500.80 L 329.10 490.50 L 325.40 480.70 L 320.40 471.70 L 316.50 466.10 L 312.10 460.90 L 307.20 456.10 L 301.90 451.80 L 296.20 448.00 L 290.10 444.70" fill="#ff6b90" fill-opacity="0.7348394" fill-rule="evenodd" group-id="1" id="Fill-18" node-id="17" stroke="none" target-height="68.899994" target-width="156.40001" target-x="175.7" target-y="443"></path></g><path d="M 332.90 313.10 L 329.70 312.90 L 326.70 312.30 L 323.80 311.30 L 321.10 309.90 L 316.40 306.30 L 312.70 301.50 L 310.30 295.90 L 309.70 292.90 L 309.50 289.70 L 309.70 286.50 L 305.40 285.90 L 301.30 284.80 L 297.30 283.20 L 293.70 281.20 L 290.30 278.70 L 287.20 275.80 L 284.60 272.60 L 282.30 269.00 L 280.50 265.00 L 276.80 267.20 L 272.90 268.90 L 268.90 270.30 L 264.80 271.30 L 260.60 271.90 L 256.30 272.10 L 252.00 271.90 L 247.80 271.30 L 243.70 270.30 L 239.70 268.90 L 235.80 267.20 L 232.10 265.00 L 230.30 269.00 L 228.00 272.60 L 225.40 275.80 L 222.30 278.70 L 218.90 281.20 L 215.30 283.20 L 211.30 284.80 L 207.20 285.90 L 202.90 286.50 L 203.10 289.70 L 202.90 292.90 L 202.30 295.90 L 199.90 301.50 L 198.20 304.00 L 194.00 308.20 L 188.80 311.30 L 185.90 312.30 L 182.90 312.90 L 179.60 313.10 L 176.40 312.90 L 173.40 312.30 L 170.50 311.30 L 165.30 308.20 L 161.10 304.00 L 159.40 301.50 L 157.00 295.90 L 156.40 292.90 L 156.20 289.70 L 156.40 286.50 L 157.00 283.50 L 159.40 277.80 L 163.10 273.10 L 167.90 269.40 L 170.70 268.00 L 169.10 264.40 L 168.00 260.70 L 167.30 256.90 L 167.10 252.90 L 167.40 248.30 L 168.30 243.90 L 169.70 239.80 L 171.70 235.90 L 174.10 232.30 L 176.90 229.10 L 180.20 226.20 L 183.70 223.80 L 187.60 221.90 L 191.80 220.40 L 196.10 219.50 L 200.70 219.20 L 204.40 219.40 L 208.00 220.00 L 211.60 221.00 L 213.40 212.90 L 216.60 205.50 L 219.40 200.90 L 222.70 196.80 L 226.40 193.00 L 230.60 189.80 L 235.10 187.00 L 240.10 184.80 L 247.90 182.60 L 252.00 182.00 L 256.30 181.80 L 264.70 182.60 L 272.50 184.80 L 277.50 187.00 L 282.00 189.80 L 286.20 193.00 L 289.90 196.80 L 293.20 200.90 L 296.00 205.50 L 297.80 209.10 L 300.30 216.80 L 301.00 221.00 L 304.60 220.00 L 308.20 219.40 L 311.90 219.20 L 316.50 219.50 L 320.80 220.40 L 325.00 221.90 L 328.90 223.80 L 332.40 226.20 L 335.70 229.10 L 338.50 232.30 L 340.90 235.90 L 342.90 239.80 L 344.30 243.90 L 345.20 248.30 L 345.50 252.90 L 345.30 256.90 L 344.60 260.70 L 343.50 264.40 L 341.90 268.00 L 347.30 271.10 L 349.50 273.10 L 353.20 277.80 L 355.60 283.50 L 356.20 286.50 L 356.40 289.70 L 356.20 292.90 L 355.60 295.90 L 353.20 301.50 L 351.50 304.00 L 347.30 308.20 L 342.10 311.30 L 339.20 312.30 L 336.20 312.90 L 332.90 313.10" fill="#2d3a7d" fill-rule="evenodd" id="Fill-333" node-id="18" stroke="none" target-height="131.3" target-width="200.2" target-x="156.2" target-y="181.8"></path><g node-id="30"><path d="M 265.30 335.10 L 264.60 336.50 L 263.70 337.10 L 262.10 337.60 L 257.60 338.10 L 253.20 337.60 L 251.60 337.10 L 250.70 336.50 L 250.00 335.10 L 250.30 333.00 L 251.00 331.20 L 252.20 329.70 L 253.80 328.50 L 255.60 327.80 L 257.60 327.50 L 259.70 327.80 L 261.50 328.50 L 263.00 329.70 L 264.20 331.20 L 265.00 333.00 L 265.30 335.10" fill="#e8b39f" fill-rule="evenodd" group-id="2" id="Fill-13" node-id="20" stroke="none" target-height="10.600006" target-width="15.299988" target-x="250" target-y="327.5"></path><path d="M 275.60 348.10 L 276.90 347.30 L 278.40 347.60 L 279.20 348.90 L 278.80 350.40 L 276.40 353.40 L 273.80 355.90 L 271.00 357.90 L 267.90 359.40 L 264.70 360.50 L 261.30 361.20 L 257.80 361.40 L 254.10 361.10 L 253.40 360.90 L 252.50 359.70 L 252.70 358.10 L 253.80 357.20 L 260.80 357.20 L 266.30 355.70 L 268.90 354.40 L 271.30 352.80 L 273.50 350.70 L 275.60 348.10 Z" fill="#d06946" fill-rule="nonzero" group-id="2" id="Stroke-14" node-id="21" stroke="none" target-height="14.100006" target-width="26.700012" target-x="252.5" target-y="347.3"></path><path d="M 207.80 284.90 L 210.50 282.90 L 213.50 281.40 L 216.70 280.20 L 220.00 279.50 L 223.40 279.20 L 227.50 279.70 L 228.40 280.90 L 228.20 282.40 L 227.10 283.30 L 223.40 283.20 L 217.80 284.10 L 212.60 286.30 L 209.60 288.40 L 208.10 288.20 L 207.10 287.00 L 207.30 285.50 L 207.80 284.90 Z" fill="#3c2e23" fill-rule="nonzero" group-id="2" id="Stroke-20" node-id="22" stroke="none" target-height="9.199982" target-width="21.299988" target-x="207.1" target-y="279.2"></path><path d="M 236.20 312.50 L 235.60 315.80 L 234.90 317.30 L 233.40 319.20 L 231.50 320.70 L 230.10 321.40 L 226.70 321.90 L 223.40 321.40 L 222.00 320.70 L 220.00 319.20 L 218.60 317.30 L 217.90 315.80 L 217.30 312.50 L 217.90 309.20 L 218.60 307.70 L 220.00 305.80 L 222.00 304.30 L 223.40 303.60 L 226.70 303.00 L 230.10 303.60 L 231.50 304.30 L 233.40 305.80 L 234.90 307.70 L 235.60 309.20 L 236.20 312.50" fill="#000000" fill-rule="evenodd" group-id="2" id="Fill-12" node-id="23" stroke="none" target-height="18.899994" target-width="18.899994" target-x="217.3" target-y="303"></path><path d="M 275.80 285.80 L 276.50 285.30 L 278.00 285.20 L 280.60 287.00 L 283.90 287.90 L 287.60 287.90 L 294.50 287.00 L 295.80 287.80 L 296.10 288.60 L 295.70 290.10 L 294.40 290.90 L 287.70 291.90 L 283.30 291.90 L 280.70 291.40 L 278.40 290.30 L 276.10 288.70 L 275.40 287.30 L 275.80 285.80 Z" fill="#564334" fill-rule="nonzero" group-id="2" id="Stroke-15" node-id="24" stroke="none" target-height="6.6999817" target-width="20.700012" target-x="275.4" target-y="285.2"></path><path d="M 291.20 303.20 L 292.00 303.00 L 293.40 303.50 L 294.10 304.90 L 293.70 306.20 L 282.70 312.00 L 293.30 315.20 L 294.10 316.40 L 294.00 317.20 L 293.10 318.50 L 291.70 318.70 L 276.70 314.40 L 275.90 314.00 L 275.20 312.70 L 275.40 311.60 L 276.20 310.80 L 291.20 303.20 Z" fill="#000000" fill-rule="nonzero" group-id="2" id="Stroke-19" node-id="25" stroke="none" target-height="15.700012" target-width="18.899994" target-x="275.2" target-y="303"></path></g></svg>