<?xml version="1.0" standalone="no"?><!DOCTYPE svg PUBLIC "-//W3C//DTD SVG 1.1//EN" "http://www.w3.org/Graphics/SVG/1.1/DTD/svg11.dtd"><svg height="1024" node-id="1" sillyvg="true" template-height="1024" template-width="1024" version="1.1" viewBox="0 0 1024 1024" width="1024" xmlns="http://www.w3.org/2000/svg" xmlns:xlink="http://www.w3.org/1999/xlink"><defs node-id="23"></defs><path d="M 0.00 0.00 L 1024.00 0.00 L 1024.00 1024.00 L 0.00 1024.00 Z" fill="#e0e6ff" fill-rule="nonzero" node-id="25" stroke="none" target-height="1024" target-width="1024" target-x="0" target-y="0"></path><path d="M 433.20 767.20 L 433.40 578.50 L 593.20 581.90 L 602.60 767.20 L 603.10 769.90 L 604.00 772.40 L 605.30 774.90 L 607.00 777.30 L 609.90 780.10 L 613.30 782.80 L 617.60 785.50 L 627.10 790.10 L 641.20 795.20 L 687.50 808.50 L 696.00 811.30 L 708.10 816.20 L 715.30 820.40 L 714.50 856.50 L 713.80 867.70 L 712.70 878.20 L 711.40 888.00 L 709.90 895.30 L 708.20 902.20 L 706.10 908.70 L 703.70 914.80 L 700.80 920.80 L 697.50 926.50 L 693.70 931.80 L 689.30 936.90 L 685.60 940.70 L 676.80 947.70 L 671.70 951.00 L 666.10 954.20 L 659.00 957.60 L 651.00 960.80 L 641.90 963.80 L 631.70 966.60 L 621.80 968.70 L 610.60 970.70 L 598.10 972.40 L 584.10 973.80 L 570.60 974.80 L 539.20 975.90 L 521.00 976.00 L 496.00 975.30 L 473.80 974.10 L 454.30 972.60 L 439.50 970.90 L 426.10 969.00 L 414.20 966.80 L 403.40 964.40 L 394.50 962.00 L 386.40 959.40 L 379.10 956.60 L 372.40 953.70 L 366.30 950.60 L 360.20 947.00 L 354.60 943.10 L 349.60 939.00 L 345.00 934.70 L 340.80 930.20 L 337.00 925.30 L 333.60 920.10 L 330.40 914.50 L 327.60 908.60 L 325.10 902.30 L 322.50 894.40 L 320.30 885.70 L 318.50 876.30 L 317.00 866.00 L 315.70 852.40 L 314.80 837.30 L 314.50 820.40 L 320.90 817.10 L 332.90 813.00 L 381.00 800.10 L 391.00 797.10 L 400.30 793.90 L 411.90 789.10 L 416.80 786.60 L 421.50 783.70 L 425.30 780.80 L 428.40 777.80 L 430.40 775.20 L 431.80 772.60 L 432.80 770.00 L 433.20 767.20 Z" fill="#ffd1aa" fill-rule="evenodd" node-id="27" stroke="none" target-height="397.5" target-width="400.8" target-x="314.5" target-y="578.5"></path><path d="M 596.10 637.60 L 590.90 644.30 L 581.20 654.80 L 574.20 661.30 L 563.40 670.00 L 550.00 679.00 L 542.50 683.30 L 534.20 687.60 L 525.60 691.50 L 516.30 695.10 L 506.10 698.40 L 490.40 702.30 L 481.70 703.80 L 472.60 705.00 L 463.60 705.80 L 454.10 706.20 L 444.00 706.20 L 433.40 705.70 L 432.80 577.60 L 592.60 582.90 L 596.10 637.60 Z" fill="#ffc18d" fill-rule="evenodd" node-id="29" stroke="none" target-height="128.60004" target-width="163.29999" target-x="432.8" target-y="577.6"></path><path d="M 659.60 465.80 L 664.40 463.00 L 672.20 459.60 L 677.10 458.20 L 684.00 457.00 L 691.40 457.10 L 695.10 457.80 L 698.90 459.00 L 702.50 460.60 L 706.00 463.00 L 709.50 466.20 L 712.60 470.70 L 713.90 473.50 L 714.80 476.80 L 715.60 481.30 L 715.90 486.30 L 715.80 491.80 L 715.10 497.30 L 713.90 503.00 L 712.10 508.90 L 709.90 514.70 L 707.10 520.30 L 703.70 525.90 L 700.80 529.90 L 694.20 537.30 L 690.30 540.70 L 686.20 543.80 L 681.80 546.50 L 676.90 549.00 L 671.70 551.10 L 666.40 552.70 L 660.60 553.80 L 654.40 554.50 L 647.70 554.80 L 659.60 465.80 Z" fill="#ffd1aa" fill-rule="evenodd" node-id="31" stroke="none" target-height="97.79999" target-width="68.20001" target-x="647.7" target-y="457"></path><path d="M 370.30 465.80 L 365.50 463.00 L 357.70 459.60 L 352.80 458.20 L 345.90 457.00 L 338.50 457.10 L 334.80 457.80 L 331.00 459.00 L 327.50 460.60 L 323.90 463.00 L 320.40 466.20 L 317.30 470.70 L 316.10 473.50 L 315.10 476.80 L 314.30 481.30 L 314.00 486.30 L 314.20 491.80 L 314.90 497.30 L 316.10 503.00 L 317.80 508.90 L 320.10 514.70 L 322.90 520.30 L 326.20 525.90 L 329.10 529.90 L 335.80 537.30 L 339.60 540.70 L 343.70 543.80 L 348.20 546.50 L 353.00 549.00 L 358.30 551.10 L 363.60 552.70 L 369.30 553.80 L 375.50 554.50 L 382.30 554.80 L 370.30 465.80 Z" fill="#ffd1aa" fill-rule="evenodd" node-id="33" stroke="none" target-height="97.79999" target-width="68.29999" target-x="314" target-y="457"></path><path d="M 511.00 208.70 L 501.00 209.00 L 491.50 209.70 L 482.40 210.80 L 473.80 212.40 L 465.60 214.40 L 457.80 216.70 L 449.90 219.60 L 442.40 222.80 L 435.20 226.40 L 428.40 230.30 L 422.00 234.60 L 415.80 239.20 L 408.70 245.30 L 402.10 251.80 L 395.90 258.70 L 390.10 266.10 L 384.70 274.10 L 379.80 282.20 L 375.30 290.80 L 371.20 299.80 L 367.50 309.30 L 364.20 319.20 L 361.40 329.10 L 358.90 339.30 L 356.90 349.90 L 355.20 360.90 L 354.00 372.30 L 353.00 386.40 L 352.70 400.90 L 352.90 415.90 L 356.60 471.20 L 357.90 486.50 L 359.50 500.90 L 361.80 516.30 L 365.20 534.40 L 371.00 560.20 L 374.50 569.20 L 378.00 576.50 L 382.80 584.90 L 390.20 596.10 L 394.70 602.00 L 404.50 613.30 L 410.00 618.70 L 415.80 623.90 L 422.00 628.70 L 428.50 633.10 L 435.30 637.10 L 442.30 640.50 L 451.80 644.20 L 465.70 650.30 L 479.30 655.30 L 487.00 657.50 L 495.60 659.30 L 507.60 660.80 L 514.00 661.00 L 520.60 660.80 L 532.10 659.40 L 540.10 657.60 L 547.00 655.50 L 553.50 653.10 L 572.70 644.50 L 581.90 641.40 L 587.60 639.10 L 598.30 633.60 L 605.10 629.30 L 611.50 624.70 L 617.50 619.70 L 623.20 614.40 L 633.30 603.40 L 637.90 597.60 L 645.70 586.50 L 651.90 575.60 L 654.20 570.80 L 657.70 561.60 L 663.40 536.00 L 666.90 518.00 L 669.40 502.40 L 671.30 487.50 L 672.80 471.80 L 676.80 419.00 L 677.20 395.20 L 675.90 372.50 L 674.70 361.20 L 673.00 350.20 L 671.00 339.60 L 668.60 329.40 L 665.80 319.50 L 662.40 309.50 L 658.70 300.10 L 654.60 291.10 L 650.10 282.50 L 645.20 274.30 L 639.80 266.40 L 634.00 258.90 L 627.80 251.90 L 621.20 245.40 L 614.10 239.40 L 607.90 234.70 L 601.40 230.40 L 594.60 226.50 L 587.50 222.90 L 579.90 219.60 L 572.10 216.70 L 564.20 214.40 L 556.00 212.40 L 547.40 210.80 L 538.40 209.70 L 528.90 209.00 L 511.00 208.70 Z" fill="#ffe1c7" fill-rule="evenodd" node-id="35" stroke="none" target-height="452.3" target-width="324.5" target-x="352.7" target-y="208.7"></path><path d="M 398.00 414.00 L 396.40 413.80 L 395.00 413.20 L 393.70 412.20 L 392.70 410.90 L 392.00 407.90 L 392.80 404.90 L 393.70 403.70 L 395.10 402.70 L 400.60 400.10 L 406.30 397.90 L 412.20 396.10 L 424.40 393.90 L 430.50 393.40 L 439.50 393.10 L 448.00 393.30 L 462.90 394.80 L 478.30 397.70 L 481.00 399.20 L 482.60 401.80 L 482.80 403.30 L 482.60 405.00 L 482.00 406.50 L 479.90 408.60 L 478.50 409.20 L 477.00 409.50 L 462.00 406.80 L 455.80 406.00 L 440.70 405.10 L 432.50 405.30 L 421.50 406.50 L 416.10 407.50 L 410.70 409.00 L 405.70 410.90 L 399.40 413.80 L 398.00 414.00" fill="#654840" fill-rule="evenodd" node-id="37" stroke="none" target-height="20.899994" target-width="90.79999" target-x="392" target-y="393.1"></path><path d="M 622.80 414.00 L 621.40 413.80 L 615.10 410.90 L 610.20 409.00 L 605.00 407.50 L 599.70 406.50 L 589.10 405.30 L 581.10 405.10 L 566.70 406.00 L 560.80 406.80 L 548.20 409.30 L 546.60 409.50 L 545.10 409.30 L 542.40 407.70 L 541.50 406.60 L 540.90 405.00 L 540.60 403.40 L 540.80 401.90 L 542.40 399.30 L 543.60 398.30 L 545.10 397.70 L 559.70 394.80 L 574.10 393.30 L 582.20 393.10 L 591.00 393.40 L 602.80 394.90 L 608.70 396.10 L 614.60 397.80 L 620.20 400.00 L 625.80 402.70 L 628.00 404.90 L 628.80 407.90 L 628.10 410.90 L 627.10 412.20 L 625.80 413.20 L 624.40 413.80 L 622.80 414.00" fill="#654840" fill-rule="evenodd" node-id="39" stroke="none" target-height="20.899994" target-width="88.20001" target-x="540.6" target-y="393.1"></path><path d="M 647.20 314.70 L 649.40 325.30 L 651.10 335.90 L 652.30 346.30 L 653.60 365.20 L 653.70 388.80 L 664.80 405.20 L 676.20 461.30 L 679.00 446.90 L 681.60 430.00 L 685.60 397.00 L 687.10 378.00 L 686.80 365.00 L 685.90 352.50 L 684.60 340.40 L 682.70 328.80 L 680.40 317.60 L 677.90 308.20 L 675.10 299.10 L 671.90 290.40 L 668.40 282.10 L 664.60 274.10 L 660.40 266.50 L 655.70 259.00 L 650.70 251.90 L 645.40 245.10 L 639.70 238.80 L 633.60 232.70 L 627.20 227.10 L 620.50 221.90 L 613.40 217.00 L 605.90 212.60 L 598.00 208.60 L 589.70 205.00 L 580.90 201.70 L 572.20 199.10 L 563.10 196.90 L 553.50 195.10 L 543.40 193.80 L 532.80 193.00 L 521.60 192.70 L 508.60 193.00 L 496.30 193.80 L 484.80 195.00 L 473.90 196.70 L 463.70 198.80 L 454.10 201.30 L 444.20 204.50 L 434.90 208.00 L 426.20 211.90 L 418.00 216.20 L 410.40 220.90 L 403.20 225.90 L 396.30 231.40 L 389.80 237.40 L 383.70 243.60 L 378.10 250.20 L 372.90 257.30 L 368.00 264.70 L 363.70 272.30 L 359.80 280.20 L 356.20 288.50 L 352.90 297.20 L 350.10 306.40 L 347.60 315.90 L 345.30 327.20 L 343.40 339.00 L 342.10 351.40 L 341.30 364.30 L 341.00 377.90 L 341.20 386.80 L 342.50 403.80 L 344.10 416.00 L 345.90 426.90 L 350.00 445.60 L 354.90 462.60 L 361.60 405.20 L 370.50 391.00 L 371.80 388.40 L 372.30 385.50 L 375.80 343.40 L 378.80 324.30 L 380.90 314.50 L 647.20 314.70" fill="#8e685e" fill-rule="evenodd" node-id="41" stroke="none" target-height="269.90002" target-width="346.09998" target-x="341" target-y="192.7"></path><path d="M 641.60 325.30 L 654.50 343.20 L 663.90 358.00 L 668.80 366.40 L 673.50 375.10 L 677.90 384.10 L 680.50 390.20 L 684.70 402.20 L 688.30 368.30 L 690.00 340.20 L 690.20 326.20 L 690.00 314.00 L 689.50 303.20 L 688.50 293.80 L 687.10 283.50 L 685.90 277.90 L 684.10 271.40 L 681.70 264.70 L 675.60 251.60 L 668.20 239.50 L 658.90 226.40 L 652.80 218.80 L 649.50 215.50 L 648.30 214.90 L 646.00 214.70 L 645.10 215.20 L 644.00 216.40 L 642.40 220.00 L 641.30 227.10 L 639.60 221.50 L 637.40 217.10 L 632.90 210.80 L 629.40 206.80 L 625.60 203.10 L 620.80 199.10 L 614.70 194.70 L 609.10 191.20 L 605.50 189.50 L 603.10 188.80 L 600.50 188.80 L 599.00 190.10 L 598.60 192.70 L 598.80 194.60 L 600.40 199.30 L 569.50 169.60 L 561.10 163.10 L 554.50 159.00 L 548.00 155.50 L 541.60 152.60 L 536.00 150.60 L 530.60 149.10 L 526.50 148.30 L 524.40 148.40 L 521.90 149.00 L 518.90 150.30 L 494.90 164.10 L 484.00 169.10 L 470.10 174.40 L 463.20 177.40 L 450.80 184.20 L 440.60 191.10 L 433.80 196.50 L 428.60 201.20 L 417.80 212.20 L 418.60 204.20 L 417.80 200.60 L 417.00 199.70 L 416.00 199.10 L 414.80 198.90 L 413.10 199.30 L 410.60 200.30 L 405.10 204.10 L 401.00 207.60 L 390.80 217.90 L 381.40 228.90 L 365.80 249.60 L 365.40 242.50 L 364.90 240.60 L 363.80 238.70 L 362.40 238.30 L 361.40 238.70 L 360.00 239.80 L 358.00 242.10 L 355.00 246.50 L 348.90 257.80 L 343.20 271.20 L 338.90 284.40 L 336.00 297.20 L 335.50 303.80 L 335.40 311.10 L 335.60 319.80 L 336.70 338.90 L 340.50 378.10 L 344.40 409.60 L 346.50 401.90 L 351.50 387.30 L 355.80 376.80 L 360.40 367.30 L 365.10 358.20 L 374.10 343.00 L 377.90 337.20 L 386.10 325.80 L 411.90 325.40 L 424.70 325.60 L 457.90 326.90 L 477.50 328.20 L 497.80 330.10 L 519.80 332.70 L 533.70 330.50 L 547.80 328.80 L 575.70 326.50 L 601.20 325.40 L 622.20 325.10 L 641.60 325.30" fill="#654840" fill-rule="evenodd" node-id="43" stroke="none" target-height="261.3" target-width="354.80002" target-x="335.4" target-y="148.3"></path><path d="M 535.60 429.30 L 534.10 434.30 L 535.60 429.30 L 536.90 429.90 L 538.00 430.70 L 539.20 433.10 L 539.10 435.90 L 538.50 437.20 L 537.70 438.20 L 535.30 439.50 L 534.00 439.60 L 530.70 439.20 L 529.00 439.50 L 527.50 440.30 L 526.00 442.40 L 525.40 444.30 L 524.80 447.50 L 524.70 451.20 L 525.10 456.50 L 526.00 462.30 L 530.70 482.90 L 532.70 494.00 L 533.30 499.00 L 533.50 503.60 L 533.30 508.00 L 532.50 511.80 L 531.50 514.30 L 530.20 516.60 L 528.40 518.80 L 526.20 520.50 L 523.70 521.70 L 521.00 522.60 L 515.40 523.10 L 512.00 522.90 L 506.90 522.10 L 501.10 520.70 L 498.70 519.30 L 497.40 516.90 L 497.20 515.60 L 497.40 514.10 L 498.00 512.80 L 500.00 511.00 L 502.50 510.30 L 509.30 511.80 L 513.10 512.40 L 516.50 512.50 L 518.70 512.30 L 520.30 511.70 L 521.60 510.40 L 522.30 508.80 L 522.90 503.60 L 522.30 495.50 L 520.50 485.70 L 515.60 464.40 L 514.50 457.70 L 514.10 449.60 L 514.90 442.50 L 515.90 439.20 L 517.20 436.50 L 518.70 434.20 L 522.40 431.00 L 525.80 429.40 L 528.40 428.80 L 532.60 428.70 L 535.60 429.30 Z" fill="#dd936f" fill-rule="evenodd" node-id="45" stroke="none" target-height="94.39996" target-width="42" target-x="497.2" target-y="428.7"></path><path d="M 438.70 487.30 L 441.20 487.00 L 443.60 486.30 L 445.90 485.20 L 448.10 483.50 L 451.70 479.20 L 453.30 476.40 L 455.80 469.70 L 457.10 461.80 L 457.30 457.30 L 456.60 448.60 L 454.70 441.50 L 453.30 438.20 L 451.70 435.40 L 448.10 431.00 L 445.90 429.40 L 443.60 428.20 L 441.20 427.50 L 438.70 427.30 L 436.20 427.50 L 433.80 428.20 L 431.60 429.40 L 429.40 431.00 L 425.70 435.40 L 424.10 438.20 L 421.70 444.90 L 420.40 452.70 L 420.20 457.30 L 420.40 461.80 L 421.70 469.70 L 424.10 476.40 L 425.70 479.20 L 429.40 483.50 L 431.60 485.20 L 433.80 486.30 L 436.20 487.00 L 438.70 487.30 Z" fill="#654840" fill-rule="evenodd" node-id="47" stroke="none" target-height="60" target-width="37.099976" target-x="420.2" target-y="427.3"></path><path d="M 583.50 487.30 L 586.00 487.00 L 588.40 486.30 L 590.70 485.20 L 592.90 483.50 L 596.50 479.20 L 598.10 476.40 L 600.60 469.70 L 601.80 461.80 L 602.00 457.30 L 601.30 448.60 L 599.50 441.50 L 598.10 438.20 L 596.50 435.40 L 592.90 431.00 L 590.70 429.40 L 588.40 428.20 L 586.00 427.50 L 583.50 427.30 L 581.00 427.50 L 578.60 428.20 L 576.40 429.40 L 574.10 431.00 L 570.50 435.40 L 568.90 438.20 L 566.50 444.90 L 565.20 452.70 L 565.00 457.30 L 565.20 461.80 L 566.50 469.70 L 568.90 476.40 L 570.50 479.20 L 574.10 483.50 L 576.40 485.20 L 578.60 486.30 L 581.00 487.00 L 583.50 487.30 Z" fill="#654840" fill-rule="evenodd" node-id="49" stroke="none" target-height="60" target-width="37" target-x="565" target-y="427.3"></path><path d="M 445.50 524.20 L 445.20 528.80 L 444.30 533.20 L 442.90 537.40 L 440.90 541.40 L 438.40 545.20 L 435.40 548.60 L 432.00 551.60 L 428.30 554.10 L 424.20 556.10 L 420.00 557.50 L 415.60 558.40 L 411.10 558.70 L 406.50 558.40 L 402.10 557.50 L 397.90 556.10 L 393.90 554.10 L 390.20 551.60 L 386.70 548.60 L 383.70 545.20 L 381.20 541.40 L 379.30 537.40 L 377.80 533.20 L 376.90 528.80 L 376.60 524.20 L 376.90 519.70 L 377.80 515.30 L 379.30 511.10 L 381.20 507.10 L 383.70 503.30 L 386.70 499.90 L 390.20 496.90 L 393.90 494.40 L 397.90 492.40 L 402.10 491.00 L 406.50 490.10 L 411.10 489.80 L 415.60 490.10 L 420.00 491.00 L 424.20 492.40 L 428.30 494.40 L 432.00 496.90 L 435.40 499.90 L 438.40 503.30 L 440.90 507.10 L 442.90 511.10 L 444.30 515.30 L 445.20 519.70 L 445.50 524.20 Z" fill="#ffd2b9" fill-rule="nonzero" node-id="51" stroke="none" target-height="68.900024" target-width="68.899994" target-x="376.6" target-y="489.8"></path><path d="M 653.80 524.20 L 653.50 528.80 L 652.70 533.20 L 651.20 537.40 L 649.20 541.40 L 646.80 545.20 L 643.70 548.60 L 640.30 551.60 L 636.60 554.10 L 632.60 556.10 L 628.30 557.50 L 624.00 558.40 L 619.40 558.70 L 614.80 558.40 L 610.50 557.50 L 606.20 556.10 L 602.20 554.10 L 598.50 551.60 L 595.10 548.60 L 592.10 545.20 L 589.60 541.40 L 587.60 537.40 L 586.20 533.20 L 585.30 528.80 L 585.00 524.20 L 585.30 519.70 L 586.20 515.30 L 587.60 511.10 L 589.60 507.10 L 592.10 503.30 L 595.10 499.90 L 598.50 496.90 L 602.20 494.40 L 606.20 492.40 L 610.50 491.00 L 614.80 490.10 L 619.40 489.80 L 624.00 490.10 L 628.30 491.00 L 632.60 492.40 L 636.60 494.40 L 640.30 496.90 L 643.70 499.90 L 646.80 503.30 L 649.20 507.10 L 651.20 511.10 L 652.70 515.30 L 653.50 519.70 L 653.80 524.20 Z" fill="#ffd2b9" fill-rule="nonzero" node-id="53" stroke="none" target-height="68.900024" target-width="68.79999" target-x="585" target-y="489.8"></path><path d="M 475.90 564.50 L 474.30 563.80 L 473.00 562.80 L 472.10 561.60 L 471.50 560.10 L 471.40 558.60 L 471.70 557.00 L 472.50 555.70 L 473.60 554.90 L 475.00 554.50 L 478.40 554.60 L 488.40 556.80 L 495.00 557.90 L 502.30 558.70 L 517.90 559.30 L 532.60 558.70 L 540.30 557.90 L 559.90 554.50 L 562.00 554.70 L 563.20 555.10 L 564.10 556.00 L 564.80 557.40 L 565.00 559.00 L 564.70 560.50 L 564.00 561.90 L 563.00 563.10 L 561.70 564.00 L 560.00 564.60 L 552.00 566.30 L 537.30 568.40 L 526.60 569.20 L 517.10 569.50 L 501.90 568.90 L 487.30 567.00 L 475.90 564.50 Z" fill="#7e2222" fill-rule="evenodd" node-id="55" stroke="none" target-height="15" target-width="93.600006" target-x="471.4" target-y="554.5"></path><g node-id="68"><path d="M 517.40 595.00 L 511.90 594.70 L 507.50 594.10 L 500.90 592.30 L 497.20 590.50 L 496.50 589.70 L 495.70 587.50 L 496.20 585.20 L 497.70 583.50 L 499.90 582.70 L 501.00 582.80 L 507.70 585.00 L 514.80 586.00 L 522.10 585.80 L 526.00 585.20 L 536.20 582.40 L 537.40 582.40 L 539.40 583.30 L 540.80 585.20 L 541.10 587.50 L 540.10 589.60 L 538.20 591.00 L 532.50 592.90 L 527.20 594.10 L 522.00 594.80 L 517.40 595.00" fill="#7e2222" fill-opacity="0.2" fill-rule="evenodd" group-id="1" node-id="59" stroke="none" target-height="12.599976" target-width="45.399963" target-x="495.7" target-y="582.4"></path></g><path d="M 354.90 418.80 L 355.10 415.80 L 355.90 413.10 L 357.10 410.60 L 358.70 408.30 L 360.60 406.40 L 362.90 404.80 L 365.40 403.60 L 368.10 402.80 L 371.10 402.50 L 476.40 402.50 L 479.30 402.80 L 482.00 403.60 L 484.50 404.80 L 486.80 406.40 L 488.80 408.30 L 490.40 410.60 L 491.60 413.10 L 492.30 415.80 L 492.60 418.80 L 492.60 446.10 L 505.80 444.30 L 511.60 444.00 L 520.20 444.60 L 529.70 446.20 L 529.70 418.80 L 529.90 415.80 L 530.70 413.10 L 531.90 410.60 L 533.50 408.30 L 535.40 406.40 L 537.70 404.80 L 540.20 403.60 L 542.90 402.80 L 545.90 402.50 L 651.20 402.50 L 654.10 402.80 L 656.80 403.60 L 659.30 404.80 L 661.60 406.40 L 663.50 408.30 L 665.20 410.60 L 666.40 413.10 L 667.10 415.80 L 667.40 418.80 L 667.40 471.40 L 667.10 477.10 L 666.50 482.60 L 665.40 488.00 L 663.90 493.20 L 661.90 498.20 L 659.70 503.10 L 657.10 507.70 L 654.10 512.10 L 650.80 516.20 L 647.20 520.10 L 643.30 523.70 L 639.20 527.00 L 634.80 529.90 L 630.20 532.60 L 625.30 534.80 L 620.30 536.70 L 615.10 538.20 L 609.70 539.30 L 604.20 540.00 L 598.50 540.20 L 592.80 540.00 L 587.30 539.30 L 581.90 538.20 L 576.70 536.70 L 571.70 534.80 L 566.80 532.60 L 562.20 529.90 L 557.80 527.00 L 553.70 523.70 L 549.80 520.10 L 546.20 516.20 L 542.90 512.10 L 540.00 507.70 L 537.40 503.10 L 535.10 498.20 L 533.20 493.20 L 531.70 488.00 L 530.60 482.60 L 529.90 477.10 L 529.70 460.60 L 518.40 458.60 L 511.60 458.20 L 504.30 458.70 L 492.60 460.40 L 492.60 471.40 L 492.30 477.10 L 491.70 482.60 L 490.60 488.00 L 489.10 493.20 L 487.10 498.20 L 484.90 503.10 L 482.30 507.70 L 479.30 512.10 L 476.00 516.20 L 472.40 520.10 L 468.50 523.70 L 464.40 527.00 L 460.00 529.90 L 455.40 532.60 L 450.60 534.80 L 445.50 536.70 L 440.30 538.20 L 435.00 539.30 L 429.40 540.00 L 423.70 540.20 L 418.00 540.00 L 412.50 539.30 L 407.10 538.20 L 402.00 536.70 L 396.90 534.80 L 392.10 532.60 L 387.50 529.90 L 383.10 527.00 L 378.90 523.70 L 375.00 520.10 L 371.50 516.20 L 368.20 512.10 L 365.20 507.70 L 362.60 503.10 L 360.30 498.20 L 358.40 493.20 L 356.90 488.00 L 355.80 482.60 L 355.10 477.10 L 354.90 471.40 L 354.90 418.80 Z M 371.10 416.70 L 369.60 417.30 L 369.00 418.80 L 369.00 471.40 L 369.30 477.10 L 370.10 482.50 L 371.50 487.70 L 373.30 492.70 L 375.60 497.50 L 378.40 502.00 L 381.50 506.20 L 385.00 510.10 L 388.90 513.60 L 393.10 516.80 L 397.60 519.50 L 402.40 521.80 L 407.40 523.70 L 412.60 525.00 L 418.00 525.80 L 423.70 526.10 L 429.40 525.80 L 434.80 525.00 L 440.00 523.70 L 445.00 521.80 L 449.80 519.50 L 454.30 516.80 L 458.50 513.60 L 462.40 510.10 L 466.00 506.20 L 469.10 502.00 L 471.80 497.50 L 474.20 492.70 L 476.00 487.70 L 477.30 482.50 L 478.20 477.10 L 478.50 471.40 L 478.30 417.90 L 477.20 416.80 L 476.40 416.70 L 371.10 416.70 Z M 543.80 418.80 L 544.40 417.30 L 545.90 416.70 L 651.20 416.70 L 652.60 417.30 L 653.20 418.80 L 653.20 471.40 L 652.90 477.10 L 652.10 482.50 L 650.80 487.70 L 648.90 492.70 L 646.60 497.50 L 643.90 502.00 L 640.80 506.20 L 637.20 510.10 L 633.30 513.60 L 629.10 516.80 L 624.60 519.50 L 619.80 521.80 L 614.80 523.70 L 609.60 525.00 L 604.20 525.80 L 598.50 526.10 L 592.80 525.80 L 587.40 525.00 L 582.20 523.70 L 577.20 521.80 L 572.40 519.50 L 567.90 516.80 L 563.70 513.60 L 559.80 510.10 L 556.30 506.20 L 553.10 502.00 L 550.40 497.50 L 548.10 492.70 L 546.20 487.70 L 544.90 482.50 L 544.10 477.10 L 543.80 471.40 L 543.80 418.80 Z" fill="#0e112e" fill-rule="evenodd" node-id="62" stroke="none" target-height="137.70001" target-width="312.50003" target-x="354.9" target-y="402.5"></path><path d="M 627.90 779.20 L 625.60 776.80 L 623.60 773.90 L 621.70 770.50 L 619.50 765.10 L 617.70 759.10 L 616.30 752.90 L 614.70 740.90 L 613.90 724.50 L 421.10 723.90 L 420.70 737.10 L 419.50 750.10 L 417.10 764.20 L 414.50 773.10 L 411.10 780.80 L 409.00 783.80 L 406.80 786.30 L 403.50 788.90 L 395.50 793.80 L 384.60 798.40 L 377.70 800.70 L 358.60 805.40 L 346.30 807.70 L 272.80 815.70 L 240.00 821.70 L 218.80 826.20 L 202.90 830.70 L 195.30 833.40 L 187.90 836.60 L 180.90 840.20 L 175.80 843.20 L 166.10 850.30 L 161.40 854.50 L 157.10 858.80 L 152.90 863.70 L 148.70 869.20 L 144.70 875.30 L 141.10 881.40 L 137.60 888.20 L 134.10 895.80 L 130.80 904.30 L 125.20 921.80 L 120.00 943.20 L 113.90 1024.00 L 939.10 1024.00 L 928.00 978.00 L 921.30 952.10 L 914.40 926.90 L 907.60 904.30 L 901.30 886.50 L 897.50 878.00 L 892.20 870.00 L 887.90 864.40 L 883.30 859.00 L 877.80 853.70 L 873.90 850.40 L 864.50 844.00 L 859.30 841.20 L 853.40 838.60 L 846.70 836.20 L 839.80 834.20 L 832.00 832.40 L 823.10 830.90 L 814.10 829.90 L 804.00 829.20 L 786.90 828.80 L 780.30 828.30 L 760.70 825.60 L 747.40 823.00 L 733.70 820.00 L 705.10 812.50 L 691.10 808.20 L 677.30 803.60 L 656.60 795.50 L 642.90 789.00 L 636.60 785.50 L 631.70 782.20 L 627.90 779.20 Z" fill="#bb98ff" fill-rule="nonzero" node-id="64" stroke="none" target-height="300.09998" target-width="825.19995" target-x="113.9" target-y="723.9"></path><path d="M 442.20 818.70 L 480.80 811.70 L 531.80 803.60 L 558.60 800.10 L 583.50 797.60" fill="none" node-id="66" stroke="#7a57be" stroke-linecap="round" stroke-width="8.82759" target-height="21.100037" target-width="141.29999" target-x="442.2" target-y="797.6"></path></svg>