<?xml version="1.0" standalone="no"?><!DOCTYPE svg PUBLIC "-//W3C//DTD SVG 1.1//EN" "http://www.w3.org/Graphics/SVG/1.1/DTD/svg11.dtd"><svg height="512" node-id="1" sillyvg="true" template-height="512" template-width="512" version="1.1" viewBox="0 0 512 512" width="512" xmlns="http://www.w3.org/2000/svg" xmlns:xlink="http://www.w3.org/1999/xlink"><defs node-id="39"><mask height="70.52399" id="mask-2" maskUnits="userSpaceOnUse" node-id="15" width="60.31198" x="334.77814" y="303.9897"><path d="M 339.80 309.90 L 390.10 309.90 L 390.10 368.60 L 339.80 368.60 Z" fill="#ffffff" fill-rule="evenodd" node-id="44" stroke="none" target-height="58.700012" target-width="50.30002" target-x="339.8" target-y="309.9"></path></mask><mask height="16.367523" id="mask-4" maskUnits="userSpaceOnUse" node-id="34" width="26.49504" x="245.71" y="142.03596"><path d="M 247.90 143.40 L 270.00 143.40 L 270.00 157.00 L 247.90 157.00 Z" fill="#ffffff" fill-rule="evenodd" node-id="51" stroke="none" target-height="13.600006" target-width="22.100006" target-x="247.9" target-y="143.4"></path></mask></defs><path d="M 0.00 0.00 L 512.00 0.00 L 512.00 512.00 L 0.00 512.00 Z" fill="#c3ecfe" fill-rule="evenodd" id="矩形" node-id="8" stroke="none" target-height="512" target-width="512" target-x="0" target-y="0"></path><g node-id="53"><path d="M 230.80 447.60 L 278.80 447.60 L 278.80 384.50 L 230.80 384.50 Z" fill="#ffbbba" fill-rule="evenodd" group-id="1" id="Fill-1" node-id="10" stroke="none" target-height="63.100006" target-width="47.999985" target-x="230.8" target-y="384.5"></path><path d="M 230.60 415.70 L 237.90 417.50 L 244.70 418.60 L 250.80 419.30 L 256.40 419.50 L 262.10 419.30 L 267.70 418.60 L 273.20 417.40 L 278.60 415.70 L 278.60 352.60 L 230.60 352.60 L 230.60 415.70 Z" fill="#fb918d" fill-rule="evenodd" group-id="1" id="Fill-1" node-id="11" stroke="none" target-height="66.899994" target-width="48" target-x="230.6" target-y="352.6"></path><g node-id="54"><path d="M 172.30 339.30 L 172.00 343.30 L 171.40 347.10 L 170.30 350.70 L 168.80 354.10 L 167.00 357.20 L 164.90 360.00 L 162.50 362.50 L 159.80 364.60 L 156.90 366.30 L 153.80 367.60 L 150.60 368.40 L 147.10 368.60 L 143.70 368.40 L 140.40 367.60 L 137.30 366.30 L 134.50 364.60 L 131.80 362.50 L 129.40 360.00 L 127.20 357.20 L 125.50 354.10 L 124.00 350.70 L 122.90 347.10 L 122.20 343.30 L 122.00 339.30 L 122.20 335.20 L 122.90 331.40 L 124.00 327.80 L 125.50 324.40 L 127.20 321.30 L 129.40 318.50 L 131.80 316.00 L 134.50 313.90 L 137.30 312.20 L 140.40 310.90 L 143.70 310.10 L 147.10 309.90 L 150.60 310.10 L 153.80 310.90 L 156.90 312.20 L 159.80 313.90 L 162.50 316.00 L 164.90 318.50 L 167.00 321.30 L 168.80 324.40 L 170.30 327.80 L 171.40 331.40 L 172.00 335.20 L 172.30 339.30" fill="#ffbbba" fill-rule="evenodd" group-id="1,2" id="Fill-2" node-id="13" stroke="none" target-height="58.700012" target-width="50.300003" target-x="122" target-y="309.9"></path><g node-id="55"><g node-id="58"><path d="M 390.10 339.30 L 389.80 343.30 L 389.20 347.10 L 388.10 350.70 L 386.60 354.10 L 384.80 357.20 L 382.70 360.00 L 380.30 362.50 L 377.60 364.60 L 374.70 366.30 L 371.60 367.60 L 368.40 368.40 L 364.90 368.60 L 361.50 368.40 L 358.20 367.60 L 355.20 366.30 L 352.30 364.60 L 349.60 362.50 L 347.20 360.00 L 345.10 357.20 L 343.30 354.10 L 341.80 350.70 L 340.70 347.10 L 340.00 343.30 L 339.80 339.30 L 340.00 335.20 L 340.70 331.40 L 341.80 327.80 L 343.30 324.40 L 345.10 321.30 L 347.20 318.50 L 349.60 316.00 L 352.30 313.90 L 355.20 312.20 L 358.20 310.90 L 361.50 310.10 L 364.90 309.90 L 368.40 310.10 L 371.60 310.90 L 374.70 312.20 L 377.60 313.90 L 380.30 316.00 L 382.70 318.50 L 384.80 321.30 L 386.60 324.40 L 388.10 327.80 L 389.20 331.40 L 389.80 335.20 L 390.10 339.30" fill="#ffbbba" fill-rule="evenodd" group-id="1,2,3,6" id="Fill-6" node-id="18" stroke="none" target-height="58.700012" target-width="50.30002" target-x="339.8" target-y="309.9"></path></g></g><path d="M 255.90 411.50 L 247.70 410.90 L 237.30 408.90 L 225.50 405.50 L 219.50 403.30 L 207.00 397.80 L 200.90 394.50 L 194.90 390.90 L 189.00 386.80 L 183.50 382.50 L 178.40 377.70 L 173.70 372.60 L 170.50 368.50 L 167.60 364.20 L 165.10 359.70 L 162.90 354.90 L 161.20 350.00 L 160.00 344.90 L 159.20 339.50 L 158.90 333.80 L 159.20 312.40 L 159.70 301.00 L 160.70 289.30 L 163.00 273.70 L 166.60 258.40 L 169.00 251.00 L 171.80 243.80 L 177.00 233.60 L 183.50 224.10 L 187.20 219.80 L 191.30 215.70 L 195.80 211.90 L 200.70 208.30 L 205.80 205.20 L 211.50 202.50 L 217.70 200.00 L 224.50 197.90 L 231.20 196.30 L 238.70 195.10 L 246.90 194.30 L 255.90 194.00 L 264.80 194.30 L 273.00 195.10 L 280.50 196.30 L 287.30 197.90 L 294.10 200.00 L 300.20 202.50 L 305.90 205.20 L 311.00 208.30 L 315.90 211.90 L 320.40 215.70 L 324.50 219.80 L 328.20 224.10 L 331.60 228.80 L 337.40 238.60 L 339.90 243.80 L 342.70 251.00 L 345.10 258.40 L 347.10 266.00 L 350.00 281.50 L 352.00 301.00 L 352.50 312.40 L 352.80 333.80 L 352.50 339.50 L 351.70 344.90 L 350.50 350.00 L 348.80 354.90 L 346.60 359.70 L 344.10 364.20 L 341.30 368.50 L 338.00 372.60 L 333.30 377.70 L 328.20 382.50 L 322.70 386.80 L 316.80 390.90 L 310.90 394.50 L 298.40 400.70 L 286.20 405.50 L 274.40 408.90 L 264.00 410.90 L 255.90 411.50 Z" fill="#ffbbba" fill-rule="evenodd" group-id="1,2" id="Fill-10" node-id="19" stroke="none" target-height="217.5" target-width="193.9" target-x="158.9" target-y="194"></path><path d="M 255.90 404.50 L 247.70 403.90 L 237.30 401.90 L 225.50 398.50 L 219.50 396.30 L 207.00 390.80 L 200.90 387.50 L 194.90 383.90 L 189.00 379.80 L 183.50 375.50 L 178.40 370.70 L 173.70 365.60 L 170.50 361.50 L 167.60 357.20 L 165.10 352.70 L 162.90 347.90 L 161.20 343.00 L 160.00 337.90 L 159.20 332.50 L 158.90 326.80 L 159.20 305.40 L 159.70 294.00 L 160.70 282.30 L 163.00 266.70 L 166.60 251.40 L 169.00 244.00 L 171.80 236.80 L 177.00 226.60 L 183.50 217.10 L 187.20 212.80 L 191.30 208.70 L 195.80 204.90 L 200.70 201.30 L 205.80 198.20 L 211.50 195.50 L 217.70 193.00 L 224.50 190.90 L 231.20 189.30 L 238.70 188.10 L 246.90 187.30 L 255.90 187.00 L 264.80 187.30 L 273.00 188.10 L 280.50 189.30 L 287.30 190.90 L 294.10 193.00 L 300.20 195.50 L 305.90 198.20 L 311.00 201.30 L 315.90 204.90 L 320.40 208.70 L 324.50 212.80 L 328.20 217.10 L 331.60 221.80 L 337.40 231.60 L 339.90 236.80 L 342.70 244.00 L 345.10 251.40 L 347.10 259.00 L 350.00 274.50 L 352.00 294.00 L 352.50 305.40 L 352.80 326.80 L 352.50 332.50 L 351.70 337.90 L 350.50 343.00 L 348.80 347.90 L 346.60 352.70 L 344.10 357.20 L 341.30 361.50 L 338.00 365.60 L 333.30 370.70 L 328.20 375.50 L 322.70 379.80 L 316.80 383.90 L 310.90 387.50 L 298.40 393.70 L 286.20 398.50 L 274.40 401.90 L 264.00 403.90 L 255.90 404.50 Z" fill="#ffd5d6" fill-rule="evenodd" group-id="1,2" id="Fill-10" node-id="20" stroke="none" target-height="217.5" target-width="193.9" target-x="158.9" target-y="187"></path><path d="M 263.30 335.00 L 262.60 336.30 L 261.70 336.90 L 260.10 337.50 L 255.60 338.00 L 251.20 337.50 L 249.60 336.90 L 248.70 336.30 L 248.00 335.00 L 248.30 332.90 L 249.00 331.10 L 250.20 329.50 L 251.80 328.40 L 253.60 327.60 L 255.60 327.40 L 257.70 327.60 L 259.50 328.40 L 261.00 329.50 L 262.20 331.10 L 263.00 332.90 L 263.30 335.00" fill="#e8b39f" fill-rule="evenodd" group-id="1,2" id="Fill-16" node-id="21" stroke="none" target-height="10.600006" target-width="15.299988" target-x="248" target-y="327.4"></path><path d="M 332.60 511.20 L 177.00 511.20 L 177.20 505.10 L 177.90 499.20 L 179.10 493.50 L 180.70 487.90 L 182.80 482.50 L 185.20 477.40 L 188.00 472.40 L 191.20 467.70 L 194.70 463.30 L 198.50 459.20 L 202.60 455.30 L 207.10 451.80 L 211.80 448.60 L 216.70 445.80 L 221.90 443.40 L 227.30 441.40 L 232.80 439.70 L 238.50 438.60 L 244.40 437.90 L 250.60 437.60 L 265.10 437.90 L 271.00 438.60 L 276.70 439.70 L 282.30 441.40 L 287.70 443.40 L 292.90 445.80 L 297.80 448.60 L 302.50 451.80 L 306.90 455.30 L 311.10 459.20 L 314.90 463.30 L 318.40 467.70 L 321.60 472.40 L 324.40 477.40 L 326.80 482.50 L 328.90 487.90 L 330.50 493.50 L 331.70 499.20 L 332.40 505.10 L 332.60 511.20" fill="#ffbbba" fill-rule="evenodd" group-id="1,2" id="Fill-18" node-id="22" stroke="none" target-height="73.600006" target-width="155.6" target-x="177" target-y="437.6"></path><path d="M 291.10 444.60 L 289.00 448.90 L 286.30 452.80 L 283.20 456.40 L 279.60 459.50 L 275.70 462.10 L 271.40 464.30 L 268.00 465.50 L 260.90 467.00 L 257.00 467.20 L 253.00 467.00 L 249.20 466.40 L 245.60 465.40 L 242.10 464.10 L 235.70 460.40 L 232.80 458.10 L 227.70 452.70 L 223.90 446.40 L 222.40 442.90 L 212.70 447.80 L 208.20 450.70 L 199.90 457.50 L 192.70 465.40 L 186.60 474.40 L 181.90 484.10 L 180.10 489.30 L 178.60 494.60 L 177.60 500.10 L 176.90 505.70 L 176.70 511.80 L 333.10 511.80 L 332.90 506.00 L 332.30 500.60 L 330.10 490.30 L 326.40 480.60 L 321.40 471.50 L 317.50 465.90 L 313.10 460.70 L 308.20 456.00 L 302.90 451.70 L 297.20 447.90 L 291.10 444.60" fill="#1c2b40" fill-rule="evenodd" group-id="1,2" id="Fill-20" node-id="23" stroke="none" target-height="68.899994" target-width="156.40001" target-x="176.7" target-y="442.9"></path><path d="M 209.20 277.20 L 209.90 275.80 L 211.00 274.70 L 212.40 274.20 L 214.00 274.20 L 231.50 278.30 L 233.00 278.90 L 234.00 280.10 L 234.60 281.50 L 234.50 283.10 L 233.90 284.50 L 232.70 285.60 L 231.30 286.10 L 229.70 286.10 L 212.20 282.00 L 210.80 281.40 L 209.70 280.20 L 209.20 278.80 L 209.20 277.20 Z" fill="#4d4437" fill-rule="nonzero" group-id="1,2" id="Stroke-22" node-id="24" stroke="none" target-height="11.899994" target-width="25.40001" target-x="209.2" target-y="274.2"></path><path d="M 302.70 277.20 L 302.80 278.80 L 302.30 280.20 L 301.20 281.30 L 299.80 282.00 L 282.30 286.10 L 280.70 286.10 L 279.30 285.60 L 278.10 284.50 L 277.50 283.10 L 277.40 281.50 L 277.90 280.10 L 279.00 278.90 L 280.40 278.30 L 297.90 274.20 L 299.50 274.20 L 300.90 274.70 L 302.00 275.70 L 302.70 277.20 Z" fill="#4d4437" fill-rule="nonzero" group-id="1,2" id="Stroke-24" node-id="25" stroke="none" target-height="11.899994" target-width="25.399994" target-x="277.4" target-y="274.2"></path><path d="M 234.20 312.30 L 233.60 315.60 L 232.90 317.10 L 231.40 319.00 L 229.50 320.50 L 228.10 321.20 L 224.70 321.80 L 221.40 321.20 L 220.00 320.50 L 218.00 319.00 L 216.60 317.10 L 215.90 315.60 L 215.30 312.30 L 215.90 309.00 L 216.60 307.60 L 218.00 305.60 L 220.00 304.20 L 221.40 303.50 L 224.70 302.90 L 228.10 303.50 L 229.50 304.20 L 231.40 305.60 L 232.90 307.60 L 233.60 309.00 L 234.20 312.30" fill="#000000" fill-rule="evenodd" group-id="1,2" id="Fill-26" node-id="26" stroke="none" target-height="18.899994" target-width="18.899994" target-x="215.3" target-y="302.9"></path><path d="M 296.40 312.30 L 295.90 315.60 L 295.20 317.10 L 293.70 319.00 L 291.80 320.50 L 290.30 321.20 L 287.00 321.80 L 283.70 321.20 L 282.20 320.50 L 280.30 319.00 L 278.80 317.10 L 278.10 315.60 L 277.50 312.30 L 278.10 309.00 L 278.80 307.60 L 280.30 305.60 L 282.20 304.20 L 283.70 303.50 L 287.00 302.90 L 290.30 303.50 L 291.80 304.20 L 293.70 305.60 L 295.20 307.60 L 295.90 309.00 L 296.40 312.30" fill="#000000" fill-rule="evenodd" group-id="1,2" id="Fill-28" node-id="27" stroke="none" target-height="18.899994" target-width="18.899994" target-x="277.5" target-y="302.9"></path><path d="M 269.60 344.90 L 270.00 344.20 L 271.30 343.50 L 272.10 343.50 L 273.30 344.50 L 273.50 346.00 L 272.50 348.60 L 271.20 351.00 L 267.70 355.10 L 263.30 358.20 L 258.10 359.80 L 252.70 360.10 L 247.40 358.80 L 246.30 357.70 L 246.30 356.20 L 246.70 355.50 L 248.10 354.90 L 251.00 355.70 L 255.30 356.10 L 257.40 355.90 L 261.50 354.60 L 265.10 352.10 L 266.60 350.60 L 267.90 348.80 L 269.60 344.90 Z" fill="#d06946" fill-rule="nonzero" group-id="1,2" id="Stroke-30" node-id="28" stroke="none" target-height="16.600006" target-width="27.199997" target-x="246.3" target-y="343.5"></path><path d="M 153.70 231.00 L 152.90 243.90 L 153.20 259.90 L 154.40 277.00 L 157.20 301.00 L 158.20 307.30 L 160.30 316.40 L 167.30 320.20 L 171.90 263.80 L 171.90 236.30 L 153.70 231.00 Z" fill="#1f448b" fill-rule="evenodd" group-id="1,2" id="Fill-32" node-id="29" stroke="none" target-height="89.20001" target-width="19" target-x="152.9" target-y="231"></path><path d="M 357.60 231.00 L 358.30 243.90 L 358.30 251.40 L 357.50 268.40 L 355.20 293.50 L 353.30 307.30 L 351.30 316.40 L 344.90 320.20 L 340.70 263.80 L 340.70 236.30 L 357.60 231.00 Z" fill="#1f448b" fill-rule="evenodd" group-id="1,2" id="Fill-34" node-id="30" stroke="none" target-height="89.20001" target-width="17.599976" target-x="340.7" target-y="231"></path><path d="M 172.30 242.10 L 172.30 254.70 L 173.20 256.30 L 176.20 257.40 L 191.90 259.20 L 199.10 243.10 L 198.00 259.70 L 210.80 260.60 L 225.10 261.00 L 255.80 261.20 L 284.90 261.00 L 284.40 235.50 L 293.80 260.80 L 321.90 260.20 L 327.60 259.80 L 331.10 259.20 L 333.70 258.40 L 335.70 257.50 L 337.40 256.10 L 338.70 254.30 L 339.70 252.10 L 340.20 249.60 L 340.70 242.10 L 340.50 236.10 L 339.10 224.40 L 336.70 214.30 L 335.00 209.30 L 330.30 199.20 L 327.40 194.40 L 323.90 189.70 L 319.90 185.10 L 316.70 181.90 L 309.00 176.00 L 304.60 173.30 L 295.10 168.80 L 289.60 166.90 L 283.50 165.20 L 277.50 164.00 L 270.90 163.00 L 263.70 162.40 L 255.80 162.20 L 247.80 162.40 L 240.60 163.00 L 234.00 164.00 L 228.00 165.20 L 221.90 166.90 L 216.40 168.80 L 206.90 173.30 L 202.40 176.00 L 194.80 181.90 L 191.60 185.10 L 187.60 189.70 L 184.20 194.40 L 181.30 199.20 L 178.80 204.30 L 176.80 209.30 L 175.20 214.30 L 173.00 224.40 L 172.10 236.10 L 172.30 242.10 Z" fill="#ffbbba" fill-rule="evenodd" group-id="1,2" id="Fill-36" node-id="31" stroke="none" target-height="99.000015" target-width="168.6" target-x="172.1" target-y="162.2"></path><path d="M 255.80 155.20 L 246.50 155.50 L 237.90 156.20 L 229.90 157.40 L 222.50 158.90 L 215.00 161.00 L 208.00 163.30 L 201.60 165.90 L 195.60 168.80 L 189.80 172.10 L 184.40 175.60 L 175.10 182.90 L 169.50 188.30 L 164.70 193.80 L 160.70 199.30 L 157.10 205.10 L 154.30 210.60 L 152.20 216.00 L 150.60 221.50 L 149.60 226.50 L 149.40 231.10 L 149.60 234.10 L 150.20 236.70 L 151.10 238.90 L 152.40 240.80 L 154.60 243.00 L 157.40 245.00 L 161.00 246.60 L 169.20 249.00 L 182.50 251.10 L 191.90 252.20 L 199.10 235.10 L 198.00 252.70 L 210.80 253.60 L 225.10 254.00 L 284.90 254.00 L 284.40 228.50 L 293.80 253.80 L 316.20 253.00 L 326.40 252.30 L 335.10 251.40 L 345.50 249.20 L 349.60 247.90 L 355.10 245.00 L 358.90 241.40 L 360.30 239.30 L 361.30 237.00 L 361.90 234.20 L 362.10 231.10 L 361.90 226.50 L 361.00 221.50 L 359.30 216.00 L 357.20 210.60 L 354.40 205.10 L 350.80 199.30 L 346.80 193.80 L 342.00 188.30 L 336.40 182.90 L 331.90 179.20 L 321.70 172.10 L 315.90 168.80 L 309.90 165.90 L 303.50 163.30 L 296.50 161.00 L 289.00 158.90 L 281.60 157.40 L 273.60 156.20 L 265.00 155.50 L 255.80 155.20" fill="#1f448b" fill-rule="evenodd" group-id="1,2" id="Fill-36" node-id="32" stroke="none" target-height="98.8" target-width="212.70001" target-x="149.4" target-y="155.2"></path><g node-id="56"><g node-id="60"><path d="M 248.00 143.40 L 250.60 144.30 L 253.00 145.70 L 255.10 147.60 L 257.00 149.80 L 260.20 154.70 L 262.20 151.80 L 264.40 149.10 L 266.90 146.70 L 269.70 144.70 L 270.00 146.90 L 269.50 151.30 L 267.60 155.30 L 266.30 157.00 L 263.10 156.60 L 256.90 155.20 L 254.00 153.90 L 252.20 152.60 L 249.40 149.40 L 248.40 147.50 L 248.00 145.50 L 248.00 143.40" fill="#1f448b" fill-rule="evenodd" group-id="1,2,4,8" id="Fill-38" node-id="37" stroke="none" target-height="13.600006" target-width="22" target-x="248" target-y="143.4"></path></g></g></g></g></svg>