<?xml version="1.0" standalone="no"?><!DOCTYPE svg PUBLIC "-//W3C//DTD SVG 1.1//EN" "http://www.w3.org/Graphics/SVG/1.1/DTD/svg11.dtd"><svg height="1025" node-id="1" sillyvg="true" template-height="1025" template-width="1024" version="1.1" viewBox="0 0 1024 1025" width="1024" xmlns="http://www.w3.org/2000/svg" xmlns:xlink="http://www.w3.org/1999/xlink"><defs node-id="30"></defs><path d="M 0.00 0.00 L 1024.00 0.00 L 1024.00 1024.00 L 0.00 1024.00 Z" fill="#e0f4ff" fill-rule="nonzero" node-id="32" stroke="none" target-height="1024" target-width="1024" target-x="0" target-y="0"></path><path d="M 426.10 758.00 L 412.30 578.20 L 613.80 578.20 L 613.80 758.00 L 615.00 767.60 L 616.00 772.10 L 617.50 776.50 L 619.40 780.60 L 621.90 784.60 L 626.50 790.00 L 629.60 792.60 L 636.70 797.40 L 645.90 801.80 L 651.60 803.90 L 659.10 806.20 L 668.20 808.40 L 679.00 810.40 L 689.90 812.00 L 702.60 813.50 L 717.30 814.70 L 716.50 826.40 L 717.10 863.70 L 716.70 874.40 L 716.10 881.60 L 715.10 888.70 L 713.60 895.80 L 710.40 906.20 L 708.20 911.40 L 705.60 916.40 L 702.70 921.30 L 699.30 926.00 L 695.30 930.70 L 690.70 935.30 L 685.90 939.50 L 680.30 943.60 L 674.00 947.70 L 666.80 951.60 L 659.60 955.00 L 651.40 958.30 L 642.20 961.40 L 631.80 964.30 L 621.70 966.70 L 610.40 968.90 L 597.70 970.90 L 583.70 972.60 L 570.10 973.80 L 555.10 974.70 L 538.60 975.30 L 520.50 975.40 L 502.30 975.20 L 485.70 974.50 L 470.60 973.50 L 456.80 972.10 L 442.60 970.20 L 429.70 968.10 L 418.10 965.70 L 407.60 963.00 L 396.90 959.80 L 387.30 956.50 L 378.70 953.00 L 371.00 949.30 L 363.40 945.10 L 356.60 940.90 L 350.50 936.50 L 345.20 932.10 L 340.10 927.20 L 335.60 922.30 L 331.70 917.30 L 328.40 912.30 L 322.60 901.80 L 318.50 891.20 L 316.50 883.90 L 315.00 876.80 L 313.90 869.70 L 313.00 859.10 L 312.70 848.90 L 313.20 821.30 L 313.00 813.90 L 322.90 814.00 L 332.20 813.80 L 341.10 813.10 L 349.50 812.00 L 358.10 810.50 L 366.00 808.70 L 373.40 806.60 L 380.30 804.30 L 387.20 801.40 L 393.40 798.40 L 399.00 795.20 L 404.10 791.80 L 409.00 787.90 L 413.20 784.00 L 416.80 780.00 L 419.80 775.90 L 422.30 771.50 L 424.20 767.00 L 425.40 762.50 L 426.10 758.00 Z" fill="#d4a37a" fill-rule="evenodd" node-id="34" stroke="none" target-height="397.2" target-width="404.59998" target-x="312.7" target-y="578.2"></path><path d="M 483.10 840.20 L 422.40 820.20" fill="none" node-id="36" stroke="#bb7e4b" stroke-linecap="round" stroke-width="7.06207" target-height="20" target-width="60.700012" target-x="422.4" target-y="820.2"></path><path d="M 561.90 840.20 L 622.60 820.20" fill="none" node-id="38" stroke="#bb7e4b" stroke-linecap="round" stroke-width="7.06207" target-height="20" target-width="60.69995" target-x="561.9" target-y="820.2"></path><path d="M 613.80 632.00 L 606.20 639.20 L 592.40 650.60 L 582.90 657.60 L 568.70 667.00 L 551.70 676.80 L 542.50 681.50 L 532.40 686.10 L 522.20 690.40 L 511.40 694.30 L 499.80 697.90 L 482.10 702.20 L 472.80 703.80 L 463.10 705.20 L 453.40 706.10 L 443.50 706.50 L 433.20 706.60 L 422.70 706.10 L 420.00 668.60 L 412.30 578.20 L 613.80 578.20 L 613.80 632.00 Z" fill="#bb7e4b" fill-rule="evenodd" node-id="40" stroke="none" target-height="128.39996" target-width="201.5" target-x="412.3" target-y="578.2"></path><path d="M 369.20 458.80 L 361.10 452.40 L 357.20 449.90 L 349.30 446.20 L 342.30 444.40 L 338.70 444.10 L 335.10 444.40 L 331.40 445.20 L 328.80 446.20 L 323.60 449.50 L 320.90 451.90 L 319.00 454.40 L 317.40 457.60 L 316.00 461.70 L 315.20 465.90 L 314.60 470.70 L 314.50 476.20 L 315.40 487.50 L 317.80 499.70 L 319.60 505.80 L 321.90 512.10 L 324.60 518.10 L 327.70 523.90 L 331.20 529.60 L 335.10 534.90 L 339.50 539.80 L 344.30 544.40 L 348.20 547.40 L 352.30 550.10 L 356.70 552.40 L 361.50 554.50 L 366.30 556.00 L 371.40 557.20 L 376.90 557.80 L 382.80 558.10 L 369.20 458.80 Z" fill="#d4a37a" fill-rule="evenodd" node-id="42" stroke="none" target-height="113.99997" target-width="68.29999" target-x="314.5" target-y="444.1"></path><path d="M 661.20 458.80 L 669.30 452.40 L 673.20 449.90 L 681.20 446.20 L 688.10 444.40 L 691.70 444.10 L 695.40 444.40 L 699.00 445.20 L 701.60 446.20 L 706.90 449.50 L 709.50 451.90 L 711.40 454.40 L 713.10 457.60 L 714.40 461.70 L 715.30 465.90 L 715.80 470.70 L 716.00 476.20 L 715.10 487.50 L 712.60 499.70 L 710.80 505.80 L 708.50 512.10 L 705.90 518.10 L 702.80 523.90 L 699.30 529.60 L 695.30 534.90 L 691.00 539.80 L 686.10 544.40 L 682.20 547.40 L 678.10 550.10 L 673.70 552.40 L 669.00 554.50 L 664.20 556.00 L 659.00 557.20 L 653.50 557.80 L 647.70 558.10 L 661.20 458.80 Z" fill="#d4a37a" fill-rule="evenodd" node-id="44" stroke="none" target-height="113.99997" target-width="68.29999" target-x="647.7" target-y="444.1"></path><path d="M 511.00 208.70 L 500.80 209.00 L 491.00 209.80 L 481.60 211.10 L 472.60 212.80 L 463.90 215.00 L 455.20 217.80 L 446.90 221.00 L 439.00 224.50 L 431.30 228.50 L 424.00 232.90 L 416.90 237.70 L 410.20 242.90 L 403.70 248.50 L 397.60 254.40 L 391.80 260.60 L 386.40 267.20 L 381.20 274.10 L 376.40 281.20 L 372.00 288.70 L 367.80 296.50 L 364.10 304.50 L 360.70 312.70 L 357.60 321.20 L 354.90 329.90 L 352.50 338.90 L 350.10 350.20 L 348.30 361.90 L 347.10 373.80 L 346.50 386.10 L 346.50 398.40 L 347.10 410.80 L 348.40 423.50 L 350.30 436.50 L 354.20 458.60 L 360.80 489.90 L 376.90 556.30 L 378.40 561.60 L 381.20 568.90 L 384.80 576.50 L 393.30 591.40 L 402.10 604.30 L 407.00 610.70 L 418.30 623.60 L 424.60 629.70 L 431.20 635.70 L 438.40 641.50 L 445.80 646.80 L 453.70 651.80 L 462.10 656.30 L 468.50 659.30 L 475.20 662.00 L 482.10 664.30 L 489.30 666.20 L 496.60 667.80 L 504.10 668.80 L 511.90 669.40 L 520.00 669.50 L 528.20 669.10 L 536.20 668.10 L 543.90 666.60 L 551.40 664.50 L 558.70 661.90 L 565.80 658.90 L 572.70 655.50 L 579.30 651.70 L 587.80 646.20 L 595.90 640.20 L 603.50 633.80 L 610.70 626.90 L 617.30 620.00 L 623.40 612.90 L 629.20 605.60 L 634.40 598.50 L 643.10 584.70 L 649.50 572.50 L 653.80 561.70 L 670.60 491.00 L 673.50 476.30 L 676.40 458.80 L 679.60 436.50 L 681.00 423.40 L 681.80 410.70 L 682.10 398.20 L 681.80 385.90 L 681.00 373.60 L 679.60 361.60 L 677.70 349.90 L 675.20 338.60 L 672.20 327.40 L 668.60 316.60 L 664.60 306.20 L 660.00 296.20 L 655.90 288.40 L 651.50 280.90 L 646.80 273.80 L 641.80 266.90 L 636.50 260.40 L 630.80 254.10 L 624.80 248.30 L 618.50 242.80 L 611.90 237.60 L 605.00 232.80 L 597.80 228.40 L 590.30 224.50 L 582.40 220.90 L 574.20 217.70 L 565.70 215.00 L 557.10 212.80 L 548.10 211.10 L 538.80 209.80 L 529.10 209.00 L 511.00 208.70 Z" fill="#ddb390" fill-rule="evenodd" node-id="46" stroke="none" target-height="460.8" target-width="335.59998" target-x="346.5" target-y="208.7"></path><path d="M 391.90 395.40 L 392.20 393.90 L 393.60 391.70 L 395.90 390.40 L 397.30 390.20 L 397.20 395.50 L 397.30 390.20 L 414.60 391.10 L 434.00 393.00 L 451.90 395.90 L 460.80 397.80 L 469.60 400.10 L 477.70 402.90 L 479.00 403.60 L 479.90 404.50 L 481.00 407.00 L 480.80 409.70 L 480.00 411.00 L 478.00 412.70 L 475.30 413.10 L 466.50 410.30 L 458.30 408.10 L 441.30 404.80 L 424.70 402.60 L 395.70 400.50 L 394.50 400.00 L 392.60 398.10 L 391.90 395.40 Z" fill="#654840" fill-rule="evenodd" node-id="48" stroke="none" target-height="22.899994" target-width="89.100006" target-x="391.9" target-y="390.2"></path><path d="M 634.70 395.40 L 634.50 393.90 L 633.10 391.70 L 630.80 390.40 L 629.30 390.20 L 629.40 395.50 L 629.30 390.20 L 612.10 391.10 L 592.70 393.00 L 574.80 395.90 L 565.80 397.80 L 557.00 400.10 L 548.90 402.90 L 547.70 403.60 L 546.70 404.50 L 545.60 407.00 L 545.90 409.70 L 546.60 411.00 L 548.70 412.70 L 551.30 413.10 L 560.20 410.30 L 568.30 408.10 L 585.30 404.80 L 601.90 402.60 L 630.90 400.50 L 632.20 400.00 L 634.00 398.10 L 634.70 395.40 Z" fill="#654840" fill-rule="evenodd" node-id="50" stroke="none" target-height="22.899994" target-width="89.10004" target-x="545.6" target-y="390.2"></path><path d="M 647.20 314.70 L 649.40 325.30 L 651.10 335.90 L 652.30 346.30 L 653.60 365.20 L 653.70 388.80 L 664.80 405.20 L 676.20 461.30 L 679.00 446.90 L 681.60 430.00 L 685.60 397.00 L 687.10 378.00 L 686.80 365.00 L 685.90 352.50 L 684.60 340.40 L 682.70 328.80 L 680.40 317.60 L 677.90 308.20 L 675.10 299.10 L 671.90 290.40 L 668.40 282.10 L 664.60 274.10 L 660.40 266.50 L 655.70 259.00 L 650.70 251.90 L 645.40 245.10 L 639.70 238.80 L 633.60 232.70 L 627.20 227.10 L 620.50 221.90 L 613.40 217.00 L 605.90 212.60 L 598.00 208.60 L 589.70 205.00 L 580.90 201.70 L 572.20 199.10 L 563.10 196.90 L 553.50 195.10 L 543.40 193.80 L 532.80 193.00 L 521.60 192.70 L 508.60 193.00 L 496.30 193.80 L 484.80 195.00 L 473.90 196.70 L 463.70 198.80 L 454.10 201.30 L 444.20 204.50 L 434.90 208.00 L 426.20 211.90 L 418.00 216.20 L 410.40 220.90 L 403.20 225.90 L 396.30 231.40 L 389.80 237.40 L 383.70 243.60 L 378.10 250.20 L 372.80 257.30 L 368.00 264.70 L 363.70 272.30 L 359.80 280.20 L 356.20 288.50 L 352.90 297.20 L 350.10 306.40 L 347.60 315.90 L 345.30 327.20 L 343.40 339.00 L 342.10 351.40 L 341.30 364.30 L 341.00 377.90 L 341.20 386.80 L 342.50 403.80 L 344.10 416.00 L 345.90 426.90 L 350.00 445.60 L 354.90 462.60 L 361.60 405.20 L 370.50 391.00 L 371.80 388.40 L 372.30 385.50 L 375.80 343.40 L 378.70 324.30 L 380.90 314.50 L 647.20 314.70 Z" fill="#8e685e" fill-rule="evenodd" node-id="52" stroke="none" target-height="269.90002" target-width="346.09998" target-x="341" target-y="192.7"></path><path d="M 641.60 325.30 L 654.50 343.20 L 663.90 358.00 L 668.80 366.40 L 673.50 375.10 L 677.90 384.10 L 680.50 390.20 L 684.70 402.20 L 688.30 368.30 L 690.00 340.20 L 690.20 326.20 L 690.00 314.00 L 689.50 303.20 L 688.50 293.80 L 687.10 283.50 L 685.90 277.90 L 684.10 271.40 L 681.70 264.70 L 675.60 251.60 L 668.20 239.50 L 658.90 226.40 L 652.80 218.80 L 649.50 215.50 L 648.30 214.90 L 646.00 214.70 L 645.10 215.20 L 644.00 216.40 L 642.40 220.00 L 641.30 227.10 L 639.60 221.50 L 637.40 217.10 L 632.90 210.80 L 629.40 206.80 L 625.60 203.10 L 620.80 199.10 L 614.70 194.70 L 609.10 191.20 L 605.50 189.50 L 603.10 188.80 L 600.50 188.80 L 599.00 190.10 L 598.60 192.70 L 598.80 194.60 L 600.40 199.30 L 569.50 169.60 L 561.10 163.10 L 554.50 158.90 L 548.00 155.50 L 541.60 152.60 L 536.00 150.60 L 530.60 149.10 L 526.50 148.30 L 524.40 148.40 L 521.90 149.00 L 518.90 150.30 L 494.90 164.10 L 484.00 169.10 L 470.10 174.40 L 463.20 177.40 L 450.80 184.20 L 440.60 191.10 L 433.80 196.50 L 428.60 201.20 L 417.80 212.20 L 418.60 204.20 L 417.80 200.60 L 417.00 199.70 L 416.00 199.10 L 414.80 198.90 L 413.10 199.30 L 410.60 200.30 L 405.10 204.10 L 401.00 207.60 L 390.80 217.90 L 381.40 228.90 L 365.80 249.60 L 365.40 242.50 L 364.90 240.60 L 363.80 238.70 L 362.40 238.30 L 361.40 238.70 L 360.00 239.80 L 358.00 242.10 L 355.00 246.50 L 348.90 257.80 L 343.20 271.20 L 338.90 284.40 L 336.00 297.20 L 335.50 303.80 L 335.40 311.10 L 335.60 319.80 L 336.70 338.90 L 340.50 378.10 L 344.40 409.60 L 346.50 401.90 L 351.50 387.30 L 355.80 376.80 L 360.30 367.30 L 365.10 358.20 L 374.10 343.00 L 377.90 337.20 L 386.10 325.80 L 411.90 325.40 L 424.70 325.60 L 457.90 326.90 L 477.50 328.20 L 497.80 330.10 L 519.80 332.70 L 533.70 330.50 L 547.80 328.80 L 575.70 326.50 L 601.20 325.40 L 622.20 325.10 L 641.60 325.30 Z" fill="#654840" fill-rule="evenodd" node-id="54" stroke="none" target-height="261.3" target-width="354.80002" target-x="335.4" target-y="148.3"></path><path d="M 535.60 429.30 L 534.10 434.30 L 535.60 429.30 L 536.90 429.90 L 538.00 430.70 L 539.20 433.10 L 539.10 435.90 L 538.50 437.20 L 537.70 438.20 L 535.30 439.50 L 534.00 439.60 L 530.70 439.20 L 529.00 439.50 L 527.50 440.30 L 526.00 442.40 L 525.40 444.30 L 524.80 447.50 L 524.70 451.20 L 525.10 456.50 L 526.00 462.30 L 530.70 482.90 L 532.70 494.00 L 533.30 499.00 L 533.50 503.60 L 533.30 508.00 L 532.50 511.80 L 531.50 514.30 L 530.20 516.60 L 528.40 518.80 L 526.20 520.50 L 523.70 521.70 L 521.00 522.60 L 515.40 523.10 L 512.00 522.90 L 506.90 522.10 L 501.10 520.70 L 498.70 519.30 L 497.40 516.90 L 497.20 515.60 L 497.40 514.10 L 498.00 512.80 L 500.00 511.00 L 502.50 510.30 L 509.30 511.80 L 513.10 512.40 L 516.50 512.50 L 518.70 512.30 L 520.30 511.70 L 521.60 510.40 L 522.30 508.80 L 522.90 503.60 L 522.30 495.50 L 520.50 485.70 L 515.60 464.40 L 514.50 457.70 L 514.10 449.60 L 514.90 442.50 L 515.90 439.20 L 517.20 436.50 L 518.70 434.20 L 522.40 431.00 L 525.80 429.40 L 528.40 428.80 L 532.60 428.70 L 535.60 429.30 Z" fill="#bb6957" fill-rule="evenodd" node-id="56" stroke="none" target-height="94.39996" target-width="42" target-x="497.2" target-y="428.7"></path><path d="M 438.70 478.50 L 443.70 477.70 L 447.60 475.60 L 449.80 473.60 L 451.70 471.20 L 454.60 465.40 L 456.40 458.70 L 457.10 453.50 L 457.30 448.40 L 457.10 445.80 L 456.20 443.00 L 455.50 442.10 L 453.40 441.50 L 451.50 441.70 L 440.90 444.70 L 437.80 444.90 L 434.80 444.60 L 432.10 444.00 L 425.10 441.70 L 423.50 441.50 L 421.70 442.10 L 421.00 443.00 L 420.30 445.80 L 420.40 453.50 L 421.90 462.10 L 424.20 468.40 L 425.80 471.20 L 427.70 473.60 L 429.90 475.60 L 433.80 477.70 L 438.70 478.50 Z" fill="#654840" fill-rule="evenodd" node-id="58" stroke="none" target-height="37" target-width="37" target-x="420.3" target-y="441.5"></path><path d="M 406.70 451.00 L 421.00 449.60 L 430.20 449.10 L 443.90 449.10 L 457.30 450.40 L 461.60 451.20 L 470.00 453.70 L 472.20 453.40 L 474.00 452.00 L 474.90 449.80 L 474.90 448.70 L 474.00 446.60 L 472.10 445.20 L 463.60 442.60 L 458.80 441.70 L 451.60 440.80 L 436.70 440.20 L 420.30 440.80 L 405.40 442.30 L 406.10 446.60 L 405.40 442.30 L 404.30 442.60 L 403.30 443.20 L 402.00 445.00 L 401.70 447.30 L 402.00 448.50 L 403.40 450.20 L 405.50 451.00 L 406.70 451.00 Z" fill="#654840" fill-rule="evenodd" node-id="60" stroke="none" target-height="13.5" target-width="73.19998" target-x="401.7" target-y="440.2"></path><path d="M 589.70 478.50 L 584.70 477.70 L 580.80 475.60 L 578.60 473.60 L 576.70 471.20 L 573.80 465.40 L 572.10 458.70 L 571.40 453.50 L 571.10 448.40 L 571.30 445.80 L 572.20 443.00 L 573.00 442.10 L 575.00 441.50 L 576.90 441.70 L 587.50 444.70 L 590.60 444.90 L 593.60 444.60 L 596.30 444.00 L 603.30 441.70 L 605.00 441.50 L 606.70 442.10 L 607.40 443.00 L 608.10 445.80 L 608.00 453.50 L 606.50 462.10 L 604.20 468.40 L 602.60 471.20 L 600.70 473.60 L 598.50 475.60 L 594.60 477.70 L 589.70 478.50 Z" fill="#654840" fill-rule="evenodd" node-id="62" stroke="none" target-height="37" target-width="37" target-x="571.1" target-y="441.5"></path><path d="M 621.70 451.00 L 607.50 449.60 L 598.30 449.10 L 584.50 449.10 L 571.10 450.40 L 566.80 451.20 L 558.40 453.70 L 556.20 453.40 L 554.40 452.00 L 553.50 449.80 L 553.50 448.70 L 554.40 446.60 L 556.30 445.20 L 564.80 442.60 L 569.60 441.70 L 576.90 440.80 L 591.70 440.20 L 608.10 440.80 L 623.00 442.30 L 622.40 446.60 L 623.00 442.30 L 624.10 442.60 L 625.10 443.20 L 626.40 445.00 L 626.70 447.30 L 626.40 448.50 L 625.00 450.20 L 622.90 451.00 L 621.70 451.00 Z" fill="#654840" fill-rule="evenodd" node-id="64" stroke="none" target-height="13.5" target-width="73.20001" target-x="553.5" target-y="440.2"></path><path d="M 475.90 564.50 L 474.30 563.80 L 473.00 562.80 L 472.10 561.60 L 471.50 560.10 L 471.40 558.60 L 471.70 557.00 L 472.50 555.70 L 473.60 554.90 L 475.00 554.50 L 478.40 554.60 L 488.40 556.80 L 495.00 557.90 L 502.30 558.70 L 517.90 559.30 L 532.60 558.70 L 540.30 557.90 L 559.90 554.50 L 562.00 554.70 L 563.20 555.10 L 564.10 556.00 L 564.80 557.40 L 565.00 559.00 L 564.70 560.50 L 564.00 561.90 L 563.00 563.10 L 561.70 564.00 L 560.00 564.60 L 552.00 566.30 L 537.30 568.40 L 526.60 569.20 L 517.10 569.50 L 501.90 568.90 L 487.30 567.00 L 475.90 564.50 Z" fill="#bb6855" fill-rule="evenodd" node-id="66" stroke="none" target-height="15" target-width="93.600006" target-x="471.4" target-y="554.5"></path><g node-id="89"><path d="M 517.40 595.00 L 511.90 594.70 L 507.50 594.10 L 500.90 592.30 L 497.20 590.50 L 496.50 589.70 L 495.70 587.50 L 496.20 585.20 L 497.70 583.50 L 499.90 582.70 L 501.00 582.80 L 507.70 585.00 L 514.80 586.00 L 522.10 585.80 L 526.00 585.20 L 536.20 582.40 L 537.30 582.40 L 539.40 583.30 L 540.80 585.20 L 541.10 587.50 L 540.10 589.60 L 538.20 591.00 L 532.50 592.90 L 527.20 594.10 L 522.00 594.80 L 517.40 595.00 Z" fill="#bb6855" fill-opacity="0.2" fill-rule="evenodd" group-id="1" node-id="70" stroke="none" target-height="12.599976" target-width="45.399963" target-x="495.7" target-y="582.4"></path></g><path d="M 370.80 423.80 L 371.00 422.40 L 371.80 421.20 L 372.90 420.50 L 374.40 420.20 L 494.30 420.20 L 495.70 420.50 L 496.80 421.20 L 497.60 422.40 L 497.90 423.80 L 497.90 450.20 L 497.70 455.50 L 497.00 460.60 L 496.00 465.50 L 492.90 475.00 L 490.80 479.40 L 485.60 487.70 L 482.60 491.60 L 475.70 498.50 L 467.80 504.20 L 463.50 506.70 L 454.40 510.50 L 449.60 511.90 L 444.70 512.90 L 439.60 513.50 L 434.30 513.80 L 429.00 513.50 L 423.90 512.90 L 419.00 511.90 L 414.20 510.50 L 405.10 506.70 L 400.80 504.20 L 392.90 498.50 L 386.10 491.60 L 383.00 487.70 L 377.90 479.40 L 375.80 475.00 L 372.60 465.50 L 371.60 460.60 L 371.00 455.50 L 370.80 450.20 L 370.80 423.80 Z" fill="none" node-id="73" stroke="#697a8d" stroke-linecap="butt" stroke-width="7.06207" target-height="93.599976" target-width="127.100006" target-x="370.8" target-y="420.2"></path><path d="M 529.70 423.80 L 529.90 422.40 L 530.70 421.20 L 531.80 420.50 L 533.30 420.20 L 653.20 420.20 L 654.60 420.50 L 655.70 421.20 L 656.50 422.40 L 656.80 423.80 L 656.80 450.20 L 656.50 455.50 L 655.90 460.60 L 654.90 465.50 L 651.80 475.00 L 649.70 479.40 L 644.50 487.70 L 641.50 491.60 L 634.60 498.50 L 626.70 504.20 L 622.40 506.70 L 613.30 510.50 L 608.50 511.90 L 603.60 512.90 L 598.50 513.50 L 593.20 513.80 L 587.90 513.50 L 582.80 512.90 L 577.90 511.90 L 573.10 510.50 L 564.00 506.70 L 559.70 504.20 L 551.80 498.50 L 545.00 491.60 L 541.90 487.70 L 536.80 479.40 L 534.70 475.00 L 531.50 465.50 L 530.50 460.60 L 529.90 455.50 L 529.70 450.20 L 529.70 423.80 Z" fill="none" node-id="75" stroke="#697a8d" stroke-linecap="butt" stroke-width="7.06207" target-height="93.599976" target-width="127.099976" target-x="529.7" target-y="420.2"></path><path d="M 497.90 458.20 L 509.40 455.20 L 514.60 454.60 L 519.60 455.20 L 524.50 456.40 L 529.70 458.20" fill="none" node-id="77" stroke="#697a8d" stroke-linecap="butt" stroke-width="7.06207" target-height="3.600006" target-width="31.800018" target-x="497.9" target-y="454.6"></path><path d="M 612.10 796.20 L 627.90 779.20 L 631.70 782.20 L 636.50 785.30 L 648.80 791.50 L 663.80 797.50 L 676.00 801.60 L 703.10 809.20 L 731.30 815.70 L 745.00 818.50 L 770.80 822.80 L 799.90 826.30 L 807.80 827.60 L 824.60 831.40 L 833.20 834.00 L 842.00 837.10 L 850.70 840.60 L 859.20 844.70 L 867.70 849.30 L 873.90 853.10 L 885.60 861.80 L 891.20 866.60 L 896.50 871.80 L 901.40 877.30 L 906.10 883.20 L 910.40 889.50 L 914.20 896.00 L 917.60 903.00 L 920.50 910.50 L 923.00 918.50 L 941.70 1024.10 L 98.30 1024.10 L 109.40 932.60 L 111.20 923.00 L 113.40 914.20 L 116.00 906.10 L 119.10 898.10 L 122.60 890.70 L 126.40 884.00 L 130.40 877.80 L 135.00 871.90 L 139.80 866.50 L 144.90 861.40 L 150.20 856.90 L 161.60 848.70 L 174.00 841.80 L 182.50 837.90 L 191.40 834.50 L 209.80 828.70 L 228.60 824.10 L 242.90 821.20 L 272.80 815.70 L 346.30 807.70 L 358.60 805.40 L 370.10 802.70 L 377.70 800.70 L 390.90 795.90 L 399.70 791.40 L 406.80 786.30 L 410.00 791.90 L 413.90 797.70 L 418.40 803.70 L 423.40 809.30 L 429.00 814.90 L 435.30 820.50 L 440.20 824.30 L 451.20 831.50 L 457.40 834.90 L 463.70 837.80 L 470.30 840.50 L 477.40 842.90 L 485.00 845.00 L 492.60 846.70 L 500.60 847.90 L 509.10 848.80 L 518.20 849.20 L 531.40 848.60 L 543.00 846.70 L 550.40 844.60 L 557.30 842.00 L 563.70 838.90 L 569.80 835.40 L 575.70 831.40 L 581.30 827.10 L 589.30 820.10 L 597.10 812.50 L 612.10 796.20 Z" fill="#ffc17f" fill-rule="nonzero" node-id="79" stroke="none" target-height="244.89996" target-width="843.4" target-x="98.3" target-y="779.2"></path><path d="M 526.10 851.00 L 525.20 852.30 L 523.80 853.50 L 521.70 854.70 L 515.20 856.60 L 504.80 857.80 L 496.00 857.90 L 485.50 857.40 L 474.70 856.40 L 463.00 854.90 L 438.90 850.50 L 426.80 847.70 L 415.10 844.60 L 403.70 841.10 L 393.40 837.40 L 380.80 831.80 L 370.70 826.00 L 366.70 823.00 L 363.70 820.10 L 360.00 815.70 L 357.30 811.90 L 355.50 808.70 L 354.20 805.30 L 353.40 802.30 L 353.20 799.60 L 354.10 794.60 L 355.00 792.40 L 357.00 789.30 L 365.60 779.90 L 367.50 777.50 L 368.80 775.20 L 369.40 771.90 L 368.10 766.20 L 367.70 762.50 L 367.90 758.80 L 368.70 755.20 L 370.00 751.70 L 371.80 748.20 L 374.00 745.10 L 376.70 742.20 L 379.90 739.50 L 383.50 737.30 L 387.40 735.50 L 391.90 734.10 L 398.90 733.10 L 402.80 733.20 L 407.00 733.60 L 413.00 735.00 L 415.30 736.00 L 419.20 738.70 L 422.70 743.00 L 425.50 749.00 L 431.80 768.60 L 436.20 778.10 L 439.40 783.30 L 442.80 788.30 L 450.70 797.50 L 459.40 805.80 L 466.40 811.40 L 473.60 816.50 L 487.90 825.40 L 513.90 839.40 L 521.00 843.60 L 524.30 846.20 L 525.60 847.60 L 526.20 848.80 L 526.40 849.90 L 526.10 851.00 Z" fill="#d88f42" fill-rule="evenodd" node-id="81" stroke="none" target-height="124.80005" target-width="173.20001" target-x="353.2" target-y="733.1"></path><path d="M 508.40 849.20 L 509.30 850.50 L 510.80 851.80 L 512.80 852.90 L 519.30 854.90 L 529.70 856.00 L 538.50 856.10 L 549.00 855.70 L 559.80 854.70 L 571.60 853.10 L 595.70 848.80 L 607.80 846.00 L 619.50 842.80 L 630.80 839.30 L 641.10 835.60 L 653.70 830.10 L 663.80 824.20 L 667.80 821.20 L 670.80 818.30 L 674.30 814.20 L 678.70 807.50 L 680.10 804.20 L 681.00 801.30 L 681.30 798.80 L 680.80 793.90 L 680.00 791.70 L 678.40 788.70 L 675.60 785.10 L 667.30 776.20 L 665.80 773.60 L 665.20 771.80 L 665.10 770.00 L 666.50 764.40 L 666.80 760.80 L 666.60 757.10 L 665.80 753.40 L 664.60 749.90 L 662.80 746.50 L 660.50 743.30 L 657.80 740.40 L 654.60 737.70 L 651.10 735.50 L 647.10 733.70 L 642.70 732.30 L 635.70 731.40 L 631.80 731.40 L 627.60 731.80 L 621.20 733.40 L 618.80 734.50 L 614.70 737.50 L 613.20 739.20 L 611.20 742.30 L 608.90 747.70 L 602.70 766.80 L 598.30 776.30 L 595.00 781.80 L 591.40 787.00 L 583.10 796.50 L 573.90 805.00 L 566.50 810.80 L 559.10 816.00 L 544.20 825.00 L 520.60 837.70 L 513.60 841.90 L 510.30 844.40 L 508.90 845.80 L 508.30 847.10 L 508.10 848.20 L 508.40 849.20 Z" fill="#d88f42" fill-rule="evenodd" node-id="83" stroke="none" target-height="124.69995" target-width="173.19998" target-x="508.1" target-y="731.4"></path><path d="M 492.60 844.80 L 492.40 843.60 L 491.30 841.70 L 489.30 840.60 L 488.10 840.40 L 485.90 841.00 L 484.30 842.60 L 483.90 843.70 L 484.40 945.80 L 481.80 947.10 L 479.50 948.80 L 477.60 950.90 L 476.20 953.40 L 475.20 956.20 L 474.90 959.20 L 475.30 962.20 L 476.20 965.00 L 477.60 967.50 L 479.60 969.70 L 481.90 971.40 L 484.60 972.60 L 484.80 984.60 L 485.20 985.60 L 486.80 987.20 L 489.10 987.80 L 491.30 987.10 L 492.90 985.50 L 493.30 984.50 L 493.40 972.60 L 496.10 971.40 L 498.50 969.70 L 500.40 967.60 L 501.90 965.10 L 503.00 961.30 L 503.20 959.20 L 502.60 955.10 L 501.90 953.30 L 500.40 950.70 L 498.40 948.60 L 496.00 946.90 L 493.20 945.70 L 492.60 844.80 Z" fill="#d88f42" fill-rule="nonzero" node-id="85" stroke="none" target-height="147.39996" target-width="28.300018" target-x="474.9" target-y="840.4"></path><path d="M 540.90 945.80 L 538.30 947.10 L 536.00 948.80 L 534.10 950.90 L 532.70 953.40 L 531.70 956.20 L 531.40 959.20 L 531.70 962.20 L 532.70 965.00 L 534.10 967.50 L 536.10 969.70 L 538.40 971.40 L 541.10 972.60 L 541.30 984.60 L 541.70 985.60 L 543.30 987.20 L 545.60 987.80 L 546.80 987.60 L 547.80 987.10 L 549.40 985.50 L 550.00 983.30 L 549.90 972.60 L 552.60 971.40 L 554.90 969.70 L 556.90 967.60 L 558.40 965.10 L 559.10 963.20 L 559.70 959.20 L 559.10 955.10 L 558.40 953.30 L 556.90 950.70 L 554.90 948.60 L 552.50 946.90 L 549.70 945.70 L 549.10 844.80 L 548.50 842.60 L 546.90 841.00 L 544.60 840.40 L 542.40 841.00 L 540.80 842.60 L 540.20 844.90 L 540.90 945.80 Z" fill="#d88f42" fill-rule="nonzero" node-id="87" stroke="none" target-height="147.39996" target-width="28.299988" target-x="531.4" target-y="840.4"></path></svg>