<?xml version="1.0" standalone="no"?><!DOCTYPE svg PUBLIC "-//W3C//DTD SVG 1.1//EN" "http://www.w3.org/Graphics/SVG/1.1/DTD/svg11.dtd"><svg height="1024" node-id="1" sillyvg="true" template-height="1024" template-width="1024" version="1.1" viewBox="0 0 1024 1024" width="1024" xmlns="http://www.w3.org/2000/svg" xmlns:xlink="http://www.w3.org/1999/xlink"><defs node-id="27"></defs><path d="M 0.00 0.00 L 1024.00 0.00 L 1024.00 1024.00 L 0.00 1024.00 Z" fill="#ffe1be" fill-rule="nonzero" node-id="29" stroke="none" target-height="1024" target-width="1024" target-x="0" target-y="0"></path><path d="M 462.00 935.90 L 514.70 938.70 L 539.50 939.70 L 576.90 940.30 L 602.90 939.50 L 615.30 938.50 L 626.20 937.10 L 635.80 935.40 L 643.10 933.60 L 649.30 931.50 L 654.80 929.30 L 660.50 926.40 L 666.80 925.70 L 673.20 925.60 L 703.80 926.10 L 729.20 927.20 L 829.30 932.50 L 848.30 933.20 L 851.60 932.50 L 859.50 931.70 L 862.30 931.10 L 865.10 929.80 L 868.60 927.00 L 871.80 922.20 L 873.20 918.80 L 875.70 909.90 L 876.70 904.20 L 878.00 890.00 L 878.30 881.30 L 877.80 846.50 L 877.20 836.00 L 875.50 821.30 L 873.10 810.80 L 871.50 805.80 L 869.60 800.80 L 864.90 791.00 L 858.30 780.40 L 852.50 772.20 L 837.10 752.60 L 803.40 712.80 L 800.60 709.00 L 798.40 705.10 L 796.90 701.00 L 795.90 696.70 L 795.30 692.20 L 795.10 687.50 L 795.30 680.20 L 798.30 647.80 L 798.50 639.00 L 797.70 627.10 L 796.60 621.00 L 795.10 615.00 L 792.90 608.80 L 790.10 602.50 L 784.70 593.30 L 777.20 583.70 L 756.40 560.90 L 747.40 550.10 L 742.20 541.80 L 739.20 534.70 L 737.30 526.70 L 736.70 521.90 L 736.10 514.30 L 735.80 504.60 L 737.60 437.40 L 737.40 427.40 L 736.80 418.30 L 734.40 401.40 L 730.90 386.30 L 728.90 379.70 L 725.50 370.90 L 721.90 363.00 L 718.10 355.90 L 709.50 342.70 L 698.10 328.60 L 684.70 313.70 L 674.60 301.90 L 671.10 297.00 L 661.60 281.70 L 655.30 272.40 L 649.10 264.20 L 643.00 256.90 L 636.30 249.80 L 629.70 243.50 L 623.30 238.10 L 617.00 233.40 L 610.30 228.90 L 603.70 225.10 L 597.30 221.90 L 591.10 219.30 L 584.60 217.10 L 572.20 213.90 L 566.30 212.90 L 558.20 212.10 L 550.70 211.80 L 543.60 212.10 L 536.50 212.70 L 524.10 214.80 L 515.60 217.10 L 508.90 219.30 L 502.90 221.70 L 495.40 225.20 L 486.50 223.80 L 471.30 222.40 L 461.30 222.10 L 450.80 222.20 L 438.80 223.00 L 422.20 225.20 L 413.30 226.90 L 404.50 229.10 L 395.40 231.80 L 386.20 235.20 L 372.70 241.20 L 359.20 249.00 L 352.70 253.40 L 346.30 258.20 L 339.90 263.70 L 333.60 269.60 L 327.80 275.80 L 322.10 282.60 L 316.50 290.10 L 311.10 298.30 L 306.30 306.60 L 301.70 315.70 L 297.30 325.50 L 293.20 336.30 L 289.00 343.40 L 285.00 349.30 L 280.90 354.80 L 268.70 368.70 L 261.00 378.50 L 256.40 386.20 L 254.10 390.90 L 250.10 401.10 L 246.50 413.90 L 244.90 421.40 L 242.30 438.80 L 241.20 448.90 L 240.30 460.60 L 239.40 478.60 L 239.00 500.60 L 239.50 508.40 L 239.40 515.10 L 238.80 520.90 L 237.70 526.60 L 236.20 531.60 L 234.30 535.90 L 229.60 544.00 L 222.40 552.60 L 212.80 562.50 L 205.00 571.40 L 199.40 579.80 L 197.00 584.40 L 194.90 589.70 L 193.00 595.70 L 191.60 601.80 L 190.60 608.90 L 190.10 617.20 L 190.10 625.40 L 190.70 634.90 L 192.90 654.20 L 193.10 661.90 L 192.70 669.20 L 191.80 676.40 L 190.40 683.30 L 188.60 690.00 L 184.00 703.10 L 176.70 719.10 L 162.30 749.40 L 156.40 764.00 L 151.50 779.80 L 149.50 788.40 L 147.80 797.50 L 146.70 806.70 L 146.10 816.70 L 146.00 827.50 L 147.00 837.70 L 148.40 847.10 L 150.30 855.80 L 152.50 863.70 L 155.40 871.70 L 158.50 879.00 L 161.90 885.80 L 165.70 892.00 L 169.90 898.00 L 174.30 903.60 L 178.90 908.70 L 183.70 913.40 L 190.60 919.20 L 197.60 924.50 L 204.90 929.10 L 212.50 933.30 L 220.10 937.00 L 227.70 940.30 L 239.20 944.60 L 250.30 948.20 L 288.30 958.40 L 304.40 965.50 L 318.30 970.10 L 325.30 971.90 L 337.90 974.10 L 343.60 974.50 L 351.40 974.60 L 358.60 974.20 L 365.20 973.20 L 371.80 971.70 L 378.00 969.90 L 383.90 967.70 L 392.40 964.00 L 400.40 959.80 L 423.20 946.80 L 435.50 940.80 L 445.70 937.40 L 450.90 936.40 L 456.30 935.80 L 462.00 935.90 Z" fill="#232e36" fill-rule="evenodd" node-id="31" stroke="none" target-height="762.8" target-width="732.3" target-x="146" target-y="211.8"></path><path d="M 404.90 786.50 L 390.80 602.70 L 596.90 602.70 L 596.90 786.50 L 598.10 797.00 L 600.60 807.90 L 602.60 813.40 L 605.10 818.90 L 610.00 826.80 L 613.00 830.60 L 616.60 834.50 L 620.40 838.00 L 624.80 841.50 L 629.80 844.80 L 635.50 848.10 L 641.20 851.00 L 647.80 853.60 L 655.20 856.10 L 663.60 858.50 L 671.80 860.30 L 681.00 861.90 L 691.30 863.30 L 702.80 864.30 L 702.10 873.10 L 701.90 882.40 L 702.50 911.40 L 702.20 921.20 L 701.50 927.60 L 700.50 934.00 L 699.00 940.40 L 697.50 945.00 L 693.40 954.10 L 690.80 958.50 L 687.80 962.70 L 684.30 966.80 L 680.30 970.90 L 675.50 974.90 L 670.60 978.50 L 665.00 982.00 L 658.50 985.50 L 651.00 988.90 L 643.70 991.80 L 635.40 994.50 L 625.90 997.20 L 615.30 999.70 L 593.40 1003.60 L 580.40 1005.20 L 552.20 1007.60 L 520.00 1008.90 L 482.80 1008.80 L 450.40 1007.40 L 421.70 1004.80 L 408.50 1003.10 L 386.00 999.10 L 374.90 996.50 L 365.10 993.80 L 356.30 991.00 L 348.60 988.10 L 340.60 984.70 L 333.70 981.20 L 327.50 977.70 L 322.20 974.10 L 316.90 970.10 L 312.30 966.00 L 308.30 962.00 L 304.90 957.90 L 301.70 953.50 L 296.70 944.70 L 294.80 940.30 L 292.80 934.10 L 291.20 928.00 L 290.10 921.90 L 289.20 912.70 L 288.90 903.70 L 289.40 878.10 L 289.20 870.60 L 297.60 870.70 L 305.60 870.20 L 313.30 869.10 L 320.70 867.60 L 328.10 865.50 L 335.10 863.10 L 341.90 860.30 L 348.30 857.10 L 354.50 853.50 L 366.00 845.70 L 371.20 841.50 L 377.80 835.40 L 383.60 829.30 L 388.70 823.00 L 393.40 816.40 L 397.20 810.10 L 400.20 803.90 L 402.10 799.10 L 403.50 794.60 L 404.90 786.50 Z" fill="#fbbfb1" fill-rule="evenodd" node-id="33" stroke="none" target-height="406.2" target-width="413.9" target-x="288.9" target-y="602.7"></path><path d="M 596.90 657.70 L 589.00 665.10 L 575.00 676.70 L 565.30 683.80 L 550.70 693.50 L 533.40 703.50 L 523.90 708.30 L 513.60 713.10 L 503.20 717.40 L 492.10 721.40 L 480.30 725.10 L 462.20 729.50 L 452.60 731.20 L 442.70 732.50 L 432.80 733.50 L 422.70 733.90 L 412.20 733.90 L 401.40 733.50 L 398.60 695.10 L 390.80 602.70 L 596.90 602.70 L 596.90 657.70 Z" fill="#e99885" fill-rule="evenodd" node-id="35" stroke="none" target-height="131.20001" target-width="206.10004" target-x="390.8" target-y="602.7"></path><path d="M 346.70 480.50 L 342.00 476.50 L 338.40 473.90 L 334.40 471.40 L 326.30 467.60 L 319.20 465.80 L 315.50 465.50 L 311.80 465.80 L 308.00 466.60 L 305.30 467.60 L 302.70 469.00 L 300.00 471.00 L 297.30 473.50 L 294.50 477.50 L 293.30 480.20 L 291.40 487.80 L 290.90 492.70 L 290.70 498.30 L 291.60 509.90 L 294.10 522.40 L 296.00 528.60 L 298.30 535.00 L 301.00 541.20 L 304.20 547.10 L 307.80 552.90 L 311.80 558.40 L 316.30 563.40 L 321.20 568.00 L 325.20 571.10 L 329.40 573.90 L 333.90 576.30 L 338.70 578.40 L 343.70 580.00 L 348.90 581.10 L 354.50 581.80 L 360.50 582.00 L 346.70 480.50 Z" fill="#fbbfb1" fill-rule="evenodd" node-id="37" stroke="none" target-height="116.5" target-width="69.79999" target-x="290.7" target-y="465.5"></path><path d="M 645.40 480.50 L 650.00 476.50 L 653.60 473.90 L 657.70 471.40 L 665.80 467.60 L 672.90 465.80 L 676.60 465.50 L 680.30 465.80 L 684.10 466.60 L 686.70 467.60 L 689.40 469.00 L 692.10 471.00 L 694.80 473.50 L 697.60 477.50 L 698.80 480.20 L 700.70 487.80 L 701.20 492.70 L 701.40 498.30 L 700.50 509.90 L 698.00 522.40 L 696.10 528.60 L 693.80 535.00 L 691.00 541.20 L 687.90 547.10 L 684.30 552.90 L 680.30 558.40 L 675.80 563.40 L 670.90 568.00 L 666.90 571.10 L 662.60 573.90 L 658.10 576.30 L 653.30 578.40 L 648.40 580.00 L 643.10 581.10 L 637.50 581.80 L 631.50 582.00 L 645.40 480.50 Z" fill="#fbbfb1" fill-rule="evenodd" node-id="39" stroke="none" target-height="116.5" target-width="69.900024" target-x="631.5" target-y="465.5"></path><path d="M 491.70 224.70 L 481.30 225.00 L 471.30 225.80 L 461.70 227.10 L 452.40 228.90 L 443.60 231.20 L 434.70 234.00 L 426.20 237.20 L 418.00 240.90 L 410.20 245.00 L 402.70 249.50 L 395.50 254.40 L 388.60 259.70 L 382.00 265.40 L 375.70 271.40 L 369.80 277.80 L 364.20 284.50 L 359.00 291.50 L 354.10 298.90 L 349.50 306.50 L 345.20 314.50 L 341.40 322.70 L 337.90 331.10 L 334.80 339.70 L 332.00 348.70 L 329.60 357.90 L 327.60 367.10 L 326.00 376.60 L 324.80 386.20 L 323.90 396.10 L 323.40 406.20 L 323.40 418.70 L 324.10 431.40 L 325.30 444.40 L 327.30 457.70 L 331.30 480.30 L 338.10 512.30 L 354.50 580.20 L 356.10 585.70 L 359.00 593.10 L 362.60 600.90 L 371.30 616.20 L 380.30 629.30 L 385.30 635.90 L 396.90 649.00 L 403.30 655.40 L 410.10 661.50 L 417.40 667.40 L 425.10 672.90 L 433.10 677.90 L 441.70 682.60 L 448.20 685.60 L 455.10 688.30 L 462.20 690.70 L 469.50 692.70 L 476.90 694.30 L 484.60 695.30 L 492.60 695.90 L 500.90 696.10 L 508.30 695.70 L 515.50 694.90 L 522.40 693.70 L 529.20 692.00 L 535.90 690.00 L 542.40 687.60 L 554.80 681.70 L 562.70 677.20 L 570.30 672.20 L 577.50 666.90 L 584.40 661.10 L 591.00 655.20 L 602.90 642.60 L 613.20 630.00 L 617.90 623.40 L 625.70 611.30 L 630.70 602.40 L 634.30 594.70 L 637.90 585.30 L 655.00 513.40 L 658.00 498.40 L 660.90 480.50 L 664.20 457.70 L 665.60 444.40 L 666.50 431.30 L 666.70 418.50 L 666.50 405.90 L 665.60 393.30 L 664.20 381.10 L 662.20 369.20 L 659.70 357.60 L 656.60 346.10 L 652.90 335.00 L 648.80 324.40 L 644.10 314.20 L 640.00 306.20 L 635.50 298.60 L 630.70 291.30 L 625.50 284.30 L 620.10 277.60 L 614.30 271.20 L 608.20 265.20 L 601.70 259.50 L 594.90 254.20 L 587.80 249.30 L 580.50 244.90 L 572.80 240.80 L 564.80 237.20 L 556.40 233.90 L 547.60 231.10 L 538.90 228.90 L 529.70 227.10 L 520.20 225.80 L 510.20 225.00 L 491.70 224.70 Z" fill="#ffd0c5" fill-rule="evenodd" node-id="41" stroke="none" target-height="471.39996" target-width="343.30002" target-x="323.4" target-y="224.7"></path><path d="M 369.90 415.60 L 370.20 414.20 L 371.60 411.80 L 374.00 410.50 L 375.50 410.30 L 375.40 415.70 L 375.50 410.30 L 393.10 411.20 L 412.90 413.20 L 431.20 416.10 L 440.40 418.10 L 449.40 420.50 L 457.70 423.30 L 459.00 424.00 L 459.90 425.00 L 461.10 427.50 L 460.80 430.30 L 460.10 431.60 L 457.90 433.30 L 455.20 433.80 L 446.20 430.90 L 437.80 428.60 L 420.40 425.20 L 403.50 423.10 L 373.80 420.90 L 372.50 420.40 L 370.60 418.40 L 369.90 415.60 Z" fill="#654840" fill-rule="evenodd" node-id="43" stroke="none" target-height="23.5" target-width="91.20001" target-x="369.9" target-y="410.3"></path><path d="M 618.20 415.60 L 618.00 414.20 L 616.60 411.80 L 614.20 410.50 L 612.70 410.30 L 612.80 415.70 L 612.70 410.30 L 595.10 411.20 L 575.20 413.20 L 557.00 416.10 L 547.80 418.10 L 538.80 420.50 L 530.50 423.30 L 529.20 424.00 L 528.20 425.00 L 527.10 427.50 L 527.40 430.30 L 528.10 431.60 L 530.30 433.30 L 533.00 433.80 L 542.00 430.90 L 550.40 428.60 L 567.80 425.20 L 584.70 423.10 L 614.40 420.90 L 615.60 420.40 L 617.60 418.40 L 618.20 415.60 Z" fill="#654840" fill-rule="evenodd" node-id="45" stroke="none" target-height="23.5" target-width="91.10004" target-x="527.1" target-y="410.3"></path><path d="M 375.60 358.20 L 357.20 379.90 L 365.30 381.10 L 360.80 385.50 L 357.60 389.70 L 353.20 396.70 L 348.60 406.80 L 344.40 420.00 L 342.70 427.30 L 341.30 435.70 L 340.20 445.50 L 339.60 455.20 L 339.60 466.30 L 340.10 483.50 L 339.50 487.90 L 338.40 492.10 L 336.90 495.70 L 334.20 499.50 L 331.20 501.80 L 329.60 502.20 L 328.00 502.20 L 326.50 501.60 L 324.80 500.40 L 323.00 498.40 L 317.70 483.70 L 313.20 469.50 L 309.30 455.90 L 306.20 442.80 L 303.80 430.20 L 301.80 417.00 L 300.40 404.40 L 299.70 392.30 L 299.50 380.70 L 299.90 369.40 L 300.90 358.00 L 302.30 347.00 L 304.30 336.50 L 306.70 326.40 L 309.60 316.70 L 313.10 307.00 L 317.00 297.80 L 321.30 288.90 L 326.10 280.50 L 331.20 272.40 L 336.80 264.60 L 342.80 257.10 L 349.10 250.10 L 355.80 243.40 L 362.80 237.10 L 370.20 231.20 L 377.80 225.60 L 385.80 220.50 L 394.10 215.70 L 402.70 211.30 L 411.40 207.30 L 420.40 203.70 L 429.70 200.60 L 439.20 197.80 L 449.00 195.40 L 458.80 193.50 L 468.90 192.00 L 479.10 190.90 L 489.50 190.20 L 500.10 190.00 L 510.60 190.30 L 520.60 191.00 L 530.10 192.10 L 539.20 193.60 L 547.80 195.50 L 556.00 197.80 L 564.40 200.60 L 572.30 203.80 L 579.90 207.20 L 587.20 211.10 L 594.10 215.20 L 600.70 219.70 L 608.40 225.60 L 615.70 231.90 L 622.50 238.60 L 629.00 245.80 L 635.10 253.40 L 640.80 261.40 L 646.20 269.60 L 651.20 278.30 L 655.90 287.30 L 660.30 296.80 L 665.20 308.80 L 669.60 321.20 L 673.60 334.10 L 677.10 347.50 L 680.10 361.00 L 682.70 374.80 L 684.90 388.90 L 686.70 403.30 L 688.00 417.80 L 689.60 447.10 L 689.90 462.10 L 689.70 481.90 L 689.00 501.70 L 687.80 521.40 L 679.00 523.60 L 671.10 525.20 L 663.90 526.00 L 657.30 526.20 L 650.50 525.90 L 644.30 525.00 L 638.70 523.60 L 633.50 521.70 L 628.40 519.30 L 623.80 516.50 L 619.50 513.30 L 615.50 509.70 L 611.80 505.70 L 608.40 501.40 L 605.30 496.70 L 602.40 491.70 L 599.00 484.70 L 596.00 477.30 L 593.30 469.40 L 591.10 461.40 L 587.40 444.60 L 585.40 431.80 L 583.80 418.90 L 578.80 361.60 L 577.60 353.40 L 576.30 347.20 L 574.70 341.70 L 572.80 336.90 L 570.80 332.70 L 568.20 328.70 L 565.50 325.20 L 562.60 322.20 L 559.50 319.70 L 552.70 315.60 L 545.30 312.90 L 540.20 311.80 L 534.90 311.10 L 529.50 310.90 L 518.70 311.60 L 505.70 314.10 L 498.60 316.00 L 486.20 320.30 L 474.70 325.40 L 432.30 317.10 L 433.50 329.70 L 419.60 327.50 L 409.30 326.80 L 404.00 326.90 L 398.70 327.40 L 393.90 328.40 L 387.50 332.60 L 382.30 336.50 L 374.10 343.80 L 368.70 349.90 L 364.10 356.70 L 363.00 359.30 L 366.10 358.50 L 375.60 358.20 Z" fill="#232e36" fill-rule="evenodd" node-id="47" stroke="none" target-height="336.2" target-width="390.40002" target-x="299.5" target-y="190"></path><path d="M 516.90 450.30 L 515.30 455.40 L 516.90 450.30 L 518.30 450.90 L 519.30 451.80 L 520.60 454.20 L 520.50 457.10 L 519.90 458.40 L 519.00 459.40 L 516.60 460.70 L 515.20 460.90 L 511.90 460.50 L 510.10 460.70 L 508.60 461.60 L 507.10 463.80 L 506.40 465.70 L 505.80 469.00 L 505.70 472.80 L 506.10 478.20 L 507.00 484.10 L 511.90 505.20 L 514.00 516.60 L 514.50 521.60 L 514.70 526.30 L 514.50 530.80 L 513.70 534.80 L 512.70 537.30 L 511.30 539.70 L 509.50 541.90 L 507.20 543.60 L 504.80 544.90 L 502.00 545.80 L 496.20 546.30 L 492.80 546.10 L 487.60 545.30 L 481.60 543.80 L 479.20 542.40 L 477.80 540.00 L 477.60 538.60 L 477.80 537.10 L 478.40 535.80 L 480.40 533.90 L 483.10 533.20 L 490.00 534.70 L 493.90 535.30 L 497.40 535.50 L 499.60 535.20 L 501.20 534.60 L 502.60 533.30 L 503.30 531.60 L 503.90 526.30 L 503.20 518.10 L 501.40 508.00 L 496.40 486.30 L 495.30 479.40 L 494.90 471.20 L 495.70 463.90 L 496.70 460.50 L 498.00 457.70 L 499.60 455.30 L 503.30 452.10 L 506.90 450.40 L 509.50 449.80 L 513.80 449.70 L 516.90 450.30 Z" fill="#dd936f" fill-rule="evenodd" node-id="49" stroke="none" target-height="96.599976" target-width="42.99997" target-x="477.6" target-y="449.7"></path><path d="M 417.80 509.70 L 420.40 509.40 L 422.80 508.70 L 425.10 507.50 L 427.40 505.80 L 431.10 501.40 L 432.70 498.50 L 435.20 491.60 L 436.60 483.60 L 436.80 479.00 L 436.60 474.30 L 435.20 466.30 L 432.70 459.40 L 431.10 456.50 L 427.40 452.10 L 425.10 450.40 L 422.80 449.20 L 420.40 448.50 L 417.80 448.30 L 415.20 448.50 L 412.80 449.20 L 410.50 450.40 L 408.20 452.10 L 404.50 456.50 L 402.90 459.40 L 400.30 466.30 L 399.00 474.30 L 398.80 479.00 L 399.00 483.60 L 400.30 491.60 L 402.90 498.50 L 404.50 501.40 L 408.20 505.80 L 410.50 507.50 L 412.80 508.70 L 415.20 509.40 L 417.80 509.70 Z" fill="#654840" fill-rule="evenodd" node-id="51" stroke="none" target-height="61.400024" target-width="38" target-x="398.8" target-y="448.3"></path><path d="M 565.90 509.70 L 568.40 509.40 L 570.90 508.70 L 573.20 507.50 L 575.40 505.80 L 579.20 501.40 L 580.80 498.50 L 583.30 491.60 L 584.60 483.60 L 584.80 479.00 L 584.10 470.10 L 582.30 462.80 L 580.80 459.40 L 579.20 456.50 L 575.40 452.10 L 573.20 450.40 L 570.90 449.20 L 568.40 448.50 L 565.90 448.30 L 563.30 448.50 L 560.90 449.20 L 558.60 450.40 L 556.30 452.10 L 552.60 456.50 L 551.00 459.40 L 548.40 466.30 L 547.10 474.30 L 546.90 479.00 L 547.10 483.60 L 548.40 491.60 L 551.00 498.50 L 552.60 501.40 L 556.30 505.80 L 558.60 507.50 L 560.90 508.70 L 563.30 509.40 L 565.90 509.70 Z" fill="#654840" fill-rule="evenodd" node-id="53" stroke="none" target-height="61.400024" target-width="37.899963" target-x="546.9" target-y="448.3"></path><g node-id="80"><path d="M 424.70 547.50 L 424.40 552.30 L 423.50 556.90 L 421.90 561.20 L 419.90 565.30 L 417.40 569.00 L 414.40 572.40 L 411.00 575.30 L 407.30 577.90 L 403.20 579.90 L 398.90 581.40 L 394.30 582.30 L 389.50 582.70 L 384.70 582.30 L 380.10 581.40 L 375.80 579.90 L 371.70 577.90 L 368.00 575.30 L 364.60 572.40 L 361.60 569.00 L 359.10 565.30 L 357.10 561.20 L 355.50 556.90 L 354.60 552.30 L 354.30 547.50 L 354.60 542.60 L 355.50 538.10 L 357.10 533.80 L 359.10 529.70 L 361.60 526.00 L 364.60 522.60 L 368.00 519.60 L 371.70 517.10 L 375.80 515.00 L 380.10 513.50 L 384.70 512.60 L 389.50 512.30 L 394.30 512.60 L 398.90 513.50 L 403.20 515.00 L 407.30 517.10 L 411.00 519.60 L 414.40 522.60 L 417.40 525.90 L 419.90 529.70 L 421.90 533.80 L 423.50 538.10 L 424.40 542.60 L 424.70 547.50 Z" fill="#ffd2b9" fill-opacity="0.604969" fill-rule="nonzero" group-id="1" node-id="57" stroke="none" target-height="70.400024" target-width="70.400024" target-x="354.3" target-y="512.3"></path></g><g node-id="81"><path d="M 637.80 547.50 L 637.50 552.30 L 636.60 556.90 L 635.00 561.20 L 633.00 565.30 L 630.50 569.00 L 627.50 572.40 L 624.10 575.30 L 620.40 577.90 L 616.30 579.90 L 612.00 581.40 L 607.40 582.30 L 602.60 582.70 L 597.80 582.30 L 593.20 581.40 L 588.90 579.90 L 584.80 577.90 L 581.10 575.30 L 577.70 572.40 L 574.70 569.00 L 572.20 565.30 L 570.20 561.20 L 568.60 556.90 L 567.70 552.30 L 567.40 547.50 L 567.70 542.60 L 568.60 538.10 L 570.20 533.80 L 572.20 529.70 L 574.70 525.90 L 577.70 522.60 L 581.10 519.60 L 584.80 517.10 L 588.90 515.00 L 593.20 513.50 L 597.80 512.60 L 602.60 512.30 L 607.40 512.60 L 612.00 513.50 L 616.30 515.00 L 620.40 517.10 L 624.10 519.60 L 627.50 522.60 L 630.50 525.90 L 633.00 529.70 L 635.00 533.80 L 636.60 538.10 L 637.50 542.60 L 637.80 547.50 Z" fill="#ffd2b9" fill-opacity="0.604969" fill-rule="nonzero" group-id="2" node-id="62" stroke="none" target-height="70.400024" target-width="70.39996" target-x="567.4" target-y="512.3"></path></g><path d="M 671.50 577.40 L 670.90 584.10 L 669.30 589.70 L 667.10 593.70 L 665.60 595.20 L 664.10 596.00 L 662.50 596.30 L 660.90 596.00 L 659.40 595.20 L 657.90 593.70 L 655.70 589.70 L 654.70 586.90 L 653.60 580.90 L 653.60 573.90 L 654.70 567.80 L 655.70 565.00 L 657.90 561.00 L 659.40 559.50 L 660.90 558.70 L 662.50 558.40 L 664.10 558.70 L 665.60 559.50 L 667.10 561.00 L 668.30 562.80 L 669.30 565.00 L 670.90 570.70 L 671.50 577.40 Z" fill="#ffffff" fill-rule="nonzero" node-id="65" stroke="none" target-height="37.899963" target-width="17.900024" target-x="653.6" target-y="558.4"></path><path d="M 337.40 577.40 L 336.80 584.10 L 335.20 589.70 L 333.00 593.70 L 331.50 595.20 L 330.00 596.00 L 328.40 596.30 L 326.80 596.00 L 325.30 595.20 L 323.80 593.70 L 321.60 589.70 L 320.60 586.90 L 319.50 580.90 L 319.50 573.90 L 320.60 567.80 L 321.60 565.00 L 323.80 561.00 L 325.30 559.50 L 326.80 558.70 L 328.40 558.40 L 330.00 558.70 L 331.50 559.50 L 333.00 561.00 L 334.20 562.80 L 335.20 565.00 L 336.90 570.70 L 337.40 577.40 Z" fill="#ffffff" fill-rule="nonzero" node-id="67" stroke="none" target-height="37.899963" target-width="17.899994" target-x="319.5" target-y="558.4"></path><path d="M 470.50 593.40 L 468.90 592.80 L 467.60 591.80 L 466.70 590.50 L 466.20 589.10 L 466.30 587.60 L 467.00 586.10 L 468.80 583.90 L 470.50 582.90 L 473.40 583.00 L 482.30 584.80 L 488.70 585.50 L 498.90 586.00 L 510.60 585.30 L 516.60 584.40 L 522.90 583.00 L 525.80 583.00 L 528.10 584.30 L 529.60 586.80 L 529.80 588.30 L 529.00 590.90 L 527.10 592.90 L 525.80 593.40 L 518.70 595.10 L 511.80 596.10 L 505.10 596.70 L 492.90 596.70 L 480.70 595.50 L 470.50 593.40 Z" fill="#c14e45" fill-rule="nonzero" node-id="69" stroke="none" target-height="13.799988" target-width="63.599976" target-x="466.2" target-y="582.9"></path><g node-id="82"><path d="M 512.50 606.00 L 512.90 608.80 L 511.80 611.40 L 509.50 613.10 L 504.00 614.70 L 497.70 615.10 L 494.70 614.80 L 491.90 614.30 L 487.90 613.10 L 490.00 608.10 L 487.90 613.10 L 485.70 611.30 L 484.70 608.80 L 485.00 606.00 L 486.80 603.70 L 489.30 602.70 L 490.70 602.70 L 496.20 604.10 L 498.20 604.30 L 502.90 603.80 L 506.90 602.70 L 508.30 602.70 L 510.80 603.80 L 512.50 606.00 Z" fill="#f3dcda" fill-rule="evenodd" group-id="3" node-id="73" stroke="none" target-height="12.399963" target-width="28.200012" target-x="484.7" target-y="602.7"></path></g><path d="M 607.80 764.50 L 608.20 776.90 L 609.40 789.10 L 611.90 802.50 L 614.70 811.20 L 618.40 818.80 L 620.70 821.90 L 623.20 824.60 L 627.30 827.90 L 632.10 831.10 L 637.50 834.20 L 649.40 839.50 L 656.00 842.00 L 666.20 845.30 L 677.00 848.20 L 688.00 850.80 L 699.00 853.00 L 720.30 856.60 L 739.40 859.10 L 754.70 860.80 L 756.00 861.40 L 785.70 864.60 L 814.90 870.20 L 826.10 872.90 L 836.60 875.90 L 844.40 878.50 L 851.80 881.50 L 858.90 884.80 L 865.70 888.40 L 872.30 892.40 L 878.60 896.90 L 884.70 901.90 L 890.50 907.30 L 895.90 913.20 L 901.20 919.70 L 906.30 926.90 L 911.30 934.90 L 915.70 943.00 L 920.00 952.00 L 924.20 962.00 L 928.30 973.10 L 931.90 984.00 L 935.30 996.00 L 938.70 1009.40 L 941.90 1024.00 L 75.90 1024.00 L 76.20 1011.90 L 77.00 1000.60 L 78.20 990.30 L 79.90 980.70 L 82.10 971.10 L 84.80 962.10 L 87.80 953.90 L 91.10 946.30 L 95.00 938.80 L 99.10 931.90 L 103.60 925.50 L 108.40 919.60 L 113.60 913.90 L 119.00 908.70 L 124.70 903.90 L 130.60 899.50 L 136.80 895.40 L 149.90 888.10 L 156.70 884.90 L 166.10 881.10 L 175.70 877.70 L 185.60 874.70 L 205.70 869.80 L 233.30 864.60 L 314.10 855.90 L 327.50 853.30 L 340.20 850.40 L 348.50 848.20 L 356.00 845.70 L 363.00 843.00 L 368.10 840.60 L 372.70 838.00 L 376.80 835.30 L 380.40 832.40 L 382.60 830.10 L 384.60 827.30 L 386.40 824.00 L 388.70 818.60 L 390.60 812.40 L 392.20 806.00 L 394.40 792.60 L 395.90 774.90 L 396.10 763.90 L 607.80 764.50 Z" fill="#5d887e" fill-rule="nonzero" node-id="76" stroke="none" target-height="260.09998" target-width="866" target-x="75.9" target-y="763.9"></path><path d="M 579.30 844.50 L 579.20 845.80 L 578.10 848.00 L 576.10 849.40 L 574.80 849.70 L 538.70 853.50 L 499.90 858.90 L 453.50 866.60 L 420.30 872.70 L 418.40 863.20 L 451.90 857.10 L 498.40 849.40 L 524.40 845.60 L 562.60 841.00 L 575.40 840.10 L 576.60 840.50 L 578.40 842.10 L 579.30 844.50 Z M 414.60 868.90 L 414.50 867.60 L 415.30 865.30 L 417.20 863.70 L 418.40 863.20 L 420.30 872.70 L 418.90 872.80 L 416.60 872.00 L 415.00 870.20 L 414.60 868.90 Z" fill="#324e47" fill-rule="evenodd" node-id="78" stroke="none" target-height="32.700012" target-width="164.79999" target-x="414.5" target-y="840.1"></path></svg>